%TF.GenerationSoftware,KiCad,Pcbnew,7.0.5*%
%TF.CreationDate,2024-01-23T10:43:06-05:00*%
%TF.ProjectId,PrawnDO_Breakout_Connectorized,50726177-6e44-44f5-9f42-7265616b6f75,rev?*%
%TF.SameCoordinates,Original*%
%TF.FileFunction,Drillmap*%
%TF.FilePolarity,Positive*%
%FSLAX45Y45*%
G04 Gerber Fmt 4.5, Leading zero omitted, Abs format (unit mm)*
G04 Created by KiCad (PCBNEW 7.0.5) date 2024-01-23 10:43:06*
%MOMM*%
%LPD*%
G01*
G04 APERTURE LIST*
%ADD10C,0.100000*%
%ADD11C,0.200000*%
%ADD12C,0.320000*%
G04 APERTURE END LIST*
D10*
X6790000Y-5420000D02*
X22230000Y-5420000D01*
X22230000Y-13830000D01*
X6790000Y-13830000D01*
X6790000Y-5420000D01*
D11*
D10*
X9314980Y-10803420D02*
X9414980Y-10903420D01*
X9414980Y-10803420D02*
X9314980Y-10903420D01*
X9314980Y-11057420D02*
X9414980Y-11157420D01*
X9414980Y-11057420D02*
X9314980Y-11157420D01*
X9314980Y-11311420D02*
X9414980Y-11411420D01*
X9414980Y-11311420D02*
X9314980Y-11411420D01*
D12*
X7640000Y-7088000D02*
G75*
G03*
X7640000Y-7088000I-160000J0D01*
G01*
X7640000Y-12561000D02*
G75*
G03*
X7640000Y-12561000I-160000J0D01*
G01*
X17324000Y-7356000D02*
G75*
G03*
X17324000Y-7356000I-160000J0D01*
G01*
X17948000Y-11692000D02*
G75*
G03*
X17948000Y-11692000I-160000J0D01*
G01*
X19477000Y-7356000D02*
G75*
G03*
X19477000Y-7356000I-160000J0D01*
G01*
X19695000Y-12363000D02*
G75*
G03*
X19695000Y-12363000I-160000J0D01*
G01*
D11*
X7045777Y-14146484D02*
X7045777Y-13946484D01*
X7045777Y-13946484D02*
X7093396Y-13946484D01*
X7093396Y-13946484D02*
X7121967Y-13956008D01*
X7121967Y-13956008D02*
X7141015Y-13975055D01*
X7141015Y-13975055D02*
X7150539Y-13994103D01*
X7150539Y-13994103D02*
X7160062Y-14032198D01*
X7160062Y-14032198D02*
X7160062Y-14060769D01*
X7160062Y-14060769D02*
X7150539Y-14098865D01*
X7150539Y-14098865D02*
X7141015Y-14117912D01*
X7141015Y-14117912D02*
X7121967Y-14136960D01*
X7121967Y-14136960D02*
X7093396Y-14146484D01*
X7093396Y-14146484D02*
X7045777Y-14146484D01*
X7245777Y-14146484D02*
X7245777Y-14013150D01*
X7245777Y-14051246D02*
X7255301Y-14032198D01*
X7255301Y-14032198D02*
X7264824Y-14022674D01*
X7264824Y-14022674D02*
X7283872Y-14013150D01*
X7283872Y-14013150D02*
X7302920Y-14013150D01*
X7369586Y-14146484D02*
X7369586Y-14013150D01*
X7369586Y-13946484D02*
X7360062Y-13956008D01*
X7360062Y-13956008D02*
X7369586Y-13965531D01*
X7369586Y-13965531D02*
X7379110Y-13956008D01*
X7379110Y-13956008D02*
X7369586Y-13946484D01*
X7369586Y-13946484D02*
X7369586Y-13965531D01*
X7493396Y-14146484D02*
X7474348Y-14136960D01*
X7474348Y-14136960D02*
X7464824Y-14117912D01*
X7464824Y-14117912D02*
X7464824Y-13946484D01*
X7598158Y-14146484D02*
X7579110Y-14136960D01*
X7579110Y-14136960D02*
X7569586Y-14117912D01*
X7569586Y-14117912D02*
X7569586Y-13946484D01*
X7826729Y-14146484D02*
X7826729Y-13946484D01*
X7826729Y-13946484D02*
X7893396Y-14089341D01*
X7893396Y-14089341D02*
X7960062Y-13946484D01*
X7960062Y-13946484D02*
X7960062Y-14146484D01*
X8141015Y-14146484D02*
X8141015Y-14041722D01*
X8141015Y-14041722D02*
X8131491Y-14022674D01*
X8131491Y-14022674D02*
X8112443Y-14013150D01*
X8112443Y-14013150D02*
X8074348Y-14013150D01*
X8074348Y-14013150D02*
X8055301Y-14022674D01*
X8141015Y-14136960D02*
X8121967Y-14146484D01*
X8121967Y-14146484D02*
X8074348Y-14146484D01*
X8074348Y-14146484D02*
X8055301Y-14136960D01*
X8055301Y-14136960D02*
X8045777Y-14117912D01*
X8045777Y-14117912D02*
X8045777Y-14098865D01*
X8045777Y-14098865D02*
X8055301Y-14079817D01*
X8055301Y-14079817D02*
X8074348Y-14070293D01*
X8074348Y-14070293D02*
X8121967Y-14070293D01*
X8121967Y-14070293D02*
X8141015Y-14060769D01*
X8236253Y-14013150D02*
X8236253Y-14213150D01*
X8236253Y-14022674D02*
X8255301Y-14013150D01*
X8255301Y-14013150D02*
X8293396Y-14013150D01*
X8293396Y-14013150D02*
X8312443Y-14022674D01*
X8312443Y-14022674D02*
X8321967Y-14032198D01*
X8321967Y-14032198D02*
X8331491Y-14051246D01*
X8331491Y-14051246D02*
X8331491Y-14108388D01*
X8331491Y-14108388D02*
X8321967Y-14127436D01*
X8321967Y-14127436D02*
X8312443Y-14136960D01*
X8312443Y-14136960D02*
X8293396Y-14146484D01*
X8293396Y-14146484D02*
X8255301Y-14146484D01*
X8255301Y-14146484D02*
X8236253Y-14136960D01*
X8417205Y-14127436D02*
X8426729Y-14136960D01*
X8426729Y-14136960D02*
X8417205Y-14146484D01*
X8417205Y-14146484D02*
X8407682Y-14136960D01*
X8407682Y-14136960D02*
X8417205Y-14127436D01*
X8417205Y-14127436D02*
X8417205Y-14146484D01*
X8417205Y-14022674D02*
X8426729Y-14032198D01*
X8426729Y-14032198D02*
X8417205Y-14041722D01*
X8417205Y-14041722D02*
X8407682Y-14032198D01*
X8407682Y-14032198D02*
X8417205Y-14022674D01*
X8417205Y-14022674D02*
X8417205Y-14041722D01*
D10*
X6685000Y-14425000D02*
X6785000Y-14525000D01*
X6785000Y-14425000D02*
X6685000Y-14525000D01*
D11*
X7150539Y-14566484D02*
X7036253Y-14566484D01*
X7093396Y-14566484D02*
X7093396Y-14366484D01*
X7093396Y-14366484D02*
X7074348Y-14395055D01*
X7074348Y-14395055D02*
X7055301Y-14414103D01*
X7055301Y-14414103D02*
X7036253Y-14423627D01*
X7236253Y-14547436D02*
X7245777Y-14556960D01*
X7245777Y-14556960D02*
X7236253Y-14566484D01*
X7236253Y-14566484D02*
X7226729Y-14556960D01*
X7226729Y-14556960D02*
X7236253Y-14547436D01*
X7236253Y-14547436D02*
X7236253Y-14566484D01*
X7369586Y-14366484D02*
X7388634Y-14366484D01*
X7388634Y-14366484D02*
X7407682Y-14376008D01*
X7407682Y-14376008D02*
X7417205Y-14385531D01*
X7417205Y-14385531D02*
X7426729Y-14404579D01*
X7426729Y-14404579D02*
X7436253Y-14442674D01*
X7436253Y-14442674D02*
X7436253Y-14490293D01*
X7436253Y-14490293D02*
X7426729Y-14528388D01*
X7426729Y-14528388D02*
X7417205Y-14547436D01*
X7417205Y-14547436D02*
X7407682Y-14556960D01*
X7407682Y-14556960D02*
X7388634Y-14566484D01*
X7388634Y-14566484D02*
X7369586Y-14566484D01*
X7369586Y-14566484D02*
X7350539Y-14556960D01*
X7350539Y-14556960D02*
X7341015Y-14547436D01*
X7341015Y-14547436D02*
X7331491Y-14528388D01*
X7331491Y-14528388D02*
X7321967Y-14490293D01*
X7321967Y-14490293D02*
X7321967Y-14442674D01*
X7321967Y-14442674D02*
X7331491Y-14404579D01*
X7331491Y-14404579D02*
X7341015Y-14385531D01*
X7341015Y-14385531D02*
X7350539Y-14376008D01*
X7350539Y-14376008D02*
X7369586Y-14366484D01*
X7560062Y-14366484D02*
X7579110Y-14366484D01*
X7579110Y-14366484D02*
X7598158Y-14376008D01*
X7598158Y-14376008D02*
X7607682Y-14385531D01*
X7607682Y-14385531D02*
X7617205Y-14404579D01*
X7617205Y-14404579D02*
X7626729Y-14442674D01*
X7626729Y-14442674D02*
X7626729Y-14490293D01*
X7626729Y-14490293D02*
X7617205Y-14528388D01*
X7617205Y-14528388D02*
X7607682Y-14547436D01*
X7607682Y-14547436D02*
X7598158Y-14556960D01*
X7598158Y-14556960D02*
X7579110Y-14566484D01*
X7579110Y-14566484D02*
X7560062Y-14566484D01*
X7560062Y-14566484D02*
X7541015Y-14556960D01*
X7541015Y-14556960D02*
X7531491Y-14547436D01*
X7531491Y-14547436D02*
X7521967Y-14528388D01*
X7521967Y-14528388D02*
X7512443Y-14490293D01*
X7512443Y-14490293D02*
X7512443Y-14442674D01*
X7512443Y-14442674D02*
X7521967Y-14404579D01*
X7521967Y-14404579D02*
X7531491Y-14385531D01*
X7531491Y-14385531D02*
X7541015Y-14376008D01*
X7541015Y-14376008D02*
X7560062Y-14366484D01*
X7750539Y-14366484D02*
X7769586Y-14366484D01*
X7769586Y-14366484D02*
X7788634Y-14376008D01*
X7788634Y-14376008D02*
X7798158Y-14385531D01*
X7798158Y-14385531D02*
X7807682Y-14404579D01*
X7807682Y-14404579D02*
X7817205Y-14442674D01*
X7817205Y-14442674D02*
X7817205Y-14490293D01*
X7817205Y-14490293D02*
X7807682Y-14528388D01*
X7807682Y-14528388D02*
X7798158Y-14547436D01*
X7798158Y-14547436D02*
X7788634Y-14556960D01*
X7788634Y-14556960D02*
X7769586Y-14566484D01*
X7769586Y-14566484D02*
X7750539Y-14566484D01*
X7750539Y-14566484D02*
X7731491Y-14556960D01*
X7731491Y-14556960D02*
X7721967Y-14547436D01*
X7721967Y-14547436D02*
X7712443Y-14528388D01*
X7712443Y-14528388D02*
X7702920Y-14490293D01*
X7702920Y-14490293D02*
X7702920Y-14442674D01*
X7702920Y-14442674D02*
X7712443Y-14404579D01*
X7712443Y-14404579D02*
X7721967Y-14385531D01*
X7721967Y-14385531D02*
X7731491Y-14376008D01*
X7731491Y-14376008D02*
X7750539Y-14366484D01*
X7902920Y-14566484D02*
X7902920Y-14433150D01*
X7902920Y-14452198D02*
X7912443Y-14442674D01*
X7912443Y-14442674D02*
X7931491Y-14433150D01*
X7931491Y-14433150D02*
X7960063Y-14433150D01*
X7960063Y-14433150D02*
X7979110Y-14442674D01*
X7979110Y-14442674D02*
X7988634Y-14461722D01*
X7988634Y-14461722D02*
X7988634Y-14566484D01*
X7988634Y-14461722D02*
X7998158Y-14442674D01*
X7998158Y-14442674D02*
X8017205Y-14433150D01*
X8017205Y-14433150D02*
X8045777Y-14433150D01*
X8045777Y-14433150D02*
X8064824Y-14442674D01*
X8064824Y-14442674D02*
X8074348Y-14461722D01*
X8074348Y-14461722D02*
X8074348Y-14566484D01*
X8169586Y-14566484D02*
X8169586Y-14433150D01*
X8169586Y-14452198D02*
X8179110Y-14442674D01*
X8179110Y-14442674D02*
X8198158Y-14433150D01*
X8198158Y-14433150D02*
X8226729Y-14433150D01*
X8226729Y-14433150D02*
X8245777Y-14442674D01*
X8245777Y-14442674D02*
X8255301Y-14461722D01*
X8255301Y-14461722D02*
X8255301Y-14566484D01*
X8255301Y-14461722D02*
X8264824Y-14442674D01*
X8264824Y-14442674D02*
X8283872Y-14433150D01*
X8283872Y-14433150D02*
X8312443Y-14433150D01*
X8312443Y-14433150D02*
X8331491Y-14442674D01*
X8331491Y-14442674D02*
X8341015Y-14461722D01*
X8341015Y-14461722D02*
X8341015Y-14566484D01*
X8731491Y-14356960D02*
X8560063Y-14614103D01*
X8988634Y-14366484D02*
X9007682Y-14366484D01*
X9007682Y-14366484D02*
X9026729Y-14376008D01*
X9026729Y-14376008D02*
X9036253Y-14385531D01*
X9036253Y-14385531D02*
X9045777Y-14404579D01*
X9045777Y-14404579D02*
X9055301Y-14442674D01*
X9055301Y-14442674D02*
X9055301Y-14490293D01*
X9055301Y-14490293D02*
X9045777Y-14528388D01*
X9045777Y-14528388D02*
X9036253Y-14547436D01*
X9036253Y-14547436D02*
X9026729Y-14556960D01*
X9026729Y-14556960D02*
X9007682Y-14566484D01*
X9007682Y-14566484D02*
X8988634Y-14566484D01*
X8988634Y-14566484D02*
X8969587Y-14556960D01*
X8969587Y-14556960D02*
X8960063Y-14547436D01*
X8960063Y-14547436D02*
X8950539Y-14528388D01*
X8950539Y-14528388D02*
X8941015Y-14490293D01*
X8941015Y-14490293D02*
X8941015Y-14442674D01*
X8941015Y-14442674D02*
X8950539Y-14404579D01*
X8950539Y-14404579D02*
X8960063Y-14385531D01*
X8960063Y-14385531D02*
X8969587Y-14376008D01*
X8969587Y-14376008D02*
X8988634Y-14366484D01*
X9141015Y-14547436D02*
X9150539Y-14556960D01*
X9150539Y-14556960D02*
X9141015Y-14566484D01*
X9141015Y-14566484D02*
X9131491Y-14556960D01*
X9131491Y-14556960D02*
X9141015Y-14547436D01*
X9141015Y-14547436D02*
X9141015Y-14566484D01*
X9274348Y-14366484D02*
X9293396Y-14366484D01*
X9293396Y-14366484D02*
X9312444Y-14376008D01*
X9312444Y-14376008D02*
X9321968Y-14385531D01*
X9321968Y-14385531D02*
X9331491Y-14404579D01*
X9331491Y-14404579D02*
X9341015Y-14442674D01*
X9341015Y-14442674D02*
X9341015Y-14490293D01*
X9341015Y-14490293D02*
X9331491Y-14528388D01*
X9331491Y-14528388D02*
X9321968Y-14547436D01*
X9321968Y-14547436D02*
X9312444Y-14556960D01*
X9312444Y-14556960D02*
X9293396Y-14566484D01*
X9293396Y-14566484D02*
X9274348Y-14566484D01*
X9274348Y-14566484D02*
X9255301Y-14556960D01*
X9255301Y-14556960D02*
X9245777Y-14547436D01*
X9245777Y-14547436D02*
X9236253Y-14528388D01*
X9236253Y-14528388D02*
X9226729Y-14490293D01*
X9226729Y-14490293D02*
X9226729Y-14442674D01*
X9226729Y-14442674D02*
X9236253Y-14404579D01*
X9236253Y-14404579D02*
X9245777Y-14385531D01*
X9245777Y-14385531D02*
X9255301Y-14376008D01*
X9255301Y-14376008D02*
X9274348Y-14366484D01*
X9407682Y-14366484D02*
X9531491Y-14366484D01*
X9531491Y-14366484D02*
X9464825Y-14442674D01*
X9464825Y-14442674D02*
X9493396Y-14442674D01*
X9493396Y-14442674D02*
X9512444Y-14452198D01*
X9512444Y-14452198D02*
X9521968Y-14461722D01*
X9521968Y-14461722D02*
X9531491Y-14480769D01*
X9531491Y-14480769D02*
X9531491Y-14528388D01*
X9531491Y-14528388D02*
X9521968Y-14547436D01*
X9521968Y-14547436D02*
X9512444Y-14556960D01*
X9512444Y-14556960D02*
X9493396Y-14566484D01*
X9493396Y-14566484D02*
X9436253Y-14566484D01*
X9436253Y-14566484D02*
X9417206Y-14556960D01*
X9417206Y-14556960D02*
X9407682Y-14547436D01*
X9626729Y-14566484D02*
X9664825Y-14566484D01*
X9664825Y-14566484D02*
X9683872Y-14556960D01*
X9683872Y-14556960D02*
X9693396Y-14547436D01*
X9693396Y-14547436D02*
X9712444Y-14518865D01*
X9712444Y-14518865D02*
X9721968Y-14480769D01*
X9721968Y-14480769D02*
X9721968Y-14404579D01*
X9721968Y-14404579D02*
X9712444Y-14385531D01*
X9712444Y-14385531D02*
X9702920Y-14376008D01*
X9702920Y-14376008D02*
X9683872Y-14366484D01*
X9683872Y-14366484D02*
X9645777Y-14366484D01*
X9645777Y-14366484D02*
X9626729Y-14376008D01*
X9626729Y-14376008D02*
X9617206Y-14385531D01*
X9617206Y-14385531D02*
X9607682Y-14404579D01*
X9607682Y-14404579D02*
X9607682Y-14452198D01*
X9607682Y-14452198D02*
X9617206Y-14471246D01*
X9617206Y-14471246D02*
X9626729Y-14480769D01*
X9626729Y-14480769D02*
X9645777Y-14490293D01*
X9645777Y-14490293D02*
X9683872Y-14490293D01*
X9683872Y-14490293D02*
X9702920Y-14480769D01*
X9702920Y-14480769D02*
X9712444Y-14471246D01*
X9712444Y-14471246D02*
X9721968Y-14452198D01*
X9893396Y-14433150D02*
X9893396Y-14566484D01*
X9845777Y-14356960D02*
X9798158Y-14499817D01*
X9798158Y-14499817D02*
X9921968Y-14499817D01*
X9988634Y-14366484D02*
X9988634Y-14404579D01*
X10064825Y-14366484D02*
X10064825Y-14404579D01*
X10360063Y-14642674D02*
X10350539Y-14633150D01*
X10350539Y-14633150D02*
X10331491Y-14604579D01*
X10331491Y-14604579D02*
X10321968Y-14585531D01*
X10321968Y-14585531D02*
X10312444Y-14556960D01*
X10312444Y-14556960D02*
X10302920Y-14509341D01*
X10302920Y-14509341D02*
X10302920Y-14471246D01*
X10302920Y-14471246D02*
X10312444Y-14423627D01*
X10312444Y-14423627D02*
X10321968Y-14395055D01*
X10321968Y-14395055D02*
X10331491Y-14376008D01*
X10331491Y-14376008D02*
X10350539Y-14347436D01*
X10350539Y-14347436D02*
X10360063Y-14337912D01*
X10417206Y-14366484D02*
X10541015Y-14366484D01*
X10541015Y-14366484D02*
X10474349Y-14442674D01*
X10474349Y-14442674D02*
X10502920Y-14442674D01*
X10502920Y-14442674D02*
X10521968Y-14452198D01*
X10521968Y-14452198D02*
X10531491Y-14461722D01*
X10531491Y-14461722D02*
X10541015Y-14480769D01*
X10541015Y-14480769D02*
X10541015Y-14528388D01*
X10541015Y-14528388D02*
X10531491Y-14547436D01*
X10531491Y-14547436D02*
X10521968Y-14556960D01*
X10521968Y-14556960D02*
X10502920Y-14566484D01*
X10502920Y-14566484D02*
X10445777Y-14566484D01*
X10445777Y-14566484D02*
X10426730Y-14556960D01*
X10426730Y-14556960D02*
X10417206Y-14547436D01*
X10779111Y-14566484D02*
X10779111Y-14366484D01*
X10864825Y-14566484D02*
X10864825Y-14461722D01*
X10864825Y-14461722D02*
X10855301Y-14442674D01*
X10855301Y-14442674D02*
X10836253Y-14433150D01*
X10836253Y-14433150D02*
X10807682Y-14433150D01*
X10807682Y-14433150D02*
X10788634Y-14442674D01*
X10788634Y-14442674D02*
X10779111Y-14452198D01*
X10988634Y-14566484D02*
X10969587Y-14556960D01*
X10969587Y-14556960D02*
X10960063Y-14547436D01*
X10960063Y-14547436D02*
X10950539Y-14528388D01*
X10950539Y-14528388D02*
X10950539Y-14471246D01*
X10950539Y-14471246D02*
X10960063Y-14452198D01*
X10960063Y-14452198D02*
X10969587Y-14442674D01*
X10969587Y-14442674D02*
X10988634Y-14433150D01*
X10988634Y-14433150D02*
X11017206Y-14433150D01*
X11017206Y-14433150D02*
X11036253Y-14442674D01*
X11036253Y-14442674D02*
X11045777Y-14452198D01*
X11045777Y-14452198D02*
X11055301Y-14471246D01*
X11055301Y-14471246D02*
X11055301Y-14528388D01*
X11055301Y-14528388D02*
X11045777Y-14547436D01*
X11045777Y-14547436D02*
X11036253Y-14556960D01*
X11036253Y-14556960D02*
X11017206Y-14566484D01*
X11017206Y-14566484D02*
X10988634Y-14566484D01*
X11169587Y-14566484D02*
X11150539Y-14556960D01*
X11150539Y-14556960D02*
X11141015Y-14537912D01*
X11141015Y-14537912D02*
X11141015Y-14366484D01*
X11321968Y-14556960D02*
X11302920Y-14566484D01*
X11302920Y-14566484D02*
X11264825Y-14566484D01*
X11264825Y-14566484D02*
X11245777Y-14556960D01*
X11245777Y-14556960D02*
X11236253Y-14537912D01*
X11236253Y-14537912D02*
X11236253Y-14461722D01*
X11236253Y-14461722D02*
X11245777Y-14442674D01*
X11245777Y-14442674D02*
X11264825Y-14433150D01*
X11264825Y-14433150D02*
X11302920Y-14433150D01*
X11302920Y-14433150D02*
X11321968Y-14442674D01*
X11321968Y-14442674D02*
X11331491Y-14461722D01*
X11331491Y-14461722D02*
X11331491Y-14480769D01*
X11331491Y-14480769D02*
X11236253Y-14499817D01*
X11407682Y-14556960D02*
X11426730Y-14566484D01*
X11426730Y-14566484D02*
X11464825Y-14566484D01*
X11464825Y-14566484D02*
X11483872Y-14556960D01*
X11483872Y-14556960D02*
X11493396Y-14537912D01*
X11493396Y-14537912D02*
X11493396Y-14528388D01*
X11493396Y-14528388D02*
X11483872Y-14509341D01*
X11483872Y-14509341D02*
X11464825Y-14499817D01*
X11464825Y-14499817D02*
X11436253Y-14499817D01*
X11436253Y-14499817D02*
X11417206Y-14490293D01*
X11417206Y-14490293D02*
X11407682Y-14471246D01*
X11407682Y-14471246D02*
X11407682Y-14461722D01*
X11407682Y-14461722D02*
X11417206Y-14442674D01*
X11417206Y-14442674D02*
X11436253Y-14433150D01*
X11436253Y-14433150D02*
X11464825Y-14433150D01*
X11464825Y-14433150D02*
X11483872Y-14442674D01*
X11560063Y-14642674D02*
X11569587Y-14633150D01*
X11569587Y-14633150D02*
X11588634Y-14604579D01*
X11588634Y-14604579D02*
X11598158Y-14585531D01*
X11598158Y-14585531D02*
X11607682Y-14556960D01*
X11607682Y-14556960D02*
X11617206Y-14509341D01*
X11617206Y-14509341D02*
X11617206Y-14471246D01*
X11617206Y-14471246D02*
X11607682Y-14423627D01*
X11607682Y-14423627D02*
X11598158Y-14395055D01*
X11598158Y-14395055D02*
X11588634Y-14376008D01*
X11588634Y-14376008D02*
X11569587Y-14347436D01*
X11569587Y-14347436D02*
X11560063Y-14337912D01*
X6785000Y-14739000D02*
G75*
G03*
X6785000Y-14739000I-100000J0D01*
G01*
X7026729Y-14630484D02*
X7150539Y-14630484D01*
X7150539Y-14630484D02*
X7083872Y-14706674D01*
X7083872Y-14706674D02*
X7112443Y-14706674D01*
X7112443Y-14706674D02*
X7131491Y-14716198D01*
X7131491Y-14716198D02*
X7141015Y-14725722D01*
X7141015Y-14725722D02*
X7150539Y-14744769D01*
X7150539Y-14744769D02*
X7150539Y-14792388D01*
X7150539Y-14792388D02*
X7141015Y-14811436D01*
X7141015Y-14811436D02*
X7131491Y-14820960D01*
X7131491Y-14820960D02*
X7112443Y-14830484D01*
X7112443Y-14830484D02*
X7055301Y-14830484D01*
X7055301Y-14830484D02*
X7036253Y-14820960D01*
X7036253Y-14820960D02*
X7026729Y-14811436D01*
X7236253Y-14811436D02*
X7245777Y-14820960D01*
X7245777Y-14820960D02*
X7236253Y-14830484D01*
X7236253Y-14830484D02*
X7226729Y-14820960D01*
X7226729Y-14820960D02*
X7236253Y-14811436D01*
X7236253Y-14811436D02*
X7236253Y-14830484D01*
X7321967Y-14649531D02*
X7331491Y-14640008D01*
X7331491Y-14640008D02*
X7350539Y-14630484D01*
X7350539Y-14630484D02*
X7398158Y-14630484D01*
X7398158Y-14630484D02*
X7417205Y-14640008D01*
X7417205Y-14640008D02*
X7426729Y-14649531D01*
X7426729Y-14649531D02*
X7436253Y-14668579D01*
X7436253Y-14668579D02*
X7436253Y-14687627D01*
X7436253Y-14687627D02*
X7426729Y-14716198D01*
X7426729Y-14716198D02*
X7312443Y-14830484D01*
X7312443Y-14830484D02*
X7436253Y-14830484D01*
X7560062Y-14630484D02*
X7579110Y-14630484D01*
X7579110Y-14630484D02*
X7598158Y-14640008D01*
X7598158Y-14640008D02*
X7607682Y-14649531D01*
X7607682Y-14649531D02*
X7617205Y-14668579D01*
X7617205Y-14668579D02*
X7626729Y-14706674D01*
X7626729Y-14706674D02*
X7626729Y-14754293D01*
X7626729Y-14754293D02*
X7617205Y-14792388D01*
X7617205Y-14792388D02*
X7607682Y-14811436D01*
X7607682Y-14811436D02*
X7598158Y-14820960D01*
X7598158Y-14820960D02*
X7579110Y-14830484D01*
X7579110Y-14830484D02*
X7560062Y-14830484D01*
X7560062Y-14830484D02*
X7541015Y-14820960D01*
X7541015Y-14820960D02*
X7531491Y-14811436D01*
X7531491Y-14811436D02*
X7521967Y-14792388D01*
X7521967Y-14792388D02*
X7512443Y-14754293D01*
X7512443Y-14754293D02*
X7512443Y-14706674D01*
X7512443Y-14706674D02*
X7521967Y-14668579D01*
X7521967Y-14668579D02*
X7531491Y-14649531D01*
X7531491Y-14649531D02*
X7541015Y-14640008D01*
X7541015Y-14640008D02*
X7560062Y-14630484D01*
X7750539Y-14630484D02*
X7769586Y-14630484D01*
X7769586Y-14630484D02*
X7788634Y-14640008D01*
X7788634Y-14640008D02*
X7798158Y-14649531D01*
X7798158Y-14649531D02*
X7807682Y-14668579D01*
X7807682Y-14668579D02*
X7817205Y-14706674D01*
X7817205Y-14706674D02*
X7817205Y-14754293D01*
X7817205Y-14754293D02*
X7807682Y-14792388D01*
X7807682Y-14792388D02*
X7798158Y-14811436D01*
X7798158Y-14811436D02*
X7788634Y-14820960D01*
X7788634Y-14820960D02*
X7769586Y-14830484D01*
X7769586Y-14830484D02*
X7750539Y-14830484D01*
X7750539Y-14830484D02*
X7731491Y-14820960D01*
X7731491Y-14820960D02*
X7721967Y-14811436D01*
X7721967Y-14811436D02*
X7712443Y-14792388D01*
X7712443Y-14792388D02*
X7702920Y-14754293D01*
X7702920Y-14754293D02*
X7702920Y-14706674D01*
X7702920Y-14706674D02*
X7712443Y-14668579D01*
X7712443Y-14668579D02*
X7721967Y-14649531D01*
X7721967Y-14649531D02*
X7731491Y-14640008D01*
X7731491Y-14640008D02*
X7750539Y-14630484D01*
X7902920Y-14830484D02*
X7902920Y-14697150D01*
X7902920Y-14716198D02*
X7912443Y-14706674D01*
X7912443Y-14706674D02*
X7931491Y-14697150D01*
X7931491Y-14697150D02*
X7960063Y-14697150D01*
X7960063Y-14697150D02*
X7979110Y-14706674D01*
X7979110Y-14706674D02*
X7988634Y-14725722D01*
X7988634Y-14725722D02*
X7988634Y-14830484D01*
X7988634Y-14725722D02*
X7998158Y-14706674D01*
X7998158Y-14706674D02*
X8017205Y-14697150D01*
X8017205Y-14697150D02*
X8045777Y-14697150D01*
X8045777Y-14697150D02*
X8064824Y-14706674D01*
X8064824Y-14706674D02*
X8074348Y-14725722D01*
X8074348Y-14725722D02*
X8074348Y-14830484D01*
X8169586Y-14830484D02*
X8169586Y-14697150D01*
X8169586Y-14716198D02*
X8179110Y-14706674D01*
X8179110Y-14706674D02*
X8198158Y-14697150D01*
X8198158Y-14697150D02*
X8226729Y-14697150D01*
X8226729Y-14697150D02*
X8245777Y-14706674D01*
X8245777Y-14706674D02*
X8255301Y-14725722D01*
X8255301Y-14725722D02*
X8255301Y-14830484D01*
X8255301Y-14725722D02*
X8264824Y-14706674D01*
X8264824Y-14706674D02*
X8283872Y-14697150D01*
X8283872Y-14697150D02*
X8312443Y-14697150D01*
X8312443Y-14697150D02*
X8331491Y-14706674D01*
X8331491Y-14706674D02*
X8341015Y-14725722D01*
X8341015Y-14725722D02*
X8341015Y-14830484D01*
X8731491Y-14620960D02*
X8560063Y-14878103D01*
X8988634Y-14630484D02*
X9007682Y-14630484D01*
X9007682Y-14630484D02*
X9026729Y-14640008D01*
X9026729Y-14640008D02*
X9036253Y-14649531D01*
X9036253Y-14649531D02*
X9045777Y-14668579D01*
X9045777Y-14668579D02*
X9055301Y-14706674D01*
X9055301Y-14706674D02*
X9055301Y-14754293D01*
X9055301Y-14754293D02*
X9045777Y-14792388D01*
X9045777Y-14792388D02*
X9036253Y-14811436D01*
X9036253Y-14811436D02*
X9026729Y-14820960D01*
X9026729Y-14820960D02*
X9007682Y-14830484D01*
X9007682Y-14830484D02*
X8988634Y-14830484D01*
X8988634Y-14830484D02*
X8969587Y-14820960D01*
X8969587Y-14820960D02*
X8960063Y-14811436D01*
X8960063Y-14811436D02*
X8950539Y-14792388D01*
X8950539Y-14792388D02*
X8941015Y-14754293D01*
X8941015Y-14754293D02*
X8941015Y-14706674D01*
X8941015Y-14706674D02*
X8950539Y-14668579D01*
X8950539Y-14668579D02*
X8960063Y-14649531D01*
X8960063Y-14649531D02*
X8969587Y-14640008D01*
X8969587Y-14640008D02*
X8988634Y-14630484D01*
X9141015Y-14811436D02*
X9150539Y-14820960D01*
X9150539Y-14820960D02*
X9141015Y-14830484D01*
X9141015Y-14830484D02*
X9131491Y-14820960D01*
X9131491Y-14820960D02*
X9141015Y-14811436D01*
X9141015Y-14811436D02*
X9141015Y-14830484D01*
X9341015Y-14830484D02*
X9226729Y-14830484D01*
X9283872Y-14830484D02*
X9283872Y-14630484D01*
X9283872Y-14630484D02*
X9264825Y-14659055D01*
X9264825Y-14659055D02*
X9245777Y-14678103D01*
X9245777Y-14678103D02*
X9226729Y-14687627D01*
X9417206Y-14649531D02*
X9426729Y-14640008D01*
X9426729Y-14640008D02*
X9445777Y-14630484D01*
X9445777Y-14630484D02*
X9493396Y-14630484D01*
X9493396Y-14630484D02*
X9512444Y-14640008D01*
X9512444Y-14640008D02*
X9521968Y-14649531D01*
X9521968Y-14649531D02*
X9531491Y-14668579D01*
X9531491Y-14668579D02*
X9531491Y-14687627D01*
X9531491Y-14687627D02*
X9521968Y-14716198D01*
X9521968Y-14716198D02*
X9407682Y-14830484D01*
X9407682Y-14830484D02*
X9531491Y-14830484D01*
X9702920Y-14630484D02*
X9664825Y-14630484D01*
X9664825Y-14630484D02*
X9645777Y-14640008D01*
X9645777Y-14640008D02*
X9636253Y-14649531D01*
X9636253Y-14649531D02*
X9617206Y-14678103D01*
X9617206Y-14678103D02*
X9607682Y-14716198D01*
X9607682Y-14716198D02*
X9607682Y-14792388D01*
X9607682Y-14792388D02*
X9617206Y-14811436D01*
X9617206Y-14811436D02*
X9626729Y-14820960D01*
X9626729Y-14820960D02*
X9645777Y-14830484D01*
X9645777Y-14830484D02*
X9683872Y-14830484D01*
X9683872Y-14830484D02*
X9702920Y-14820960D01*
X9702920Y-14820960D02*
X9712444Y-14811436D01*
X9712444Y-14811436D02*
X9721968Y-14792388D01*
X9721968Y-14792388D02*
X9721968Y-14744769D01*
X9721968Y-14744769D02*
X9712444Y-14725722D01*
X9712444Y-14725722D02*
X9702920Y-14716198D01*
X9702920Y-14716198D02*
X9683872Y-14706674D01*
X9683872Y-14706674D02*
X9645777Y-14706674D01*
X9645777Y-14706674D02*
X9626729Y-14716198D01*
X9626729Y-14716198D02*
X9617206Y-14725722D01*
X9617206Y-14725722D02*
X9607682Y-14744769D01*
X9845777Y-14630484D02*
X9864825Y-14630484D01*
X9864825Y-14630484D02*
X9883872Y-14640008D01*
X9883872Y-14640008D02*
X9893396Y-14649531D01*
X9893396Y-14649531D02*
X9902920Y-14668579D01*
X9902920Y-14668579D02*
X9912444Y-14706674D01*
X9912444Y-14706674D02*
X9912444Y-14754293D01*
X9912444Y-14754293D02*
X9902920Y-14792388D01*
X9902920Y-14792388D02*
X9893396Y-14811436D01*
X9893396Y-14811436D02*
X9883872Y-14820960D01*
X9883872Y-14820960D02*
X9864825Y-14830484D01*
X9864825Y-14830484D02*
X9845777Y-14830484D01*
X9845777Y-14830484D02*
X9826729Y-14820960D01*
X9826729Y-14820960D02*
X9817206Y-14811436D01*
X9817206Y-14811436D02*
X9807682Y-14792388D01*
X9807682Y-14792388D02*
X9798158Y-14754293D01*
X9798158Y-14754293D02*
X9798158Y-14706674D01*
X9798158Y-14706674D02*
X9807682Y-14668579D01*
X9807682Y-14668579D02*
X9817206Y-14649531D01*
X9817206Y-14649531D02*
X9826729Y-14640008D01*
X9826729Y-14640008D02*
X9845777Y-14630484D01*
X9988634Y-14630484D02*
X9988634Y-14668579D01*
X10064825Y-14630484D02*
X10064825Y-14668579D01*
X10360063Y-14906674D02*
X10350539Y-14897150D01*
X10350539Y-14897150D02*
X10331491Y-14868579D01*
X10331491Y-14868579D02*
X10321968Y-14849531D01*
X10321968Y-14849531D02*
X10312444Y-14820960D01*
X10312444Y-14820960D02*
X10302920Y-14773341D01*
X10302920Y-14773341D02*
X10302920Y-14735246D01*
X10302920Y-14735246D02*
X10312444Y-14687627D01*
X10312444Y-14687627D02*
X10321968Y-14659055D01*
X10321968Y-14659055D02*
X10331491Y-14640008D01*
X10331491Y-14640008D02*
X10350539Y-14611436D01*
X10350539Y-14611436D02*
X10360063Y-14601912D01*
X10521968Y-14630484D02*
X10483872Y-14630484D01*
X10483872Y-14630484D02*
X10464825Y-14640008D01*
X10464825Y-14640008D02*
X10455301Y-14649531D01*
X10455301Y-14649531D02*
X10436253Y-14678103D01*
X10436253Y-14678103D02*
X10426730Y-14716198D01*
X10426730Y-14716198D02*
X10426730Y-14792388D01*
X10426730Y-14792388D02*
X10436253Y-14811436D01*
X10436253Y-14811436D02*
X10445777Y-14820960D01*
X10445777Y-14820960D02*
X10464825Y-14830484D01*
X10464825Y-14830484D02*
X10502920Y-14830484D01*
X10502920Y-14830484D02*
X10521968Y-14820960D01*
X10521968Y-14820960D02*
X10531491Y-14811436D01*
X10531491Y-14811436D02*
X10541015Y-14792388D01*
X10541015Y-14792388D02*
X10541015Y-14744769D01*
X10541015Y-14744769D02*
X10531491Y-14725722D01*
X10531491Y-14725722D02*
X10521968Y-14716198D01*
X10521968Y-14716198D02*
X10502920Y-14706674D01*
X10502920Y-14706674D02*
X10464825Y-14706674D01*
X10464825Y-14706674D02*
X10445777Y-14716198D01*
X10445777Y-14716198D02*
X10436253Y-14725722D01*
X10436253Y-14725722D02*
X10426730Y-14744769D01*
X10779111Y-14830484D02*
X10779111Y-14630484D01*
X10864825Y-14830484D02*
X10864825Y-14725722D01*
X10864825Y-14725722D02*
X10855301Y-14706674D01*
X10855301Y-14706674D02*
X10836253Y-14697150D01*
X10836253Y-14697150D02*
X10807682Y-14697150D01*
X10807682Y-14697150D02*
X10788634Y-14706674D01*
X10788634Y-14706674D02*
X10779111Y-14716198D01*
X10988634Y-14830484D02*
X10969587Y-14820960D01*
X10969587Y-14820960D02*
X10960063Y-14811436D01*
X10960063Y-14811436D02*
X10950539Y-14792388D01*
X10950539Y-14792388D02*
X10950539Y-14735246D01*
X10950539Y-14735246D02*
X10960063Y-14716198D01*
X10960063Y-14716198D02*
X10969587Y-14706674D01*
X10969587Y-14706674D02*
X10988634Y-14697150D01*
X10988634Y-14697150D02*
X11017206Y-14697150D01*
X11017206Y-14697150D02*
X11036253Y-14706674D01*
X11036253Y-14706674D02*
X11045777Y-14716198D01*
X11045777Y-14716198D02*
X11055301Y-14735246D01*
X11055301Y-14735246D02*
X11055301Y-14792388D01*
X11055301Y-14792388D02*
X11045777Y-14811436D01*
X11045777Y-14811436D02*
X11036253Y-14820960D01*
X11036253Y-14820960D02*
X11017206Y-14830484D01*
X11017206Y-14830484D02*
X10988634Y-14830484D01*
X11169587Y-14830484D02*
X11150539Y-14820960D01*
X11150539Y-14820960D02*
X11141015Y-14801912D01*
X11141015Y-14801912D02*
X11141015Y-14630484D01*
X11321968Y-14820960D02*
X11302920Y-14830484D01*
X11302920Y-14830484D02*
X11264825Y-14830484D01*
X11264825Y-14830484D02*
X11245777Y-14820960D01*
X11245777Y-14820960D02*
X11236253Y-14801912D01*
X11236253Y-14801912D02*
X11236253Y-14725722D01*
X11236253Y-14725722D02*
X11245777Y-14706674D01*
X11245777Y-14706674D02*
X11264825Y-14697150D01*
X11264825Y-14697150D02*
X11302920Y-14697150D01*
X11302920Y-14697150D02*
X11321968Y-14706674D01*
X11321968Y-14706674D02*
X11331491Y-14725722D01*
X11331491Y-14725722D02*
X11331491Y-14744769D01*
X11331491Y-14744769D02*
X11236253Y-14763817D01*
X11407682Y-14820960D02*
X11426730Y-14830484D01*
X11426730Y-14830484D02*
X11464825Y-14830484D01*
X11464825Y-14830484D02*
X11483872Y-14820960D01*
X11483872Y-14820960D02*
X11493396Y-14801912D01*
X11493396Y-14801912D02*
X11493396Y-14792388D01*
X11493396Y-14792388D02*
X11483872Y-14773341D01*
X11483872Y-14773341D02*
X11464825Y-14763817D01*
X11464825Y-14763817D02*
X11436253Y-14763817D01*
X11436253Y-14763817D02*
X11417206Y-14754293D01*
X11417206Y-14754293D02*
X11407682Y-14735246D01*
X11407682Y-14735246D02*
X11407682Y-14725722D01*
X11407682Y-14725722D02*
X11417206Y-14706674D01*
X11417206Y-14706674D02*
X11436253Y-14697150D01*
X11436253Y-14697150D02*
X11464825Y-14697150D01*
X11464825Y-14697150D02*
X11483872Y-14706674D01*
X11560063Y-14906674D02*
X11569587Y-14897150D01*
X11569587Y-14897150D02*
X11588634Y-14868579D01*
X11588634Y-14868579D02*
X11598158Y-14849531D01*
X11598158Y-14849531D02*
X11607682Y-14820960D01*
X11607682Y-14820960D02*
X11617206Y-14773341D01*
X11617206Y-14773341D02*
X11617206Y-14735246D01*
X11617206Y-14735246D02*
X11607682Y-14687627D01*
X11607682Y-14687627D02*
X11598158Y-14659055D01*
X11598158Y-14659055D02*
X11588634Y-14640008D01*
X11588634Y-14640008D02*
X11569587Y-14611436D01*
X11569587Y-14611436D02*
X11560063Y-14601912D01*
X11921968Y-14906674D02*
X11912444Y-14897150D01*
X11912444Y-14897150D02*
X11893396Y-14868579D01*
X11893396Y-14868579D02*
X11883872Y-14849531D01*
X11883872Y-14849531D02*
X11874349Y-14820960D01*
X11874349Y-14820960D02*
X11864825Y-14773341D01*
X11864825Y-14773341D02*
X11864825Y-14735246D01*
X11864825Y-14735246D02*
X11874349Y-14687627D01*
X11874349Y-14687627D02*
X11883872Y-14659055D01*
X11883872Y-14659055D02*
X11893396Y-14640008D01*
X11893396Y-14640008D02*
X11912444Y-14611436D01*
X11912444Y-14611436D02*
X11921968Y-14601912D01*
X11998158Y-14697150D02*
X11998158Y-14830484D01*
X11998158Y-14716198D02*
X12007682Y-14706674D01*
X12007682Y-14706674D02*
X12026730Y-14697150D01*
X12026730Y-14697150D02*
X12055301Y-14697150D01*
X12055301Y-14697150D02*
X12074349Y-14706674D01*
X12074349Y-14706674D02*
X12083872Y-14725722D01*
X12083872Y-14725722D02*
X12083872Y-14830484D01*
X12207682Y-14830484D02*
X12188634Y-14820960D01*
X12188634Y-14820960D02*
X12179111Y-14811436D01*
X12179111Y-14811436D02*
X12169587Y-14792388D01*
X12169587Y-14792388D02*
X12169587Y-14735246D01*
X12169587Y-14735246D02*
X12179111Y-14716198D01*
X12179111Y-14716198D02*
X12188634Y-14706674D01*
X12188634Y-14706674D02*
X12207682Y-14697150D01*
X12207682Y-14697150D02*
X12236253Y-14697150D01*
X12236253Y-14697150D02*
X12255301Y-14706674D01*
X12255301Y-14706674D02*
X12264825Y-14716198D01*
X12264825Y-14716198D02*
X12274349Y-14735246D01*
X12274349Y-14735246D02*
X12274349Y-14792388D01*
X12274349Y-14792388D02*
X12264825Y-14811436D01*
X12264825Y-14811436D02*
X12255301Y-14820960D01*
X12255301Y-14820960D02*
X12236253Y-14830484D01*
X12236253Y-14830484D02*
X12207682Y-14830484D01*
X12331492Y-14697150D02*
X12407682Y-14697150D01*
X12360063Y-14630484D02*
X12360063Y-14801912D01*
X12360063Y-14801912D02*
X12369587Y-14820960D01*
X12369587Y-14820960D02*
X12388634Y-14830484D01*
X12388634Y-14830484D02*
X12407682Y-14830484D01*
X12626730Y-14697150D02*
X12626730Y-14897150D01*
X12626730Y-14706674D02*
X12645777Y-14697150D01*
X12645777Y-14697150D02*
X12683873Y-14697150D01*
X12683873Y-14697150D02*
X12702920Y-14706674D01*
X12702920Y-14706674D02*
X12712444Y-14716198D01*
X12712444Y-14716198D02*
X12721968Y-14735246D01*
X12721968Y-14735246D02*
X12721968Y-14792388D01*
X12721968Y-14792388D02*
X12712444Y-14811436D01*
X12712444Y-14811436D02*
X12702920Y-14820960D01*
X12702920Y-14820960D02*
X12683873Y-14830484D01*
X12683873Y-14830484D02*
X12645777Y-14830484D01*
X12645777Y-14830484D02*
X12626730Y-14820960D01*
X12836253Y-14830484D02*
X12817206Y-14820960D01*
X12817206Y-14820960D02*
X12807682Y-14801912D01*
X12807682Y-14801912D02*
X12807682Y-14630484D01*
X12998158Y-14830484D02*
X12998158Y-14725722D01*
X12998158Y-14725722D02*
X12988634Y-14706674D01*
X12988634Y-14706674D02*
X12969587Y-14697150D01*
X12969587Y-14697150D02*
X12931492Y-14697150D01*
X12931492Y-14697150D02*
X12912444Y-14706674D01*
X12998158Y-14820960D02*
X12979111Y-14830484D01*
X12979111Y-14830484D02*
X12931492Y-14830484D01*
X12931492Y-14830484D02*
X12912444Y-14820960D01*
X12912444Y-14820960D02*
X12902920Y-14801912D01*
X12902920Y-14801912D02*
X12902920Y-14782865D01*
X12902920Y-14782865D02*
X12912444Y-14763817D01*
X12912444Y-14763817D02*
X12931492Y-14754293D01*
X12931492Y-14754293D02*
X12979111Y-14754293D01*
X12979111Y-14754293D02*
X12998158Y-14744769D01*
X13064825Y-14697150D02*
X13141015Y-14697150D01*
X13093396Y-14630484D02*
X13093396Y-14801912D01*
X13093396Y-14801912D02*
X13102920Y-14820960D01*
X13102920Y-14820960D02*
X13121968Y-14830484D01*
X13121968Y-14830484D02*
X13141015Y-14830484D01*
X13283873Y-14820960D02*
X13264825Y-14830484D01*
X13264825Y-14830484D02*
X13226730Y-14830484D01*
X13226730Y-14830484D02*
X13207682Y-14820960D01*
X13207682Y-14820960D02*
X13198158Y-14801912D01*
X13198158Y-14801912D02*
X13198158Y-14725722D01*
X13198158Y-14725722D02*
X13207682Y-14706674D01*
X13207682Y-14706674D02*
X13226730Y-14697150D01*
X13226730Y-14697150D02*
X13264825Y-14697150D01*
X13264825Y-14697150D02*
X13283873Y-14706674D01*
X13283873Y-14706674D02*
X13293396Y-14725722D01*
X13293396Y-14725722D02*
X13293396Y-14744769D01*
X13293396Y-14744769D02*
X13198158Y-14763817D01*
X13464825Y-14830484D02*
X13464825Y-14630484D01*
X13464825Y-14820960D02*
X13445777Y-14830484D01*
X13445777Y-14830484D02*
X13407682Y-14830484D01*
X13407682Y-14830484D02*
X13388634Y-14820960D01*
X13388634Y-14820960D02*
X13379111Y-14811436D01*
X13379111Y-14811436D02*
X13369587Y-14792388D01*
X13369587Y-14792388D02*
X13369587Y-14735246D01*
X13369587Y-14735246D02*
X13379111Y-14716198D01*
X13379111Y-14716198D02*
X13388634Y-14706674D01*
X13388634Y-14706674D02*
X13407682Y-14697150D01*
X13407682Y-14697150D02*
X13445777Y-14697150D01*
X13445777Y-14697150D02*
X13464825Y-14706674D01*
X13541015Y-14906674D02*
X13550539Y-14897150D01*
X13550539Y-14897150D02*
X13569587Y-14868579D01*
X13569587Y-14868579D02*
X13579111Y-14849531D01*
X13579111Y-14849531D02*
X13588634Y-14820960D01*
X13588634Y-14820960D02*
X13598158Y-14773341D01*
X13598158Y-14773341D02*
X13598158Y-14735246D01*
X13598158Y-14735246D02*
X13588634Y-14687627D01*
X13588634Y-14687627D02*
X13579111Y-14659055D01*
X13579111Y-14659055D02*
X13569587Y-14640008D01*
X13569587Y-14640008D02*
X13550539Y-14611436D01*
X13550539Y-14611436D02*
X13541015Y-14601912D01*
M02*
