%TF.GenerationSoftware,KiCad,Pcbnew,7.0.5*%
%TF.CreationDate,2024-04-11T17:45:58-04:00*%
%TF.ProjectId,PrawnDO_Breakout_Connectorized_sma_in_board,50726177-6e44-44f5-9f42-7265616b6f75,rev?*%
%TF.SameCoordinates,Original*%
%TF.FileFunction,Drillmap*%
%TF.FilePolarity,Positive*%
%FSLAX45Y45*%
G04 Gerber Fmt 4.5, Leading zero omitted, Abs format (unit mm)*
G04 Created by KiCad (PCBNEW 7.0.5) date 2024-04-11 17:45:58*
%MOMM*%
%LPD*%
G01*
G04 APERTURE LIST*
%ADD10C,0.100000*%
%ADD11C,0.200000*%
%ADD12C,0.109000*%
%ADD13C,0.150000*%
%ADD14C,0.170000*%
%ADD15C,0.320000*%
G04 APERTURE END LIST*
D10*
X7190000Y-14100000D02*
X7190000Y-5420000D01*
X11590000Y-13880000D02*
X10490000Y-13880000D01*
X11590000Y-14100000D02*
X11590000Y-13880000D01*
X7190000Y-14100000D02*
X10490000Y-14100000D01*
X18490000Y-5420000D02*
X7190000Y-5420000D01*
X18490000Y-14100000D02*
X18490000Y-5420000D01*
X11590000Y-14100000D02*
X18490000Y-14100000D01*
X10490000Y-13880000D02*
X10490000Y-14100000D01*
D11*
D10*
X9277150Y-7296000D02*
X9377150Y-7396000D01*
X9377150Y-7296000D02*
X9277150Y-7396000D01*
X9277150Y-7550000D02*
X9377150Y-7650000D01*
X9377150Y-7550000D02*
X9277150Y-7650000D01*
X9277150Y-7804000D02*
X9377150Y-7904000D01*
X9377150Y-7804000D02*
X9277150Y-7904000D01*
X9485000Y-10802000D02*
X9585000Y-10902000D01*
X9585000Y-10802000D02*
X9485000Y-10902000D01*
X9485000Y-11056000D02*
X9585000Y-11156000D01*
X9585000Y-11056000D02*
X9485000Y-11156000D01*
X9485000Y-11310000D02*
X9585000Y-11410000D01*
X9585000Y-11310000D02*
X9485000Y-11410000D01*
D12*
X8462400Y-7346700D02*
G75*
G03*
X8462400Y-7346700I-54500J0D01*
G01*
X8462400Y-7600700D02*
G75*
G03*
X8462400Y-7600700I-54500J0D01*
G01*
D13*
X10865000Y-6775000D02*
X10865000Y-6925000D01*
X10790000Y-6850000D02*
X10940000Y-6850000D01*
X11850000Y-5925000D02*
X11850000Y-6075000D01*
X11775000Y-6000000D02*
X11925000Y-6000000D01*
X13001000Y-5925000D02*
X13001000Y-6075000D01*
X12926000Y-6000000D02*
X13076000Y-6000000D01*
X13970600Y-6775000D02*
X13970600Y-6925000D01*
X13895600Y-6850000D02*
X14045600Y-6850000D01*
X16490000Y-7237100D02*
X16490000Y-7387100D01*
X16415000Y-7312100D02*
X16565000Y-7312100D01*
X16490000Y-8410100D02*
X16490000Y-8560100D01*
X16415000Y-8485100D02*
X16565000Y-8485100D01*
X16490000Y-9595000D02*
X16490000Y-9745000D01*
X16415000Y-9670000D02*
X16565000Y-9670000D01*
X16490000Y-10775000D02*
X16490000Y-10925000D01*
X16415000Y-10850000D02*
X16565000Y-10850000D01*
X16490000Y-11964000D02*
X16490000Y-12114000D01*
X16415000Y-12039000D02*
X16565000Y-12039000D01*
X16490000Y-13125000D02*
X16490000Y-13275000D01*
X16415000Y-13200000D02*
X16565000Y-13200000D01*
X17790000Y-7828000D02*
X17790000Y-7978000D01*
X17715000Y-7903000D02*
X17865000Y-7903000D01*
X17790000Y-9025000D02*
X17790000Y-9175000D01*
X17715000Y-9100000D02*
X17865000Y-9100000D01*
X17790000Y-10195000D02*
X17790000Y-10345000D01*
X17715000Y-10270000D02*
X17865000Y-10270000D01*
X17790000Y-11375000D02*
X17790000Y-11525000D01*
X17715000Y-11450000D02*
X17865000Y-11450000D01*
X17790000Y-12545000D02*
X17790000Y-12695000D01*
X17715000Y-12620000D02*
X17865000Y-12620000D01*
X17790000Y-13565000D02*
X17790000Y-13715000D01*
X17715000Y-13640000D02*
X17865000Y-13640000D01*
D14*
X10671105Y-6656105D02*
X10671105Y-6535895D01*
X10550895Y-6535895D01*
X10550895Y-6656105D01*
X10671105Y-6656105D01*
X10671105Y-7164105D02*
X10671105Y-7043895D01*
X10550895Y-7043895D01*
X10550895Y-7164105D01*
X10671105Y-7164105D01*
X11179105Y-6656105D02*
X11179105Y-6535895D01*
X11058895Y-6535895D01*
X11058895Y-6656105D01*
X11179105Y-6656105D01*
X11179105Y-7164105D02*
X11179105Y-7043895D01*
X11058895Y-7043895D01*
X11058895Y-7164105D01*
X11179105Y-7164105D01*
X11656105Y-5806105D02*
X11656105Y-5685895D01*
X11535895Y-5685895D01*
X11535895Y-5806105D01*
X11656105Y-5806105D01*
X11656105Y-6314105D02*
X11656105Y-6193895D01*
X11535895Y-6193895D01*
X11535895Y-6314105D01*
X11656105Y-6314105D01*
X12164105Y-5806105D02*
X12164105Y-5685895D01*
X12043895Y-5685895D01*
X12043895Y-5806105D01*
X12164105Y-5806105D01*
X12164105Y-6314105D02*
X12164105Y-6193895D01*
X12043895Y-6193895D01*
X12043895Y-6314105D01*
X12164105Y-6314105D01*
X12807105Y-5806105D02*
X12807105Y-5685895D01*
X12686895Y-5685895D01*
X12686895Y-5806105D01*
X12807105Y-5806105D01*
X12807105Y-6314105D02*
X12807105Y-6193895D01*
X12686895Y-6193895D01*
X12686895Y-6314105D01*
X12807105Y-6314105D01*
X13315105Y-5806105D02*
X13315105Y-5685895D01*
X13194895Y-5685895D01*
X13194895Y-5806105D01*
X13315105Y-5806105D01*
X13315105Y-6314105D02*
X13315105Y-6193895D01*
X13194895Y-6193895D01*
X13194895Y-6314105D01*
X13315105Y-6314105D01*
X13776705Y-6656105D02*
X13776705Y-6535895D01*
X13656495Y-6535895D01*
X13656495Y-6656105D01*
X13776705Y-6656105D01*
X13776705Y-7164105D02*
X13776705Y-7043895D01*
X13656495Y-7043895D01*
X13656495Y-7164105D01*
X13776705Y-7164105D01*
X14284705Y-6656105D02*
X14284705Y-6535895D01*
X14164495Y-6535895D01*
X14164495Y-6656105D01*
X14284705Y-6656105D01*
X14284705Y-7164105D02*
X14284705Y-7043895D01*
X14164495Y-7043895D01*
X14164495Y-7164105D01*
X14284705Y-7164105D01*
X16296105Y-7118205D02*
X16296105Y-6997995D01*
X16175895Y-6997995D01*
X16175895Y-7118205D01*
X16296105Y-7118205D01*
X16296105Y-7626205D02*
X16296105Y-7505995D01*
X16175895Y-7505995D01*
X16175895Y-7626205D01*
X16296105Y-7626205D01*
X16296105Y-8291205D02*
X16296105Y-8170995D01*
X16175895Y-8170995D01*
X16175895Y-8291205D01*
X16296105Y-8291205D01*
X16296105Y-8799205D02*
X16296105Y-8678995D01*
X16175895Y-8678995D01*
X16175895Y-8799205D01*
X16296105Y-8799205D01*
X16296105Y-9476105D02*
X16296105Y-9355895D01*
X16175895Y-9355895D01*
X16175895Y-9476105D01*
X16296105Y-9476105D01*
X16296105Y-9984105D02*
X16296105Y-9863895D01*
X16175895Y-9863895D01*
X16175895Y-9984105D01*
X16296105Y-9984105D01*
X16296105Y-10656105D02*
X16296105Y-10535895D01*
X16175895Y-10535895D01*
X16175895Y-10656105D01*
X16296105Y-10656105D01*
X16296105Y-11164105D02*
X16296105Y-11043895D01*
X16175895Y-11043895D01*
X16175895Y-11164105D01*
X16296105Y-11164105D01*
X16296105Y-11845105D02*
X16296105Y-11724895D01*
X16175895Y-11724895D01*
X16175895Y-11845105D01*
X16296105Y-11845105D01*
X16296105Y-12353105D02*
X16296105Y-12232895D01*
X16175895Y-12232895D01*
X16175895Y-12353105D01*
X16296105Y-12353105D01*
X16296105Y-13006105D02*
X16296105Y-12885895D01*
X16175895Y-12885895D01*
X16175895Y-13006105D01*
X16296105Y-13006105D01*
X16296105Y-13514105D02*
X16296105Y-13393895D01*
X16175895Y-13393895D01*
X16175895Y-13514105D01*
X16296105Y-13514105D01*
X16804105Y-7118205D02*
X16804105Y-6997995D01*
X16683895Y-6997995D01*
X16683895Y-7118205D01*
X16804105Y-7118205D01*
X16804105Y-7626205D02*
X16804105Y-7505995D01*
X16683895Y-7505995D01*
X16683895Y-7626205D01*
X16804105Y-7626205D01*
X16804105Y-8291205D02*
X16804105Y-8170995D01*
X16683895Y-8170995D01*
X16683895Y-8291205D01*
X16804105Y-8291205D01*
X16804105Y-8799205D02*
X16804105Y-8678995D01*
X16683895Y-8678995D01*
X16683895Y-8799205D01*
X16804105Y-8799205D01*
X16804105Y-9476105D02*
X16804105Y-9355895D01*
X16683895Y-9355895D01*
X16683895Y-9476105D01*
X16804105Y-9476105D01*
X16804105Y-9984105D02*
X16804105Y-9863895D01*
X16683895Y-9863895D01*
X16683895Y-9984105D01*
X16804105Y-9984105D01*
X16804105Y-10656105D02*
X16804105Y-10535895D01*
X16683895Y-10535895D01*
X16683895Y-10656105D01*
X16804105Y-10656105D01*
X16804105Y-11164105D02*
X16804105Y-11043895D01*
X16683895Y-11043895D01*
X16683895Y-11164105D01*
X16804105Y-11164105D01*
X16804105Y-11845105D02*
X16804105Y-11724895D01*
X16683895Y-11724895D01*
X16683895Y-11845105D01*
X16804105Y-11845105D01*
X16804105Y-12353105D02*
X16804105Y-12232895D01*
X16683895Y-12232895D01*
X16683895Y-12353105D01*
X16804105Y-12353105D01*
X16804105Y-13006105D02*
X16804105Y-12885895D01*
X16683895Y-12885895D01*
X16683895Y-13006105D01*
X16804105Y-13006105D01*
X16804105Y-13514105D02*
X16804105Y-13393895D01*
X16683895Y-13393895D01*
X16683895Y-13514105D01*
X16804105Y-13514105D01*
X17596105Y-7709105D02*
X17596105Y-7588895D01*
X17475895Y-7588895D01*
X17475895Y-7709105D01*
X17596105Y-7709105D01*
X17596105Y-8217105D02*
X17596105Y-8096895D01*
X17475895Y-8096895D01*
X17475895Y-8217105D01*
X17596105Y-8217105D01*
X17596105Y-8906105D02*
X17596105Y-8785895D01*
X17475895Y-8785895D01*
X17475895Y-8906105D01*
X17596105Y-8906105D01*
X17596105Y-9414105D02*
X17596105Y-9293895D01*
X17475895Y-9293895D01*
X17475895Y-9414105D01*
X17596105Y-9414105D01*
X17596105Y-10076105D02*
X17596105Y-9955895D01*
X17475895Y-9955895D01*
X17475895Y-10076105D01*
X17596105Y-10076105D01*
X17596105Y-10584105D02*
X17596105Y-10463895D01*
X17475895Y-10463895D01*
X17475895Y-10584105D01*
X17596105Y-10584105D01*
X17596105Y-11256105D02*
X17596105Y-11135895D01*
X17475895Y-11135895D01*
X17475895Y-11256105D01*
X17596105Y-11256105D01*
X17596105Y-11764105D02*
X17596105Y-11643895D01*
X17475895Y-11643895D01*
X17475895Y-11764105D01*
X17596105Y-11764105D01*
X17596105Y-12426105D02*
X17596105Y-12305895D01*
X17475895Y-12305895D01*
X17475895Y-12426105D01*
X17596105Y-12426105D01*
X17596105Y-12934105D02*
X17596105Y-12813895D01*
X17475895Y-12813895D01*
X17475895Y-12934105D01*
X17596105Y-12934105D01*
X17596105Y-13446105D02*
X17596105Y-13325895D01*
X17475895Y-13325895D01*
X17475895Y-13446105D01*
X17596105Y-13446105D01*
X17596105Y-13954105D02*
X17596105Y-13833895D01*
X17475895Y-13833895D01*
X17475895Y-13954105D01*
X17596105Y-13954105D01*
X18104105Y-7709105D02*
X18104105Y-7588895D01*
X17983895Y-7588895D01*
X17983895Y-7709105D01*
X18104105Y-7709105D01*
X18104105Y-8217105D02*
X18104105Y-8096895D01*
X17983895Y-8096895D01*
X17983895Y-8217105D01*
X18104105Y-8217105D01*
X18104105Y-8906105D02*
X18104105Y-8785895D01*
X17983895Y-8785895D01*
X17983895Y-8906105D01*
X18104105Y-8906105D01*
X18104105Y-9414105D02*
X18104105Y-9293895D01*
X17983895Y-9293895D01*
X17983895Y-9414105D01*
X18104105Y-9414105D01*
X18104105Y-10076105D02*
X18104105Y-9955895D01*
X17983895Y-9955895D01*
X17983895Y-10076105D01*
X18104105Y-10076105D01*
X18104105Y-10584105D02*
X18104105Y-10463895D01*
X17983895Y-10463895D01*
X17983895Y-10584105D01*
X18104105Y-10584105D01*
X18104105Y-11256105D02*
X18104105Y-11135895D01*
X17983895Y-11135895D01*
X17983895Y-11256105D01*
X18104105Y-11256105D01*
X18104105Y-11764105D02*
X18104105Y-11643895D01*
X17983895Y-11643895D01*
X17983895Y-11764105D01*
X18104105Y-11764105D01*
X18104105Y-12426105D02*
X18104105Y-12305895D01*
X17983895Y-12305895D01*
X17983895Y-12426105D01*
X18104105Y-12426105D01*
X18104105Y-12934105D02*
X18104105Y-12813895D01*
X17983895Y-12813895D01*
X17983895Y-12934105D01*
X18104105Y-12934105D01*
X18104105Y-13446105D02*
X18104105Y-13325895D01*
X17983895Y-13325895D01*
X17983895Y-13446105D01*
X18104105Y-13446105D01*
X18104105Y-13954105D02*
X18104105Y-13833895D01*
X17983895Y-13833895D01*
X17983895Y-13954105D01*
X18104105Y-13954105D01*
D15*
X8669990Y-9607500D02*
X8829990Y-9447500D01*
X8669990Y-9287500D01*
X8509990Y-9447500D01*
X8669990Y-9607500D01*
X8669990Y-11512500D02*
X8829990Y-11352500D01*
X8669990Y-11192500D01*
X8509990Y-11352500D01*
X8669990Y-11512500D01*
X15170000Y-9948600D02*
X15330000Y-9788600D01*
X15170000Y-9628600D01*
X15010000Y-9788600D01*
X15170000Y-9948600D01*
X15170000Y-12008600D02*
X15330000Y-11848600D01*
X15170000Y-11688600D01*
X15010000Y-11848600D01*
X15170000Y-12008600D01*
D11*
X7445777Y-14416484D02*
X7445777Y-14216484D01*
X7445777Y-14216484D02*
X7493396Y-14216484D01*
X7493396Y-14216484D02*
X7521967Y-14226008D01*
X7521967Y-14226008D02*
X7541015Y-14245055D01*
X7541015Y-14245055D02*
X7550539Y-14264103D01*
X7550539Y-14264103D02*
X7560062Y-14302198D01*
X7560062Y-14302198D02*
X7560062Y-14330769D01*
X7560062Y-14330769D02*
X7550539Y-14368865D01*
X7550539Y-14368865D02*
X7541015Y-14387912D01*
X7541015Y-14387912D02*
X7521967Y-14406960D01*
X7521967Y-14406960D02*
X7493396Y-14416484D01*
X7493396Y-14416484D02*
X7445777Y-14416484D01*
X7645777Y-14416484D02*
X7645777Y-14283150D01*
X7645777Y-14321246D02*
X7655301Y-14302198D01*
X7655301Y-14302198D02*
X7664824Y-14292674D01*
X7664824Y-14292674D02*
X7683872Y-14283150D01*
X7683872Y-14283150D02*
X7702920Y-14283150D01*
X7769586Y-14416484D02*
X7769586Y-14283150D01*
X7769586Y-14216484D02*
X7760062Y-14226008D01*
X7760062Y-14226008D02*
X7769586Y-14235531D01*
X7769586Y-14235531D02*
X7779110Y-14226008D01*
X7779110Y-14226008D02*
X7769586Y-14216484D01*
X7769586Y-14216484D02*
X7769586Y-14235531D01*
X7893396Y-14416484D02*
X7874348Y-14406960D01*
X7874348Y-14406960D02*
X7864824Y-14387912D01*
X7864824Y-14387912D02*
X7864824Y-14216484D01*
X7998158Y-14416484D02*
X7979110Y-14406960D01*
X7979110Y-14406960D02*
X7969586Y-14387912D01*
X7969586Y-14387912D02*
X7969586Y-14216484D01*
X8226729Y-14416484D02*
X8226729Y-14216484D01*
X8226729Y-14216484D02*
X8293396Y-14359341D01*
X8293396Y-14359341D02*
X8360062Y-14216484D01*
X8360062Y-14216484D02*
X8360062Y-14416484D01*
X8541015Y-14416484D02*
X8541015Y-14311722D01*
X8541015Y-14311722D02*
X8531491Y-14292674D01*
X8531491Y-14292674D02*
X8512444Y-14283150D01*
X8512444Y-14283150D02*
X8474348Y-14283150D01*
X8474348Y-14283150D02*
X8455301Y-14292674D01*
X8541015Y-14406960D02*
X8521967Y-14416484D01*
X8521967Y-14416484D02*
X8474348Y-14416484D01*
X8474348Y-14416484D02*
X8455301Y-14406960D01*
X8455301Y-14406960D02*
X8445777Y-14387912D01*
X8445777Y-14387912D02*
X8445777Y-14368865D01*
X8445777Y-14368865D02*
X8455301Y-14349817D01*
X8455301Y-14349817D02*
X8474348Y-14340293D01*
X8474348Y-14340293D02*
X8521967Y-14340293D01*
X8521967Y-14340293D02*
X8541015Y-14330769D01*
X8636253Y-14283150D02*
X8636253Y-14483150D01*
X8636253Y-14292674D02*
X8655301Y-14283150D01*
X8655301Y-14283150D02*
X8693396Y-14283150D01*
X8693396Y-14283150D02*
X8712444Y-14292674D01*
X8712444Y-14292674D02*
X8721967Y-14302198D01*
X8721967Y-14302198D02*
X8731491Y-14321246D01*
X8731491Y-14321246D02*
X8731491Y-14378388D01*
X8731491Y-14378388D02*
X8721967Y-14397436D01*
X8721967Y-14397436D02*
X8712444Y-14406960D01*
X8712444Y-14406960D02*
X8693396Y-14416484D01*
X8693396Y-14416484D02*
X8655301Y-14416484D01*
X8655301Y-14416484D02*
X8636253Y-14406960D01*
X8817205Y-14397436D02*
X8826729Y-14406960D01*
X8826729Y-14406960D02*
X8817205Y-14416484D01*
X8817205Y-14416484D02*
X8807682Y-14406960D01*
X8807682Y-14406960D02*
X8817205Y-14397436D01*
X8817205Y-14397436D02*
X8817205Y-14416484D01*
X8817205Y-14292674D02*
X8826729Y-14302198D01*
X8826729Y-14302198D02*
X8817205Y-14311722D01*
X8817205Y-14311722D02*
X8807682Y-14302198D01*
X8807682Y-14302198D02*
X8817205Y-14292674D01*
X8817205Y-14292674D02*
X8817205Y-14311722D01*
D10*
X7085000Y-14695000D02*
X7185000Y-14795000D01*
X7185000Y-14695000D02*
X7085000Y-14795000D01*
D11*
X7550539Y-14836484D02*
X7436253Y-14836484D01*
X7493396Y-14836484D02*
X7493396Y-14636484D01*
X7493396Y-14636484D02*
X7474348Y-14665055D01*
X7474348Y-14665055D02*
X7455301Y-14684103D01*
X7455301Y-14684103D02*
X7436253Y-14693627D01*
X7636253Y-14817436D02*
X7645777Y-14826960D01*
X7645777Y-14826960D02*
X7636253Y-14836484D01*
X7636253Y-14836484D02*
X7626729Y-14826960D01*
X7626729Y-14826960D02*
X7636253Y-14817436D01*
X7636253Y-14817436D02*
X7636253Y-14836484D01*
X7769586Y-14636484D02*
X7788634Y-14636484D01*
X7788634Y-14636484D02*
X7807682Y-14646008D01*
X7807682Y-14646008D02*
X7817205Y-14655531D01*
X7817205Y-14655531D02*
X7826729Y-14674579D01*
X7826729Y-14674579D02*
X7836253Y-14712674D01*
X7836253Y-14712674D02*
X7836253Y-14760293D01*
X7836253Y-14760293D02*
X7826729Y-14798388D01*
X7826729Y-14798388D02*
X7817205Y-14817436D01*
X7817205Y-14817436D02*
X7807682Y-14826960D01*
X7807682Y-14826960D02*
X7788634Y-14836484D01*
X7788634Y-14836484D02*
X7769586Y-14836484D01*
X7769586Y-14836484D02*
X7750539Y-14826960D01*
X7750539Y-14826960D02*
X7741015Y-14817436D01*
X7741015Y-14817436D02*
X7731491Y-14798388D01*
X7731491Y-14798388D02*
X7721967Y-14760293D01*
X7721967Y-14760293D02*
X7721967Y-14712674D01*
X7721967Y-14712674D02*
X7731491Y-14674579D01*
X7731491Y-14674579D02*
X7741015Y-14655531D01*
X7741015Y-14655531D02*
X7750539Y-14646008D01*
X7750539Y-14646008D02*
X7769586Y-14636484D01*
X7960062Y-14636484D02*
X7979110Y-14636484D01*
X7979110Y-14636484D02*
X7998158Y-14646008D01*
X7998158Y-14646008D02*
X8007682Y-14655531D01*
X8007682Y-14655531D02*
X8017205Y-14674579D01*
X8017205Y-14674579D02*
X8026729Y-14712674D01*
X8026729Y-14712674D02*
X8026729Y-14760293D01*
X8026729Y-14760293D02*
X8017205Y-14798388D01*
X8017205Y-14798388D02*
X8007682Y-14817436D01*
X8007682Y-14817436D02*
X7998158Y-14826960D01*
X7998158Y-14826960D02*
X7979110Y-14836484D01*
X7979110Y-14836484D02*
X7960062Y-14836484D01*
X7960062Y-14836484D02*
X7941015Y-14826960D01*
X7941015Y-14826960D02*
X7931491Y-14817436D01*
X7931491Y-14817436D02*
X7921967Y-14798388D01*
X7921967Y-14798388D02*
X7912443Y-14760293D01*
X7912443Y-14760293D02*
X7912443Y-14712674D01*
X7912443Y-14712674D02*
X7921967Y-14674579D01*
X7921967Y-14674579D02*
X7931491Y-14655531D01*
X7931491Y-14655531D02*
X7941015Y-14646008D01*
X7941015Y-14646008D02*
X7960062Y-14636484D01*
X8150539Y-14636484D02*
X8169586Y-14636484D01*
X8169586Y-14636484D02*
X8188634Y-14646008D01*
X8188634Y-14646008D02*
X8198158Y-14655531D01*
X8198158Y-14655531D02*
X8207682Y-14674579D01*
X8207682Y-14674579D02*
X8217205Y-14712674D01*
X8217205Y-14712674D02*
X8217205Y-14760293D01*
X8217205Y-14760293D02*
X8207682Y-14798388D01*
X8207682Y-14798388D02*
X8198158Y-14817436D01*
X8198158Y-14817436D02*
X8188634Y-14826960D01*
X8188634Y-14826960D02*
X8169586Y-14836484D01*
X8169586Y-14836484D02*
X8150539Y-14836484D01*
X8150539Y-14836484D02*
X8131491Y-14826960D01*
X8131491Y-14826960D02*
X8121967Y-14817436D01*
X8121967Y-14817436D02*
X8112443Y-14798388D01*
X8112443Y-14798388D02*
X8102920Y-14760293D01*
X8102920Y-14760293D02*
X8102920Y-14712674D01*
X8102920Y-14712674D02*
X8112443Y-14674579D01*
X8112443Y-14674579D02*
X8121967Y-14655531D01*
X8121967Y-14655531D02*
X8131491Y-14646008D01*
X8131491Y-14646008D02*
X8150539Y-14636484D01*
X8302920Y-14836484D02*
X8302920Y-14703150D01*
X8302920Y-14722198D02*
X8312443Y-14712674D01*
X8312443Y-14712674D02*
X8331491Y-14703150D01*
X8331491Y-14703150D02*
X8360063Y-14703150D01*
X8360063Y-14703150D02*
X8379110Y-14712674D01*
X8379110Y-14712674D02*
X8388634Y-14731722D01*
X8388634Y-14731722D02*
X8388634Y-14836484D01*
X8388634Y-14731722D02*
X8398158Y-14712674D01*
X8398158Y-14712674D02*
X8417205Y-14703150D01*
X8417205Y-14703150D02*
X8445777Y-14703150D01*
X8445777Y-14703150D02*
X8464825Y-14712674D01*
X8464825Y-14712674D02*
X8474348Y-14731722D01*
X8474348Y-14731722D02*
X8474348Y-14836484D01*
X8569586Y-14836484D02*
X8569586Y-14703150D01*
X8569586Y-14722198D02*
X8579110Y-14712674D01*
X8579110Y-14712674D02*
X8598158Y-14703150D01*
X8598158Y-14703150D02*
X8626729Y-14703150D01*
X8626729Y-14703150D02*
X8645777Y-14712674D01*
X8645777Y-14712674D02*
X8655301Y-14731722D01*
X8655301Y-14731722D02*
X8655301Y-14836484D01*
X8655301Y-14731722D02*
X8664825Y-14712674D01*
X8664825Y-14712674D02*
X8683872Y-14703150D01*
X8683872Y-14703150D02*
X8712444Y-14703150D01*
X8712444Y-14703150D02*
X8731491Y-14712674D01*
X8731491Y-14712674D02*
X8741015Y-14731722D01*
X8741015Y-14731722D02*
X8741015Y-14836484D01*
X9131491Y-14626960D02*
X8960063Y-14884103D01*
X9388634Y-14636484D02*
X9407682Y-14636484D01*
X9407682Y-14636484D02*
X9426729Y-14646008D01*
X9426729Y-14646008D02*
X9436253Y-14655531D01*
X9436253Y-14655531D02*
X9445777Y-14674579D01*
X9445777Y-14674579D02*
X9455301Y-14712674D01*
X9455301Y-14712674D02*
X9455301Y-14760293D01*
X9455301Y-14760293D02*
X9445777Y-14798388D01*
X9445777Y-14798388D02*
X9436253Y-14817436D01*
X9436253Y-14817436D02*
X9426729Y-14826960D01*
X9426729Y-14826960D02*
X9407682Y-14836484D01*
X9407682Y-14836484D02*
X9388634Y-14836484D01*
X9388634Y-14836484D02*
X9369587Y-14826960D01*
X9369587Y-14826960D02*
X9360063Y-14817436D01*
X9360063Y-14817436D02*
X9350539Y-14798388D01*
X9350539Y-14798388D02*
X9341015Y-14760293D01*
X9341015Y-14760293D02*
X9341015Y-14712674D01*
X9341015Y-14712674D02*
X9350539Y-14674579D01*
X9350539Y-14674579D02*
X9360063Y-14655531D01*
X9360063Y-14655531D02*
X9369587Y-14646008D01*
X9369587Y-14646008D02*
X9388634Y-14636484D01*
X9541015Y-14817436D02*
X9550539Y-14826960D01*
X9550539Y-14826960D02*
X9541015Y-14836484D01*
X9541015Y-14836484D02*
X9531491Y-14826960D01*
X9531491Y-14826960D02*
X9541015Y-14817436D01*
X9541015Y-14817436D02*
X9541015Y-14836484D01*
X9674348Y-14636484D02*
X9693396Y-14636484D01*
X9693396Y-14636484D02*
X9712444Y-14646008D01*
X9712444Y-14646008D02*
X9721968Y-14655531D01*
X9721968Y-14655531D02*
X9731491Y-14674579D01*
X9731491Y-14674579D02*
X9741015Y-14712674D01*
X9741015Y-14712674D02*
X9741015Y-14760293D01*
X9741015Y-14760293D02*
X9731491Y-14798388D01*
X9731491Y-14798388D02*
X9721968Y-14817436D01*
X9721968Y-14817436D02*
X9712444Y-14826960D01*
X9712444Y-14826960D02*
X9693396Y-14836484D01*
X9693396Y-14836484D02*
X9674348Y-14836484D01*
X9674348Y-14836484D02*
X9655301Y-14826960D01*
X9655301Y-14826960D02*
X9645777Y-14817436D01*
X9645777Y-14817436D02*
X9636253Y-14798388D01*
X9636253Y-14798388D02*
X9626729Y-14760293D01*
X9626729Y-14760293D02*
X9626729Y-14712674D01*
X9626729Y-14712674D02*
X9636253Y-14674579D01*
X9636253Y-14674579D02*
X9645777Y-14655531D01*
X9645777Y-14655531D02*
X9655301Y-14646008D01*
X9655301Y-14646008D02*
X9674348Y-14636484D01*
X9807682Y-14636484D02*
X9931491Y-14636484D01*
X9931491Y-14636484D02*
X9864825Y-14712674D01*
X9864825Y-14712674D02*
X9893396Y-14712674D01*
X9893396Y-14712674D02*
X9912444Y-14722198D01*
X9912444Y-14722198D02*
X9921968Y-14731722D01*
X9921968Y-14731722D02*
X9931491Y-14750769D01*
X9931491Y-14750769D02*
X9931491Y-14798388D01*
X9931491Y-14798388D02*
X9921968Y-14817436D01*
X9921968Y-14817436D02*
X9912444Y-14826960D01*
X9912444Y-14826960D02*
X9893396Y-14836484D01*
X9893396Y-14836484D02*
X9836253Y-14836484D01*
X9836253Y-14836484D02*
X9817206Y-14826960D01*
X9817206Y-14826960D02*
X9807682Y-14817436D01*
X10026729Y-14836484D02*
X10064825Y-14836484D01*
X10064825Y-14836484D02*
X10083872Y-14826960D01*
X10083872Y-14826960D02*
X10093396Y-14817436D01*
X10093396Y-14817436D02*
X10112444Y-14788865D01*
X10112444Y-14788865D02*
X10121968Y-14750769D01*
X10121968Y-14750769D02*
X10121968Y-14674579D01*
X10121968Y-14674579D02*
X10112444Y-14655531D01*
X10112444Y-14655531D02*
X10102920Y-14646008D01*
X10102920Y-14646008D02*
X10083872Y-14636484D01*
X10083872Y-14636484D02*
X10045777Y-14636484D01*
X10045777Y-14636484D02*
X10026729Y-14646008D01*
X10026729Y-14646008D02*
X10017206Y-14655531D01*
X10017206Y-14655531D02*
X10007682Y-14674579D01*
X10007682Y-14674579D02*
X10007682Y-14722198D01*
X10007682Y-14722198D02*
X10017206Y-14741246D01*
X10017206Y-14741246D02*
X10026729Y-14750769D01*
X10026729Y-14750769D02*
X10045777Y-14760293D01*
X10045777Y-14760293D02*
X10083872Y-14760293D01*
X10083872Y-14760293D02*
X10102920Y-14750769D01*
X10102920Y-14750769D02*
X10112444Y-14741246D01*
X10112444Y-14741246D02*
X10121968Y-14722198D01*
X10293396Y-14703150D02*
X10293396Y-14836484D01*
X10245777Y-14626960D02*
X10198158Y-14769817D01*
X10198158Y-14769817D02*
X10321968Y-14769817D01*
X10388634Y-14636484D02*
X10388634Y-14674579D01*
X10464825Y-14636484D02*
X10464825Y-14674579D01*
X10760063Y-14912674D02*
X10750539Y-14903150D01*
X10750539Y-14903150D02*
X10731491Y-14874579D01*
X10731491Y-14874579D02*
X10721968Y-14855531D01*
X10721968Y-14855531D02*
X10712444Y-14826960D01*
X10712444Y-14826960D02*
X10702920Y-14779341D01*
X10702920Y-14779341D02*
X10702920Y-14741246D01*
X10702920Y-14741246D02*
X10712444Y-14693627D01*
X10712444Y-14693627D02*
X10721968Y-14665055D01*
X10721968Y-14665055D02*
X10731491Y-14646008D01*
X10731491Y-14646008D02*
X10750539Y-14617436D01*
X10750539Y-14617436D02*
X10760063Y-14607912D01*
X10921968Y-14636484D02*
X10883872Y-14636484D01*
X10883872Y-14636484D02*
X10864825Y-14646008D01*
X10864825Y-14646008D02*
X10855301Y-14655531D01*
X10855301Y-14655531D02*
X10836253Y-14684103D01*
X10836253Y-14684103D02*
X10826730Y-14722198D01*
X10826730Y-14722198D02*
X10826730Y-14798388D01*
X10826730Y-14798388D02*
X10836253Y-14817436D01*
X10836253Y-14817436D02*
X10845777Y-14826960D01*
X10845777Y-14826960D02*
X10864825Y-14836484D01*
X10864825Y-14836484D02*
X10902920Y-14836484D01*
X10902920Y-14836484D02*
X10921968Y-14826960D01*
X10921968Y-14826960D02*
X10931491Y-14817436D01*
X10931491Y-14817436D02*
X10941015Y-14798388D01*
X10941015Y-14798388D02*
X10941015Y-14750769D01*
X10941015Y-14750769D02*
X10931491Y-14731722D01*
X10931491Y-14731722D02*
X10921968Y-14722198D01*
X10921968Y-14722198D02*
X10902920Y-14712674D01*
X10902920Y-14712674D02*
X10864825Y-14712674D01*
X10864825Y-14712674D02*
X10845777Y-14722198D01*
X10845777Y-14722198D02*
X10836253Y-14731722D01*
X10836253Y-14731722D02*
X10826730Y-14750769D01*
X11179111Y-14836484D02*
X11179111Y-14636484D01*
X11264825Y-14836484D02*
X11264825Y-14731722D01*
X11264825Y-14731722D02*
X11255301Y-14712674D01*
X11255301Y-14712674D02*
X11236253Y-14703150D01*
X11236253Y-14703150D02*
X11207682Y-14703150D01*
X11207682Y-14703150D02*
X11188634Y-14712674D01*
X11188634Y-14712674D02*
X11179111Y-14722198D01*
X11388634Y-14836484D02*
X11369587Y-14826960D01*
X11369587Y-14826960D02*
X11360063Y-14817436D01*
X11360063Y-14817436D02*
X11350539Y-14798388D01*
X11350539Y-14798388D02*
X11350539Y-14741246D01*
X11350539Y-14741246D02*
X11360063Y-14722198D01*
X11360063Y-14722198D02*
X11369587Y-14712674D01*
X11369587Y-14712674D02*
X11388634Y-14703150D01*
X11388634Y-14703150D02*
X11417206Y-14703150D01*
X11417206Y-14703150D02*
X11436253Y-14712674D01*
X11436253Y-14712674D02*
X11445777Y-14722198D01*
X11445777Y-14722198D02*
X11455301Y-14741246D01*
X11455301Y-14741246D02*
X11455301Y-14798388D01*
X11455301Y-14798388D02*
X11445777Y-14817436D01*
X11445777Y-14817436D02*
X11436253Y-14826960D01*
X11436253Y-14826960D02*
X11417206Y-14836484D01*
X11417206Y-14836484D02*
X11388634Y-14836484D01*
X11569587Y-14836484D02*
X11550539Y-14826960D01*
X11550539Y-14826960D02*
X11541015Y-14807912D01*
X11541015Y-14807912D02*
X11541015Y-14636484D01*
X11721968Y-14826960D02*
X11702920Y-14836484D01*
X11702920Y-14836484D02*
X11664825Y-14836484D01*
X11664825Y-14836484D02*
X11645777Y-14826960D01*
X11645777Y-14826960D02*
X11636253Y-14807912D01*
X11636253Y-14807912D02*
X11636253Y-14731722D01*
X11636253Y-14731722D02*
X11645777Y-14712674D01*
X11645777Y-14712674D02*
X11664825Y-14703150D01*
X11664825Y-14703150D02*
X11702920Y-14703150D01*
X11702920Y-14703150D02*
X11721968Y-14712674D01*
X11721968Y-14712674D02*
X11731491Y-14731722D01*
X11731491Y-14731722D02*
X11731491Y-14750769D01*
X11731491Y-14750769D02*
X11636253Y-14769817D01*
X11807682Y-14826960D02*
X11826730Y-14836484D01*
X11826730Y-14836484D02*
X11864825Y-14836484D01*
X11864825Y-14836484D02*
X11883872Y-14826960D01*
X11883872Y-14826960D02*
X11893396Y-14807912D01*
X11893396Y-14807912D02*
X11893396Y-14798388D01*
X11893396Y-14798388D02*
X11883872Y-14779341D01*
X11883872Y-14779341D02*
X11864825Y-14769817D01*
X11864825Y-14769817D02*
X11836253Y-14769817D01*
X11836253Y-14769817D02*
X11817206Y-14760293D01*
X11817206Y-14760293D02*
X11807682Y-14741246D01*
X11807682Y-14741246D02*
X11807682Y-14731722D01*
X11807682Y-14731722D02*
X11817206Y-14712674D01*
X11817206Y-14712674D02*
X11836253Y-14703150D01*
X11836253Y-14703150D02*
X11864825Y-14703150D01*
X11864825Y-14703150D02*
X11883872Y-14712674D01*
X11960063Y-14912674D02*
X11969587Y-14903150D01*
X11969587Y-14903150D02*
X11988634Y-14874579D01*
X11988634Y-14874579D02*
X11998158Y-14855531D01*
X11998158Y-14855531D02*
X12007682Y-14826960D01*
X12007682Y-14826960D02*
X12017206Y-14779341D01*
X12017206Y-14779341D02*
X12017206Y-14741246D01*
X12017206Y-14741246D02*
X12007682Y-14693627D01*
X12007682Y-14693627D02*
X11998158Y-14665055D01*
X11998158Y-14665055D02*
X11988634Y-14646008D01*
X11988634Y-14646008D02*
X11969587Y-14617436D01*
X11969587Y-14617436D02*
X11960063Y-14607912D01*
D12*
X7185000Y-15009000D02*
G75*
G03*
X7185000Y-15009000I-54500J0D01*
G01*
D11*
X7550539Y-15100484D02*
X7436253Y-15100484D01*
X7493396Y-15100484D02*
X7493396Y-14900484D01*
X7493396Y-14900484D02*
X7474348Y-14929055D01*
X7474348Y-14929055D02*
X7455301Y-14948103D01*
X7455301Y-14948103D02*
X7436253Y-14957627D01*
X7636253Y-15081436D02*
X7645777Y-15090960D01*
X7645777Y-15090960D02*
X7636253Y-15100484D01*
X7636253Y-15100484D02*
X7626729Y-15090960D01*
X7626729Y-15090960D02*
X7636253Y-15081436D01*
X7636253Y-15081436D02*
X7636253Y-15100484D01*
X7769586Y-14900484D02*
X7788634Y-14900484D01*
X7788634Y-14900484D02*
X7807682Y-14910008D01*
X7807682Y-14910008D02*
X7817205Y-14919531D01*
X7817205Y-14919531D02*
X7826729Y-14938579D01*
X7826729Y-14938579D02*
X7836253Y-14976674D01*
X7836253Y-14976674D02*
X7836253Y-15024293D01*
X7836253Y-15024293D02*
X7826729Y-15062388D01*
X7826729Y-15062388D02*
X7817205Y-15081436D01*
X7817205Y-15081436D02*
X7807682Y-15090960D01*
X7807682Y-15090960D02*
X7788634Y-15100484D01*
X7788634Y-15100484D02*
X7769586Y-15100484D01*
X7769586Y-15100484D02*
X7750539Y-15090960D01*
X7750539Y-15090960D02*
X7741015Y-15081436D01*
X7741015Y-15081436D02*
X7731491Y-15062388D01*
X7731491Y-15062388D02*
X7721967Y-15024293D01*
X7721967Y-15024293D02*
X7721967Y-14976674D01*
X7721967Y-14976674D02*
X7731491Y-14938579D01*
X7731491Y-14938579D02*
X7741015Y-14919531D01*
X7741015Y-14919531D02*
X7750539Y-14910008D01*
X7750539Y-14910008D02*
X7769586Y-14900484D01*
X7931491Y-15100484D02*
X7969586Y-15100484D01*
X7969586Y-15100484D02*
X7988634Y-15090960D01*
X7988634Y-15090960D02*
X7998158Y-15081436D01*
X7998158Y-15081436D02*
X8017205Y-15052865D01*
X8017205Y-15052865D02*
X8026729Y-15014769D01*
X8026729Y-15014769D02*
X8026729Y-14938579D01*
X8026729Y-14938579D02*
X8017205Y-14919531D01*
X8017205Y-14919531D02*
X8007682Y-14910008D01*
X8007682Y-14910008D02*
X7988634Y-14900484D01*
X7988634Y-14900484D02*
X7950539Y-14900484D01*
X7950539Y-14900484D02*
X7931491Y-14910008D01*
X7931491Y-14910008D02*
X7921967Y-14919531D01*
X7921967Y-14919531D02*
X7912443Y-14938579D01*
X7912443Y-14938579D02*
X7912443Y-14986198D01*
X7912443Y-14986198D02*
X7921967Y-15005246D01*
X7921967Y-15005246D02*
X7931491Y-15014769D01*
X7931491Y-15014769D02*
X7950539Y-15024293D01*
X7950539Y-15024293D02*
X7988634Y-15024293D01*
X7988634Y-15024293D02*
X8007682Y-15014769D01*
X8007682Y-15014769D02*
X8017205Y-15005246D01*
X8017205Y-15005246D02*
X8026729Y-14986198D01*
X8150539Y-14900484D02*
X8169586Y-14900484D01*
X8169586Y-14900484D02*
X8188634Y-14910008D01*
X8188634Y-14910008D02*
X8198158Y-14919531D01*
X8198158Y-14919531D02*
X8207682Y-14938579D01*
X8207682Y-14938579D02*
X8217205Y-14976674D01*
X8217205Y-14976674D02*
X8217205Y-15024293D01*
X8217205Y-15024293D02*
X8207682Y-15062388D01*
X8207682Y-15062388D02*
X8198158Y-15081436D01*
X8198158Y-15081436D02*
X8188634Y-15090960D01*
X8188634Y-15090960D02*
X8169586Y-15100484D01*
X8169586Y-15100484D02*
X8150539Y-15100484D01*
X8150539Y-15100484D02*
X8131491Y-15090960D01*
X8131491Y-15090960D02*
X8121967Y-15081436D01*
X8121967Y-15081436D02*
X8112443Y-15062388D01*
X8112443Y-15062388D02*
X8102920Y-15024293D01*
X8102920Y-15024293D02*
X8102920Y-14976674D01*
X8102920Y-14976674D02*
X8112443Y-14938579D01*
X8112443Y-14938579D02*
X8121967Y-14919531D01*
X8121967Y-14919531D02*
X8131491Y-14910008D01*
X8131491Y-14910008D02*
X8150539Y-14900484D01*
X8302920Y-15100484D02*
X8302920Y-14967150D01*
X8302920Y-14986198D02*
X8312443Y-14976674D01*
X8312443Y-14976674D02*
X8331491Y-14967150D01*
X8331491Y-14967150D02*
X8360063Y-14967150D01*
X8360063Y-14967150D02*
X8379110Y-14976674D01*
X8379110Y-14976674D02*
X8388634Y-14995722D01*
X8388634Y-14995722D02*
X8388634Y-15100484D01*
X8388634Y-14995722D02*
X8398158Y-14976674D01*
X8398158Y-14976674D02*
X8417205Y-14967150D01*
X8417205Y-14967150D02*
X8445777Y-14967150D01*
X8445777Y-14967150D02*
X8464825Y-14976674D01*
X8464825Y-14976674D02*
X8474348Y-14995722D01*
X8474348Y-14995722D02*
X8474348Y-15100484D01*
X8569586Y-15100484D02*
X8569586Y-14967150D01*
X8569586Y-14986198D02*
X8579110Y-14976674D01*
X8579110Y-14976674D02*
X8598158Y-14967150D01*
X8598158Y-14967150D02*
X8626729Y-14967150D01*
X8626729Y-14967150D02*
X8645777Y-14976674D01*
X8645777Y-14976674D02*
X8655301Y-14995722D01*
X8655301Y-14995722D02*
X8655301Y-15100484D01*
X8655301Y-14995722D02*
X8664825Y-14976674D01*
X8664825Y-14976674D02*
X8683872Y-14967150D01*
X8683872Y-14967150D02*
X8712444Y-14967150D01*
X8712444Y-14967150D02*
X8731491Y-14976674D01*
X8731491Y-14976674D02*
X8741015Y-14995722D01*
X8741015Y-14995722D02*
X8741015Y-15100484D01*
X9131491Y-14890960D02*
X8960063Y-15148103D01*
X9388634Y-14900484D02*
X9407682Y-14900484D01*
X9407682Y-14900484D02*
X9426729Y-14910008D01*
X9426729Y-14910008D02*
X9436253Y-14919531D01*
X9436253Y-14919531D02*
X9445777Y-14938579D01*
X9445777Y-14938579D02*
X9455301Y-14976674D01*
X9455301Y-14976674D02*
X9455301Y-15024293D01*
X9455301Y-15024293D02*
X9445777Y-15062388D01*
X9445777Y-15062388D02*
X9436253Y-15081436D01*
X9436253Y-15081436D02*
X9426729Y-15090960D01*
X9426729Y-15090960D02*
X9407682Y-15100484D01*
X9407682Y-15100484D02*
X9388634Y-15100484D01*
X9388634Y-15100484D02*
X9369587Y-15090960D01*
X9369587Y-15090960D02*
X9360063Y-15081436D01*
X9360063Y-15081436D02*
X9350539Y-15062388D01*
X9350539Y-15062388D02*
X9341015Y-15024293D01*
X9341015Y-15024293D02*
X9341015Y-14976674D01*
X9341015Y-14976674D02*
X9350539Y-14938579D01*
X9350539Y-14938579D02*
X9360063Y-14919531D01*
X9360063Y-14919531D02*
X9369587Y-14910008D01*
X9369587Y-14910008D02*
X9388634Y-14900484D01*
X9541015Y-15081436D02*
X9550539Y-15090960D01*
X9550539Y-15090960D02*
X9541015Y-15100484D01*
X9541015Y-15100484D02*
X9531491Y-15090960D01*
X9531491Y-15090960D02*
X9541015Y-15081436D01*
X9541015Y-15081436D02*
X9541015Y-15100484D01*
X9674348Y-14900484D02*
X9693396Y-14900484D01*
X9693396Y-14900484D02*
X9712444Y-14910008D01*
X9712444Y-14910008D02*
X9721968Y-14919531D01*
X9721968Y-14919531D02*
X9731491Y-14938579D01*
X9731491Y-14938579D02*
X9741015Y-14976674D01*
X9741015Y-14976674D02*
X9741015Y-15024293D01*
X9741015Y-15024293D02*
X9731491Y-15062388D01*
X9731491Y-15062388D02*
X9721968Y-15081436D01*
X9721968Y-15081436D02*
X9712444Y-15090960D01*
X9712444Y-15090960D02*
X9693396Y-15100484D01*
X9693396Y-15100484D02*
X9674348Y-15100484D01*
X9674348Y-15100484D02*
X9655301Y-15090960D01*
X9655301Y-15090960D02*
X9645777Y-15081436D01*
X9645777Y-15081436D02*
X9636253Y-15062388D01*
X9636253Y-15062388D02*
X9626729Y-15024293D01*
X9626729Y-15024293D02*
X9626729Y-14976674D01*
X9626729Y-14976674D02*
X9636253Y-14938579D01*
X9636253Y-14938579D02*
X9645777Y-14919531D01*
X9645777Y-14919531D02*
X9655301Y-14910008D01*
X9655301Y-14910008D02*
X9674348Y-14900484D01*
X9912444Y-14967150D02*
X9912444Y-15100484D01*
X9864825Y-14890960D02*
X9817206Y-15033817D01*
X9817206Y-15033817D02*
X9941015Y-15033817D01*
X10007682Y-14919531D02*
X10017206Y-14910008D01*
X10017206Y-14910008D02*
X10036253Y-14900484D01*
X10036253Y-14900484D02*
X10083872Y-14900484D01*
X10083872Y-14900484D02*
X10102920Y-14910008D01*
X10102920Y-14910008D02*
X10112444Y-14919531D01*
X10112444Y-14919531D02*
X10121968Y-14938579D01*
X10121968Y-14938579D02*
X10121968Y-14957627D01*
X10121968Y-14957627D02*
X10112444Y-14986198D01*
X10112444Y-14986198D02*
X9998158Y-15100484D01*
X9998158Y-15100484D02*
X10121968Y-15100484D01*
X10217206Y-15100484D02*
X10255301Y-15100484D01*
X10255301Y-15100484D02*
X10274349Y-15090960D01*
X10274349Y-15090960D02*
X10283872Y-15081436D01*
X10283872Y-15081436D02*
X10302920Y-15052865D01*
X10302920Y-15052865D02*
X10312444Y-15014769D01*
X10312444Y-15014769D02*
X10312444Y-14938579D01*
X10312444Y-14938579D02*
X10302920Y-14919531D01*
X10302920Y-14919531D02*
X10293396Y-14910008D01*
X10293396Y-14910008D02*
X10274349Y-14900484D01*
X10274349Y-14900484D02*
X10236253Y-14900484D01*
X10236253Y-14900484D02*
X10217206Y-14910008D01*
X10217206Y-14910008D02*
X10207682Y-14919531D01*
X10207682Y-14919531D02*
X10198158Y-14938579D01*
X10198158Y-14938579D02*
X10198158Y-14986198D01*
X10198158Y-14986198D02*
X10207682Y-15005246D01*
X10207682Y-15005246D02*
X10217206Y-15014769D01*
X10217206Y-15014769D02*
X10236253Y-15024293D01*
X10236253Y-15024293D02*
X10274349Y-15024293D01*
X10274349Y-15024293D02*
X10293396Y-15014769D01*
X10293396Y-15014769D02*
X10302920Y-15005246D01*
X10302920Y-15005246D02*
X10312444Y-14986198D01*
X10388634Y-14900484D02*
X10388634Y-14938579D01*
X10464825Y-14900484D02*
X10464825Y-14938579D01*
X10760063Y-15176674D02*
X10750539Y-15167150D01*
X10750539Y-15167150D02*
X10731491Y-15138579D01*
X10731491Y-15138579D02*
X10721968Y-15119531D01*
X10721968Y-15119531D02*
X10712444Y-15090960D01*
X10712444Y-15090960D02*
X10702920Y-15043341D01*
X10702920Y-15043341D02*
X10702920Y-15005246D01*
X10702920Y-15005246D02*
X10712444Y-14957627D01*
X10712444Y-14957627D02*
X10721968Y-14929055D01*
X10721968Y-14929055D02*
X10731491Y-14910008D01*
X10731491Y-14910008D02*
X10750539Y-14881436D01*
X10750539Y-14881436D02*
X10760063Y-14871912D01*
X10826730Y-14919531D02*
X10836253Y-14910008D01*
X10836253Y-14910008D02*
X10855301Y-14900484D01*
X10855301Y-14900484D02*
X10902920Y-14900484D01*
X10902920Y-14900484D02*
X10921968Y-14910008D01*
X10921968Y-14910008D02*
X10931491Y-14919531D01*
X10931491Y-14919531D02*
X10941015Y-14938579D01*
X10941015Y-14938579D02*
X10941015Y-14957627D01*
X10941015Y-14957627D02*
X10931491Y-14986198D01*
X10931491Y-14986198D02*
X10817206Y-15100484D01*
X10817206Y-15100484D02*
X10941015Y-15100484D01*
X11179111Y-15100484D02*
X11179111Y-14900484D01*
X11264825Y-15100484D02*
X11264825Y-14995722D01*
X11264825Y-14995722D02*
X11255301Y-14976674D01*
X11255301Y-14976674D02*
X11236253Y-14967150D01*
X11236253Y-14967150D02*
X11207682Y-14967150D01*
X11207682Y-14967150D02*
X11188634Y-14976674D01*
X11188634Y-14976674D02*
X11179111Y-14986198D01*
X11388634Y-15100484D02*
X11369587Y-15090960D01*
X11369587Y-15090960D02*
X11360063Y-15081436D01*
X11360063Y-15081436D02*
X11350539Y-15062388D01*
X11350539Y-15062388D02*
X11350539Y-15005246D01*
X11350539Y-15005246D02*
X11360063Y-14986198D01*
X11360063Y-14986198D02*
X11369587Y-14976674D01*
X11369587Y-14976674D02*
X11388634Y-14967150D01*
X11388634Y-14967150D02*
X11417206Y-14967150D01*
X11417206Y-14967150D02*
X11436253Y-14976674D01*
X11436253Y-14976674D02*
X11445777Y-14986198D01*
X11445777Y-14986198D02*
X11455301Y-15005246D01*
X11455301Y-15005246D02*
X11455301Y-15062388D01*
X11455301Y-15062388D02*
X11445777Y-15081436D01*
X11445777Y-15081436D02*
X11436253Y-15090960D01*
X11436253Y-15090960D02*
X11417206Y-15100484D01*
X11417206Y-15100484D02*
X11388634Y-15100484D01*
X11569587Y-15100484D02*
X11550539Y-15090960D01*
X11550539Y-15090960D02*
X11541015Y-15071912D01*
X11541015Y-15071912D02*
X11541015Y-14900484D01*
X11721968Y-15090960D02*
X11702920Y-15100484D01*
X11702920Y-15100484D02*
X11664825Y-15100484D01*
X11664825Y-15100484D02*
X11645777Y-15090960D01*
X11645777Y-15090960D02*
X11636253Y-15071912D01*
X11636253Y-15071912D02*
X11636253Y-14995722D01*
X11636253Y-14995722D02*
X11645777Y-14976674D01*
X11645777Y-14976674D02*
X11664825Y-14967150D01*
X11664825Y-14967150D02*
X11702920Y-14967150D01*
X11702920Y-14967150D02*
X11721968Y-14976674D01*
X11721968Y-14976674D02*
X11731491Y-14995722D01*
X11731491Y-14995722D02*
X11731491Y-15014769D01*
X11731491Y-15014769D02*
X11636253Y-15033817D01*
X11807682Y-15090960D02*
X11826730Y-15100484D01*
X11826730Y-15100484D02*
X11864825Y-15100484D01*
X11864825Y-15100484D02*
X11883872Y-15090960D01*
X11883872Y-15090960D02*
X11893396Y-15071912D01*
X11893396Y-15071912D02*
X11893396Y-15062388D01*
X11893396Y-15062388D02*
X11883872Y-15043341D01*
X11883872Y-15043341D02*
X11864825Y-15033817D01*
X11864825Y-15033817D02*
X11836253Y-15033817D01*
X11836253Y-15033817D02*
X11817206Y-15024293D01*
X11817206Y-15024293D02*
X11807682Y-15005246D01*
X11807682Y-15005246D02*
X11807682Y-14995722D01*
X11807682Y-14995722D02*
X11817206Y-14976674D01*
X11817206Y-14976674D02*
X11836253Y-14967150D01*
X11836253Y-14967150D02*
X11864825Y-14967150D01*
X11864825Y-14967150D02*
X11883872Y-14976674D01*
X11960063Y-15176674D02*
X11969587Y-15167150D01*
X11969587Y-15167150D02*
X11988634Y-15138579D01*
X11988634Y-15138579D02*
X11998158Y-15119531D01*
X11998158Y-15119531D02*
X12007682Y-15090960D01*
X12007682Y-15090960D02*
X12017206Y-15043341D01*
X12017206Y-15043341D02*
X12017206Y-15005246D01*
X12017206Y-15005246D02*
X12007682Y-14957627D01*
X12007682Y-14957627D02*
X11998158Y-14929055D01*
X11998158Y-14929055D02*
X11988634Y-14910008D01*
X11988634Y-14910008D02*
X11969587Y-14881436D01*
X11969587Y-14881436D02*
X11960063Y-14871912D01*
D13*
X7110000Y-15198000D02*
X7110000Y-15348000D01*
X7035000Y-15273000D02*
X7185000Y-15273000D01*
D11*
X7550539Y-15364484D02*
X7436253Y-15364484D01*
X7493396Y-15364484D02*
X7493396Y-15164484D01*
X7493396Y-15164484D02*
X7474348Y-15193055D01*
X7474348Y-15193055D02*
X7455301Y-15212103D01*
X7455301Y-15212103D02*
X7436253Y-15221627D01*
X7636253Y-15345436D02*
X7645777Y-15354960D01*
X7645777Y-15354960D02*
X7636253Y-15364484D01*
X7636253Y-15364484D02*
X7626729Y-15354960D01*
X7626729Y-15354960D02*
X7636253Y-15345436D01*
X7636253Y-15345436D02*
X7636253Y-15364484D01*
X7826729Y-15164484D02*
X7731491Y-15164484D01*
X7731491Y-15164484D02*
X7721967Y-15259722D01*
X7721967Y-15259722D02*
X7731491Y-15250198D01*
X7731491Y-15250198D02*
X7750539Y-15240674D01*
X7750539Y-15240674D02*
X7798158Y-15240674D01*
X7798158Y-15240674D02*
X7817205Y-15250198D01*
X7817205Y-15250198D02*
X7826729Y-15259722D01*
X7826729Y-15259722D02*
X7836253Y-15278769D01*
X7836253Y-15278769D02*
X7836253Y-15326388D01*
X7836253Y-15326388D02*
X7826729Y-15345436D01*
X7826729Y-15345436D02*
X7817205Y-15354960D01*
X7817205Y-15354960D02*
X7798158Y-15364484D01*
X7798158Y-15364484D02*
X7750539Y-15364484D01*
X7750539Y-15364484D02*
X7731491Y-15354960D01*
X7731491Y-15354960D02*
X7721967Y-15345436D01*
X7960062Y-15164484D02*
X7979110Y-15164484D01*
X7979110Y-15164484D02*
X7998158Y-15174008D01*
X7998158Y-15174008D02*
X8007682Y-15183531D01*
X8007682Y-15183531D02*
X8017205Y-15202579D01*
X8017205Y-15202579D02*
X8026729Y-15240674D01*
X8026729Y-15240674D02*
X8026729Y-15288293D01*
X8026729Y-15288293D02*
X8017205Y-15326388D01*
X8017205Y-15326388D02*
X8007682Y-15345436D01*
X8007682Y-15345436D02*
X7998158Y-15354960D01*
X7998158Y-15354960D02*
X7979110Y-15364484D01*
X7979110Y-15364484D02*
X7960062Y-15364484D01*
X7960062Y-15364484D02*
X7941015Y-15354960D01*
X7941015Y-15354960D02*
X7931491Y-15345436D01*
X7931491Y-15345436D02*
X7921967Y-15326388D01*
X7921967Y-15326388D02*
X7912443Y-15288293D01*
X7912443Y-15288293D02*
X7912443Y-15240674D01*
X7912443Y-15240674D02*
X7921967Y-15202579D01*
X7921967Y-15202579D02*
X7931491Y-15183531D01*
X7931491Y-15183531D02*
X7941015Y-15174008D01*
X7941015Y-15174008D02*
X7960062Y-15164484D01*
X8150539Y-15164484D02*
X8169586Y-15164484D01*
X8169586Y-15164484D02*
X8188634Y-15174008D01*
X8188634Y-15174008D02*
X8198158Y-15183531D01*
X8198158Y-15183531D02*
X8207682Y-15202579D01*
X8207682Y-15202579D02*
X8217205Y-15240674D01*
X8217205Y-15240674D02*
X8217205Y-15288293D01*
X8217205Y-15288293D02*
X8207682Y-15326388D01*
X8207682Y-15326388D02*
X8198158Y-15345436D01*
X8198158Y-15345436D02*
X8188634Y-15354960D01*
X8188634Y-15354960D02*
X8169586Y-15364484D01*
X8169586Y-15364484D02*
X8150539Y-15364484D01*
X8150539Y-15364484D02*
X8131491Y-15354960D01*
X8131491Y-15354960D02*
X8121967Y-15345436D01*
X8121967Y-15345436D02*
X8112443Y-15326388D01*
X8112443Y-15326388D02*
X8102920Y-15288293D01*
X8102920Y-15288293D02*
X8102920Y-15240674D01*
X8102920Y-15240674D02*
X8112443Y-15202579D01*
X8112443Y-15202579D02*
X8121967Y-15183531D01*
X8121967Y-15183531D02*
X8131491Y-15174008D01*
X8131491Y-15174008D02*
X8150539Y-15164484D01*
X8302920Y-15364484D02*
X8302920Y-15231150D01*
X8302920Y-15250198D02*
X8312443Y-15240674D01*
X8312443Y-15240674D02*
X8331491Y-15231150D01*
X8331491Y-15231150D02*
X8360063Y-15231150D01*
X8360063Y-15231150D02*
X8379110Y-15240674D01*
X8379110Y-15240674D02*
X8388634Y-15259722D01*
X8388634Y-15259722D02*
X8388634Y-15364484D01*
X8388634Y-15259722D02*
X8398158Y-15240674D01*
X8398158Y-15240674D02*
X8417205Y-15231150D01*
X8417205Y-15231150D02*
X8445777Y-15231150D01*
X8445777Y-15231150D02*
X8464825Y-15240674D01*
X8464825Y-15240674D02*
X8474348Y-15259722D01*
X8474348Y-15259722D02*
X8474348Y-15364484D01*
X8569586Y-15364484D02*
X8569586Y-15231150D01*
X8569586Y-15250198D02*
X8579110Y-15240674D01*
X8579110Y-15240674D02*
X8598158Y-15231150D01*
X8598158Y-15231150D02*
X8626729Y-15231150D01*
X8626729Y-15231150D02*
X8645777Y-15240674D01*
X8645777Y-15240674D02*
X8655301Y-15259722D01*
X8655301Y-15259722D02*
X8655301Y-15364484D01*
X8655301Y-15259722D02*
X8664825Y-15240674D01*
X8664825Y-15240674D02*
X8683872Y-15231150D01*
X8683872Y-15231150D02*
X8712444Y-15231150D01*
X8712444Y-15231150D02*
X8731491Y-15240674D01*
X8731491Y-15240674D02*
X8741015Y-15259722D01*
X8741015Y-15259722D02*
X8741015Y-15364484D01*
X9131491Y-15154960D02*
X8960063Y-15412103D01*
X9388634Y-15164484D02*
X9407682Y-15164484D01*
X9407682Y-15164484D02*
X9426729Y-15174008D01*
X9426729Y-15174008D02*
X9436253Y-15183531D01*
X9436253Y-15183531D02*
X9445777Y-15202579D01*
X9445777Y-15202579D02*
X9455301Y-15240674D01*
X9455301Y-15240674D02*
X9455301Y-15288293D01*
X9455301Y-15288293D02*
X9445777Y-15326388D01*
X9445777Y-15326388D02*
X9436253Y-15345436D01*
X9436253Y-15345436D02*
X9426729Y-15354960D01*
X9426729Y-15354960D02*
X9407682Y-15364484D01*
X9407682Y-15364484D02*
X9388634Y-15364484D01*
X9388634Y-15364484D02*
X9369587Y-15354960D01*
X9369587Y-15354960D02*
X9360063Y-15345436D01*
X9360063Y-15345436D02*
X9350539Y-15326388D01*
X9350539Y-15326388D02*
X9341015Y-15288293D01*
X9341015Y-15288293D02*
X9341015Y-15240674D01*
X9341015Y-15240674D02*
X9350539Y-15202579D01*
X9350539Y-15202579D02*
X9360063Y-15183531D01*
X9360063Y-15183531D02*
X9369587Y-15174008D01*
X9369587Y-15174008D02*
X9388634Y-15164484D01*
X9541015Y-15345436D02*
X9550539Y-15354960D01*
X9550539Y-15354960D02*
X9541015Y-15364484D01*
X9541015Y-15364484D02*
X9531491Y-15354960D01*
X9531491Y-15354960D02*
X9541015Y-15345436D01*
X9541015Y-15345436D02*
X9541015Y-15364484D01*
X9674348Y-15164484D02*
X9693396Y-15164484D01*
X9693396Y-15164484D02*
X9712444Y-15174008D01*
X9712444Y-15174008D02*
X9721968Y-15183531D01*
X9721968Y-15183531D02*
X9731491Y-15202579D01*
X9731491Y-15202579D02*
X9741015Y-15240674D01*
X9741015Y-15240674D02*
X9741015Y-15288293D01*
X9741015Y-15288293D02*
X9731491Y-15326388D01*
X9731491Y-15326388D02*
X9721968Y-15345436D01*
X9721968Y-15345436D02*
X9712444Y-15354960D01*
X9712444Y-15354960D02*
X9693396Y-15364484D01*
X9693396Y-15364484D02*
X9674348Y-15364484D01*
X9674348Y-15364484D02*
X9655301Y-15354960D01*
X9655301Y-15354960D02*
X9645777Y-15345436D01*
X9645777Y-15345436D02*
X9636253Y-15326388D01*
X9636253Y-15326388D02*
X9626729Y-15288293D01*
X9626729Y-15288293D02*
X9626729Y-15240674D01*
X9626729Y-15240674D02*
X9636253Y-15202579D01*
X9636253Y-15202579D02*
X9645777Y-15183531D01*
X9645777Y-15183531D02*
X9655301Y-15174008D01*
X9655301Y-15174008D02*
X9674348Y-15164484D01*
X9921968Y-15164484D02*
X9826729Y-15164484D01*
X9826729Y-15164484D02*
X9817206Y-15259722D01*
X9817206Y-15259722D02*
X9826729Y-15250198D01*
X9826729Y-15250198D02*
X9845777Y-15240674D01*
X9845777Y-15240674D02*
X9893396Y-15240674D01*
X9893396Y-15240674D02*
X9912444Y-15250198D01*
X9912444Y-15250198D02*
X9921968Y-15259722D01*
X9921968Y-15259722D02*
X9931491Y-15278769D01*
X9931491Y-15278769D02*
X9931491Y-15326388D01*
X9931491Y-15326388D02*
X9921968Y-15345436D01*
X9921968Y-15345436D02*
X9912444Y-15354960D01*
X9912444Y-15354960D02*
X9893396Y-15364484D01*
X9893396Y-15364484D02*
X9845777Y-15364484D01*
X9845777Y-15364484D02*
X9826729Y-15354960D01*
X9826729Y-15354960D02*
X9817206Y-15345436D01*
X10026729Y-15364484D02*
X10064825Y-15364484D01*
X10064825Y-15364484D02*
X10083872Y-15354960D01*
X10083872Y-15354960D02*
X10093396Y-15345436D01*
X10093396Y-15345436D02*
X10112444Y-15316865D01*
X10112444Y-15316865D02*
X10121968Y-15278769D01*
X10121968Y-15278769D02*
X10121968Y-15202579D01*
X10121968Y-15202579D02*
X10112444Y-15183531D01*
X10112444Y-15183531D02*
X10102920Y-15174008D01*
X10102920Y-15174008D02*
X10083872Y-15164484D01*
X10083872Y-15164484D02*
X10045777Y-15164484D01*
X10045777Y-15164484D02*
X10026729Y-15174008D01*
X10026729Y-15174008D02*
X10017206Y-15183531D01*
X10017206Y-15183531D02*
X10007682Y-15202579D01*
X10007682Y-15202579D02*
X10007682Y-15250198D01*
X10007682Y-15250198D02*
X10017206Y-15269246D01*
X10017206Y-15269246D02*
X10026729Y-15278769D01*
X10026729Y-15278769D02*
X10045777Y-15288293D01*
X10045777Y-15288293D02*
X10083872Y-15288293D01*
X10083872Y-15288293D02*
X10102920Y-15278769D01*
X10102920Y-15278769D02*
X10112444Y-15269246D01*
X10112444Y-15269246D02*
X10121968Y-15250198D01*
X10312444Y-15364484D02*
X10198158Y-15364484D01*
X10255301Y-15364484D02*
X10255301Y-15164484D01*
X10255301Y-15164484D02*
X10236253Y-15193055D01*
X10236253Y-15193055D02*
X10217206Y-15212103D01*
X10217206Y-15212103D02*
X10198158Y-15221627D01*
X10388634Y-15164484D02*
X10388634Y-15202579D01*
X10464825Y-15164484D02*
X10464825Y-15202579D01*
X10760063Y-15440674D02*
X10750539Y-15431150D01*
X10750539Y-15431150D02*
X10731491Y-15402579D01*
X10731491Y-15402579D02*
X10721968Y-15383531D01*
X10721968Y-15383531D02*
X10712444Y-15354960D01*
X10712444Y-15354960D02*
X10702920Y-15307341D01*
X10702920Y-15307341D02*
X10702920Y-15269246D01*
X10702920Y-15269246D02*
X10712444Y-15221627D01*
X10712444Y-15221627D02*
X10721968Y-15193055D01*
X10721968Y-15193055D02*
X10731491Y-15174008D01*
X10731491Y-15174008D02*
X10750539Y-15145436D01*
X10750539Y-15145436D02*
X10760063Y-15135912D01*
X10941015Y-15364484D02*
X10826730Y-15364484D01*
X10883872Y-15364484D02*
X10883872Y-15164484D01*
X10883872Y-15164484D02*
X10864825Y-15193055D01*
X10864825Y-15193055D02*
X10845777Y-15212103D01*
X10845777Y-15212103D02*
X10826730Y-15221627D01*
X11112444Y-15164484D02*
X11074349Y-15164484D01*
X11074349Y-15164484D02*
X11055301Y-15174008D01*
X11055301Y-15174008D02*
X11045777Y-15183531D01*
X11045777Y-15183531D02*
X11026730Y-15212103D01*
X11026730Y-15212103D02*
X11017206Y-15250198D01*
X11017206Y-15250198D02*
X11017206Y-15326388D01*
X11017206Y-15326388D02*
X11026730Y-15345436D01*
X11026730Y-15345436D02*
X11036253Y-15354960D01*
X11036253Y-15354960D02*
X11055301Y-15364484D01*
X11055301Y-15364484D02*
X11093396Y-15364484D01*
X11093396Y-15364484D02*
X11112444Y-15354960D01*
X11112444Y-15354960D02*
X11121968Y-15345436D01*
X11121968Y-15345436D02*
X11131491Y-15326388D01*
X11131491Y-15326388D02*
X11131491Y-15278769D01*
X11131491Y-15278769D02*
X11121968Y-15259722D01*
X11121968Y-15259722D02*
X11112444Y-15250198D01*
X11112444Y-15250198D02*
X11093396Y-15240674D01*
X11093396Y-15240674D02*
X11055301Y-15240674D01*
X11055301Y-15240674D02*
X11036253Y-15250198D01*
X11036253Y-15250198D02*
X11026730Y-15259722D01*
X11026730Y-15259722D02*
X11017206Y-15278769D01*
X11369587Y-15364484D02*
X11369587Y-15164484D01*
X11455301Y-15364484D02*
X11455301Y-15259722D01*
X11455301Y-15259722D02*
X11445777Y-15240674D01*
X11445777Y-15240674D02*
X11426730Y-15231150D01*
X11426730Y-15231150D02*
X11398158Y-15231150D01*
X11398158Y-15231150D02*
X11379110Y-15240674D01*
X11379110Y-15240674D02*
X11369587Y-15250198D01*
X11579110Y-15364484D02*
X11560063Y-15354960D01*
X11560063Y-15354960D02*
X11550539Y-15345436D01*
X11550539Y-15345436D02*
X11541015Y-15326388D01*
X11541015Y-15326388D02*
X11541015Y-15269246D01*
X11541015Y-15269246D02*
X11550539Y-15250198D01*
X11550539Y-15250198D02*
X11560063Y-15240674D01*
X11560063Y-15240674D02*
X11579110Y-15231150D01*
X11579110Y-15231150D02*
X11607682Y-15231150D01*
X11607682Y-15231150D02*
X11626730Y-15240674D01*
X11626730Y-15240674D02*
X11636253Y-15250198D01*
X11636253Y-15250198D02*
X11645777Y-15269246D01*
X11645777Y-15269246D02*
X11645777Y-15326388D01*
X11645777Y-15326388D02*
X11636253Y-15345436D01*
X11636253Y-15345436D02*
X11626730Y-15354960D01*
X11626730Y-15354960D02*
X11607682Y-15364484D01*
X11607682Y-15364484D02*
X11579110Y-15364484D01*
X11760063Y-15364484D02*
X11741015Y-15354960D01*
X11741015Y-15354960D02*
X11731491Y-15335912D01*
X11731491Y-15335912D02*
X11731491Y-15164484D01*
X11912444Y-15354960D02*
X11893396Y-15364484D01*
X11893396Y-15364484D02*
X11855301Y-15364484D01*
X11855301Y-15364484D02*
X11836253Y-15354960D01*
X11836253Y-15354960D02*
X11826730Y-15335912D01*
X11826730Y-15335912D02*
X11826730Y-15259722D01*
X11826730Y-15259722D02*
X11836253Y-15240674D01*
X11836253Y-15240674D02*
X11855301Y-15231150D01*
X11855301Y-15231150D02*
X11893396Y-15231150D01*
X11893396Y-15231150D02*
X11912444Y-15240674D01*
X11912444Y-15240674D02*
X11921968Y-15259722D01*
X11921968Y-15259722D02*
X11921968Y-15278769D01*
X11921968Y-15278769D02*
X11826730Y-15297817D01*
X11998158Y-15354960D02*
X12017206Y-15364484D01*
X12017206Y-15364484D02*
X12055301Y-15364484D01*
X12055301Y-15364484D02*
X12074349Y-15354960D01*
X12074349Y-15354960D02*
X12083872Y-15335912D01*
X12083872Y-15335912D02*
X12083872Y-15326388D01*
X12083872Y-15326388D02*
X12074349Y-15307341D01*
X12074349Y-15307341D02*
X12055301Y-15297817D01*
X12055301Y-15297817D02*
X12026730Y-15297817D01*
X12026730Y-15297817D02*
X12007682Y-15288293D01*
X12007682Y-15288293D02*
X11998158Y-15269246D01*
X11998158Y-15269246D02*
X11998158Y-15259722D01*
X11998158Y-15259722D02*
X12007682Y-15240674D01*
X12007682Y-15240674D02*
X12026730Y-15231150D01*
X12026730Y-15231150D02*
X12055301Y-15231150D01*
X12055301Y-15231150D02*
X12074349Y-15240674D01*
X12150539Y-15440674D02*
X12160063Y-15431150D01*
X12160063Y-15431150D02*
X12179111Y-15402579D01*
X12179111Y-15402579D02*
X12188634Y-15383531D01*
X12188634Y-15383531D02*
X12198158Y-15354960D01*
X12198158Y-15354960D02*
X12207682Y-15307341D01*
X12207682Y-15307341D02*
X12207682Y-15269246D01*
X12207682Y-15269246D02*
X12198158Y-15221627D01*
X12198158Y-15221627D02*
X12188634Y-15193055D01*
X12188634Y-15193055D02*
X12179111Y-15174008D01*
X12179111Y-15174008D02*
X12160063Y-15145436D01*
X12160063Y-15145436D02*
X12150539Y-15135912D01*
D14*
X7160105Y-15603105D02*
X7160105Y-15482895D01*
X7039895Y-15482895D01*
X7039895Y-15603105D01*
X7160105Y-15603105D01*
D11*
X7550539Y-15634484D02*
X7436253Y-15634484D01*
X7493396Y-15634484D02*
X7493396Y-15434484D01*
X7493396Y-15434484D02*
X7474348Y-15463055D01*
X7474348Y-15463055D02*
X7455301Y-15482103D01*
X7455301Y-15482103D02*
X7436253Y-15491627D01*
X7636253Y-15615436D02*
X7645777Y-15624960D01*
X7645777Y-15624960D02*
X7636253Y-15634484D01*
X7636253Y-15634484D02*
X7626729Y-15624960D01*
X7626729Y-15624960D02*
X7636253Y-15615436D01*
X7636253Y-15615436D02*
X7636253Y-15634484D01*
X7712443Y-15434484D02*
X7845777Y-15434484D01*
X7845777Y-15434484D02*
X7760062Y-15634484D01*
X7960062Y-15434484D02*
X7979110Y-15434484D01*
X7979110Y-15434484D02*
X7998158Y-15444008D01*
X7998158Y-15444008D02*
X8007682Y-15453531D01*
X8007682Y-15453531D02*
X8017205Y-15472579D01*
X8017205Y-15472579D02*
X8026729Y-15510674D01*
X8026729Y-15510674D02*
X8026729Y-15558293D01*
X8026729Y-15558293D02*
X8017205Y-15596388D01*
X8017205Y-15596388D02*
X8007682Y-15615436D01*
X8007682Y-15615436D02*
X7998158Y-15624960D01*
X7998158Y-15624960D02*
X7979110Y-15634484D01*
X7979110Y-15634484D02*
X7960062Y-15634484D01*
X7960062Y-15634484D02*
X7941015Y-15624960D01*
X7941015Y-15624960D02*
X7931491Y-15615436D01*
X7931491Y-15615436D02*
X7921967Y-15596388D01*
X7921967Y-15596388D02*
X7912443Y-15558293D01*
X7912443Y-15558293D02*
X7912443Y-15510674D01*
X7912443Y-15510674D02*
X7921967Y-15472579D01*
X7921967Y-15472579D02*
X7931491Y-15453531D01*
X7931491Y-15453531D02*
X7941015Y-15444008D01*
X7941015Y-15444008D02*
X7960062Y-15434484D01*
X8150539Y-15434484D02*
X8169586Y-15434484D01*
X8169586Y-15434484D02*
X8188634Y-15444008D01*
X8188634Y-15444008D02*
X8198158Y-15453531D01*
X8198158Y-15453531D02*
X8207682Y-15472579D01*
X8207682Y-15472579D02*
X8217205Y-15510674D01*
X8217205Y-15510674D02*
X8217205Y-15558293D01*
X8217205Y-15558293D02*
X8207682Y-15596388D01*
X8207682Y-15596388D02*
X8198158Y-15615436D01*
X8198158Y-15615436D02*
X8188634Y-15624960D01*
X8188634Y-15624960D02*
X8169586Y-15634484D01*
X8169586Y-15634484D02*
X8150539Y-15634484D01*
X8150539Y-15634484D02*
X8131491Y-15624960D01*
X8131491Y-15624960D02*
X8121967Y-15615436D01*
X8121967Y-15615436D02*
X8112443Y-15596388D01*
X8112443Y-15596388D02*
X8102920Y-15558293D01*
X8102920Y-15558293D02*
X8102920Y-15510674D01*
X8102920Y-15510674D02*
X8112443Y-15472579D01*
X8112443Y-15472579D02*
X8121967Y-15453531D01*
X8121967Y-15453531D02*
X8131491Y-15444008D01*
X8131491Y-15444008D02*
X8150539Y-15434484D01*
X8302920Y-15634484D02*
X8302920Y-15501150D01*
X8302920Y-15520198D02*
X8312443Y-15510674D01*
X8312443Y-15510674D02*
X8331491Y-15501150D01*
X8331491Y-15501150D02*
X8360063Y-15501150D01*
X8360063Y-15501150D02*
X8379110Y-15510674D01*
X8379110Y-15510674D02*
X8388634Y-15529722D01*
X8388634Y-15529722D02*
X8388634Y-15634484D01*
X8388634Y-15529722D02*
X8398158Y-15510674D01*
X8398158Y-15510674D02*
X8417205Y-15501150D01*
X8417205Y-15501150D02*
X8445777Y-15501150D01*
X8445777Y-15501150D02*
X8464825Y-15510674D01*
X8464825Y-15510674D02*
X8474348Y-15529722D01*
X8474348Y-15529722D02*
X8474348Y-15634484D01*
X8569586Y-15634484D02*
X8569586Y-15501150D01*
X8569586Y-15520198D02*
X8579110Y-15510674D01*
X8579110Y-15510674D02*
X8598158Y-15501150D01*
X8598158Y-15501150D02*
X8626729Y-15501150D01*
X8626729Y-15501150D02*
X8645777Y-15510674D01*
X8645777Y-15510674D02*
X8655301Y-15529722D01*
X8655301Y-15529722D02*
X8655301Y-15634484D01*
X8655301Y-15529722D02*
X8664825Y-15510674D01*
X8664825Y-15510674D02*
X8683872Y-15501150D01*
X8683872Y-15501150D02*
X8712444Y-15501150D01*
X8712444Y-15501150D02*
X8731491Y-15510674D01*
X8731491Y-15510674D02*
X8741015Y-15529722D01*
X8741015Y-15529722D02*
X8741015Y-15634484D01*
X9131491Y-15424960D02*
X8960063Y-15682103D01*
X9388634Y-15434484D02*
X9407682Y-15434484D01*
X9407682Y-15434484D02*
X9426729Y-15444008D01*
X9426729Y-15444008D02*
X9436253Y-15453531D01*
X9436253Y-15453531D02*
X9445777Y-15472579D01*
X9445777Y-15472579D02*
X9455301Y-15510674D01*
X9455301Y-15510674D02*
X9455301Y-15558293D01*
X9455301Y-15558293D02*
X9445777Y-15596388D01*
X9445777Y-15596388D02*
X9436253Y-15615436D01*
X9436253Y-15615436D02*
X9426729Y-15624960D01*
X9426729Y-15624960D02*
X9407682Y-15634484D01*
X9407682Y-15634484D02*
X9388634Y-15634484D01*
X9388634Y-15634484D02*
X9369587Y-15624960D01*
X9369587Y-15624960D02*
X9360063Y-15615436D01*
X9360063Y-15615436D02*
X9350539Y-15596388D01*
X9350539Y-15596388D02*
X9341015Y-15558293D01*
X9341015Y-15558293D02*
X9341015Y-15510674D01*
X9341015Y-15510674D02*
X9350539Y-15472579D01*
X9350539Y-15472579D02*
X9360063Y-15453531D01*
X9360063Y-15453531D02*
X9369587Y-15444008D01*
X9369587Y-15444008D02*
X9388634Y-15434484D01*
X9541015Y-15615436D02*
X9550539Y-15624960D01*
X9550539Y-15624960D02*
X9541015Y-15634484D01*
X9541015Y-15634484D02*
X9531491Y-15624960D01*
X9531491Y-15624960D02*
X9541015Y-15615436D01*
X9541015Y-15615436D02*
X9541015Y-15634484D01*
X9674348Y-15434484D02*
X9693396Y-15434484D01*
X9693396Y-15434484D02*
X9712444Y-15444008D01*
X9712444Y-15444008D02*
X9721968Y-15453531D01*
X9721968Y-15453531D02*
X9731491Y-15472579D01*
X9731491Y-15472579D02*
X9741015Y-15510674D01*
X9741015Y-15510674D02*
X9741015Y-15558293D01*
X9741015Y-15558293D02*
X9731491Y-15596388D01*
X9731491Y-15596388D02*
X9721968Y-15615436D01*
X9721968Y-15615436D02*
X9712444Y-15624960D01*
X9712444Y-15624960D02*
X9693396Y-15634484D01*
X9693396Y-15634484D02*
X9674348Y-15634484D01*
X9674348Y-15634484D02*
X9655301Y-15624960D01*
X9655301Y-15624960D02*
X9645777Y-15615436D01*
X9645777Y-15615436D02*
X9636253Y-15596388D01*
X9636253Y-15596388D02*
X9626729Y-15558293D01*
X9626729Y-15558293D02*
X9626729Y-15510674D01*
X9626729Y-15510674D02*
X9636253Y-15472579D01*
X9636253Y-15472579D02*
X9645777Y-15453531D01*
X9645777Y-15453531D02*
X9655301Y-15444008D01*
X9655301Y-15444008D02*
X9674348Y-15434484D01*
X9912444Y-15434484D02*
X9874348Y-15434484D01*
X9874348Y-15434484D02*
X9855301Y-15444008D01*
X9855301Y-15444008D02*
X9845777Y-15453531D01*
X9845777Y-15453531D02*
X9826729Y-15482103D01*
X9826729Y-15482103D02*
X9817206Y-15520198D01*
X9817206Y-15520198D02*
X9817206Y-15596388D01*
X9817206Y-15596388D02*
X9826729Y-15615436D01*
X9826729Y-15615436D02*
X9836253Y-15624960D01*
X9836253Y-15624960D02*
X9855301Y-15634484D01*
X9855301Y-15634484D02*
X9893396Y-15634484D01*
X9893396Y-15634484D02*
X9912444Y-15624960D01*
X9912444Y-15624960D02*
X9921968Y-15615436D01*
X9921968Y-15615436D02*
X9931491Y-15596388D01*
X9931491Y-15596388D02*
X9931491Y-15548769D01*
X9931491Y-15548769D02*
X9921968Y-15529722D01*
X9921968Y-15529722D02*
X9912444Y-15520198D01*
X9912444Y-15520198D02*
X9893396Y-15510674D01*
X9893396Y-15510674D02*
X9855301Y-15510674D01*
X9855301Y-15510674D02*
X9836253Y-15520198D01*
X9836253Y-15520198D02*
X9826729Y-15529722D01*
X9826729Y-15529722D02*
X9817206Y-15548769D01*
X10102920Y-15434484D02*
X10064825Y-15434484D01*
X10064825Y-15434484D02*
X10045777Y-15444008D01*
X10045777Y-15444008D02*
X10036253Y-15453531D01*
X10036253Y-15453531D02*
X10017206Y-15482103D01*
X10017206Y-15482103D02*
X10007682Y-15520198D01*
X10007682Y-15520198D02*
X10007682Y-15596388D01*
X10007682Y-15596388D02*
X10017206Y-15615436D01*
X10017206Y-15615436D02*
X10026729Y-15624960D01*
X10026729Y-15624960D02*
X10045777Y-15634484D01*
X10045777Y-15634484D02*
X10083872Y-15634484D01*
X10083872Y-15634484D02*
X10102920Y-15624960D01*
X10102920Y-15624960D02*
X10112444Y-15615436D01*
X10112444Y-15615436D02*
X10121968Y-15596388D01*
X10121968Y-15596388D02*
X10121968Y-15548769D01*
X10121968Y-15548769D02*
X10112444Y-15529722D01*
X10112444Y-15529722D02*
X10102920Y-15520198D01*
X10102920Y-15520198D02*
X10083872Y-15510674D01*
X10083872Y-15510674D02*
X10045777Y-15510674D01*
X10045777Y-15510674D02*
X10026729Y-15520198D01*
X10026729Y-15520198D02*
X10017206Y-15529722D01*
X10017206Y-15529722D02*
X10007682Y-15548769D01*
X10217206Y-15634484D02*
X10255301Y-15634484D01*
X10255301Y-15634484D02*
X10274349Y-15624960D01*
X10274349Y-15624960D02*
X10283872Y-15615436D01*
X10283872Y-15615436D02*
X10302920Y-15586865D01*
X10302920Y-15586865D02*
X10312444Y-15548769D01*
X10312444Y-15548769D02*
X10312444Y-15472579D01*
X10312444Y-15472579D02*
X10302920Y-15453531D01*
X10302920Y-15453531D02*
X10293396Y-15444008D01*
X10293396Y-15444008D02*
X10274349Y-15434484D01*
X10274349Y-15434484D02*
X10236253Y-15434484D01*
X10236253Y-15434484D02*
X10217206Y-15444008D01*
X10217206Y-15444008D02*
X10207682Y-15453531D01*
X10207682Y-15453531D02*
X10198158Y-15472579D01*
X10198158Y-15472579D02*
X10198158Y-15520198D01*
X10198158Y-15520198D02*
X10207682Y-15539246D01*
X10207682Y-15539246D02*
X10217206Y-15548769D01*
X10217206Y-15548769D02*
X10236253Y-15558293D01*
X10236253Y-15558293D02*
X10274349Y-15558293D01*
X10274349Y-15558293D02*
X10293396Y-15548769D01*
X10293396Y-15548769D02*
X10302920Y-15539246D01*
X10302920Y-15539246D02*
X10312444Y-15520198D01*
X10388634Y-15434484D02*
X10388634Y-15472579D01*
X10464825Y-15434484D02*
X10464825Y-15472579D01*
X10760063Y-15710674D02*
X10750539Y-15701150D01*
X10750539Y-15701150D02*
X10731491Y-15672579D01*
X10731491Y-15672579D02*
X10721968Y-15653531D01*
X10721968Y-15653531D02*
X10712444Y-15624960D01*
X10712444Y-15624960D02*
X10702920Y-15577341D01*
X10702920Y-15577341D02*
X10702920Y-15539246D01*
X10702920Y-15539246D02*
X10712444Y-15491627D01*
X10712444Y-15491627D02*
X10721968Y-15463055D01*
X10721968Y-15463055D02*
X10731491Y-15444008D01*
X10731491Y-15444008D02*
X10750539Y-15415436D01*
X10750539Y-15415436D02*
X10760063Y-15405912D01*
X10921968Y-15434484D02*
X10883872Y-15434484D01*
X10883872Y-15434484D02*
X10864825Y-15444008D01*
X10864825Y-15444008D02*
X10855301Y-15453531D01*
X10855301Y-15453531D02*
X10836253Y-15482103D01*
X10836253Y-15482103D02*
X10826730Y-15520198D01*
X10826730Y-15520198D02*
X10826730Y-15596388D01*
X10826730Y-15596388D02*
X10836253Y-15615436D01*
X10836253Y-15615436D02*
X10845777Y-15624960D01*
X10845777Y-15624960D02*
X10864825Y-15634484D01*
X10864825Y-15634484D02*
X10902920Y-15634484D01*
X10902920Y-15634484D02*
X10921968Y-15624960D01*
X10921968Y-15624960D02*
X10931491Y-15615436D01*
X10931491Y-15615436D02*
X10941015Y-15596388D01*
X10941015Y-15596388D02*
X10941015Y-15548769D01*
X10941015Y-15548769D02*
X10931491Y-15529722D01*
X10931491Y-15529722D02*
X10921968Y-15520198D01*
X10921968Y-15520198D02*
X10902920Y-15510674D01*
X10902920Y-15510674D02*
X10864825Y-15510674D01*
X10864825Y-15510674D02*
X10845777Y-15520198D01*
X10845777Y-15520198D02*
X10836253Y-15529722D01*
X10836253Y-15529722D02*
X10826730Y-15548769D01*
X11112444Y-15501150D02*
X11112444Y-15634484D01*
X11064825Y-15424960D02*
X11017206Y-15567817D01*
X11017206Y-15567817D02*
X11141015Y-15567817D01*
X11369587Y-15634484D02*
X11369587Y-15434484D01*
X11455301Y-15634484D02*
X11455301Y-15529722D01*
X11455301Y-15529722D02*
X11445777Y-15510674D01*
X11445777Y-15510674D02*
X11426730Y-15501150D01*
X11426730Y-15501150D02*
X11398158Y-15501150D01*
X11398158Y-15501150D02*
X11379110Y-15510674D01*
X11379110Y-15510674D02*
X11369587Y-15520198D01*
X11579110Y-15634484D02*
X11560063Y-15624960D01*
X11560063Y-15624960D02*
X11550539Y-15615436D01*
X11550539Y-15615436D02*
X11541015Y-15596388D01*
X11541015Y-15596388D02*
X11541015Y-15539246D01*
X11541015Y-15539246D02*
X11550539Y-15520198D01*
X11550539Y-15520198D02*
X11560063Y-15510674D01*
X11560063Y-15510674D02*
X11579110Y-15501150D01*
X11579110Y-15501150D02*
X11607682Y-15501150D01*
X11607682Y-15501150D02*
X11626730Y-15510674D01*
X11626730Y-15510674D02*
X11636253Y-15520198D01*
X11636253Y-15520198D02*
X11645777Y-15539246D01*
X11645777Y-15539246D02*
X11645777Y-15596388D01*
X11645777Y-15596388D02*
X11636253Y-15615436D01*
X11636253Y-15615436D02*
X11626730Y-15624960D01*
X11626730Y-15624960D02*
X11607682Y-15634484D01*
X11607682Y-15634484D02*
X11579110Y-15634484D01*
X11760063Y-15634484D02*
X11741015Y-15624960D01*
X11741015Y-15624960D02*
X11731491Y-15605912D01*
X11731491Y-15605912D02*
X11731491Y-15434484D01*
X11912444Y-15624960D02*
X11893396Y-15634484D01*
X11893396Y-15634484D02*
X11855301Y-15634484D01*
X11855301Y-15634484D02*
X11836253Y-15624960D01*
X11836253Y-15624960D02*
X11826730Y-15605912D01*
X11826730Y-15605912D02*
X11826730Y-15529722D01*
X11826730Y-15529722D02*
X11836253Y-15510674D01*
X11836253Y-15510674D02*
X11855301Y-15501150D01*
X11855301Y-15501150D02*
X11893396Y-15501150D01*
X11893396Y-15501150D02*
X11912444Y-15510674D01*
X11912444Y-15510674D02*
X11921968Y-15529722D01*
X11921968Y-15529722D02*
X11921968Y-15548769D01*
X11921968Y-15548769D02*
X11826730Y-15567817D01*
X11998158Y-15624960D02*
X12017206Y-15634484D01*
X12017206Y-15634484D02*
X12055301Y-15634484D01*
X12055301Y-15634484D02*
X12074349Y-15624960D01*
X12074349Y-15624960D02*
X12083872Y-15605912D01*
X12083872Y-15605912D02*
X12083872Y-15596388D01*
X12083872Y-15596388D02*
X12074349Y-15577341D01*
X12074349Y-15577341D02*
X12055301Y-15567817D01*
X12055301Y-15567817D02*
X12026730Y-15567817D01*
X12026730Y-15567817D02*
X12007682Y-15558293D01*
X12007682Y-15558293D02*
X11998158Y-15539246D01*
X11998158Y-15539246D02*
X11998158Y-15529722D01*
X11998158Y-15529722D02*
X12007682Y-15510674D01*
X12007682Y-15510674D02*
X12026730Y-15501150D01*
X12026730Y-15501150D02*
X12055301Y-15501150D01*
X12055301Y-15501150D02*
X12074349Y-15510674D01*
X12150539Y-15710674D02*
X12160063Y-15701150D01*
X12160063Y-15701150D02*
X12179111Y-15672579D01*
X12179111Y-15672579D02*
X12188634Y-15653531D01*
X12188634Y-15653531D02*
X12198158Y-15624960D01*
X12198158Y-15624960D02*
X12207682Y-15577341D01*
X12207682Y-15577341D02*
X12207682Y-15539246D01*
X12207682Y-15539246D02*
X12198158Y-15491627D01*
X12198158Y-15491627D02*
X12188634Y-15463055D01*
X12188634Y-15463055D02*
X12179111Y-15444008D01*
X12179111Y-15444008D02*
X12160063Y-15415436D01*
X12160063Y-15415436D02*
X12150539Y-15405912D01*
X7085000Y-15933000D02*
X7185000Y-15833000D01*
X7085000Y-15733000D01*
X6985000Y-15833000D01*
X7085000Y-15933000D01*
X7426729Y-15724484D02*
X7550539Y-15724484D01*
X7550539Y-15724484D02*
X7483872Y-15800674D01*
X7483872Y-15800674D02*
X7512443Y-15800674D01*
X7512443Y-15800674D02*
X7531491Y-15810198D01*
X7531491Y-15810198D02*
X7541015Y-15819722D01*
X7541015Y-15819722D02*
X7550539Y-15838769D01*
X7550539Y-15838769D02*
X7550539Y-15886388D01*
X7550539Y-15886388D02*
X7541015Y-15905436D01*
X7541015Y-15905436D02*
X7531491Y-15914960D01*
X7531491Y-15914960D02*
X7512443Y-15924484D01*
X7512443Y-15924484D02*
X7455301Y-15924484D01*
X7455301Y-15924484D02*
X7436253Y-15914960D01*
X7436253Y-15914960D02*
X7426729Y-15905436D01*
X7636253Y-15905436D02*
X7645777Y-15914960D01*
X7645777Y-15914960D02*
X7636253Y-15924484D01*
X7636253Y-15924484D02*
X7626729Y-15914960D01*
X7626729Y-15914960D02*
X7636253Y-15905436D01*
X7636253Y-15905436D02*
X7636253Y-15924484D01*
X7721967Y-15743531D02*
X7731491Y-15734008D01*
X7731491Y-15734008D02*
X7750539Y-15724484D01*
X7750539Y-15724484D02*
X7798158Y-15724484D01*
X7798158Y-15724484D02*
X7817205Y-15734008D01*
X7817205Y-15734008D02*
X7826729Y-15743531D01*
X7826729Y-15743531D02*
X7836253Y-15762579D01*
X7836253Y-15762579D02*
X7836253Y-15781627D01*
X7836253Y-15781627D02*
X7826729Y-15810198D01*
X7826729Y-15810198D02*
X7712443Y-15924484D01*
X7712443Y-15924484D02*
X7836253Y-15924484D01*
X7960062Y-15724484D02*
X7979110Y-15724484D01*
X7979110Y-15724484D02*
X7998158Y-15734008D01*
X7998158Y-15734008D02*
X8007682Y-15743531D01*
X8007682Y-15743531D02*
X8017205Y-15762579D01*
X8017205Y-15762579D02*
X8026729Y-15800674D01*
X8026729Y-15800674D02*
X8026729Y-15848293D01*
X8026729Y-15848293D02*
X8017205Y-15886388D01*
X8017205Y-15886388D02*
X8007682Y-15905436D01*
X8007682Y-15905436D02*
X7998158Y-15914960D01*
X7998158Y-15914960D02*
X7979110Y-15924484D01*
X7979110Y-15924484D02*
X7960062Y-15924484D01*
X7960062Y-15924484D02*
X7941015Y-15914960D01*
X7941015Y-15914960D02*
X7931491Y-15905436D01*
X7931491Y-15905436D02*
X7921967Y-15886388D01*
X7921967Y-15886388D02*
X7912443Y-15848293D01*
X7912443Y-15848293D02*
X7912443Y-15800674D01*
X7912443Y-15800674D02*
X7921967Y-15762579D01*
X7921967Y-15762579D02*
X7931491Y-15743531D01*
X7931491Y-15743531D02*
X7941015Y-15734008D01*
X7941015Y-15734008D02*
X7960062Y-15724484D01*
X8150539Y-15724484D02*
X8169586Y-15724484D01*
X8169586Y-15724484D02*
X8188634Y-15734008D01*
X8188634Y-15734008D02*
X8198158Y-15743531D01*
X8198158Y-15743531D02*
X8207682Y-15762579D01*
X8207682Y-15762579D02*
X8217205Y-15800674D01*
X8217205Y-15800674D02*
X8217205Y-15848293D01*
X8217205Y-15848293D02*
X8207682Y-15886388D01*
X8207682Y-15886388D02*
X8198158Y-15905436D01*
X8198158Y-15905436D02*
X8188634Y-15914960D01*
X8188634Y-15914960D02*
X8169586Y-15924484D01*
X8169586Y-15924484D02*
X8150539Y-15924484D01*
X8150539Y-15924484D02*
X8131491Y-15914960D01*
X8131491Y-15914960D02*
X8121967Y-15905436D01*
X8121967Y-15905436D02*
X8112443Y-15886388D01*
X8112443Y-15886388D02*
X8102920Y-15848293D01*
X8102920Y-15848293D02*
X8102920Y-15800674D01*
X8102920Y-15800674D02*
X8112443Y-15762579D01*
X8112443Y-15762579D02*
X8121967Y-15743531D01*
X8121967Y-15743531D02*
X8131491Y-15734008D01*
X8131491Y-15734008D02*
X8150539Y-15724484D01*
X8302920Y-15924484D02*
X8302920Y-15791150D01*
X8302920Y-15810198D02*
X8312443Y-15800674D01*
X8312443Y-15800674D02*
X8331491Y-15791150D01*
X8331491Y-15791150D02*
X8360063Y-15791150D01*
X8360063Y-15791150D02*
X8379110Y-15800674D01*
X8379110Y-15800674D02*
X8388634Y-15819722D01*
X8388634Y-15819722D02*
X8388634Y-15924484D01*
X8388634Y-15819722D02*
X8398158Y-15800674D01*
X8398158Y-15800674D02*
X8417205Y-15791150D01*
X8417205Y-15791150D02*
X8445777Y-15791150D01*
X8445777Y-15791150D02*
X8464825Y-15800674D01*
X8464825Y-15800674D02*
X8474348Y-15819722D01*
X8474348Y-15819722D02*
X8474348Y-15924484D01*
X8569586Y-15924484D02*
X8569586Y-15791150D01*
X8569586Y-15810198D02*
X8579110Y-15800674D01*
X8579110Y-15800674D02*
X8598158Y-15791150D01*
X8598158Y-15791150D02*
X8626729Y-15791150D01*
X8626729Y-15791150D02*
X8645777Y-15800674D01*
X8645777Y-15800674D02*
X8655301Y-15819722D01*
X8655301Y-15819722D02*
X8655301Y-15924484D01*
X8655301Y-15819722D02*
X8664825Y-15800674D01*
X8664825Y-15800674D02*
X8683872Y-15791150D01*
X8683872Y-15791150D02*
X8712444Y-15791150D01*
X8712444Y-15791150D02*
X8731491Y-15800674D01*
X8731491Y-15800674D02*
X8741015Y-15819722D01*
X8741015Y-15819722D02*
X8741015Y-15924484D01*
X9131491Y-15714960D02*
X8960063Y-15972103D01*
X9388634Y-15724484D02*
X9407682Y-15724484D01*
X9407682Y-15724484D02*
X9426729Y-15734008D01*
X9426729Y-15734008D02*
X9436253Y-15743531D01*
X9436253Y-15743531D02*
X9445777Y-15762579D01*
X9445777Y-15762579D02*
X9455301Y-15800674D01*
X9455301Y-15800674D02*
X9455301Y-15848293D01*
X9455301Y-15848293D02*
X9445777Y-15886388D01*
X9445777Y-15886388D02*
X9436253Y-15905436D01*
X9436253Y-15905436D02*
X9426729Y-15914960D01*
X9426729Y-15914960D02*
X9407682Y-15924484D01*
X9407682Y-15924484D02*
X9388634Y-15924484D01*
X9388634Y-15924484D02*
X9369587Y-15914960D01*
X9369587Y-15914960D02*
X9360063Y-15905436D01*
X9360063Y-15905436D02*
X9350539Y-15886388D01*
X9350539Y-15886388D02*
X9341015Y-15848293D01*
X9341015Y-15848293D02*
X9341015Y-15800674D01*
X9341015Y-15800674D02*
X9350539Y-15762579D01*
X9350539Y-15762579D02*
X9360063Y-15743531D01*
X9360063Y-15743531D02*
X9369587Y-15734008D01*
X9369587Y-15734008D02*
X9388634Y-15724484D01*
X9541015Y-15905436D02*
X9550539Y-15914960D01*
X9550539Y-15914960D02*
X9541015Y-15924484D01*
X9541015Y-15924484D02*
X9531491Y-15914960D01*
X9531491Y-15914960D02*
X9541015Y-15905436D01*
X9541015Y-15905436D02*
X9541015Y-15924484D01*
X9741015Y-15924484D02*
X9626729Y-15924484D01*
X9683872Y-15924484D02*
X9683872Y-15724484D01*
X9683872Y-15724484D02*
X9664825Y-15753055D01*
X9664825Y-15753055D02*
X9645777Y-15772103D01*
X9645777Y-15772103D02*
X9626729Y-15781627D01*
X9817206Y-15743531D02*
X9826729Y-15734008D01*
X9826729Y-15734008D02*
X9845777Y-15724484D01*
X9845777Y-15724484D02*
X9893396Y-15724484D01*
X9893396Y-15724484D02*
X9912444Y-15734008D01*
X9912444Y-15734008D02*
X9921968Y-15743531D01*
X9921968Y-15743531D02*
X9931491Y-15762579D01*
X9931491Y-15762579D02*
X9931491Y-15781627D01*
X9931491Y-15781627D02*
X9921968Y-15810198D01*
X9921968Y-15810198D02*
X9807682Y-15924484D01*
X9807682Y-15924484D02*
X9931491Y-15924484D01*
X10102920Y-15724484D02*
X10064825Y-15724484D01*
X10064825Y-15724484D02*
X10045777Y-15734008D01*
X10045777Y-15734008D02*
X10036253Y-15743531D01*
X10036253Y-15743531D02*
X10017206Y-15772103D01*
X10017206Y-15772103D02*
X10007682Y-15810198D01*
X10007682Y-15810198D02*
X10007682Y-15886388D01*
X10007682Y-15886388D02*
X10017206Y-15905436D01*
X10017206Y-15905436D02*
X10026729Y-15914960D01*
X10026729Y-15914960D02*
X10045777Y-15924484D01*
X10045777Y-15924484D02*
X10083872Y-15924484D01*
X10083872Y-15924484D02*
X10102920Y-15914960D01*
X10102920Y-15914960D02*
X10112444Y-15905436D01*
X10112444Y-15905436D02*
X10121968Y-15886388D01*
X10121968Y-15886388D02*
X10121968Y-15838769D01*
X10121968Y-15838769D02*
X10112444Y-15819722D01*
X10112444Y-15819722D02*
X10102920Y-15810198D01*
X10102920Y-15810198D02*
X10083872Y-15800674D01*
X10083872Y-15800674D02*
X10045777Y-15800674D01*
X10045777Y-15800674D02*
X10026729Y-15810198D01*
X10026729Y-15810198D02*
X10017206Y-15819722D01*
X10017206Y-15819722D02*
X10007682Y-15838769D01*
X10245777Y-15724484D02*
X10264825Y-15724484D01*
X10264825Y-15724484D02*
X10283872Y-15734008D01*
X10283872Y-15734008D02*
X10293396Y-15743531D01*
X10293396Y-15743531D02*
X10302920Y-15762579D01*
X10302920Y-15762579D02*
X10312444Y-15800674D01*
X10312444Y-15800674D02*
X10312444Y-15848293D01*
X10312444Y-15848293D02*
X10302920Y-15886388D01*
X10302920Y-15886388D02*
X10293396Y-15905436D01*
X10293396Y-15905436D02*
X10283872Y-15914960D01*
X10283872Y-15914960D02*
X10264825Y-15924484D01*
X10264825Y-15924484D02*
X10245777Y-15924484D01*
X10245777Y-15924484D02*
X10226729Y-15914960D01*
X10226729Y-15914960D02*
X10217206Y-15905436D01*
X10217206Y-15905436D02*
X10207682Y-15886388D01*
X10207682Y-15886388D02*
X10198158Y-15848293D01*
X10198158Y-15848293D02*
X10198158Y-15800674D01*
X10198158Y-15800674D02*
X10207682Y-15762579D01*
X10207682Y-15762579D02*
X10217206Y-15743531D01*
X10217206Y-15743531D02*
X10226729Y-15734008D01*
X10226729Y-15734008D02*
X10245777Y-15724484D01*
X10388634Y-15724484D02*
X10388634Y-15762579D01*
X10464825Y-15724484D02*
X10464825Y-15762579D01*
X10760063Y-16000674D02*
X10750539Y-15991150D01*
X10750539Y-15991150D02*
X10731491Y-15962579D01*
X10731491Y-15962579D02*
X10721968Y-15943531D01*
X10721968Y-15943531D02*
X10712444Y-15914960D01*
X10712444Y-15914960D02*
X10702920Y-15867341D01*
X10702920Y-15867341D02*
X10702920Y-15829246D01*
X10702920Y-15829246D02*
X10712444Y-15781627D01*
X10712444Y-15781627D02*
X10721968Y-15753055D01*
X10721968Y-15753055D02*
X10731491Y-15734008D01*
X10731491Y-15734008D02*
X10750539Y-15705436D01*
X10750539Y-15705436D02*
X10760063Y-15695912D01*
X10921968Y-15791150D02*
X10921968Y-15924484D01*
X10874349Y-15714960D02*
X10826730Y-15857817D01*
X10826730Y-15857817D02*
X10950539Y-15857817D01*
X11179111Y-15924484D02*
X11179111Y-15724484D01*
X11264825Y-15924484D02*
X11264825Y-15819722D01*
X11264825Y-15819722D02*
X11255301Y-15800674D01*
X11255301Y-15800674D02*
X11236253Y-15791150D01*
X11236253Y-15791150D02*
X11207682Y-15791150D01*
X11207682Y-15791150D02*
X11188634Y-15800674D01*
X11188634Y-15800674D02*
X11179111Y-15810198D01*
X11388634Y-15924484D02*
X11369587Y-15914960D01*
X11369587Y-15914960D02*
X11360063Y-15905436D01*
X11360063Y-15905436D02*
X11350539Y-15886388D01*
X11350539Y-15886388D02*
X11350539Y-15829246D01*
X11350539Y-15829246D02*
X11360063Y-15810198D01*
X11360063Y-15810198D02*
X11369587Y-15800674D01*
X11369587Y-15800674D02*
X11388634Y-15791150D01*
X11388634Y-15791150D02*
X11417206Y-15791150D01*
X11417206Y-15791150D02*
X11436253Y-15800674D01*
X11436253Y-15800674D02*
X11445777Y-15810198D01*
X11445777Y-15810198D02*
X11455301Y-15829246D01*
X11455301Y-15829246D02*
X11455301Y-15886388D01*
X11455301Y-15886388D02*
X11445777Y-15905436D01*
X11445777Y-15905436D02*
X11436253Y-15914960D01*
X11436253Y-15914960D02*
X11417206Y-15924484D01*
X11417206Y-15924484D02*
X11388634Y-15924484D01*
X11569587Y-15924484D02*
X11550539Y-15914960D01*
X11550539Y-15914960D02*
X11541015Y-15895912D01*
X11541015Y-15895912D02*
X11541015Y-15724484D01*
X11721968Y-15914960D02*
X11702920Y-15924484D01*
X11702920Y-15924484D02*
X11664825Y-15924484D01*
X11664825Y-15924484D02*
X11645777Y-15914960D01*
X11645777Y-15914960D02*
X11636253Y-15895912D01*
X11636253Y-15895912D02*
X11636253Y-15819722D01*
X11636253Y-15819722D02*
X11645777Y-15800674D01*
X11645777Y-15800674D02*
X11664825Y-15791150D01*
X11664825Y-15791150D02*
X11702920Y-15791150D01*
X11702920Y-15791150D02*
X11721968Y-15800674D01*
X11721968Y-15800674D02*
X11731491Y-15819722D01*
X11731491Y-15819722D02*
X11731491Y-15838769D01*
X11731491Y-15838769D02*
X11636253Y-15857817D01*
X11807682Y-15914960D02*
X11826730Y-15924484D01*
X11826730Y-15924484D02*
X11864825Y-15924484D01*
X11864825Y-15924484D02*
X11883872Y-15914960D01*
X11883872Y-15914960D02*
X11893396Y-15895912D01*
X11893396Y-15895912D02*
X11893396Y-15886388D01*
X11893396Y-15886388D02*
X11883872Y-15867341D01*
X11883872Y-15867341D02*
X11864825Y-15857817D01*
X11864825Y-15857817D02*
X11836253Y-15857817D01*
X11836253Y-15857817D02*
X11817206Y-15848293D01*
X11817206Y-15848293D02*
X11807682Y-15829246D01*
X11807682Y-15829246D02*
X11807682Y-15819722D01*
X11807682Y-15819722D02*
X11817206Y-15800674D01*
X11817206Y-15800674D02*
X11836253Y-15791150D01*
X11836253Y-15791150D02*
X11864825Y-15791150D01*
X11864825Y-15791150D02*
X11883872Y-15800674D01*
X11960063Y-16000674D02*
X11969587Y-15991150D01*
X11969587Y-15991150D02*
X11988634Y-15962579D01*
X11988634Y-15962579D02*
X11998158Y-15943531D01*
X11998158Y-15943531D02*
X12007682Y-15914960D01*
X12007682Y-15914960D02*
X12017206Y-15867341D01*
X12017206Y-15867341D02*
X12017206Y-15829246D01*
X12017206Y-15829246D02*
X12007682Y-15781627D01*
X12007682Y-15781627D02*
X11998158Y-15753055D01*
X11998158Y-15753055D02*
X11988634Y-15734008D01*
X11988634Y-15734008D02*
X11969587Y-15705436D01*
X11969587Y-15705436D02*
X11960063Y-15695912D01*
X12321968Y-16000674D02*
X12312444Y-15991150D01*
X12312444Y-15991150D02*
X12293396Y-15962579D01*
X12293396Y-15962579D02*
X12283872Y-15943531D01*
X12283872Y-15943531D02*
X12274349Y-15914960D01*
X12274349Y-15914960D02*
X12264825Y-15867341D01*
X12264825Y-15867341D02*
X12264825Y-15829246D01*
X12264825Y-15829246D02*
X12274349Y-15781627D01*
X12274349Y-15781627D02*
X12283872Y-15753055D01*
X12283872Y-15753055D02*
X12293396Y-15734008D01*
X12293396Y-15734008D02*
X12312444Y-15705436D01*
X12312444Y-15705436D02*
X12321968Y-15695912D01*
X12398158Y-15791150D02*
X12398158Y-15924484D01*
X12398158Y-15810198D02*
X12407682Y-15800674D01*
X12407682Y-15800674D02*
X12426730Y-15791150D01*
X12426730Y-15791150D02*
X12455301Y-15791150D01*
X12455301Y-15791150D02*
X12474349Y-15800674D01*
X12474349Y-15800674D02*
X12483872Y-15819722D01*
X12483872Y-15819722D02*
X12483872Y-15924484D01*
X12607682Y-15924484D02*
X12588634Y-15914960D01*
X12588634Y-15914960D02*
X12579111Y-15905436D01*
X12579111Y-15905436D02*
X12569587Y-15886388D01*
X12569587Y-15886388D02*
X12569587Y-15829246D01*
X12569587Y-15829246D02*
X12579111Y-15810198D01*
X12579111Y-15810198D02*
X12588634Y-15800674D01*
X12588634Y-15800674D02*
X12607682Y-15791150D01*
X12607682Y-15791150D02*
X12636253Y-15791150D01*
X12636253Y-15791150D02*
X12655301Y-15800674D01*
X12655301Y-15800674D02*
X12664825Y-15810198D01*
X12664825Y-15810198D02*
X12674349Y-15829246D01*
X12674349Y-15829246D02*
X12674349Y-15886388D01*
X12674349Y-15886388D02*
X12664825Y-15905436D01*
X12664825Y-15905436D02*
X12655301Y-15914960D01*
X12655301Y-15914960D02*
X12636253Y-15924484D01*
X12636253Y-15924484D02*
X12607682Y-15924484D01*
X12731492Y-15791150D02*
X12807682Y-15791150D01*
X12760063Y-15724484D02*
X12760063Y-15895912D01*
X12760063Y-15895912D02*
X12769587Y-15914960D01*
X12769587Y-15914960D02*
X12788634Y-15924484D01*
X12788634Y-15924484D02*
X12807682Y-15924484D01*
X13026730Y-15791150D02*
X13026730Y-15991150D01*
X13026730Y-15800674D02*
X13045777Y-15791150D01*
X13045777Y-15791150D02*
X13083873Y-15791150D01*
X13083873Y-15791150D02*
X13102920Y-15800674D01*
X13102920Y-15800674D02*
X13112444Y-15810198D01*
X13112444Y-15810198D02*
X13121968Y-15829246D01*
X13121968Y-15829246D02*
X13121968Y-15886388D01*
X13121968Y-15886388D02*
X13112444Y-15905436D01*
X13112444Y-15905436D02*
X13102920Y-15914960D01*
X13102920Y-15914960D02*
X13083873Y-15924484D01*
X13083873Y-15924484D02*
X13045777Y-15924484D01*
X13045777Y-15924484D02*
X13026730Y-15914960D01*
X13236253Y-15924484D02*
X13217206Y-15914960D01*
X13217206Y-15914960D02*
X13207682Y-15895912D01*
X13207682Y-15895912D02*
X13207682Y-15724484D01*
X13398158Y-15924484D02*
X13398158Y-15819722D01*
X13398158Y-15819722D02*
X13388634Y-15800674D01*
X13388634Y-15800674D02*
X13369587Y-15791150D01*
X13369587Y-15791150D02*
X13331492Y-15791150D01*
X13331492Y-15791150D02*
X13312444Y-15800674D01*
X13398158Y-15914960D02*
X13379111Y-15924484D01*
X13379111Y-15924484D02*
X13331492Y-15924484D01*
X13331492Y-15924484D02*
X13312444Y-15914960D01*
X13312444Y-15914960D02*
X13302920Y-15895912D01*
X13302920Y-15895912D02*
X13302920Y-15876865D01*
X13302920Y-15876865D02*
X13312444Y-15857817D01*
X13312444Y-15857817D02*
X13331492Y-15848293D01*
X13331492Y-15848293D02*
X13379111Y-15848293D01*
X13379111Y-15848293D02*
X13398158Y-15838769D01*
X13464825Y-15791150D02*
X13541015Y-15791150D01*
X13493396Y-15724484D02*
X13493396Y-15895912D01*
X13493396Y-15895912D02*
X13502920Y-15914960D01*
X13502920Y-15914960D02*
X13521968Y-15924484D01*
X13521968Y-15924484D02*
X13541015Y-15924484D01*
X13683873Y-15914960D02*
X13664825Y-15924484D01*
X13664825Y-15924484D02*
X13626730Y-15924484D01*
X13626730Y-15924484D02*
X13607682Y-15914960D01*
X13607682Y-15914960D02*
X13598158Y-15895912D01*
X13598158Y-15895912D02*
X13598158Y-15819722D01*
X13598158Y-15819722D02*
X13607682Y-15800674D01*
X13607682Y-15800674D02*
X13626730Y-15791150D01*
X13626730Y-15791150D02*
X13664825Y-15791150D01*
X13664825Y-15791150D02*
X13683873Y-15800674D01*
X13683873Y-15800674D02*
X13693396Y-15819722D01*
X13693396Y-15819722D02*
X13693396Y-15838769D01*
X13693396Y-15838769D02*
X13598158Y-15857817D01*
X13864825Y-15924484D02*
X13864825Y-15724484D01*
X13864825Y-15914960D02*
X13845777Y-15924484D01*
X13845777Y-15924484D02*
X13807682Y-15924484D01*
X13807682Y-15924484D02*
X13788634Y-15914960D01*
X13788634Y-15914960D02*
X13779111Y-15905436D01*
X13779111Y-15905436D02*
X13769587Y-15886388D01*
X13769587Y-15886388D02*
X13769587Y-15829246D01*
X13769587Y-15829246D02*
X13779111Y-15810198D01*
X13779111Y-15810198D02*
X13788634Y-15800674D01*
X13788634Y-15800674D02*
X13807682Y-15791150D01*
X13807682Y-15791150D02*
X13845777Y-15791150D01*
X13845777Y-15791150D02*
X13864825Y-15800674D01*
X13941015Y-16000674D02*
X13950539Y-15991150D01*
X13950539Y-15991150D02*
X13969587Y-15962579D01*
X13969587Y-15962579D02*
X13979111Y-15943531D01*
X13979111Y-15943531D02*
X13988634Y-15914960D01*
X13988634Y-15914960D02*
X13998158Y-15867341D01*
X13998158Y-15867341D02*
X13998158Y-15829246D01*
X13998158Y-15829246D02*
X13988634Y-15781627D01*
X13988634Y-15781627D02*
X13979111Y-15753055D01*
X13979111Y-15753055D02*
X13969587Y-15734008D01*
X13969587Y-15734008D02*
X13950539Y-15705436D01*
X13950539Y-15705436D02*
X13941015Y-15695912D01*
M02*
