%TF.GenerationSoftware,KiCad,Pcbnew,7.0.5*%
%TF.CreationDate,2025-08-20T16:29:09-04:00*%
%TF.ProjectId,PrawnDO_Breakout_Connectorized,50726177-6e44-44f5-9f42-7265616b6f75,rev?*%
%TF.SameCoordinates,Original*%
%TF.FileFunction,Copper,L2,Bot*%
%TF.FilePolarity,Positive*%
%FSLAX46Y46*%
G04 Gerber Fmt 4.6, Leading zero omitted, Abs format (unit mm)*
G04 Created by KiCad (PCBNEW 7.0.5) date 2025-08-20 16:29:09*
%MOMM*%
%LPD*%
G01*
G04 APERTURE LIST*
G04 Aperture macros list*
%AMRoundRect*
0 Rectangle with rounded corners*
0 $1 Rounding radius*
0 $2 $3 $4 $5 $6 $7 $8 $9 X,Y pos of 4 corners*
0 Add a 4 corners polygon primitive as box body*
4,1,4,$2,$3,$4,$5,$6,$7,$8,$9,$2,$3,0*
0 Add four circle primitives for the rounded corners*
1,1,$1+$1,$2,$3*
1,1,$1+$1,$4,$5*
1,1,$1+$1,$6,$7*
1,1,$1+$1,$8,$9*
0 Add four rect primitives between the rounded corners*
20,1,$1+$1,$2,$3,$4,$5,0*
20,1,$1+$1,$4,$5,$6,$7,0*
20,1,$1+$1,$6,$7,$8,$9,0*
20,1,$1+$1,$8,$9,$2,$3,0*%
G04 Aperture macros list end*
%TA.AperFunction,ComponentPad*%
%ADD10C,2.050000*%
%TD*%
%TA.AperFunction,ComponentPad*%
%ADD11C,2.250000*%
%TD*%
%TA.AperFunction,SMDPad,CuDef*%
%ADD12R,5.080000X1.500000*%
%TD*%
%TA.AperFunction,ComponentPad*%
%ADD13RoundRect,0.250000X0.620000X-0.620000X0.620000X0.620000X-0.620000X0.620000X-0.620000X-0.620000X0*%
%TD*%
%TA.AperFunction,ComponentPad*%
%ADD14C,1.740000*%
%TD*%
%TA.AperFunction,ComponentPad*%
%ADD15R,1.700000X1.700000*%
%TD*%
%TA.AperFunction,ComponentPad*%
%ADD16O,1.700000X1.700000*%
%TD*%
G04 APERTURE END LIST*
D10*
%TO.P,J10,1,In*%
%TO.N,do6*%
X177897000Y-101511000D03*
D11*
%TO.P,J10,2,Ext*%
%TO.N,GND*%
X180437000Y-104051000D03*
X180437000Y-98971000D03*
X175357000Y-104051000D03*
X175357000Y-98971000D03*
%TD*%
D10*
%TO.P,J8,1,In*%
%TO.N,do8*%
X177897000Y-89811000D03*
D11*
%TO.P,J8,2,Ext*%
%TO.N,GND*%
X175357000Y-92351000D03*
X180437000Y-92351000D03*
X175357000Y-87271000D03*
X180437000Y-87271000D03*
%TD*%
D10*
%TO.P,J12,1,In*%
%TO.N,do4*%
X177897000Y-113311000D03*
D11*
%TO.P,J12,2,Ext*%
%TO.N,GND*%
X175357000Y-110771000D03*
X175357000Y-115851000D03*
X180437000Y-110771000D03*
X180437000Y-115851000D03*
%TD*%
D10*
%TO.P,J1,1,In*%
%TO.N,do15*%
X108650000Y-68500000D03*
D11*
%TO.P,J1,2,Ext*%
%TO.N,GND*%
X106110000Y-71040000D03*
X111190000Y-71040000D03*
X106110000Y-65960000D03*
X111190000Y-65960000D03*
%TD*%
D12*
%TO.P,J18,2,Ext*%
%TO.N,GND*%
X74700000Y-106730000D03*
X74700000Y-98230000D03*
%TD*%
D13*
%TO.P,J20,1,Pin_1*%
%TO.N,Net-(J19-Pin_3)*%
X84140000Y-73500000D03*
D14*
%TO.P,J20,2,Pin_2*%
%TO.N,GND*%
X84140000Y-70960000D03*
%TD*%
D15*
%TO.P,JP1,1,A*%
%TO.N,GND*%
X95350000Y-113600000D03*
D16*
%TO.P,JP1,2,C*%
%TO.N,Net-(JP1-C)*%
X95350000Y-111060000D03*
%TO.P,JP1,3,B*%
%TO.N,unconnected-(JP1-B-Pad3)*%
X95350000Y-108520000D03*
%TD*%
D15*
%TO.P,J19,1,Pin_1*%
%TO.N,3_3V_Pico*%
X93271500Y-78540000D03*
D16*
%TO.P,J19,2,Pin_2*%
%TO.N,Power  Supply*%
X93271500Y-76000000D03*
%TO.P,J19,3,Pin_3*%
%TO.N,Net-(J19-Pin_3)*%
X93271500Y-73460000D03*
%TD*%
D12*
%TO.P,J17,2,Ext*%
%TO.N,GND*%
X74700000Y-91487500D03*
X74700000Y-82987500D03*
%TD*%
D10*
%TO.P,J9,1,In*%
%TO.N,do7*%
X164897000Y-95511000D03*
D11*
%TO.P,J9,2,Ext*%
%TO.N,GND*%
X167437000Y-98051000D03*
X167437000Y-92971000D03*
X162357000Y-98051000D03*
X162357000Y-92971000D03*
%TD*%
D10*
%TO.P,J14,1,In*%
%TO.N,do2*%
X177897000Y-125011000D03*
D11*
%TO.P,J14,2,Ext*%
%TO.N,GND*%
X175357000Y-122471000D03*
X175357000Y-127551000D03*
X180437000Y-122471000D03*
X180437000Y-127551000D03*
%TD*%
D10*
%TO.P,J4,1,In*%
%TO.N,do12*%
X139706000Y-68500000D03*
D11*
%TO.P,J4,2,Ext*%
%TO.N,GND*%
X137166000Y-71040000D03*
X142246000Y-71040000D03*
X137166000Y-65960000D03*
X142246000Y-65960000D03*
%TD*%
D10*
%TO.P,J2,1,In*%
%TO.N,do14*%
X118500000Y-60000000D03*
D11*
%TO.P,J2,2,Ext*%
%TO.N,GND*%
X115960000Y-62540000D03*
X121040000Y-62540000D03*
X115960000Y-57460000D03*
X121040000Y-57460000D03*
%TD*%
D10*
%TO.P,J16,1,In*%
%TO.N,do0*%
X177897000Y-136600000D03*
D11*
%TO.P,J16,2,Ext*%
%TO.N,GND*%
X175357000Y-134060000D03*
X175357000Y-139140000D03*
X180437000Y-134060000D03*
X180437000Y-139140000D03*
%TD*%
D10*
%TO.P,J3,1,In*%
%TO.N,do13*%
X130010000Y-60000000D03*
D11*
%TO.P,J3,2,Ext*%
%TO.N,GND*%
X127470000Y-62540000D03*
X132550000Y-62540000D03*
X127470000Y-57460000D03*
X132550000Y-57460000D03*
%TD*%
D10*
%TO.P,J5,1,In*%
%TO.N,do11*%
X164897000Y-71932000D03*
D11*
%TO.P,J5,2,Ext*%
%TO.N,GND*%
X162357000Y-74472000D03*
X167437000Y-74472000D03*
X162357000Y-69392000D03*
X167437000Y-69392000D03*
%TD*%
D10*
%TO.P,J6,1,In*%
%TO.N,do10*%
X177897000Y-77841000D03*
D11*
%TO.P,J6,2,Ext*%
%TO.N,GND*%
X175357000Y-80381000D03*
X180437000Y-80381000D03*
X175357000Y-75301000D03*
X180437000Y-75301000D03*
%TD*%
D10*
%TO.P,J13,1,In*%
%TO.N,do3*%
X164897000Y-119201000D03*
D11*
%TO.P,J13,2,Ext*%
%TO.N,GND*%
X162357000Y-116661000D03*
X162357000Y-121741000D03*
X167437000Y-116661000D03*
X167437000Y-121741000D03*
%TD*%
D10*
%TO.P,J11,1,In*%
%TO.N,do5*%
X164897000Y-107311000D03*
D11*
%TO.P,J11,2,Ext*%
%TO.N,GND*%
X162357000Y-104771000D03*
X162357000Y-109851000D03*
X167437000Y-104771000D03*
X167437000Y-109851000D03*
%TD*%
D10*
%TO.P,J7,1,In*%
%TO.N,do9*%
X164897000Y-83662000D03*
D11*
%TO.P,J7,2,Ext*%
%TO.N,GND*%
X162357000Y-86202000D03*
X167437000Y-86202000D03*
X162357000Y-81122000D03*
X167437000Y-81122000D03*
%TD*%
D10*
%TO.P,J15,1,In*%
%TO.N,do1*%
X164897000Y-130811000D03*
D11*
%TO.P,J15,2,Ext*%
%TO.N,GND*%
X162357000Y-128271000D03*
X162357000Y-133351000D03*
X167437000Y-128271000D03*
X167437000Y-133351000D03*
%TD*%
%TA.AperFunction,Conductor*%
%TO.N,GND*%
G36*
X184766039Y-54229989D02*
G01*
X184833077Y-54249679D01*
X184878827Y-54302488D01*
X184890028Y-54353960D01*
X184899500Y-95455264D01*
X184899500Y-140875500D01*
X184879815Y-140942539D01*
X184827011Y-140988294D01*
X184775500Y-140999500D01*
X180677264Y-140999500D01*
X180610225Y-140979815D01*
X180564470Y-140927011D01*
X180554526Y-140857853D01*
X180583551Y-140794297D01*
X180642329Y-140756523D01*
X180667535Y-140751882D01*
X180691988Y-140749957D01*
X180940702Y-140690247D01*
X181177012Y-140592365D01*
X181177015Y-140592363D01*
X181395103Y-140458719D01*
X181398912Y-140455464D01*
X180835609Y-139892161D01*
X180954431Y-139820669D01*
X181088658Y-139693523D01*
X181191861Y-139541308D01*
X181752464Y-140101912D01*
X181755719Y-140098103D01*
X181889363Y-139880015D01*
X181889365Y-139880012D01*
X181987247Y-139643702D01*
X182046957Y-139394989D01*
X182067024Y-139140000D01*
X182046957Y-138885010D01*
X181987247Y-138636297D01*
X181889365Y-138399987D01*
X181889363Y-138399984D01*
X181755719Y-138181898D01*
X181755712Y-138181888D01*
X181752465Y-138178087D01*
X181752464Y-138178087D01*
X181188232Y-138742319D01*
X181144684Y-138660178D01*
X181024991Y-138519265D01*
X180877805Y-138407377D01*
X180835597Y-138387849D01*
X181398911Y-137824535D01*
X181398911Y-137824533D01*
X181395110Y-137821286D01*
X181395095Y-137821275D01*
X181177015Y-137687636D01*
X181177012Y-137687634D01*
X180940702Y-137589752D01*
X180691988Y-137530042D01*
X180691989Y-137530042D01*
X180437000Y-137509975D01*
X180182010Y-137530042D01*
X179933297Y-137589752D01*
X179696987Y-137687634D01*
X179696984Y-137687636D01*
X179478897Y-137821280D01*
X179475087Y-137824534D01*
X180038390Y-138387837D01*
X179919569Y-138459331D01*
X179785342Y-138586477D01*
X179682138Y-138738691D01*
X179121534Y-138178087D01*
X179118280Y-138181897D01*
X178984636Y-138399984D01*
X178984634Y-138399987D01*
X178886752Y-138636297D01*
X178827042Y-138885010D01*
X178806975Y-139140000D01*
X178827042Y-139394989D01*
X178886752Y-139643702D01*
X178984634Y-139880012D01*
X178984636Y-139880015D01*
X179118275Y-140098095D01*
X179118286Y-140098110D01*
X179121533Y-140101911D01*
X179121535Y-140101911D01*
X179685766Y-139537679D01*
X179729316Y-139619822D01*
X179849009Y-139760735D01*
X179996195Y-139872623D01*
X180038402Y-139892150D01*
X179475087Y-140455464D01*
X179475087Y-140455465D01*
X179478888Y-140458712D01*
X179478898Y-140458719D01*
X179696984Y-140592363D01*
X179696987Y-140592365D01*
X179933297Y-140690247D01*
X180182011Y-140749957D01*
X180182010Y-140749957D01*
X180206465Y-140751882D01*
X180271753Y-140776766D01*
X180313224Y-140832997D01*
X180317711Y-140902722D01*
X180283789Y-140963805D01*
X180222229Y-140996851D01*
X180196736Y-140999500D01*
X175597264Y-140999500D01*
X175530225Y-140979815D01*
X175484470Y-140927011D01*
X175474526Y-140857853D01*
X175503551Y-140794297D01*
X175562329Y-140756523D01*
X175587535Y-140751882D01*
X175611988Y-140749957D01*
X175860702Y-140690247D01*
X176097012Y-140592365D01*
X176097015Y-140592363D01*
X176315103Y-140458719D01*
X176318912Y-140455464D01*
X175755609Y-139892161D01*
X175874431Y-139820669D01*
X176008658Y-139693523D01*
X176111861Y-139541308D01*
X176672464Y-140101912D01*
X176675719Y-140098103D01*
X176809363Y-139880015D01*
X176809365Y-139880012D01*
X176907247Y-139643702D01*
X176966957Y-139394989D01*
X176987024Y-139140000D01*
X176966957Y-138885010D01*
X176907247Y-138636297D01*
X176809365Y-138399987D01*
X176809363Y-138399984D01*
X176675719Y-138181898D01*
X176675712Y-138181888D01*
X176672465Y-138178087D01*
X176672464Y-138178087D01*
X176108232Y-138742319D01*
X176064684Y-138660178D01*
X175944991Y-138519265D01*
X175797805Y-138407377D01*
X175755597Y-138387849D01*
X176318911Y-137824535D01*
X176318911Y-137824533D01*
X176315110Y-137821286D01*
X176315095Y-137821275D01*
X176097015Y-137687636D01*
X176097012Y-137687634D01*
X175860702Y-137589752D01*
X175611988Y-137530042D01*
X175611989Y-137530042D01*
X175357000Y-137509975D01*
X175102010Y-137530042D01*
X174853297Y-137589752D01*
X174616987Y-137687634D01*
X174616984Y-137687636D01*
X174398897Y-137821280D01*
X174395087Y-137824534D01*
X174958390Y-138387837D01*
X174839569Y-138459331D01*
X174705342Y-138586477D01*
X174602138Y-138738691D01*
X174041534Y-138178087D01*
X174038280Y-138181897D01*
X173904636Y-138399984D01*
X173904634Y-138399987D01*
X173806752Y-138636297D01*
X173747042Y-138885010D01*
X173726975Y-139140000D01*
X173747042Y-139394989D01*
X173806752Y-139643702D01*
X173904634Y-139880012D01*
X173904636Y-139880015D01*
X174038275Y-140098095D01*
X174038286Y-140098110D01*
X174041533Y-140101911D01*
X174041535Y-140101911D01*
X174605766Y-139537679D01*
X174649316Y-139619822D01*
X174769009Y-139760735D01*
X174916195Y-139872623D01*
X174958402Y-139892150D01*
X174395087Y-140455464D01*
X174395087Y-140455465D01*
X174398888Y-140458712D01*
X174398898Y-140458719D01*
X174616984Y-140592363D01*
X174616987Y-140592365D01*
X174853297Y-140690247D01*
X175102011Y-140749957D01*
X175102010Y-140749957D01*
X175126465Y-140751882D01*
X175191753Y-140776766D01*
X175233224Y-140832997D01*
X175237711Y-140902722D01*
X175203789Y-140963805D01*
X175142229Y-140996851D01*
X175116736Y-140999500D01*
X116024500Y-140999500D01*
X115957461Y-140979815D01*
X115911706Y-140927011D01*
X115900500Y-140875500D01*
X115900500Y-138824759D01*
X115900528Y-138824616D01*
X115900524Y-138824616D01*
X115900539Y-138800002D01*
X115900541Y-138800000D01*
X115900462Y-138799808D01*
X115900384Y-138799618D01*
X115900383Y-138799617D01*
X115900381Y-138799616D01*
X115900090Y-138799496D01*
X115900001Y-138799459D01*
X115875446Y-138799459D01*
X115875240Y-138799500D01*
X104924760Y-138799500D01*
X104924554Y-138799459D01*
X104899998Y-138799459D01*
X104899909Y-138799496D01*
X104899619Y-138799615D01*
X104899615Y-138799618D01*
X104899459Y-138799999D01*
X104899476Y-138824616D01*
X104899471Y-138824616D01*
X104899500Y-138824759D01*
X104899500Y-140875500D01*
X104879815Y-140942539D01*
X104827011Y-140988294D01*
X104775500Y-140999500D01*
X72024500Y-140999500D01*
X71957461Y-140979815D01*
X71911706Y-140927011D01*
X71900500Y-140875500D01*
X71900500Y-138838944D01*
X71900734Y-137824533D01*
X71901016Y-136600000D01*
X176366783Y-136600000D01*
X176385623Y-136839382D01*
X176441674Y-137072853D01*
X176441678Y-137072865D01*
X176533565Y-137294702D01*
X176659026Y-137499436D01*
X176659028Y-137499439D01*
X176814973Y-137682027D01*
X176997561Y-137837972D01*
X176997563Y-137837973D01*
X177202297Y-137963434D01*
X177299047Y-138003508D01*
X177424137Y-138055323D01*
X177657621Y-138111377D01*
X177897000Y-138130217D01*
X178136379Y-138111377D01*
X178369863Y-138055323D01*
X178591704Y-137963433D01*
X178796439Y-137837972D01*
X178979027Y-137682027D01*
X179134972Y-137499439D01*
X179260433Y-137294704D01*
X179352323Y-137072863D01*
X179408377Y-136839379D01*
X179427217Y-136600000D01*
X179408377Y-136360621D01*
X179352323Y-136127137D01*
X179300508Y-136002047D01*
X179260434Y-135905297D01*
X179134973Y-135700563D01*
X179134972Y-135700561D01*
X178979027Y-135517973D01*
X178796439Y-135362028D01*
X178796436Y-135362026D01*
X178591702Y-135236565D01*
X178369865Y-135144678D01*
X178369867Y-135144678D01*
X178369863Y-135144677D01*
X178369859Y-135144676D01*
X178369853Y-135144674D01*
X178136382Y-135088623D01*
X177956844Y-135074492D01*
X177897000Y-135069783D01*
X177896999Y-135069783D01*
X177657617Y-135088623D01*
X177424146Y-135144674D01*
X177424134Y-135144678D01*
X177202297Y-135236565D01*
X176997563Y-135362026D01*
X176814973Y-135517973D01*
X176659026Y-135700563D01*
X176533565Y-135905297D01*
X176441678Y-136127134D01*
X176441674Y-136127146D01*
X176385623Y-136360617D01*
X176366783Y-136600000D01*
X71901016Y-136600000D01*
X71901765Y-133351000D01*
X160726975Y-133351000D01*
X160747042Y-133605989D01*
X160806752Y-133854702D01*
X160904634Y-134091012D01*
X160904636Y-134091015D01*
X161038275Y-134309095D01*
X161038286Y-134309110D01*
X161041533Y-134312911D01*
X161041535Y-134312911D01*
X161605766Y-133748679D01*
X161649316Y-133830822D01*
X161769009Y-133971735D01*
X161916195Y-134083623D01*
X161958402Y-134103150D01*
X161395087Y-134666464D01*
X161395087Y-134666465D01*
X161398888Y-134669712D01*
X161398898Y-134669719D01*
X161616984Y-134803363D01*
X161616987Y-134803365D01*
X161853297Y-134901247D01*
X162102011Y-134960957D01*
X162102010Y-134960957D01*
X162357000Y-134981024D01*
X162611989Y-134960957D01*
X162860702Y-134901247D01*
X163097012Y-134803365D01*
X163097015Y-134803363D01*
X163315103Y-134669719D01*
X163318912Y-134666464D01*
X162755609Y-134103161D01*
X162874431Y-134031669D01*
X163008658Y-133904523D01*
X163111861Y-133752308D01*
X163672464Y-134312912D01*
X163675719Y-134309103D01*
X163809363Y-134091015D01*
X163809365Y-134091012D01*
X163907247Y-133854702D01*
X163966957Y-133605989D01*
X163987024Y-133351000D01*
X165806975Y-133351000D01*
X165827042Y-133605989D01*
X165886752Y-133854702D01*
X165984634Y-134091012D01*
X165984636Y-134091015D01*
X166118275Y-134309095D01*
X166118286Y-134309110D01*
X166121533Y-134312911D01*
X166121535Y-134312911D01*
X166685766Y-133748679D01*
X166729316Y-133830822D01*
X166849009Y-133971735D01*
X166996195Y-134083623D01*
X167038402Y-134103150D01*
X166475087Y-134666464D01*
X166475087Y-134666465D01*
X166478888Y-134669712D01*
X166478898Y-134669719D01*
X166696984Y-134803363D01*
X166696987Y-134803365D01*
X166933297Y-134901247D01*
X167182011Y-134960957D01*
X167182010Y-134960957D01*
X167437000Y-134981024D01*
X167691989Y-134960957D01*
X167940702Y-134901247D01*
X168177012Y-134803365D01*
X168177015Y-134803363D01*
X168395103Y-134669719D01*
X168398912Y-134666464D01*
X167835609Y-134103161D01*
X167954431Y-134031669D01*
X168088658Y-133904523D01*
X168191861Y-133752308D01*
X168752464Y-134312912D01*
X168755719Y-134309103D01*
X168889363Y-134091015D01*
X168889365Y-134091012D01*
X168902210Y-134060000D01*
X173726975Y-134060000D01*
X173747042Y-134314989D01*
X173806752Y-134563702D01*
X173904634Y-134800012D01*
X173904636Y-134800015D01*
X174038275Y-135018095D01*
X174038286Y-135018110D01*
X174041533Y-135021911D01*
X174041535Y-135021911D01*
X174605766Y-134457679D01*
X174649316Y-134539822D01*
X174769009Y-134680735D01*
X174916195Y-134792623D01*
X174958402Y-134812150D01*
X174395087Y-135375464D01*
X174395087Y-135375465D01*
X174398888Y-135378712D01*
X174398898Y-135378719D01*
X174616984Y-135512363D01*
X174616987Y-135512365D01*
X174853297Y-135610247D01*
X175102011Y-135669957D01*
X175102010Y-135669957D01*
X175356999Y-135690024D01*
X175611989Y-135669957D01*
X175860702Y-135610247D01*
X176097012Y-135512365D01*
X176097015Y-135512363D01*
X176315103Y-135378719D01*
X176318912Y-135375464D01*
X175755609Y-134812161D01*
X175874431Y-134740669D01*
X176008658Y-134613523D01*
X176111861Y-134461308D01*
X176672464Y-135021912D01*
X176675719Y-135018103D01*
X176809363Y-134800015D01*
X176809365Y-134800012D01*
X176907247Y-134563702D01*
X176966957Y-134314989D01*
X176987024Y-134060000D01*
X178806975Y-134060000D01*
X178827042Y-134314989D01*
X178886752Y-134563702D01*
X178984634Y-134800012D01*
X178984636Y-134800015D01*
X179118275Y-135018095D01*
X179118286Y-135018110D01*
X179121533Y-135021911D01*
X179121535Y-135021911D01*
X179685766Y-134457679D01*
X179729316Y-134539822D01*
X179849009Y-134680735D01*
X179996195Y-134792623D01*
X180038402Y-134812150D01*
X179475087Y-135375464D01*
X179475087Y-135375465D01*
X179478888Y-135378712D01*
X179478898Y-135378719D01*
X179696984Y-135512363D01*
X179696987Y-135512365D01*
X179933297Y-135610247D01*
X180182011Y-135669957D01*
X180182010Y-135669957D01*
X180436999Y-135690024D01*
X180691989Y-135669957D01*
X180940702Y-135610247D01*
X181177012Y-135512365D01*
X181177015Y-135512363D01*
X181395103Y-135378719D01*
X181398912Y-135375464D01*
X180835609Y-134812161D01*
X180954431Y-134740669D01*
X181088658Y-134613523D01*
X181191861Y-134461308D01*
X181752464Y-135021912D01*
X181755719Y-135018103D01*
X181889363Y-134800015D01*
X181889365Y-134800012D01*
X181987247Y-134563702D01*
X182046957Y-134314989D01*
X182067024Y-134060000D01*
X182046957Y-133805010D01*
X181987247Y-133556297D01*
X181889365Y-133319987D01*
X181889363Y-133319984D01*
X181755719Y-133101898D01*
X181755712Y-133101888D01*
X181752465Y-133098087D01*
X181752464Y-133098087D01*
X181188232Y-133662319D01*
X181144684Y-133580178D01*
X181024991Y-133439265D01*
X180877805Y-133327377D01*
X180835597Y-133307849D01*
X181398911Y-132744535D01*
X181398911Y-132744533D01*
X181395110Y-132741286D01*
X181395095Y-132741275D01*
X181177015Y-132607636D01*
X181177012Y-132607634D01*
X180940702Y-132509752D01*
X180691988Y-132450042D01*
X180691989Y-132450042D01*
X180437000Y-132429975D01*
X180182010Y-132450042D01*
X179933297Y-132509752D01*
X179696987Y-132607634D01*
X179696984Y-132607636D01*
X179478897Y-132741280D01*
X179475087Y-132744534D01*
X180038390Y-133307837D01*
X179919569Y-133379331D01*
X179785342Y-133506477D01*
X179682138Y-133658691D01*
X179121534Y-133098087D01*
X179118280Y-133101897D01*
X178984636Y-133319984D01*
X178984634Y-133319987D01*
X178886752Y-133556297D01*
X178827042Y-133805010D01*
X178806975Y-134060000D01*
X176987024Y-134060000D01*
X176966957Y-133805010D01*
X176907247Y-133556297D01*
X176809365Y-133319987D01*
X176809363Y-133319984D01*
X176675719Y-133101898D01*
X176675712Y-133101888D01*
X176672465Y-133098087D01*
X176672464Y-133098087D01*
X176108232Y-133662319D01*
X176064684Y-133580178D01*
X175944991Y-133439265D01*
X175797805Y-133327377D01*
X175755597Y-133307849D01*
X176318911Y-132744535D01*
X176318911Y-132744533D01*
X176315110Y-132741286D01*
X176315095Y-132741275D01*
X176097015Y-132607636D01*
X176097012Y-132607634D01*
X175860702Y-132509752D01*
X175611988Y-132450042D01*
X175611989Y-132450042D01*
X175357000Y-132429975D01*
X175102010Y-132450042D01*
X174853297Y-132509752D01*
X174616987Y-132607634D01*
X174616984Y-132607636D01*
X174398897Y-132741280D01*
X174395087Y-132744534D01*
X174958390Y-133307837D01*
X174839569Y-133379331D01*
X174705342Y-133506477D01*
X174602138Y-133658691D01*
X174041534Y-133098087D01*
X174038280Y-133101897D01*
X173904636Y-133319984D01*
X173904634Y-133319987D01*
X173806752Y-133556297D01*
X173747042Y-133805010D01*
X173726975Y-134060000D01*
X168902210Y-134060000D01*
X168987247Y-133854702D01*
X169046957Y-133605989D01*
X169067024Y-133350999D01*
X169046957Y-133096010D01*
X168987247Y-132847297D01*
X168889365Y-132610987D01*
X168889363Y-132610984D01*
X168755719Y-132392898D01*
X168755712Y-132392888D01*
X168752465Y-132389087D01*
X168752464Y-132389087D01*
X168188232Y-132953319D01*
X168144684Y-132871178D01*
X168024991Y-132730265D01*
X167877805Y-132618377D01*
X167835597Y-132598849D01*
X168398911Y-132035535D01*
X168398911Y-132035533D01*
X168395110Y-132032286D01*
X168395095Y-132032275D01*
X168177015Y-131898636D01*
X168177012Y-131898634D01*
X167940702Y-131800752D01*
X167691988Y-131741042D01*
X167691989Y-131741042D01*
X167437000Y-131720975D01*
X167182010Y-131741042D01*
X166933297Y-131800752D01*
X166696987Y-131898634D01*
X166696984Y-131898636D01*
X166478897Y-132032280D01*
X166475087Y-132035534D01*
X167038390Y-132598837D01*
X166919569Y-132670331D01*
X166785342Y-132797477D01*
X166682138Y-132949691D01*
X166121534Y-132389087D01*
X166118280Y-132392897D01*
X165984636Y-132610984D01*
X165984634Y-132610987D01*
X165886752Y-132847297D01*
X165827042Y-133096010D01*
X165806975Y-133351000D01*
X163987024Y-133351000D01*
X163966957Y-133096010D01*
X163907247Y-132847297D01*
X163809365Y-132610987D01*
X163809363Y-132610984D01*
X163675719Y-132392898D01*
X163675712Y-132392888D01*
X163672465Y-132389087D01*
X163672464Y-132389087D01*
X163108232Y-132953318D01*
X163064684Y-132871178D01*
X162944991Y-132730265D01*
X162797805Y-132618377D01*
X162755597Y-132598849D01*
X163318911Y-132035535D01*
X163318911Y-132035533D01*
X163315110Y-132032286D01*
X163315095Y-132032275D01*
X163097015Y-131898636D01*
X163097012Y-131898634D01*
X162860702Y-131800752D01*
X162611988Y-131741042D01*
X162611989Y-131741042D01*
X162357000Y-131720975D01*
X162102010Y-131741042D01*
X161853297Y-131800752D01*
X161616987Y-131898634D01*
X161616984Y-131898636D01*
X161398897Y-132032280D01*
X161395087Y-132035534D01*
X161958390Y-132598837D01*
X161839569Y-132670331D01*
X161705342Y-132797477D01*
X161602138Y-132949691D01*
X161041534Y-132389087D01*
X161038280Y-132392897D01*
X160904636Y-132610984D01*
X160904634Y-132610987D01*
X160806752Y-132847297D01*
X160747042Y-133096010D01*
X160726975Y-133351000D01*
X71901765Y-133351000D01*
X71902350Y-130811000D01*
X163366783Y-130811000D01*
X163385623Y-131050382D01*
X163441674Y-131283853D01*
X163441678Y-131283865D01*
X163533565Y-131505702D01*
X163659026Y-131710436D01*
X163659028Y-131710439D01*
X163814973Y-131893027D01*
X163997561Y-132048972D01*
X163997563Y-132048973D01*
X164202297Y-132174434D01*
X164299047Y-132214508D01*
X164424137Y-132266323D01*
X164657621Y-132322377D01*
X164897000Y-132341217D01*
X165136379Y-132322377D01*
X165369863Y-132266323D01*
X165591704Y-132174433D01*
X165796439Y-132048972D01*
X165979027Y-131893027D01*
X166134972Y-131710439D01*
X166260433Y-131505704D01*
X166352323Y-131283863D01*
X166408377Y-131050379D01*
X166427217Y-130811000D01*
X166408377Y-130571621D01*
X166352323Y-130338137D01*
X166300508Y-130213047D01*
X166260434Y-130116297D01*
X166134973Y-129911563D01*
X166134972Y-129911561D01*
X165979027Y-129728973D01*
X165796439Y-129573028D01*
X165796436Y-129573026D01*
X165591702Y-129447565D01*
X165369865Y-129355678D01*
X165369867Y-129355678D01*
X165369863Y-129355677D01*
X165369859Y-129355676D01*
X165369853Y-129355674D01*
X165136382Y-129299623D01*
X164897000Y-129280783D01*
X164657617Y-129299623D01*
X164424146Y-129355674D01*
X164424134Y-129355678D01*
X164202297Y-129447565D01*
X163997563Y-129573026D01*
X163814973Y-129728973D01*
X163659026Y-129911563D01*
X163533565Y-130116297D01*
X163441678Y-130338134D01*
X163441674Y-130338146D01*
X163385623Y-130571617D01*
X163366783Y-130811000D01*
X71902350Y-130811000D01*
X71902935Y-128271000D01*
X160726975Y-128271000D01*
X160747042Y-128525989D01*
X160806752Y-128774702D01*
X160904634Y-129011012D01*
X160904636Y-129011015D01*
X161038275Y-129229095D01*
X161038286Y-129229110D01*
X161041533Y-129232911D01*
X161041535Y-129232911D01*
X161605766Y-128668679D01*
X161649316Y-128750822D01*
X161769009Y-128891735D01*
X161916195Y-129003623D01*
X161958402Y-129023150D01*
X161395087Y-129586464D01*
X161395087Y-129586465D01*
X161398888Y-129589712D01*
X161398898Y-129589719D01*
X161616984Y-129723363D01*
X161616987Y-129723365D01*
X161853297Y-129821247D01*
X162102011Y-129880957D01*
X162102010Y-129880957D01*
X162357000Y-129901024D01*
X162611989Y-129880957D01*
X162860702Y-129821247D01*
X163097012Y-129723365D01*
X163097015Y-129723363D01*
X163315103Y-129589719D01*
X163318912Y-129586464D01*
X162755609Y-129023161D01*
X162874431Y-128951669D01*
X163008658Y-128824523D01*
X163111861Y-128672309D01*
X163672464Y-129232912D01*
X163675719Y-129229103D01*
X163809363Y-129011015D01*
X163809365Y-129011012D01*
X163907247Y-128774702D01*
X163966957Y-128525989D01*
X163987024Y-128271000D01*
X165806975Y-128271000D01*
X165827042Y-128525989D01*
X165886752Y-128774702D01*
X165984634Y-129011012D01*
X165984636Y-129011015D01*
X166118275Y-129229095D01*
X166118286Y-129229110D01*
X166121533Y-129232911D01*
X166121535Y-129232911D01*
X166685766Y-128668679D01*
X166729316Y-128750822D01*
X166849009Y-128891735D01*
X166996195Y-129003623D01*
X167038402Y-129023150D01*
X166475087Y-129586464D01*
X166475087Y-129586465D01*
X166478888Y-129589712D01*
X166478898Y-129589719D01*
X166696984Y-129723363D01*
X166696987Y-129723365D01*
X166933297Y-129821247D01*
X167182011Y-129880957D01*
X167182010Y-129880957D01*
X167437000Y-129901024D01*
X167691989Y-129880957D01*
X167940702Y-129821247D01*
X168177012Y-129723365D01*
X168177015Y-129723363D01*
X168395103Y-129589719D01*
X168398912Y-129586464D01*
X167835609Y-129023161D01*
X167954431Y-128951669D01*
X168088658Y-128824523D01*
X168191861Y-128672309D01*
X168752464Y-129232912D01*
X168755719Y-129229103D01*
X168889363Y-129011015D01*
X168889365Y-129011012D01*
X168987247Y-128774702D01*
X169046957Y-128525989D01*
X169067024Y-128270999D01*
X169046957Y-128016010D01*
X168987247Y-127767297D01*
X168897655Y-127551000D01*
X173726975Y-127551000D01*
X173747042Y-127805989D01*
X173806752Y-128054702D01*
X173904634Y-128291012D01*
X173904636Y-128291015D01*
X174038275Y-128509095D01*
X174038286Y-128509110D01*
X174041533Y-128512911D01*
X174041535Y-128512911D01*
X174605766Y-127948679D01*
X174649316Y-128030822D01*
X174769009Y-128171735D01*
X174916195Y-128283623D01*
X174958402Y-128303150D01*
X174395087Y-128866464D01*
X174395087Y-128866465D01*
X174398888Y-128869712D01*
X174398898Y-128869719D01*
X174616984Y-129003363D01*
X174616987Y-129003365D01*
X174853297Y-129101247D01*
X175102011Y-129160957D01*
X175102010Y-129160957D01*
X175357000Y-129181024D01*
X175611989Y-129160957D01*
X175860702Y-129101247D01*
X176097012Y-129003365D01*
X176097015Y-129003363D01*
X176315103Y-128869719D01*
X176318912Y-128866464D01*
X175755609Y-128303161D01*
X175874431Y-128231669D01*
X176008658Y-128104523D01*
X176111861Y-127952308D01*
X176672464Y-128512912D01*
X176675719Y-128509103D01*
X176809363Y-128291015D01*
X176809365Y-128291012D01*
X176907247Y-128054702D01*
X176966957Y-127805989D01*
X176987024Y-127550999D01*
X178806975Y-127550999D01*
X178827042Y-127805989D01*
X178886752Y-128054702D01*
X178984634Y-128291012D01*
X178984636Y-128291015D01*
X179118275Y-128509095D01*
X179118286Y-128509110D01*
X179121533Y-128512911D01*
X179121535Y-128512911D01*
X179685766Y-127948679D01*
X179729316Y-128030822D01*
X179849009Y-128171735D01*
X179996195Y-128283623D01*
X180038402Y-128303150D01*
X179475087Y-128866464D01*
X179475087Y-128866465D01*
X179478888Y-128869712D01*
X179478898Y-128869719D01*
X179696984Y-129003363D01*
X179696987Y-129003365D01*
X179933297Y-129101247D01*
X180182011Y-129160957D01*
X180182010Y-129160957D01*
X180437000Y-129181024D01*
X180691989Y-129160957D01*
X180940702Y-129101247D01*
X181177012Y-129003365D01*
X181177015Y-129003363D01*
X181395103Y-128869719D01*
X181398912Y-128866464D01*
X180835609Y-128303161D01*
X180954431Y-128231669D01*
X181088658Y-128104523D01*
X181191861Y-127952308D01*
X181752464Y-128512912D01*
X181755719Y-128509103D01*
X181889363Y-128291015D01*
X181889365Y-128291012D01*
X181987247Y-128054702D01*
X182046957Y-127805989D01*
X182067024Y-127550999D01*
X182046957Y-127296010D01*
X181987247Y-127047297D01*
X181889365Y-126810987D01*
X181889363Y-126810984D01*
X181755719Y-126592898D01*
X181755712Y-126592888D01*
X181752465Y-126589087D01*
X181752464Y-126589087D01*
X181188232Y-127153319D01*
X181144684Y-127071178D01*
X181024991Y-126930265D01*
X180877805Y-126818377D01*
X180835596Y-126798849D01*
X181398911Y-126235535D01*
X181398911Y-126235533D01*
X181395110Y-126232286D01*
X181395095Y-126232275D01*
X181177015Y-126098636D01*
X181177012Y-126098634D01*
X180940702Y-126000752D01*
X180691988Y-125941042D01*
X180691989Y-125941042D01*
X180437000Y-125920975D01*
X180182010Y-125941042D01*
X179933297Y-126000752D01*
X179696987Y-126098634D01*
X179696984Y-126098636D01*
X179478897Y-126232280D01*
X179475087Y-126235534D01*
X180038390Y-126798838D01*
X179919569Y-126870331D01*
X179785342Y-126997477D01*
X179682138Y-127149691D01*
X179121534Y-126589087D01*
X179118280Y-126592897D01*
X178984636Y-126810984D01*
X178984634Y-126810987D01*
X178886752Y-127047297D01*
X178827042Y-127296010D01*
X178806975Y-127550999D01*
X176987024Y-127550999D01*
X176966957Y-127296010D01*
X176907247Y-127047297D01*
X176809365Y-126810987D01*
X176809363Y-126810984D01*
X176675719Y-126592898D01*
X176675712Y-126592888D01*
X176672465Y-126589087D01*
X176672464Y-126589087D01*
X176108232Y-127153319D01*
X176064684Y-127071178D01*
X175944991Y-126930265D01*
X175797805Y-126818377D01*
X175755596Y-126798849D01*
X176318911Y-126235535D01*
X176318911Y-126235533D01*
X176315110Y-126232286D01*
X176315095Y-126232275D01*
X176097015Y-126098636D01*
X176097012Y-126098634D01*
X175860702Y-126000752D01*
X175611988Y-125941042D01*
X175611989Y-125941042D01*
X175357000Y-125920975D01*
X175102010Y-125941042D01*
X174853297Y-126000752D01*
X174616987Y-126098634D01*
X174616984Y-126098636D01*
X174398897Y-126232280D01*
X174395087Y-126235534D01*
X174958390Y-126798837D01*
X174839569Y-126870331D01*
X174705342Y-126997477D01*
X174602138Y-127149691D01*
X174041534Y-126589087D01*
X174038280Y-126592897D01*
X173904636Y-126810984D01*
X173904634Y-126810987D01*
X173806752Y-127047297D01*
X173747042Y-127296010D01*
X173726975Y-127551000D01*
X168897655Y-127551000D01*
X168889365Y-127530987D01*
X168889363Y-127530984D01*
X168755719Y-127312898D01*
X168755712Y-127312888D01*
X168752465Y-127309087D01*
X168752464Y-127309087D01*
X168188232Y-127873319D01*
X168144684Y-127791178D01*
X168024991Y-127650265D01*
X167877805Y-127538377D01*
X167835597Y-127518849D01*
X168398911Y-126955535D01*
X168398911Y-126955533D01*
X168395110Y-126952286D01*
X168395095Y-126952275D01*
X168177015Y-126818636D01*
X168177012Y-126818634D01*
X167940702Y-126720752D01*
X167691988Y-126661042D01*
X167691989Y-126661042D01*
X167436999Y-126640975D01*
X167182010Y-126661042D01*
X166933297Y-126720752D01*
X166696987Y-126818634D01*
X166696984Y-126818636D01*
X166478897Y-126952280D01*
X166475087Y-126955534D01*
X167038390Y-127518837D01*
X166919569Y-127590331D01*
X166785342Y-127717477D01*
X166682138Y-127869691D01*
X166121534Y-127309087D01*
X166118280Y-127312897D01*
X165984636Y-127530984D01*
X165984634Y-127530987D01*
X165886752Y-127767297D01*
X165827042Y-128016010D01*
X165806975Y-128271000D01*
X163987024Y-128271000D01*
X163966957Y-128016010D01*
X163907247Y-127767297D01*
X163809365Y-127530987D01*
X163809363Y-127530984D01*
X163675719Y-127312898D01*
X163675712Y-127312888D01*
X163672465Y-127309087D01*
X163672464Y-127309087D01*
X163108232Y-127873319D01*
X163064684Y-127791178D01*
X162944991Y-127650265D01*
X162797805Y-127538377D01*
X162755597Y-127518849D01*
X163318911Y-126955535D01*
X163318911Y-126955533D01*
X163315110Y-126952286D01*
X163315095Y-126952275D01*
X163097015Y-126818636D01*
X163097012Y-126818634D01*
X162860702Y-126720752D01*
X162611988Y-126661042D01*
X162611989Y-126661042D01*
X162356999Y-126640975D01*
X162102010Y-126661042D01*
X161853297Y-126720752D01*
X161616987Y-126818634D01*
X161616984Y-126818636D01*
X161398897Y-126952280D01*
X161395087Y-126955534D01*
X161958390Y-127518837D01*
X161839569Y-127590331D01*
X161705342Y-127717477D01*
X161602138Y-127869691D01*
X161041534Y-127309087D01*
X161038280Y-127312897D01*
X160904636Y-127530984D01*
X160904634Y-127530987D01*
X160806752Y-127767297D01*
X160747042Y-128016010D01*
X160726975Y-128271000D01*
X71902935Y-128271000D01*
X71903686Y-125011000D01*
X176366783Y-125011000D01*
X176385623Y-125250382D01*
X176441674Y-125483853D01*
X176441678Y-125483865D01*
X176533565Y-125705702D01*
X176659026Y-125910436D01*
X176659028Y-125910439D01*
X176814973Y-126093027D01*
X176997561Y-126248972D01*
X176997563Y-126248973D01*
X177202297Y-126374434D01*
X177299047Y-126414508D01*
X177424137Y-126466323D01*
X177657621Y-126522377D01*
X177897000Y-126541217D01*
X178136379Y-126522377D01*
X178369863Y-126466323D01*
X178591704Y-126374433D01*
X178796439Y-126248972D01*
X178979027Y-126093027D01*
X179134972Y-125910439D01*
X179260433Y-125705704D01*
X179352323Y-125483863D01*
X179408377Y-125250379D01*
X179427217Y-125011000D01*
X179408377Y-124771621D01*
X179352323Y-124538137D01*
X179300508Y-124413047D01*
X179260434Y-124316297D01*
X179134973Y-124111563D01*
X179134972Y-124111561D01*
X178979027Y-123928973D01*
X178796439Y-123773028D01*
X178796436Y-123773026D01*
X178591702Y-123647565D01*
X178369865Y-123555678D01*
X178369867Y-123555678D01*
X178369863Y-123555677D01*
X178369859Y-123555676D01*
X178369853Y-123555674D01*
X178136382Y-123499623D01*
X177956844Y-123485492D01*
X177897000Y-123480783D01*
X177896999Y-123480783D01*
X177657617Y-123499623D01*
X177424146Y-123555674D01*
X177424134Y-123555678D01*
X177202297Y-123647565D01*
X176997563Y-123773026D01*
X176814973Y-123928973D01*
X176659026Y-124111563D01*
X176533565Y-124316297D01*
X176441678Y-124538134D01*
X176441674Y-124538146D01*
X176385623Y-124771617D01*
X176366783Y-125011000D01*
X71903686Y-125011000D01*
X71904440Y-121740999D01*
X160726975Y-121740999D01*
X160747042Y-121995989D01*
X160806752Y-122244702D01*
X160904634Y-122481012D01*
X160904636Y-122481015D01*
X161038275Y-122699095D01*
X161038286Y-122699110D01*
X161041533Y-122702911D01*
X161041535Y-122702911D01*
X161605766Y-122138679D01*
X161649316Y-122220822D01*
X161769009Y-122361735D01*
X161916195Y-122473623D01*
X161958402Y-122493150D01*
X161395087Y-123056464D01*
X161395087Y-123056465D01*
X161398888Y-123059712D01*
X161398898Y-123059719D01*
X161616984Y-123193363D01*
X161616987Y-123193365D01*
X161853297Y-123291247D01*
X162102011Y-123350957D01*
X162102010Y-123350957D01*
X162357000Y-123371024D01*
X162611989Y-123350957D01*
X162860702Y-123291247D01*
X163097012Y-123193365D01*
X163097015Y-123193363D01*
X163315103Y-123059719D01*
X163318912Y-123056464D01*
X162755609Y-122493161D01*
X162874431Y-122421669D01*
X163008658Y-122294523D01*
X163111861Y-122142309D01*
X163672464Y-122702912D01*
X163675719Y-122699103D01*
X163809363Y-122481015D01*
X163809365Y-122481012D01*
X163907247Y-122244702D01*
X163966957Y-121995989D01*
X163987024Y-121740999D01*
X165806975Y-121740999D01*
X165827042Y-121995989D01*
X165886752Y-122244702D01*
X165984634Y-122481012D01*
X165984636Y-122481015D01*
X166118275Y-122699095D01*
X166118286Y-122699110D01*
X166121533Y-122702911D01*
X166121535Y-122702911D01*
X166685766Y-122138679D01*
X166729316Y-122220822D01*
X166849009Y-122361735D01*
X166996195Y-122473623D01*
X167038402Y-122493150D01*
X166475087Y-123056464D01*
X166475087Y-123056465D01*
X166478888Y-123059712D01*
X166478898Y-123059719D01*
X166696984Y-123193363D01*
X166696987Y-123193365D01*
X166933297Y-123291247D01*
X167182011Y-123350957D01*
X167182010Y-123350957D01*
X167437000Y-123371024D01*
X167691989Y-123350957D01*
X167940702Y-123291247D01*
X168177012Y-123193365D01*
X168177015Y-123193363D01*
X168395103Y-123059719D01*
X168398912Y-123056464D01*
X167835609Y-122493161D01*
X167954431Y-122421669D01*
X168088658Y-122294523D01*
X168191861Y-122142308D01*
X168752464Y-122702912D01*
X168755719Y-122699103D01*
X168889363Y-122481015D01*
X168889365Y-122481012D01*
X168893512Y-122471000D01*
X173726975Y-122471000D01*
X173747042Y-122725989D01*
X173806752Y-122974702D01*
X173904634Y-123211012D01*
X173904636Y-123211015D01*
X174038275Y-123429095D01*
X174038286Y-123429110D01*
X174041533Y-123432911D01*
X174041535Y-123432911D01*
X174605766Y-122868679D01*
X174649316Y-122950822D01*
X174769009Y-123091735D01*
X174916195Y-123203623D01*
X174958402Y-123223150D01*
X174395087Y-123786464D01*
X174395087Y-123786465D01*
X174398888Y-123789712D01*
X174398898Y-123789719D01*
X174616984Y-123923363D01*
X174616987Y-123923365D01*
X174853297Y-124021247D01*
X175102011Y-124080957D01*
X175102010Y-124080957D01*
X175357000Y-124101024D01*
X175611989Y-124080957D01*
X175860702Y-124021247D01*
X176097012Y-123923365D01*
X176097015Y-123923363D01*
X176315103Y-123789719D01*
X176318912Y-123786464D01*
X175755609Y-123223161D01*
X175874431Y-123151669D01*
X176008658Y-123024523D01*
X176111861Y-122872308D01*
X176672464Y-123432912D01*
X176675719Y-123429103D01*
X176809363Y-123211015D01*
X176809365Y-123211012D01*
X176907247Y-122974702D01*
X176966957Y-122725989D01*
X176987024Y-122470999D01*
X178806975Y-122470999D01*
X178827042Y-122725989D01*
X178886752Y-122974702D01*
X178984634Y-123211012D01*
X178984636Y-123211015D01*
X179118275Y-123429095D01*
X179118286Y-123429110D01*
X179121533Y-123432911D01*
X179121535Y-123432911D01*
X179685766Y-122868679D01*
X179729316Y-122950822D01*
X179849009Y-123091735D01*
X179996195Y-123203623D01*
X180038402Y-123223150D01*
X179475087Y-123786464D01*
X179475087Y-123786465D01*
X179478888Y-123789712D01*
X179478898Y-123789719D01*
X179696984Y-123923363D01*
X179696987Y-123923365D01*
X179933297Y-124021247D01*
X180182011Y-124080957D01*
X180182010Y-124080957D01*
X180437000Y-124101024D01*
X180691989Y-124080957D01*
X180940702Y-124021247D01*
X181177012Y-123923365D01*
X181177015Y-123923363D01*
X181395103Y-123789719D01*
X181398912Y-123786464D01*
X180835609Y-123223161D01*
X180954431Y-123151669D01*
X181088658Y-123024523D01*
X181191861Y-122872308D01*
X181752464Y-123432912D01*
X181755719Y-123429103D01*
X181889363Y-123211015D01*
X181889365Y-123211012D01*
X181987247Y-122974702D01*
X182046957Y-122725989D01*
X182067024Y-122470999D01*
X182046957Y-122216010D01*
X181987247Y-121967297D01*
X181889365Y-121730987D01*
X181889363Y-121730984D01*
X181755719Y-121512898D01*
X181755712Y-121512888D01*
X181752465Y-121509087D01*
X181752464Y-121509087D01*
X181188232Y-122073319D01*
X181144684Y-121991178D01*
X181024991Y-121850265D01*
X180877805Y-121738377D01*
X180835596Y-121718849D01*
X181398911Y-121155535D01*
X181398911Y-121155533D01*
X181395110Y-121152286D01*
X181395095Y-121152275D01*
X181177015Y-121018636D01*
X181177012Y-121018634D01*
X180940702Y-120920752D01*
X180691988Y-120861042D01*
X180691989Y-120861042D01*
X180437000Y-120840975D01*
X180182010Y-120861042D01*
X179933297Y-120920752D01*
X179696987Y-121018634D01*
X179696984Y-121018636D01*
X179478897Y-121152280D01*
X179475087Y-121155534D01*
X180038390Y-121718838D01*
X179919569Y-121790331D01*
X179785342Y-121917477D01*
X179682139Y-122069690D01*
X179121534Y-121509087D01*
X179118280Y-121512897D01*
X178984636Y-121730984D01*
X178984634Y-121730987D01*
X178886752Y-121967297D01*
X178827042Y-122216010D01*
X178806975Y-122470999D01*
X176987024Y-122470999D01*
X176966957Y-122216010D01*
X176907247Y-121967297D01*
X176809365Y-121730987D01*
X176809363Y-121730984D01*
X176675719Y-121512898D01*
X176675712Y-121512888D01*
X176672465Y-121509087D01*
X176672464Y-121509087D01*
X176108232Y-122073319D01*
X176064684Y-121991178D01*
X175944991Y-121850265D01*
X175797805Y-121738377D01*
X175755597Y-121718849D01*
X176318911Y-121155535D01*
X176318911Y-121155533D01*
X176315110Y-121152286D01*
X176315095Y-121152275D01*
X176097015Y-121018636D01*
X176097012Y-121018634D01*
X175860702Y-120920752D01*
X175611988Y-120861042D01*
X175611989Y-120861042D01*
X175357000Y-120840975D01*
X175102010Y-120861042D01*
X174853297Y-120920752D01*
X174616987Y-121018634D01*
X174616984Y-121018636D01*
X174398897Y-121152280D01*
X174395087Y-121155534D01*
X174958390Y-121718837D01*
X174839569Y-121790331D01*
X174705342Y-121917477D01*
X174602138Y-122069691D01*
X174041534Y-121509087D01*
X174038280Y-121512897D01*
X173904636Y-121730984D01*
X173904634Y-121730987D01*
X173806752Y-121967297D01*
X173747042Y-122216010D01*
X173726975Y-122471000D01*
X168893512Y-122471000D01*
X168987247Y-122244702D01*
X169046957Y-121995989D01*
X169067024Y-121741000D01*
X169046957Y-121486010D01*
X168987247Y-121237297D01*
X168889365Y-121000987D01*
X168889363Y-121000984D01*
X168755719Y-120782898D01*
X168755712Y-120782888D01*
X168752465Y-120779087D01*
X168752464Y-120779087D01*
X168188232Y-121343319D01*
X168144684Y-121261178D01*
X168024991Y-121120265D01*
X167877805Y-121008377D01*
X167835596Y-120988849D01*
X168398911Y-120425535D01*
X168398911Y-120425533D01*
X168395110Y-120422286D01*
X168395095Y-120422275D01*
X168177015Y-120288636D01*
X168177012Y-120288634D01*
X167940702Y-120190752D01*
X167691988Y-120131042D01*
X167691989Y-120131042D01*
X167436999Y-120110975D01*
X167182010Y-120131042D01*
X166933297Y-120190752D01*
X166696987Y-120288634D01*
X166696984Y-120288636D01*
X166478897Y-120422280D01*
X166475087Y-120425534D01*
X167038390Y-120988837D01*
X166919569Y-121060331D01*
X166785342Y-121187477D01*
X166682138Y-121339691D01*
X166121534Y-120779087D01*
X166118280Y-120782897D01*
X165984636Y-121000984D01*
X165984634Y-121000987D01*
X165886752Y-121237297D01*
X165827042Y-121486010D01*
X165806975Y-121740999D01*
X163987024Y-121740999D01*
X163966957Y-121486010D01*
X163907247Y-121237297D01*
X163809365Y-121000987D01*
X163809363Y-121000984D01*
X163675719Y-120782898D01*
X163675712Y-120782888D01*
X163672465Y-120779087D01*
X163672464Y-120779087D01*
X163108232Y-121343319D01*
X163064684Y-121261178D01*
X162944991Y-121120265D01*
X162797805Y-121008377D01*
X162755596Y-120988849D01*
X163318911Y-120425535D01*
X163318911Y-120425533D01*
X163315110Y-120422286D01*
X163315095Y-120422275D01*
X163097015Y-120288636D01*
X163097012Y-120288634D01*
X162860702Y-120190752D01*
X162611988Y-120131042D01*
X162611989Y-120131042D01*
X162356999Y-120110975D01*
X162102010Y-120131042D01*
X161853297Y-120190752D01*
X161616987Y-120288634D01*
X161616984Y-120288636D01*
X161398897Y-120422280D01*
X161395087Y-120425534D01*
X161958390Y-120988837D01*
X161839569Y-121060331D01*
X161705342Y-121187477D01*
X161602138Y-121339691D01*
X161041534Y-120779087D01*
X161038280Y-120782897D01*
X160904636Y-121000984D01*
X160904634Y-121000987D01*
X160806752Y-121237297D01*
X160747042Y-121486010D01*
X160726975Y-121740999D01*
X71904440Y-121740999D01*
X71905174Y-118553763D01*
X149845787Y-118553763D01*
X149875413Y-118823013D01*
X149875415Y-118823024D01*
X149943926Y-119085082D01*
X149943928Y-119085088D01*
X150049870Y-119334390D01*
X150121998Y-119452575D01*
X150190979Y-119565605D01*
X150190986Y-119565615D01*
X150364253Y-119773819D01*
X150364259Y-119773824D01*
X150565998Y-119954582D01*
X150791910Y-120104044D01*
X151037176Y-120219020D01*
X151037183Y-120219022D01*
X151037185Y-120219023D01*
X151296557Y-120297057D01*
X151296564Y-120297058D01*
X151296569Y-120297060D01*
X151564561Y-120336500D01*
X151564566Y-120336500D01*
X151767629Y-120336500D01*
X151767631Y-120336500D01*
X151767636Y-120336499D01*
X151767648Y-120336499D01*
X151805191Y-120333750D01*
X151970156Y-120321677D01*
X152118491Y-120288634D01*
X152234546Y-120262782D01*
X152234548Y-120262781D01*
X152234553Y-120262780D01*
X152487558Y-120166014D01*
X152723777Y-120033441D01*
X152938177Y-119867888D01*
X153126186Y-119672881D01*
X153283799Y-119452579D01*
X153357787Y-119308669D01*
X153407649Y-119211690D01*
X153407651Y-119211684D01*
X153407656Y-119211675D01*
X153411298Y-119200999D01*
X163366783Y-119200999D01*
X163385623Y-119440382D01*
X163441674Y-119673853D01*
X163441678Y-119673865D01*
X163533565Y-119895702D01*
X163617972Y-120033442D01*
X163659028Y-120100439D01*
X163814973Y-120283027D01*
X163997561Y-120438972D01*
X163997563Y-120438973D01*
X164202297Y-120564434D01*
X164299047Y-120604508D01*
X164424137Y-120656323D01*
X164657621Y-120712377D01*
X164897000Y-120731217D01*
X165136379Y-120712377D01*
X165369863Y-120656323D01*
X165591704Y-120564433D01*
X165796439Y-120438972D01*
X165979027Y-120283027D01*
X166134972Y-120100439D01*
X166260433Y-119895704D01*
X166352323Y-119673863D01*
X166408377Y-119440379D01*
X166427217Y-119201000D01*
X166408377Y-118961621D01*
X166352323Y-118728137D01*
X166300508Y-118603047D01*
X166260434Y-118506297D01*
X166134973Y-118301563D01*
X166134972Y-118301561D01*
X165979027Y-118118973D01*
X165796439Y-117963028D01*
X165796436Y-117963026D01*
X165591702Y-117837565D01*
X165369865Y-117745678D01*
X165369867Y-117745678D01*
X165369863Y-117745677D01*
X165369859Y-117745676D01*
X165369853Y-117745674D01*
X165136382Y-117689623D01*
X164897000Y-117670783D01*
X164657617Y-117689623D01*
X164424146Y-117745674D01*
X164424134Y-117745678D01*
X164202297Y-117837565D01*
X163997563Y-117963026D01*
X163814973Y-118118973D01*
X163659026Y-118301563D01*
X163533565Y-118506297D01*
X163441678Y-118728134D01*
X163441674Y-118728146D01*
X163385623Y-118961617D01*
X163366783Y-119200999D01*
X153411298Y-119200999D01*
X153495118Y-118955305D01*
X153544319Y-118688933D01*
X153554212Y-118418235D01*
X153524586Y-118148982D01*
X153456072Y-117886912D01*
X153350130Y-117637610D01*
X153209018Y-117406390D01*
X153155157Y-117341669D01*
X153035746Y-117198180D01*
X153035740Y-117198175D01*
X152834002Y-117017418D01*
X152608092Y-116867957D01*
X152608090Y-116867956D01*
X152362824Y-116752980D01*
X152362819Y-116752978D01*
X152362814Y-116752976D01*
X152103442Y-116674942D01*
X152103428Y-116674939D01*
X152008706Y-116660999D01*
X160726975Y-116660999D01*
X160747042Y-116915989D01*
X160806752Y-117164702D01*
X160904634Y-117401012D01*
X160904636Y-117401015D01*
X161038275Y-117619095D01*
X161038286Y-117619110D01*
X161041533Y-117622911D01*
X161041535Y-117622911D01*
X161605766Y-117058679D01*
X161649316Y-117140822D01*
X161769009Y-117281735D01*
X161916195Y-117393623D01*
X161958402Y-117413150D01*
X161395087Y-117976464D01*
X161395087Y-117976465D01*
X161398888Y-117979712D01*
X161398898Y-117979719D01*
X161616984Y-118113363D01*
X161616987Y-118113365D01*
X161853297Y-118211247D01*
X162102011Y-118270957D01*
X162102010Y-118270957D01*
X162357000Y-118291024D01*
X162611989Y-118270957D01*
X162860702Y-118211247D01*
X163097012Y-118113365D01*
X163097015Y-118113363D01*
X163315103Y-117979719D01*
X163318912Y-117976464D01*
X162755609Y-117413161D01*
X162874431Y-117341669D01*
X163008658Y-117214523D01*
X163111861Y-117062309D01*
X163672464Y-117622912D01*
X163675719Y-117619103D01*
X163809363Y-117401015D01*
X163809365Y-117401012D01*
X163907247Y-117164702D01*
X163966957Y-116915989D01*
X163987024Y-116660999D01*
X165806975Y-116660999D01*
X165827042Y-116915989D01*
X165886752Y-117164702D01*
X165984634Y-117401012D01*
X165984636Y-117401015D01*
X166118275Y-117619095D01*
X166118286Y-117619110D01*
X166121533Y-117622911D01*
X166121535Y-117622911D01*
X166685766Y-117058679D01*
X166729316Y-117140822D01*
X166849009Y-117281735D01*
X166996195Y-117393623D01*
X167038402Y-117413150D01*
X166475087Y-117976464D01*
X166475087Y-117976465D01*
X166478888Y-117979712D01*
X166478898Y-117979719D01*
X166696984Y-118113363D01*
X166696987Y-118113365D01*
X166933297Y-118211247D01*
X167182011Y-118270957D01*
X167182010Y-118270957D01*
X167437000Y-118291024D01*
X167691989Y-118270957D01*
X167940702Y-118211247D01*
X168177012Y-118113365D01*
X168177015Y-118113363D01*
X168395103Y-117979719D01*
X168398912Y-117976464D01*
X167835609Y-117413161D01*
X167954431Y-117341669D01*
X168088658Y-117214523D01*
X168191861Y-117062308D01*
X168752464Y-117622912D01*
X168755719Y-117619103D01*
X168889363Y-117401015D01*
X168889365Y-117401012D01*
X168987247Y-117164702D01*
X169046957Y-116915989D01*
X169067024Y-116661000D01*
X169046957Y-116406010D01*
X168987247Y-116157297D01*
X168889365Y-115920987D01*
X168889363Y-115920984D01*
X168846477Y-115851000D01*
X173726975Y-115851000D01*
X173747042Y-116105989D01*
X173806752Y-116354702D01*
X173904634Y-116591012D01*
X173904636Y-116591015D01*
X174038275Y-116809095D01*
X174038286Y-116809110D01*
X174041533Y-116812911D01*
X174041535Y-116812911D01*
X174605766Y-116248679D01*
X174649316Y-116330822D01*
X174769009Y-116471735D01*
X174916195Y-116583623D01*
X174958402Y-116603150D01*
X174395087Y-117166464D01*
X174395087Y-117166465D01*
X174398888Y-117169712D01*
X174398898Y-117169719D01*
X174616984Y-117303363D01*
X174616987Y-117303365D01*
X174853297Y-117401247D01*
X175102011Y-117460957D01*
X175102010Y-117460957D01*
X175357000Y-117481024D01*
X175611989Y-117460957D01*
X175860702Y-117401247D01*
X176097012Y-117303365D01*
X176097015Y-117303363D01*
X176315103Y-117169719D01*
X176318912Y-117166464D01*
X175755609Y-116603161D01*
X175874431Y-116531669D01*
X176008658Y-116404523D01*
X176111861Y-116252308D01*
X176672464Y-116812912D01*
X176675719Y-116809103D01*
X176809363Y-116591015D01*
X176809365Y-116591012D01*
X176907247Y-116354702D01*
X176966957Y-116105989D01*
X176987024Y-115850999D01*
X178806975Y-115850999D01*
X178827042Y-116105989D01*
X178886752Y-116354702D01*
X178984634Y-116591012D01*
X178984636Y-116591015D01*
X179118275Y-116809095D01*
X179118286Y-116809110D01*
X179121533Y-116812911D01*
X179121535Y-116812911D01*
X179685766Y-116248679D01*
X179729316Y-116330822D01*
X179849009Y-116471735D01*
X179996195Y-116583623D01*
X180038402Y-116603150D01*
X179475087Y-117166464D01*
X179475087Y-117166465D01*
X179478888Y-117169712D01*
X179478898Y-117169719D01*
X179696984Y-117303363D01*
X179696987Y-117303365D01*
X179933297Y-117401247D01*
X180182011Y-117460957D01*
X180182010Y-117460957D01*
X180437000Y-117481024D01*
X180691989Y-117460957D01*
X180940702Y-117401247D01*
X181177012Y-117303365D01*
X181177015Y-117303363D01*
X181395103Y-117169719D01*
X181398912Y-117166464D01*
X180835609Y-116603161D01*
X180954431Y-116531669D01*
X181088658Y-116404523D01*
X181191861Y-116252308D01*
X181752464Y-116812912D01*
X181755719Y-116809103D01*
X181889363Y-116591015D01*
X181889365Y-116591012D01*
X181987247Y-116354702D01*
X182046957Y-116105989D01*
X182067024Y-115850999D01*
X182046957Y-115596010D01*
X181987247Y-115347297D01*
X181889365Y-115110987D01*
X181889363Y-115110984D01*
X181755719Y-114892898D01*
X181755712Y-114892888D01*
X181752465Y-114889087D01*
X181752464Y-114889087D01*
X181188232Y-115453319D01*
X181144684Y-115371178D01*
X181024991Y-115230265D01*
X180877805Y-115118377D01*
X180835597Y-115098849D01*
X181398911Y-114535535D01*
X181398911Y-114535533D01*
X181395110Y-114532286D01*
X181395095Y-114532275D01*
X181177015Y-114398636D01*
X181177012Y-114398634D01*
X180940702Y-114300752D01*
X180691988Y-114241042D01*
X180691989Y-114241042D01*
X180437000Y-114220975D01*
X180182010Y-114241042D01*
X179933297Y-114300752D01*
X179696987Y-114398634D01*
X179696984Y-114398636D01*
X179478897Y-114532280D01*
X179475087Y-114535534D01*
X180038390Y-115098837D01*
X179919569Y-115170331D01*
X179785342Y-115297477D01*
X179682138Y-115449691D01*
X179121534Y-114889087D01*
X179118280Y-114892897D01*
X178984636Y-115110984D01*
X178984634Y-115110987D01*
X178886752Y-115347297D01*
X178827042Y-115596010D01*
X178806975Y-115850999D01*
X176987024Y-115850999D01*
X176966957Y-115596010D01*
X176907247Y-115347297D01*
X176809365Y-115110987D01*
X176809363Y-115110984D01*
X176675719Y-114892898D01*
X176675712Y-114892888D01*
X176672465Y-114889087D01*
X176672464Y-114889087D01*
X176108232Y-115453319D01*
X176064684Y-115371178D01*
X175944991Y-115230265D01*
X175797805Y-115118377D01*
X175755597Y-115098849D01*
X176318911Y-114535535D01*
X176318911Y-114535533D01*
X176315110Y-114532286D01*
X176315095Y-114532275D01*
X176097015Y-114398636D01*
X176097012Y-114398634D01*
X175860702Y-114300752D01*
X175611988Y-114241042D01*
X175611989Y-114241042D01*
X175357000Y-114220975D01*
X175102010Y-114241042D01*
X174853297Y-114300752D01*
X174616987Y-114398634D01*
X174616984Y-114398636D01*
X174398897Y-114532280D01*
X174395087Y-114535534D01*
X174958390Y-115098837D01*
X174839569Y-115170331D01*
X174705342Y-115297477D01*
X174602138Y-115449691D01*
X174041534Y-114889087D01*
X174038280Y-114892897D01*
X173904636Y-115110984D01*
X173904634Y-115110987D01*
X173806752Y-115347297D01*
X173747042Y-115596010D01*
X173726975Y-115851000D01*
X168846477Y-115851000D01*
X168755719Y-115702898D01*
X168755712Y-115702888D01*
X168752465Y-115699087D01*
X168752464Y-115699087D01*
X168188232Y-116263319D01*
X168144684Y-116181178D01*
X168024991Y-116040265D01*
X167877805Y-115928377D01*
X167835596Y-115908849D01*
X168398911Y-115345535D01*
X168398911Y-115345533D01*
X168395110Y-115342286D01*
X168395095Y-115342275D01*
X168177015Y-115208636D01*
X168177012Y-115208634D01*
X167940702Y-115110752D01*
X167691988Y-115051042D01*
X167691989Y-115051042D01*
X167437000Y-115030975D01*
X167182010Y-115051042D01*
X166933297Y-115110752D01*
X166696987Y-115208634D01*
X166696984Y-115208636D01*
X166478897Y-115342280D01*
X166475087Y-115345534D01*
X167038390Y-115908838D01*
X166919569Y-115980331D01*
X166785342Y-116107477D01*
X166682138Y-116259691D01*
X166121534Y-115699087D01*
X166118280Y-115702897D01*
X165984636Y-115920984D01*
X165984634Y-115920987D01*
X165886752Y-116157297D01*
X165827042Y-116406010D01*
X165806975Y-116660999D01*
X163987024Y-116660999D01*
X163966957Y-116406010D01*
X163907247Y-116157297D01*
X163809365Y-115920987D01*
X163809363Y-115920984D01*
X163675719Y-115702898D01*
X163675712Y-115702888D01*
X163672465Y-115699087D01*
X163672464Y-115699087D01*
X163108232Y-116263319D01*
X163064684Y-116181178D01*
X162944991Y-116040265D01*
X162797805Y-115928377D01*
X162755596Y-115908849D01*
X163318911Y-115345535D01*
X163318911Y-115345533D01*
X163315110Y-115342286D01*
X163315095Y-115342275D01*
X163097015Y-115208636D01*
X163097012Y-115208634D01*
X162860702Y-115110752D01*
X162611988Y-115051042D01*
X162611989Y-115051042D01*
X162357000Y-115030975D01*
X162102010Y-115051042D01*
X161853297Y-115110752D01*
X161616987Y-115208634D01*
X161616984Y-115208636D01*
X161398897Y-115342280D01*
X161395087Y-115345534D01*
X161958390Y-115908837D01*
X161839569Y-115980331D01*
X161705342Y-116107477D01*
X161602138Y-116259691D01*
X161041534Y-115699087D01*
X161038280Y-115702897D01*
X160904636Y-115920984D01*
X160904634Y-115920987D01*
X160806752Y-116157297D01*
X160747042Y-116406010D01*
X160726975Y-116660999D01*
X152008706Y-116660999D01*
X151987791Y-116657921D01*
X151835439Y-116635500D01*
X151632369Y-116635500D01*
X151632351Y-116635500D01*
X151429844Y-116650323D01*
X151429831Y-116650325D01*
X151165453Y-116709217D01*
X151165446Y-116709220D01*
X150912439Y-116805987D01*
X150676226Y-116938557D01*
X150461822Y-117104112D01*
X150273822Y-117299109D01*
X150273816Y-117299116D01*
X150116202Y-117519419D01*
X150116199Y-117519424D01*
X149992350Y-117760309D01*
X149992343Y-117760327D01*
X149904884Y-118016685D01*
X149904881Y-118016699D01*
X149855681Y-118283068D01*
X149855680Y-118283075D01*
X149845787Y-118553763D01*
X71905174Y-118553763D01*
X71906317Y-113592763D01*
X84845683Y-113592763D01*
X84875309Y-113862013D01*
X84875311Y-113862024D01*
X84943822Y-114124082D01*
X84943824Y-114124088D01*
X85049766Y-114373390D01*
X85148722Y-114535535D01*
X85190875Y-114604605D01*
X85190882Y-114604615D01*
X85364149Y-114812819D01*
X85364155Y-114812824D01*
X85469136Y-114906887D01*
X85565894Y-114993582D01*
X85791806Y-115143044D01*
X86037072Y-115258020D01*
X86037079Y-115258022D01*
X86037081Y-115258023D01*
X86296453Y-115336057D01*
X86296460Y-115336058D01*
X86296465Y-115336060D01*
X86564457Y-115375500D01*
X86564462Y-115375500D01*
X86767525Y-115375500D01*
X86767527Y-115375500D01*
X86767532Y-115375499D01*
X86767544Y-115375499D01*
X86805087Y-115372750D01*
X86970052Y-115360677D01*
X87082654Y-115335593D01*
X87234442Y-115301782D01*
X87234444Y-115301781D01*
X87234449Y-115301780D01*
X87487454Y-115205014D01*
X87723673Y-115072441D01*
X87938073Y-114906888D01*
X88126082Y-114711881D01*
X88283695Y-114491579D01*
X88381806Y-114300752D01*
X88407545Y-114250690D01*
X88407547Y-114250684D01*
X88407552Y-114250675D01*
X88495014Y-113994305D01*
X88544215Y-113727933D01*
X88554108Y-113457235D01*
X88524482Y-113187982D01*
X88455968Y-112925912D01*
X88350026Y-112676610D01*
X88208914Y-112445390D01*
X88180763Y-112411563D01*
X88035642Y-112237180D01*
X88035636Y-112237175D01*
X87833898Y-112056418D01*
X87607988Y-111906957D01*
X87607986Y-111906956D01*
X87362720Y-111791980D01*
X87362715Y-111791978D01*
X87362710Y-111791976D01*
X87103338Y-111713942D01*
X87103324Y-111713939D01*
X86987687Y-111696921D01*
X86835335Y-111674500D01*
X86632265Y-111674500D01*
X86632247Y-111674500D01*
X86429740Y-111689323D01*
X86429727Y-111689325D01*
X86165349Y-111748217D01*
X86165342Y-111748220D01*
X85912335Y-111844987D01*
X85676122Y-111977557D01*
X85461718Y-112143112D01*
X85273718Y-112338109D01*
X85273712Y-112338116D01*
X85116098Y-112558419D01*
X85116095Y-112558424D01*
X84992246Y-112799309D01*
X84992239Y-112799327D01*
X84904780Y-113055685D01*
X84904777Y-113055699D01*
X84893765Y-113115320D01*
X84857622Y-113310999D01*
X84855577Y-113322068D01*
X84855576Y-113322075D01*
X84845683Y-113592763D01*
X71906317Y-113592763D01*
X71906901Y-111060000D01*
X93994341Y-111060000D01*
X94014936Y-111295403D01*
X94014938Y-111295413D01*
X94076094Y-111523655D01*
X94076096Y-111523659D01*
X94076097Y-111523663D01*
X94086974Y-111546988D01*
X94175965Y-111737830D01*
X94175967Y-111737834D01*
X94250997Y-111844987D01*
X94311501Y-111931396D01*
X94311506Y-111931402D01*
X94433818Y-112053714D01*
X94467303Y-112115037D01*
X94462319Y-112184729D01*
X94420447Y-112240662D01*
X94389471Y-112257577D01*
X94257912Y-112306646D01*
X94257906Y-112306649D01*
X94142812Y-112392809D01*
X94142809Y-112392812D01*
X94056649Y-112507906D01*
X94056645Y-112507913D01*
X94006403Y-112642620D01*
X94006401Y-112642627D01*
X94000000Y-112702155D01*
X94000000Y-113350000D01*
X94916314Y-113350000D01*
X94890507Y-113390156D01*
X94850000Y-113528111D01*
X94850000Y-113671889D01*
X94890507Y-113809844D01*
X94916314Y-113850000D01*
X94000000Y-113850000D01*
X94000000Y-114497844D01*
X94006401Y-114557372D01*
X94006403Y-114557379D01*
X94056645Y-114692086D01*
X94056649Y-114692093D01*
X94142809Y-114807187D01*
X94142812Y-114807190D01*
X94257906Y-114893350D01*
X94257913Y-114893354D01*
X94392620Y-114943596D01*
X94392627Y-114943598D01*
X94452155Y-114949999D01*
X94452172Y-114950000D01*
X95100000Y-114950000D01*
X95100000Y-114035501D01*
X95207685Y-114084680D01*
X95314237Y-114100000D01*
X95385763Y-114100000D01*
X95492315Y-114084680D01*
X95600000Y-114035501D01*
X95600000Y-114950000D01*
X96247828Y-114950000D01*
X96247844Y-114949999D01*
X96307372Y-114943598D01*
X96307379Y-114943596D01*
X96442086Y-114893354D01*
X96442093Y-114893350D01*
X96557187Y-114807190D01*
X96557190Y-114807187D01*
X96643350Y-114692093D01*
X96643354Y-114692086D01*
X96693596Y-114557379D01*
X96693598Y-114557372D01*
X96699999Y-114497844D01*
X96700000Y-114497827D01*
X96700000Y-113850000D01*
X95783686Y-113850000D01*
X95809493Y-113809844D01*
X95850000Y-113671889D01*
X95850000Y-113528111D01*
X95809493Y-113390156D01*
X95783686Y-113350000D01*
X96700000Y-113350000D01*
X96700000Y-113310999D01*
X176366783Y-113310999D01*
X176385623Y-113550382D01*
X176441674Y-113783853D01*
X176441678Y-113783865D01*
X176533565Y-114005702D01*
X176606112Y-114124088D01*
X176659028Y-114210439D01*
X176814973Y-114393027D01*
X176997561Y-114548972D01*
X176997563Y-114548973D01*
X177202297Y-114674434D01*
X177292703Y-114711881D01*
X177424137Y-114766323D01*
X177657621Y-114822377D01*
X177897000Y-114841217D01*
X178136379Y-114822377D01*
X178369863Y-114766323D01*
X178591704Y-114674433D01*
X178796439Y-114548972D01*
X178979027Y-114393027D01*
X179134972Y-114210439D01*
X179260433Y-114005704D01*
X179352323Y-113783863D01*
X179408377Y-113550379D01*
X179427217Y-113311000D01*
X179408377Y-113071621D01*
X179352323Y-112838137D01*
X179271337Y-112642620D01*
X179260434Y-112616297D01*
X179134973Y-112411563D01*
X179134972Y-112411561D01*
X178979027Y-112228973D01*
X178796439Y-112073028D01*
X178769334Y-112056418D01*
X178591702Y-111947565D01*
X178369865Y-111855678D01*
X178369867Y-111855678D01*
X178369863Y-111855677D01*
X178369859Y-111855676D01*
X178369853Y-111855674D01*
X178136382Y-111799623D01*
X177956844Y-111785492D01*
X177897000Y-111780783D01*
X177896999Y-111780783D01*
X177657617Y-111799623D01*
X177424146Y-111855674D01*
X177424134Y-111855678D01*
X177202297Y-111947565D01*
X176997563Y-112073026D01*
X176814973Y-112228973D01*
X176659026Y-112411563D01*
X176533565Y-112616297D01*
X176441678Y-112838134D01*
X176441674Y-112838146D01*
X176385623Y-113071617D01*
X176366783Y-113310999D01*
X96700000Y-113310999D01*
X96700000Y-112702172D01*
X96699999Y-112702155D01*
X96693598Y-112642627D01*
X96693596Y-112642620D01*
X96643354Y-112507913D01*
X96643350Y-112507906D01*
X96557190Y-112392812D01*
X96557187Y-112392809D01*
X96442093Y-112306649D01*
X96442088Y-112306646D01*
X96310528Y-112257577D01*
X96254595Y-112215705D01*
X96230178Y-112150241D01*
X96245030Y-112081968D01*
X96266175Y-112053720D01*
X96388495Y-111931401D01*
X96524035Y-111737830D01*
X96623903Y-111523663D01*
X96685063Y-111295408D01*
X96705659Y-111060000D01*
X96685063Y-110824592D01*
X96623903Y-110596337D01*
X96524035Y-110382171D01*
X96515867Y-110370505D01*
X96388494Y-110188597D01*
X96221402Y-110021506D01*
X96221401Y-110021505D01*
X96077865Y-109921000D01*
X96035841Y-109891574D01*
X96003409Y-109851000D01*
X160726975Y-109851000D01*
X160747042Y-110105989D01*
X160806752Y-110354702D01*
X160904634Y-110591012D01*
X160904636Y-110591015D01*
X161038275Y-110809095D01*
X161038286Y-110809110D01*
X161041533Y-110812911D01*
X161041535Y-110812911D01*
X161605766Y-110248679D01*
X161649316Y-110330822D01*
X161769009Y-110471735D01*
X161916195Y-110583623D01*
X161958402Y-110603150D01*
X161395087Y-111166464D01*
X161395087Y-111166465D01*
X161398888Y-111169712D01*
X161398898Y-111169719D01*
X161616984Y-111303363D01*
X161616987Y-111303365D01*
X161853297Y-111401247D01*
X162102011Y-111460957D01*
X162102010Y-111460957D01*
X162357000Y-111481024D01*
X162611989Y-111460957D01*
X162860702Y-111401247D01*
X163097012Y-111303365D01*
X163097015Y-111303363D01*
X163315103Y-111169719D01*
X163318912Y-111166464D01*
X162755609Y-110603161D01*
X162874431Y-110531669D01*
X163008658Y-110404523D01*
X163111861Y-110252309D01*
X163672464Y-110812912D01*
X163675719Y-110809103D01*
X163809363Y-110591015D01*
X163809365Y-110591012D01*
X163907247Y-110354702D01*
X163966957Y-110105989D01*
X163987024Y-109851000D01*
X165806975Y-109851000D01*
X165827042Y-110105989D01*
X165886752Y-110354702D01*
X165984634Y-110591012D01*
X165984636Y-110591015D01*
X166118275Y-110809095D01*
X166118286Y-110809110D01*
X166121533Y-110812911D01*
X166121535Y-110812911D01*
X166685766Y-110248679D01*
X166729316Y-110330822D01*
X166849009Y-110471735D01*
X166996195Y-110583623D01*
X167038402Y-110603150D01*
X166475087Y-111166464D01*
X166475087Y-111166465D01*
X166478888Y-111169712D01*
X166478898Y-111169719D01*
X166696984Y-111303363D01*
X166696987Y-111303365D01*
X166933297Y-111401247D01*
X167182011Y-111460957D01*
X167182010Y-111460957D01*
X167437000Y-111481024D01*
X167691989Y-111460957D01*
X167940702Y-111401247D01*
X168177012Y-111303365D01*
X168177015Y-111303363D01*
X168395103Y-111169719D01*
X168398912Y-111166464D01*
X167835609Y-110603161D01*
X167954431Y-110531669D01*
X168088658Y-110404523D01*
X168191861Y-110252309D01*
X168752464Y-110812912D01*
X168755719Y-110809103D01*
X168779068Y-110771000D01*
X173726975Y-110771000D01*
X173747042Y-111025989D01*
X173806752Y-111274702D01*
X173904634Y-111511012D01*
X173904636Y-111511015D01*
X174038275Y-111729095D01*
X174038286Y-111729110D01*
X174041533Y-111732911D01*
X174041535Y-111732911D01*
X174605766Y-111168679D01*
X174649316Y-111250822D01*
X174769009Y-111391735D01*
X174916195Y-111503623D01*
X174958402Y-111523150D01*
X174395087Y-112086464D01*
X174395087Y-112086465D01*
X174398888Y-112089712D01*
X174398898Y-112089719D01*
X174616984Y-112223363D01*
X174616987Y-112223365D01*
X174853297Y-112321247D01*
X175102011Y-112380957D01*
X175102010Y-112380957D01*
X175357000Y-112401024D01*
X175611989Y-112380957D01*
X175860702Y-112321247D01*
X176097012Y-112223365D01*
X176097015Y-112223363D01*
X176315103Y-112089719D01*
X176318912Y-112086464D01*
X175755609Y-111523161D01*
X175874431Y-111451669D01*
X176008658Y-111324523D01*
X176111861Y-111172308D01*
X176672464Y-111732912D01*
X176675719Y-111729103D01*
X176809363Y-111511015D01*
X176809365Y-111511012D01*
X176907247Y-111274702D01*
X176966957Y-111025989D01*
X176987024Y-110770999D01*
X178806975Y-110770999D01*
X178827042Y-111025989D01*
X178886752Y-111274702D01*
X178984634Y-111511012D01*
X178984636Y-111511015D01*
X179118275Y-111729095D01*
X179118286Y-111729110D01*
X179121533Y-111732911D01*
X179121535Y-111732911D01*
X179685766Y-111168679D01*
X179729316Y-111250822D01*
X179849009Y-111391735D01*
X179996195Y-111503623D01*
X180038402Y-111523150D01*
X179475087Y-112086464D01*
X179475087Y-112086465D01*
X179478888Y-112089712D01*
X179478898Y-112089719D01*
X179696984Y-112223363D01*
X179696987Y-112223365D01*
X179933297Y-112321247D01*
X180182011Y-112380957D01*
X180182010Y-112380957D01*
X180437000Y-112401024D01*
X180691989Y-112380957D01*
X180940702Y-112321247D01*
X181177012Y-112223365D01*
X181177015Y-112223363D01*
X181395103Y-112089719D01*
X181398912Y-112086464D01*
X180835609Y-111523161D01*
X180954431Y-111451669D01*
X181088658Y-111324523D01*
X181191861Y-111172308D01*
X181752464Y-111732912D01*
X181755719Y-111729103D01*
X181889363Y-111511015D01*
X181889365Y-111511012D01*
X181987247Y-111274702D01*
X182046957Y-111025989D01*
X182067024Y-110770999D01*
X182046957Y-110516010D01*
X181987247Y-110267297D01*
X181889365Y-110030987D01*
X181889363Y-110030984D01*
X181755719Y-109812898D01*
X181755712Y-109812888D01*
X181752465Y-109809087D01*
X181752464Y-109809087D01*
X181188232Y-110373319D01*
X181144684Y-110291178D01*
X181024991Y-110150265D01*
X180877805Y-110038377D01*
X180835597Y-110018849D01*
X181398911Y-109455535D01*
X181398911Y-109455533D01*
X181395110Y-109452286D01*
X181395095Y-109452275D01*
X181177015Y-109318636D01*
X181177012Y-109318634D01*
X180940702Y-109220752D01*
X180691988Y-109161042D01*
X180691989Y-109161042D01*
X180437000Y-109140975D01*
X180182010Y-109161042D01*
X179933297Y-109220752D01*
X179696987Y-109318634D01*
X179696984Y-109318636D01*
X179478897Y-109452280D01*
X179475087Y-109455534D01*
X180038390Y-110018837D01*
X179919569Y-110090331D01*
X179785342Y-110217477D01*
X179682138Y-110369691D01*
X179121534Y-109809087D01*
X179118280Y-109812897D01*
X178984636Y-110030984D01*
X178984634Y-110030987D01*
X178886752Y-110267297D01*
X178827042Y-110516010D01*
X178806975Y-110770999D01*
X176987024Y-110770999D01*
X176966957Y-110516010D01*
X176907247Y-110267297D01*
X176809365Y-110030987D01*
X176809363Y-110030984D01*
X176675719Y-109812898D01*
X176675712Y-109812888D01*
X176672465Y-109809087D01*
X176672464Y-109809087D01*
X176108232Y-110373319D01*
X176064684Y-110291178D01*
X175944991Y-110150265D01*
X175797805Y-110038377D01*
X175755597Y-110018849D01*
X176318911Y-109455535D01*
X176318911Y-109455533D01*
X176315110Y-109452286D01*
X176315095Y-109452275D01*
X176097015Y-109318636D01*
X176097012Y-109318634D01*
X175860702Y-109220752D01*
X175611988Y-109161042D01*
X175611989Y-109161042D01*
X175357000Y-109140975D01*
X175102010Y-109161042D01*
X174853297Y-109220752D01*
X174616987Y-109318634D01*
X174616984Y-109318636D01*
X174398897Y-109452280D01*
X174395087Y-109455534D01*
X174958390Y-110018837D01*
X174839569Y-110090331D01*
X174705342Y-110217477D01*
X174602138Y-110369691D01*
X174041534Y-109809087D01*
X174038280Y-109812897D01*
X173904636Y-110030984D01*
X173904634Y-110030987D01*
X173806752Y-110267297D01*
X173747042Y-110516010D01*
X173726975Y-110771000D01*
X168779068Y-110771000D01*
X168889363Y-110591015D01*
X168889365Y-110591012D01*
X168987247Y-110354702D01*
X169046957Y-110105989D01*
X169067024Y-109850999D01*
X169046957Y-109596010D01*
X168987247Y-109347297D01*
X168889365Y-109110987D01*
X168889363Y-109110984D01*
X168755719Y-108892898D01*
X168755712Y-108892888D01*
X168752465Y-108889087D01*
X168752464Y-108889087D01*
X168188232Y-109453319D01*
X168144684Y-109371178D01*
X168024991Y-109230265D01*
X167877805Y-109118377D01*
X167835596Y-109098849D01*
X168398911Y-108535535D01*
X168398911Y-108535533D01*
X168395110Y-108532286D01*
X168395095Y-108532275D01*
X168177015Y-108398636D01*
X168177012Y-108398634D01*
X167940702Y-108300752D01*
X167691988Y-108241042D01*
X167691989Y-108241042D01*
X167437000Y-108220975D01*
X167182010Y-108241042D01*
X166933297Y-108300752D01*
X166696987Y-108398634D01*
X166696984Y-108398636D01*
X166478897Y-108532280D01*
X166475087Y-108535534D01*
X167038390Y-109098837D01*
X166919569Y-109170331D01*
X166785342Y-109297477D01*
X166682138Y-109449691D01*
X166121534Y-108889087D01*
X166118280Y-108892897D01*
X165984636Y-109110984D01*
X165984634Y-109110987D01*
X165886752Y-109347297D01*
X165827042Y-109596010D01*
X165806975Y-109851000D01*
X163987024Y-109851000D01*
X163966957Y-109596010D01*
X163907247Y-109347297D01*
X163809365Y-109110987D01*
X163809363Y-109110984D01*
X163675719Y-108892898D01*
X163675712Y-108892888D01*
X163672465Y-108889087D01*
X163672464Y-108889087D01*
X163108232Y-109453319D01*
X163064684Y-109371178D01*
X162944991Y-109230265D01*
X162797805Y-109118377D01*
X162755596Y-109098849D01*
X163318911Y-108535535D01*
X163318911Y-108535533D01*
X163315110Y-108532286D01*
X163315095Y-108532275D01*
X163097015Y-108398636D01*
X163097012Y-108398634D01*
X162860702Y-108300752D01*
X162611988Y-108241042D01*
X162611989Y-108241042D01*
X162357000Y-108220975D01*
X162102010Y-108241042D01*
X161853297Y-108300752D01*
X161616987Y-108398634D01*
X161616984Y-108398636D01*
X161398897Y-108532280D01*
X161395087Y-108535534D01*
X161958390Y-109098837D01*
X161839569Y-109170331D01*
X161705342Y-109297477D01*
X161602138Y-109449691D01*
X161041534Y-108889087D01*
X161038280Y-108892897D01*
X160904636Y-109110984D01*
X160904634Y-109110987D01*
X160806752Y-109347297D01*
X160747042Y-109596010D01*
X160726975Y-109851000D01*
X96003409Y-109851000D01*
X95992216Y-109836997D01*
X95985024Y-109767498D01*
X96016546Y-109705144D01*
X96035836Y-109688428D01*
X96221401Y-109558495D01*
X96388495Y-109391401D01*
X96524035Y-109197830D01*
X96623903Y-108983663D01*
X96685063Y-108755408D01*
X96705659Y-108520000D01*
X96685063Y-108284592D01*
X96623903Y-108056337D01*
X96524035Y-107842171D01*
X96520548Y-107837190D01*
X96388494Y-107648597D01*
X96221402Y-107481506D01*
X96221395Y-107481501D01*
X96027834Y-107345967D01*
X96027830Y-107345965D01*
X96027828Y-107345964D01*
X95952848Y-107311000D01*
X163366783Y-107311000D01*
X163385623Y-107550382D01*
X163441674Y-107783853D01*
X163441678Y-107783865D01*
X163533565Y-108005702D01*
X163659026Y-108210436D01*
X163659028Y-108210439D01*
X163814973Y-108393027D01*
X163997561Y-108548972D01*
X163997563Y-108548973D01*
X164202297Y-108674434D01*
X164299047Y-108714508D01*
X164424137Y-108766323D01*
X164657621Y-108822377D01*
X164897000Y-108841217D01*
X165136379Y-108822377D01*
X165369863Y-108766323D01*
X165591704Y-108674433D01*
X165796439Y-108548972D01*
X165979027Y-108393027D01*
X166134972Y-108210439D01*
X166260433Y-108005704D01*
X166352323Y-107783863D01*
X166408377Y-107550379D01*
X166427217Y-107311000D01*
X166408377Y-107071621D01*
X166352323Y-106838137D01*
X166300508Y-106713047D01*
X166260434Y-106616297D01*
X166134973Y-106411563D01*
X166134972Y-106411561D01*
X165979027Y-106228973D01*
X165796439Y-106073028D01*
X165796436Y-106073026D01*
X165591702Y-105947565D01*
X165369865Y-105855678D01*
X165369867Y-105855678D01*
X165369863Y-105855677D01*
X165369859Y-105855676D01*
X165369853Y-105855674D01*
X165136382Y-105799623D01*
X164897000Y-105780783D01*
X164657617Y-105799623D01*
X164424146Y-105855674D01*
X164424134Y-105855678D01*
X164202297Y-105947565D01*
X163997563Y-106073026D01*
X163814973Y-106228973D01*
X163659026Y-106411563D01*
X163533565Y-106616297D01*
X163441678Y-106838134D01*
X163441674Y-106838146D01*
X163385623Y-107071617D01*
X163366783Y-107311000D01*
X95952848Y-107311000D01*
X95813663Y-107246097D01*
X95813659Y-107246096D01*
X95813655Y-107246094D01*
X95585413Y-107184938D01*
X95585403Y-107184936D01*
X95350001Y-107164341D01*
X95349999Y-107164341D01*
X95114596Y-107184936D01*
X95114586Y-107184938D01*
X94886344Y-107246094D01*
X94886335Y-107246098D01*
X94672171Y-107345964D01*
X94672169Y-107345965D01*
X94478597Y-107481505D01*
X94311505Y-107648597D01*
X94175965Y-107842169D01*
X94175964Y-107842171D01*
X94076098Y-108056335D01*
X94076094Y-108056344D01*
X94014938Y-108284586D01*
X94014936Y-108284596D01*
X93994341Y-108519999D01*
X93994341Y-108520000D01*
X94014936Y-108755403D01*
X94014938Y-108755413D01*
X94076094Y-108983655D01*
X94076096Y-108983659D01*
X94076097Y-108983663D01*
X94163142Y-109170331D01*
X94175965Y-109197830D01*
X94175967Y-109197834D01*
X94311501Y-109391395D01*
X94311506Y-109391402D01*
X94478597Y-109558493D01*
X94478603Y-109558498D01*
X94664158Y-109688425D01*
X94707783Y-109743002D01*
X94714977Y-109812500D01*
X94683454Y-109874855D01*
X94664158Y-109891575D01*
X94478597Y-110021505D01*
X94311505Y-110188597D01*
X94175965Y-110382169D01*
X94175964Y-110382171D01*
X94076098Y-110596335D01*
X94076094Y-110596344D01*
X94014938Y-110824586D01*
X94014936Y-110824596D01*
X93994341Y-111059999D01*
X93994341Y-111060000D01*
X71906901Y-111060000D01*
X71907584Y-108096009D01*
X71927284Y-108028977D01*
X71980099Y-107983234D01*
X72044786Y-107973948D01*
X72044913Y-107972769D01*
X72112155Y-107979999D01*
X72112172Y-107980000D01*
X74450000Y-107980000D01*
X74450000Y-106980000D01*
X74950000Y-106980000D01*
X74950000Y-107980000D01*
X77287828Y-107980000D01*
X77287844Y-107979999D01*
X77347372Y-107973598D01*
X77347379Y-107973596D01*
X77482086Y-107923354D01*
X77482093Y-107923350D01*
X77597187Y-107837190D01*
X77597190Y-107837187D01*
X77683350Y-107722093D01*
X77683354Y-107722086D01*
X77733596Y-107587379D01*
X77733598Y-107587372D01*
X77739999Y-107527844D01*
X77740000Y-107527827D01*
X77740000Y-106980000D01*
X74950000Y-106980000D01*
X74450000Y-106980000D01*
X74450000Y-105480000D01*
X74950000Y-105480000D01*
X74950000Y-106480000D01*
X77740000Y-106480000D01*
X77740000Y-105932172D01*
X77739999Y-105932155D01*
X77733598Y-105872627D01*
X77733596Y-105872620D01*
X77683354Y-105737913D01*
X77683350Y-105737906D01*
X77597190Y-105622812D01*
X77597187Y-105622809D01*
X77482093Y-105536649D01*
X77482086Y-105536645D01*
X77347379Y-105486403D01*
X77347372Y-105486401D01*
X77287844Y-105480000D01*
X74950000Y-105480000D01*
X74450000Y-105480000D01*
X72112155Y-105480000D01*
X72045469Y-105487171D01*
X71976709Y-105474766D01*
X71925572Y-105427156D01*
X71908214Y-105363857D01*
X71908351Y-104771000D01*
X160726975Y-104771000D01*
X160747042Y-105025989D01*
X160806752Y-105274702D01*
X160904634Y-105511012D01*
X160904636Y-105511015D01*
X161038275Y-105729095D01*
X161038286Y-105729110D01*
X161041533Y-105732911D01*
X161041535Y-105732911D01*
X161605766Y-105168679D01*
X161649316Y-105250822D01*
X161769009Y-105391735D01*
X161916195Y-105503623D01*
X161958402Y-105523150D01*
X161395087Y-106086464D01*
X161395087Y-106086465D01*
X161398888Y-106089712D01*
X161398898Y-106089719D01*
X161616984Y-106223363D01*
X161616987Y-106223365D01*
X161853297Y-106321247D01*
X162102011Y-106380957D01*
X162102010Y-106380957D01*
X162357000Y-106401024D01*
X162611989Y-106380957D01*
X162860702Y-106321247D01*
X163097012Y-106223365D01*
X163097015Y-106223363D01*
X163315103Y-106089719D01*
X163318912Y-106086464D01*
X162755609Y-105523161D01*
X162874431Y-105451669D01*
X163008658Y-105324523D01*
X163111861Y-105172308D01*
X163672464Y-105732912D01*
X163675719Y-105729103D01*
X163809363Y-105511015D01*
X163809365Y-105511012D01*
X163907247Y-105274702D01*
X163966957Y-105025989D01*
X163987024Y-104771000D01*
X165806975Y-104771000D01*
X165827042Y-105025989D01*
X165886752Y-105274702D01*
X165984634Y-105511012D01*
X165984636Y-105511015D01*
X166118275Y-105729095D01*
X166118286Y-105729110D01*
X166121533Y-105732911D01*
X166121535Y-105732911D01*
X166685766Y-105168679D01*
X166729316Y-105250822D01*
X166849009Y-105391735D01*
X166996195Y-105503623D01*
X167038402Y-105523150D01*
X166475087Y-106086464D01*
X166475087Y-106086465D01*
X166478888Y-106089712D01*
X166478898Y-106089719D01*
X166696984Y-106223363D01*
X166696987Y-106223365D01*
X166933297Y-106321247D01*
X167182011Y-106380957D01*
X167182010Y-106380957D01*
X167437000Y-106401024D01*
X167691989Y-106380957D01*
X167940702Y-106321247D01*
X168177012Y-106223365D01*
X168177015Y-106223363D01*
X168395103Y-106089719D01*
X168398912Y-106086464D01*
X167835609Y-105523161D01*
X167954431Y-105451669D01*
X168088658Y-105324523D01*
X168191861Y-105172308D01*
X168752464Y-105732912D01*
X168755719Y-105729103D01*
X168889363Y-105511015D01*
X168889365Y-105511012D01*
X168987247Y-105274702D01*
X169046957Y-105025989D01*
X169067024Y-104770999D01*
X169046957Y-104516010D01*
X168987247Y-104267297D01*
X168897655Y-104051000D01*
X173726975Y-104051000D01*
X173747042Y-104305989D01*
X173806752Y-104554702D01*
X173904634Y-104791012D01*
X173904636Y-104791015D01*
X174038275Y-105009095D01*
X174038286Y-105009110D01*
X174041533Y-105012911D01*
X174041535Y-105012911D01*
X174605766Y-104448679D01*
X174649316Y-104530822D01*
X174769009Y-104671735D01*
X174916195Y-104783623D01*
X174958402Y-104803150D01*
X174395087Y-105366464D01*
X174395087Y-105366465D01*
X174398888Y-105369712D01*
X174398898Y-105369719D01*
X174616984Y-105503363D01*
X174616987Y-105503365D01*
X174853297Y-105601247D01*
X175102011Y-105660957D01*
X175102010Y-105660957D01*
X175357000Y-105681024D01*
X175611989Y-105660957D01*
X175860702Y-105601247D01*
X176097012Y-105503365D01*
X176097015Y-105503363D01*
X176315103Y-105369719D01*
X176318912Y-105366464D01*
X175755609Y-104803161D01*
X175874431Y-104731669D01*
X176008658Y-104604523D01*
X176111861Y-104452308D01*
X176672464Y-105012912D01*
X176675719Y-105009103D01*
X176809363Y-104791015D01*
X176809365Y-104791012D01*
X176907247Y-104554702D01*
X176966957Y-104305989D01*
X176987024Y-104050999D01*
X178806975Y-104050999D01*
X178827042Y-104305989D01*
X178886752Y-104554702D01*
X178984634Y-104791012D01*
X178984636Y-104791015D01*
X179118275Y-105009095D01*
X179118286Y-105009110D01*
X179121533Y-105012911D01*
X179121535Y-105012911D01*
X179685766Y-104448679D01*
X179729316Y-104530822D01*
X179849009Y-104671735D01*
X179996195Y-104783623D01*
X180038402Y-104803150D01*
X179475087Y-105366464D01*
X179475087Y-105366465D01*
X179478888Y-105369712D01*
X179478898Y-105369719D01*
X179696984Y-105503363D01*
X179696987Y-105503365D01*
X179933297Y-105601247D01*
X180182011Y-105660957D01*
X180182010Y-105660957D01*
X180437000Y-105681024D01*
X180691989Y-105660957D01*
X180940702Y-105601247D01*
X181177012Y-105503365D01*
X181177015Y-105503363D01*
X181395103Y-105369719D01*
X181398912Y-105366464D01*
X180835609Y-104803161D01*
X180954431Y-104731669D01*
X181088658Y-104604523D01*
X181191861Y-104452308D01*
X181752464Y-105012912D01*
X181755719Y-105009103D01*
X181889363Y-104791015D01*
X181889365Y-104791012D01*
X181987247Y-104554702D01*
X182046957Y-104305989D01*
X182067024Y-104050999D01*
X182046957Y-103796010D01*
X181987247Y-103547297D01*
X181889365Y-103310987D01*
X181889363Y-103310984D01*
X181755719Y-103092898D01*
X181755712Y-103092888D01*
X181752465Y-103089087D01*
X181752464Y-103089087D01*
X181188232Y-103653319D01*
X181144684Y-103571178D01*
X181024991Y-103430265D01*
X180877805Y-103318377D01*
X180835597Y-103298849D01*
X181398911Y-102735535D01*
X181398911Y-102735533D01*
X181395110Y-102732286D01*
X181395095Y-102732275D01*
X181177015Y-102598636D01*
X181177012Y-102598634D01*
X180940702Y-102500752D01*
X180691988Y-102441042D01*
X180691989Y-102441042D01*
X180437000Y-102420975D01*
X180182010Y-102441042D01*
X179933297Y-102500752D01*
X179696987Y-102598634D01*
X179696984Y-102598636D01*
X179478897Y-102732280D01*
X179475087Y-102735534D01*
X180038390Y-103298837D01*
X179919569Y-103370331D01*
X179785342Y-103497477D01*
X179682138Y-103649691D01*
X179121534Y-103089087D01*
X179118280Y-103092897D01*
X178984636Y-103310984D01*
X178984634Y-103310987D01*
X178886752Y-103547297D01*
X178827042Y-103796010D01*
X178806975Y-104050999D01*
X176987024Y-104050999D01*
X176966957Y-103796010D01*
X176907247Y-103547297D01*
X176809365Y-103310987D01*
X176809363Y-103310984D01*
X176675719Y-103092898D01*
X176675712Y-103092888D01*
X176672465Y-103089087D01*
X176672464Y-103089087D01*
X176108232Y-103653319D01*
X176064684Y-103571178D01*
X175944991Y-103430265D01*
X175797805Y-103318377D01*
X175755597Y-103298849D01*
X176318911Y-102735535D01*
X176318911Y-102735533D01*
X176315110Y-102732286D01*
X176315095Y-102732275D01*
X176097015Y-102598636D01*
X176097012Y-102598634D01*
X175860702Y-102500752D01*
X175611988Y-102441042D01*
X175611989Y-102441042D01*
X175357000Y-102420975D01*
X175102010Y-102441042D01*
X174853297Y-102500752D01*
X174616987Y-102598634D01*
X174616984Y-102598636D01*
X174398897Y-102732280D01*
X174395087Y-102735534D01*
X174958390Y-103298837D01*
X174839569Y-103370331D01*
X174705342Y-103497477D01*
X174602138Y-103649691D01*
X174041534Y-103089087D01*
X174038280Y-103092897D01*
X173904636Y-103310984D01*
X173904634Y-103310987D01*
X173806752Y-103547297D01*
X173747042Y-103796010D01*
X173726975Y-104051000D01*
X168897655Y-104051000D01*
X168889365Y-104030987D01*
X168889363Y-104030984D01*
X168755719Y-103812898D01*
X168755712Y-103812888D01*
X168752465Y-103809087D01*
X168752464Y-103809087D01*
X168188232Y-104373319D01*
X168144684Y-104291178D01*
X168024991Y-104150265D01*
X167877805Y-104038377D01*
X167835596Y-104018849D01*
X168398911Y-103455535D01*
X168398911Y-103455533D01*
X168395110Y-103452286D01*
X168395095Y-103452275D01*
X168177015Y-103318636D01*
X168177012Y-103318634D01*
X167940702Y-103220752D01*
X167691988Y-103161042D01*
X167691989Y-103161042D01*
X167437000Y-103140975D01*
X167182010Y-103161042D01*
X166933297Y-103220752D01*
X166696987Y-103318634D01*
X166696984Y-103318636D01*
X166478897Y-103452280D01*
X166475087Y-103455534D01*
X167038390Y-104018838D01*
X166919569Y-104090331D01*
X166785342Y-104217477D01*
X166682138Y-104369691D01*
X166121534Y-103809087D01*
X166118280Y-103812897D01*
X165984636Y-104030984D01*
X165984634Y-104030987D01*
X165886752Y-104267297D01*
X165827042Y-104516010D01*
X165806975Y-104771000D01*
X163987024Y-104771000D01*
X163966957Y-104516010D01*
X163907247Y-104267297D01*
X163809365Y-104030987D01*
X163809363Y-104030984D01*
X163675719Y-103812898D01*
X163675712Y-103812888D01*
X163672465Y-103809087D01*
X163672464Y-103809087D01*
X163108232Y-104373319D01*
X163064684Y-104291178D01*
X162944991Y-104150265D01*
X162797805Y-104038377D01*
X162755596Y-104018849D01*
X163318911Y-103455535D01*
X163318911Y-103455533D01*
X163315110Y-103452286D01*
X163315095Y-103452275D01*
X163097015Y-103318636D01*
X163097012Y-103318634D01*
X162860702Y-103220752D01*
X162611988Y-103161042D01*
X162611989Y-103161042D01*
X162357000Y-103140975D01*
X162102010Y-103161042D01*
X161853297Y-103220752D01*
X161616987Y-103318634D01*
X161616984Y-103318636D01*
X161398897Y-103452280D01*
X161395087Y-103455534D01*
X161958390Y-104018837D01*
X161839569Y-104090331D01*
X161705342Y-104217477D01*
X161602138Y-104369691D01*
X161041534Y-103809087D01*
X161038280Y-103812897D01*
X160904636Y-104030984D01*
X160904634Y-104030987D01*
X160806752Y-104267297D01*
X160747042Y-104516010D01*
X160726975Y-104771000D01*
X71908351Y-104771000D01*
X71909102Y-101511000D01*
X176366783Y-101511000D01*
X176385623Y-101750382D01*
X176441674Y-101983853D01*
X176441678Y-101983865D01*
X176533565Y-102205702D01*
X176659026Y-102410436D01*
X176659028Y-102410439D01*
X176814973Y-102593027D01*
X176997561Y-102748972D01*
X176997563Y-102748973D01*
X177202297Y-102874434D01*
X177299047Y-102914508D01*
X177424137Y-102966323D01*
X177657621Y-103022377D01*
X177897000Y-103041217D01*
X178136379Y-103022377D01*
X178369863Y-102966323D01*
X178591704Y-102874433D01*
X178796439Y-102748972D01*
X178979027Y-102593027D01*
X179134972Y-102410439D01*
X179260433Y-102205704D01*
X179352323Y-101983863D01*
X179408377Y-101750379D01*
X179427217Y-101511000D01*
X179408377Y-101271621D01*
X179352323Y-101038137D01*
X179300508Y-100913047D01*
X179260434Y-100816297D01*
X179134973Y-100611563D01*
X179134972Y-100611561D01*
X178979027Y-100428973D01*
X178796439Y-100273028D01*
X178796436Y-100273026D01*
X178591702Y-100147565D01*
X178369865Y-100055678D01*
X178369867Y-100055678D01*
X178369863Y-100055677D01*
X178369859Y-100055676D01*
X178369853Y-100055674D01*
X178136382Y-99999623D01*
X177956844Y-99985492D01*
X177897000Y-99980783D01*
X177896999Y-99980783D01*
X177657617Y-99999623D01*
X177424146Y-100055674D01*
X177424134Y-100055678D01*
X177202297Y-100147565D01*
X176997563Y-100273026D01*
X176814973Y-100428973D01*
X176659026Y-100611563D01*
X176533565Y-100816297D01*
X176441678Y-101038134D01*
X176441674Y-101038146D01*
X176385623Y-101271617D01*
X176366783Y-101511000D01*
X71909102Y-101511000D01*
X71909543Y-99596226D01*
X71929242Y-99529197D01*
X71982057Y-99483454D01*
X72046800Y-99472971D01*
X72112160Y-99479999D01*
X72112172Y-99480000D01*
X74450000Y-99480000D01*
X74450000Y-98480000D01*
X74950000Y-98480000D01*
X74950000Y-99480000D01*
X77287828Y-99480000D01*
X77287844Y-99479999D01*
X77347372Y-99473598D01*
X77347379Y-99473596D01*
X77482086Y-99423354D01*
X77482093Y-99423350D01*
X77597187Y-99337190D01*
X77597190Y-99337187D01*
X77683350Y-99222093D01*
X77683354Y-99222086D01*
X77733596Y-99087379D01*
X77733598Y-99087372D01*
X77739999Y-99027844D01*
X77740000Y-99027827D01*
X77740000Y-98480000D01*
X74950000Y-98480000D01*
X74450000Y-98480000D01*
X74450000Y-96980000D01*
X74950000Y-96980000D01*
X74950000Y-97980000D01*
X77740000Y-97980000D01*
X77740000Y-97953763D01*
X149845787Y-97953763D01*
X149875413Y-98223013D01*
X149875415Y-98223024D01*
X149943926Y-98485082D01*
X149943928Y-98485088D01*
X150049870Y-98734390D01*
X150079917Y-98783623D01*
X150190979Y-98965605D01*
X150190986Y-98965615D01*
X150364253Y-99173819D01*
X150364259Y-99173824D01*
X150418123Y-99222086D01*
X150565998Y-99354582D01*
X150791910Y-99504044D01*
X151037176Y-99619020D01*
X151037183Y-99619022D01*
X151037185Y-99619023D01*
X151296557Y-99697057D01*
X151296564Y-99697058D01*
X151296569Y-99697060D01*
X151564561Y-99736500D01*
X151564566Y-99736500D01*
X151767629Y-99736500D01*
X151767631Y-99736500D01*
X151767636Y-99736499D01*
X151767648Y-99736499D01*
X151805191Y-99733750D01*
X151970156Y-99721677D01*
X152082758Y-99696593D01*
X152234546Y-99662782D01*
X152234548Y-99662781D01*
X152234553Y-99662780D01*
X152487558Y-99566014D01*
X152723777Y-99433441D01*
X152938177Y-99267888D01*
X153126186Y-99072881D01*
X153283799Y-98852579D01*
X153376777Y-98671735D01*
X153407649Y-98611690D01*
X153407651Y-98611684D01*
X153407656Y-98611675D01*
X153495118Y-98355305D01*
X153544319Y-98088933D01*
X153545705Y-98051000D01*
X160726975Y-98051000D01*
X160747042Y-98305989D01*
X160806752Y-98554702D01*
X160904634Y-98791012D01*
X160904636Y-98791015D01*
X161038275Y-99009095D01*
X161038286Y-99009110D01*
X161041533Y-99012911D01*
X161041535Y-99012911D01*
X161605766Y-98448679D01*
X161649316Y-98530822D01*
X161769009Y-98671735D01*
X161916195Y-98783623D01*
X161958402Y-98803150D01*
X161395087Y-99366464D01*
X161395087Y-99366465D01*
X161398888Y-99369712D01*
X161398898Y-99369719D01*
X161616984Y-99503363D01*
X161616987Y-99503365D01*
X161853297Y-99601247D01*
X162102011Y-99660957D01*
X162102010Y-99660957D01*
X162357000Y-99681024D01*
X162611989Y-99660957D01*
X162860702Y-99601247D01*
X163097012Y-99503365D01*
X163097015Y-99503363D01*
X163315103Y-99369719D01*
X163318912Y-99366464D01*
X162755609Y-98803161D01*
X162874431Y-98731669D01*
X163008658Y-98604523D01*
X163111861Y-98452308D01*
X163672464Y-99012912D01*
X163675719Y-99009103D01*
X163809363Y-98791015D01*
X163809365Y-98791012D01*
X163907247Y-98554702D01*
X163966957Y-98305989D01*
X163987024Y-98051000D01*
X165806975Y-98051000D01*
X165827042Y-98305989D01*
X165886752Y-98554702D01*
X165984634Y-98791012D01*
X165984636Y-98791015D01*
X166118275Y-99009095D01*
X166118286Y-99009110D01*
X166121533Y-99012911D01*
X166121535Y-99012911D01*
X166685766Y-98448679D01*
X166729316Y-98530822D01*
X166849009Y-98671735D01*
X166996195Y-98783623D01*
X167038402Y-98803150D01*
X166475087Y-99366464D01*
X166475087Y-99366465D01*
X166478888Y-99369712D01*
X166478898Y-99369719D01*
X166696984Y-99503363D01*
X166696987Y-99503365D01*
X166933297Y-99601247D01*
X167182011Y-99660957D01*
X167182010Y-99660957D01*
X167437000Y-99681024D01*
X167691989Y-99660957D01*
X167940702Y-99601247D01*
X168177012Y-99503365D01*
X168177015Y-99503363D01*
X168395103Y-99369719D01*
X168398912Y-99366464D01*
X167835609Y-98803161D01*
X167954431Y-98731669D01*
X168088658Y-98604523D01*
X168191861Y-98452308D01*
X168752464Y-99012912D01*
X168755719Y-99009103D01*
X168779068Y-98971000D01*
X173726975Y-98971000D01*
X173747042Y-99225989D01*
X173806752Y-99474702D01*
X173904634Y-99711012D01*
X173904636Y-99711015D01*
X174038275Y-99929095D01*
X174038286Y-99929110D01*
X174041533Y-99932911D01*
X174041535Y-99932911D01*
X174605766Y-99368679D01*
X174649316Y-99450822D01*
X174769009Y-99591735D01*
X174916195Y-99703623D01*
X174958402Y-99723150D01*
X174395087Y-100286464D01*
X174395087Y-100286465D01*
X174398888Y-100289712D01*
X174398898Y-100289719D01*
X174616984Y-100423363D01*
X174616987Y-100423365D01*
X174853297Y-100521247D01*
X175102011Y-100580957D01*
X175102010Y-100580957D01*
X175357000Y-100601024D01*
X175611989Y-100580957D01*
X175860702Y-100521247D01*
X176097012Y-100423365D01*
X176097015Y-100423363D01*
X176315103Y-100289719D01*
X176318912Y-100286464D01*
X175755609Y-99723161D01*
X175874431Y-99651669D01*
X176008658Y-99524523D01*
X176111861Y-99372308D01*
X176672464Y-99932912D01*
X176675719Y-99929103D01*
X176809363Y-99711015D01*
X176809365Y-99711012D01*
X176907247Y-99474702D01*
X176966957Y-99225989D01*
X176987024Y-98970999D01*
X178806975Y-98970999D01*
X178827042Y-99225989D01*
X178886752Y-99474702D01*
X178984634Y-99711012D01*
X178984636Y-99711015D01*
X179118275Y-99929095D01*
X179118286Y-99929110D01*
X179121533Y-99932911D01*
X179121535Y-99932911D01*
X179685766Y-99368679D01*
X179729316Y-99450822D01*
X179849009Y-99591735D01*
X179996195Y-99703623D01*
X180038402Y-99723150D01*
X179475087Y-100286464D01*
X179475087Y-100286465D01*
X179478888Y-100289712D01*
X179478898Y-100289719D01*
X179696984Y-100423363D01*
X179696987Y-100423365D01*
X179933297Y-100521247D01*
X180182011Y-100580957D01*
X180182010Y-100580957D01*
X180437000Y-100601024D01*
X180691989Y-100580957D01*
X180940702Y-100521247D01*
X181177012Y-100423365D01*
X181177015Y-100423363D01*
X181395103Y-100289719D01*
X181398912Y-100286464D01*
X180835609Y-99723161D01*
X180954431Y-99651669D01*
X181088658Y-99524523D01*
X181191861Y-99372308D01*
X181752464Y-99932912D01*
X181755719Y-99929103D01*
X181889363Y-99711015D01*
X181889365Y-99711012D01*
X181987247Y-99474702D01*
X182046957Y-99225989D01*
X182067024Y-98970999D01*
X182046957Y-98716010D01*
X181987247Y-98467297D01*
X181889365Y-98230987D01*
X181889363Y-98230984D01*
X181755719Y-98012898D01*
X181755712Y-98012888D01*
X181752465Y-98009087D01*
X181752464Y-98009087D01*
X181188232Y-98573319D01*
X181144684Y-98491178D01*
X181024991Y-98350265D01*
X180877805Y-98238377D01*
X180835597Y-98218849D01*
X181398911Y-97655535D01*
X181398911Y-97655533D01*
X181395110Y-97652286D01*
X181395095Y-97652275D01*
X181177015Y-97518636D01*
X181177012Y-97518634D01*
X180940702Y-97420752D01*
X180691988Y-97361042D01*
X180691989Y-97361042D01*
X180437000Y-97340975D01*
X180182010Y-97361042D01*
X179933297Y-97420752D01*
X179696987Y-97518634D01*
X179696984Y-97518636D01*
X179478897Y-97652280D01*
X179475087Y-97655534D01*
X180038390Y-98218837D01*
X179919569Y-98290331D01*
X179785342Y-98417477D01*
X179682138Y-98569691D01*
X179121534Y-98009087D01*
X179118280Y-98012897D01*
X178984636Y-98230984D01*
X178984634Y-98230987D01*
X178886752Y-98467297D01*
X178827042Y-98716010D01*
X178806975Y-98970999D01*
X176987024Y-98970999D01*
X176966957Y-98716010D01*
X176907247Y-98467297D01*
X176809365Y-98230987D01*
X176809363Y-98230984D01*
X176675719Y-98012898D01*
X176675712Y-98012888D01*
X176672465Y-98009087D01*
X176672464Y-98009087D01*
X176108232Y-98573319D01*
X176064684Y-98491178D01*
X175944991Y-98350265D01*
X175797805Y-98238377D01*
X175755597Y-98218849D01*
X176318911Y-97655535D01*
X176318911Y-97655533D01*
X176315110Y-97652286D01*
X176315095Y-97652275D01*
X176097015Y-97518636D01*
X176097012Y-97518634D01*
X175860702Y-97420752D01*
X175611988Y-97361042D01*
X175611989Y-97361042D01*
X175357000Y-97340975D01*
X175102010Y-97361042D01*
X174853297Y-97420752D01*
X174616987Y-97518634D01*
X174616984Y-97518636D01*
X174398897Y-97652280D01*
X174395087Y-97655534D01*
X174958390Y-98218837D01*
X174839569Y-98290331D01*
X174705342Y-98417477D01*
X174602138Y-98569691D01*
X174041534Y-98009087D01*
X174038280Y-98012897D01*
X173904636Y-98230984D01*
X173904634Y-98230987D01*
X173806752Y-98467297D01*
X173747042Y-98716010D01*
X173726975Y-98971000D01*
X168779068Y-98971000D01*
X168889363Y-98791015D01*
X168889365Y-98791012D01*
X168987247Y-98554702D01*
X169046957Y-98305989D01*
X169067024Y-98050999D01*
X169046957Y-97796010D01*
X168987247Y-97547297D01*
X168889365Y-97310987D01*
X168889363Y-97310984D01*
X168755719Y-97092898D01*
X168755712Y-97092888D01*
X168752465Y-97089087D01*
X168752464Y-97089087D01*
X168188232Y-97653319D01*
X168144684Y-97571178D01*
X168024991Y-97430265D01*
X167877805Y-97318377D01*
X167835596Y-97298849D01*
X168398911Y-96735535D01*
X168398911Y-96735533D01*
X168395110Y-96732286D01*
X168395095Y-96732275D01*
X168177015Y-96598636D01*
X168177012Y-96598634D01*
X167940702Y-96500752D01*
X167691988Y-96441042D01*
X167691989Y-96441042D01*
X167437000Y-96420975D01*
X167182010Y-96441042D01*
X166933297Y-96500752D01*
X166696987Y-96598634D01*
X166696984Y-96598636D01*
X166478897Y-96732280D01*
X166475087Y-96735534D01*
X167038390Y-97298838D01*
X166919569Y-97370331D01*
X166785342Y-97497477D01*
X166682139Y-97649690D01*
X166121534Y-97089087D01*
X166118280Y-97092897D01*
X165984636Y-97310984D01*
X165984634Y-97310987D01*
X165886752Y-97547297D01*
X165827042Y-97796010D01*
X165806975Y-98051000D01*
X163987024Y-98051000D01*
X163966957Y-97796010D01*
X163907247Y-97547297D01*
X163809365Y-97310987D01*
X163809363Y-97310984D01*
X163675719Y-97092898D01*
X163675712Y-97092888D01*
X163672465Y-97089087D01*
X163672464Y-97089087D01*
X163108232Y-97653319D01*
X163064684Y-97571178D01*
X162944991Y-97430265D01*
X162797805Y-97318377D01*
X162755597Y-97298849D01*
X163318911Y-96735535D01*
X163318911Y-96735533D01*
X163315110Y-96732286D01*
X163315095Y-96732275D01*
X163097015Y-96598636D01*
X163097012Y-96598634D01*
X162860702Y-96500752D01*
X162611988Y-96441042D01*
X162611989Y-96441042D01*
X162357000Y-96420975D01*
X162102010Y-96441042D01*
X161853297Y-96500752D01*
X161616987Y-96598634D01*
X161616984Y-96598636D01*
X161398897Y-96732280D01*
X161395087Y-96735534D01*
X161958390Y-97298837D01*
X161839569Y-97370331D01*
X161705342Y-97497477D01*
X161602138Y-97649691D01*
X161041534Y-97089087D01*
X161038280Y-97092897D01*
X160904636Y-97310984D01*
X160904634Y-97310987D01*
X160806752Y-97547297D01*
X160747042Y-97796010D01*
X160726975Y-98051000D01*
X153545705Y-98051000D01*
X153554212Y-97818235D01*
X153524586Y-97548982D01*
X153456072Y-97286912D01*
X153350130Y-97037610D01*
X153209018Y-96806390D01*
X153207845Y-96804981D01*
X153035746Y-96598180D01*
X153035740Y-96598175D01*
X152834002Y-96417418D01*
X152608092Y-96267957D01*
X152608090Y-96267956D01*
X152362824Y-96152980D01*
X152362819Y-96152978D01*
X152362814Y-96152976D01*
X152103442Y-96074942D01*
X152103428Y-96074939D01*
X151987791Y-96057921D01*
X151835439Y-96035500D01*
X151632369Y-96035500D01*
X151632351Y-96035500D01*
X151429844Y-96050323D01*
X151429831Y-96050325D01*
X151165453Y-96109217D01*
X151165446Y-96109220D01*
X150912439Y-96205987D01*
X150676226Y-96338557D01*
X150461822Y-96504112D01*
X150273822Y-96699109D01*
X150273816Y-96699116D01*
X150116202Y-96919419D01*
X150116199Y-96919424D01*
X149992350Y-97160309D01*
X149992343Y-97160327D01*
X149904884Y-97416685D01*
X149904881Y-97416699D01*
X149902026Y-97432155D01*
X149860767Y-97655535D01*
X149855681Y-97683068D01*
X149855680Y-97683075D01*
X149845787Y-97953763D01*
X77740000Y-97953763D01*
X77740000Y-97432172D01*
X77739999Y-97432155D01*
X77733598Y-97372627D01*
X77733596Y-97372620D01*
X77683354Y-97237913D01*
X77683350Y-97237906D01*
X77597190Y-97122812D01*
X77597187Y-97122809D01*
X77482093Y-97036649D01*
X77482086Y-97036645D01*
X77347379Y-96986403D01*
X77347372Y-96986401D01*
X77287844Y-96980000D01*
X74950000Y-96980000D01*
X74450000Y-96980000D01*
X72112172Y-96980000D01*
X72112153Y-96980001D01*
X72047427Y-96986960D01*
X71978668Y-96974555D01*
X71927530Y-96926945D01*
X71910172Y-96863645D01*
X71910707Y-94542763D01*
X84845683Y-94542763D01*
X84875309Y-94812013D01*
X84875311Y-94812024D01*
X84943822Y-95074082D01*
X84943824Y-95074088D01*
X85049766Y-95323390D01*
X85121894Y-95441575D01*
X85190875Y-95554605D01*
X85190882Y-95554615D01*
X85364149Y-95762819D01*
X85364155Y-95762824D01*
X85565894Y-95943582D01*
X85791806Y-96093044D01*
X86037072Y-96208020D01*
X86037079Y-96208022D01*
X86037081Y-96208023D01*
X86296453Y-96286057D01*
X86296460Y-96286058D01*
X86296465Y-96286060D01*
X86564457Y-96325500D01*
X86564462Y-96325500D01*
X86767525Y-96325500D01*
X86767527Y-96325500D01*
X86767532Y-96325499D01*
X86767544Y-96325499D01*
X86805087Y-96322750D01*
X86970052Y-96310677D01*
X87082654Y-96285593D01*
X87234442Y-96251782D01*
X87234444Y-96251781D01*
X87234449Y-96251780D01*
X87487454Y-96155014D01*
X87723673Y-96022441D01*
X87938073Y-95856888D01*
X88126082Y-95661881D01*
X88234029Y-95510999D01*
X163366783Y-95510999D01*
X163385623Y-95750382D01*
X163441674Y-95983853D01*
X163441678Y-95983865D01*
X163533565Y-96205702D01*
X163614979Y-96338557D01*
X163659028Y-96410439D01*
X163814973Y-96593027D01*
X163997561Y-96748972D01*
X163997563Y-96748973D01*
X164202297Y-96874434D01*
X164299047Y-96914508D01*
X164424137Y-96966323D01*
X164657621Y-97022377D01*
X164897000Y-97041217D01*
X165136379Y-97022377D01*
X165369863Y-96966323D01*
X165591704Y-96874433D01*
X165796439Y-96748972D01*
X165979027Y-96593027D01*
X166134972Y-96410439D01*
X166260433Y-96205704D01*
X166352323Y-95983863D01*
X166408377Y-95750379D01*
X166427217Y-95511000D01*
X166408377Y-95271621D01*
X166352323Y-95038137D01*
X166300508Y-94913047D01*
X166260434Y-94816297D01*
X166134973Y-94611563D01*
X166134972Y-94611561D01*
X165979027Y-94428973D01*
X165796439Y-94273028D01*
X165794884Y-94272075D01*
X165591702Y-94147565D01*
X165369865Y-94055678D01*
X165369867Y-94055678D01*
X165369863Y-94055677D01*
X165369859Y-94055676D01*
X165369853Y-94055674D01*
X165136382Y-93999623D01*
X164897000Y-93980783D01*
X164657617Y-93999623D01*
X164424146Y-94055674D01*
X164424134Y-94055678D01*
X164202297Y-94147565D01*
X163997563Y-94273026D01*
X163814973Y-94428973D01*
X163659026Y-94611563D01*
X163533565Y-94816297D01*
X163441678Y-95038134D01*
X163441674Y-95038146D01*
X163385623Y-95271617D01*
X163366783Y-95510999D01*
X88234029Y-95510999D01*
X88283695Y-95441579D01*
X88371078Y-95271617D01*
X88407545Y-95200690D01*
X88407547Y-95200684D01*
X88407552Y-95200675D01*
X88495014Y-94944305D01*
X88544215Y-94677933D01*
X88554108Y-94407235D01*
X88524482Y-94137982D01*
X88455968Y-93875912D01*
X88350026Y-93626610D01*
X88208914Y-93395390D01*
X88189029Y-93371495D01*
X88035642Y-93187180D01*
X88035636Y-93187175D01*
X87833898Y-93006418D01*
X87780364Y-92971000D01*
X160726975Y-92971000D01*
X160747042Y-93225989D01*
X160806752Y-93474702D01*
X160904634Y-93711012D01*
X160904636Y-93711015D01*
X161038275Y-93929095D01*
X161038286Y-93929110D01*
X161041533Y-93932911D01*
X161041535Y-93932911D01*
X161605766Y-93368679D01*
X161649316Y-93450822D01*
X161769009Y-93591735D01*
X161916195Y-93703623D01*
X161958402Y-93723150D01*
X161395087Y-94286464D01*
X161395087Y-94286465D01*
X161398888Y-94289712D01*
X161398898Y-94289719D01*
X161616984Y-94423363D01*
X161616987Y-94423365D01*
X161853297Y-94521247D01*
X162102011Y-94580957D01*
X162102010Y-94580957D01*
X162357000Y-94601024D01*
X162611989Y-94580957D01*
X162860702Y-94521247D01*
X163097012Y-94423365D01*
X163097015Y-94423363D01*
X163315103Y-94289719D01*
X163318912Y-94286464D01*
X162755609Y-93723161D01*
X162874431Y-93651669D01*
X163008658Y-93524523D01*
X163111861Y-93372308D01*
X163672464Y-93932912D01*
X163675719Y-93929103D01*
X163809363Y-93711015D01*
X163809365Y-93711012D01*
X163907247Y-93474702D01*
X163966957Y-93225989D01*
X163987024Y-92971000D01*
X165806975Y-92971000D01*
X165827042Y-93225989D01*
X165886752Y-93474702D01*
X165984634Y-93711012D01*
X165984636Y-93711015D01*
X166118275Y-93929095D01*
X166118286Y-93929110D01*
X166121533Y-93932911D01*
X166121535Y-93932911D01*
X166685766Y-93368679D01*
X166729316Y-93450822D01*
X166849009Y-93591735D01*
X166996195Y-93703623D01*
X167038402Y-93723150D01*
X166475087Y-94286464D01*
X166475087Y-94286465D01*
X166478888Y-94289712D01*
X166478898Y-94289719D01*
X166696984Y-94423363D01*
X166696987Y-94423365D01*
X166933297Y-94521247D01*
X167182011Y-94580957D01*
X167182010Y-94580957D01*
X167437000Y-94601024D01*
X167691989Y-94580957D01*
X167940702Y-94521247D01*
X168177012Y-94423365D01*
X168177015Y-94423363D01*
X168395103Y-94289719D01*
X168398912Y-94286464D01*
X167835609Y-93723161D01*
X167954431Y-93651669D01*
X168088658Y-93524523D01*
X168191861Y-93372308D01*
X168752464Y-93932912D01*
X168755719Y-93929103D01*
X168889363Y-93711015D01*
X168889365Y-93711012D01*
X168987247Y-93474702D01*
X169046957Y-93225989D01*
X169067024Y-92970999D01*
X169046957Y-92716010D01*
X168987247Y-92467297D01*
X168939076Y-92351000D01*
X173726975Y-92351000D01*
X173747042Y-92605989D01*
X173806752Y-92854702D01*
X173904634Y-93091012D01*
X173904636Y-93091015D01*
X174038275Y-93309095D01*
X174038286Y-93309110D01*
X174041533Y-93312911D01*
X174041535Y-93312911D01*
X174605766Y-92748679D01*
X174649316Y-92830822D01*
X174769009Y-92971735D01*
X174916195Y-93083623D01*
X174958402Y-93103150D01*
X174395087Y-93666464D01*
X174395087Y-93666465D01*
X174398888Y-93669712D01*
X174398898Y-93669719D01*
X174616984Y-93803363D01*
X174616987Y-93803365D01*
X174853297Y-93901247D01*
X175102011Y-93960957D01*
X175102010Y-93960957D01*
X175357000Y-93981024D01*
X175611989Y-93960957D01*
X175860702Y-93901247D01*
X176097012Y-93803365D01*
X176097015Y-93803363D01*
X176315103Y-93669719D01*
X176318912Y-93666464D01*
X175755609Y-93103161D01*
X175874431Y-93031669D01*
X176008658Y-92904523D01*
X176111861Y-92752308D01*
X176672464Y-93312912D01*
X176675719Y-93309103D01*
X176809363Y-93091015D01*
X176809365Y-93091012D01*
X176907247Y-92854702D01*
X176966957Y-92605989D01*
X176987024Y-92350999D01*
X178806975Y-92350999D01*
X178827042Y-92605989D01*
X178886752Y-92854702D01*
X178984634Y-93091012D01*
X178984636Y-93091015D01*
X179118275Y-93309095D01*
X179118286Y-93309110D01*
X179121533Y-93312911D01*
X179121535Y-93312911D01*
X179685766Y-92748679D01*
X179729316Y-92830822D01*
X179849009Y-92971735D01*
X179996195Y-93083623D01*
X180038402Y-93103150D01*
X179475087Y-93666464D01*
X179475087Y-93666465D01*
X179478888Y-93669712D01*
X179478898Y-93669719D01*
X179696984Y-93803363D01*
X179696987Y-93803365D01*
X179933297Y-93901247D01*
X180182011Y-93960957D01*
X180182010Y-93960957D01*
X180437000Y-93981024D01*
X180691989Y-93960957D01*
X180940702Y-93901247D01*
X181177012Y-93803365D01*
X181177015Y-93803363D01*
X181395103Y-93669719D01*
X181398912Y-93666464D01*
X180835609Y-93103161D01*
X180954431Y-93031669D01*
X181088658Y-92904523D01*
X181191861Y-92752308D01*
X181752464Y-93312912D01*
X181755719Y-93309103D01*
X181889363Y-93091015D01*
X181889365Y-93091012D01*
X181987247Y-92854702D01*
X182046957Y-92605989D01*
X182067024Y-92350999D01*
X182046957Y-92096010D01*
X181987247Y-91847297D01*
X181889365Y-91610987D01*
X181889363Y-91610984D01*
X181755719Y-91392898D01*
X181755712Y-91392888D01*
X181752465Y-91389087D01*
X181752464Y-91389087D01*
X181188232Y-91953319D01*
X181144684Y-91871178D01*
X181024991Y-91730265D01*
X180877805Y-91618377D01*
X180835596Y-91598849D01*
X181398911Y-91035535D01*
X181398911Y-91035533D01*
X181395110Y-91032286D01*
X181395095Y-91032275D01*
X181177015Y-90898636D01*
X181177012Y-90898634D01*
X180940702Y-90800752D01*
X180691988Y-90741042D01*
X180691989Y-90741042D01*
X180437000Y-90720975D01*
X180182010Y-90741042D01*
X179933297Y-90800752D01*
X179696987Y-90898634D01*
X179696984Y-90898636D01*
X179478897Y-91032280D01*
X179475087Y-91035534D01*
X180038390Y-91598838D01*
X179919569Y-91670331D01*
X179785342Y-91797477D01*
X179682138Y-91949691D01*
X179121534Y-91389087D01*
X179118280Y-91392897D01*
X178984636Y-91610984D01*
X178984634Y-91610987D01*
X178886752Y-91847297D01*
X178827042Y-92096010D01*
X178806975Y-92350999D01*
X176987024Y-92350999D01*
X176966957Y-92096010D01*
X176907247Y-91847297D01*
X176809365Y-91610987D01*
X176809363Y-91610984D01*
X176675719Y-91392898D01*
X176675712Y-91392888D01*
X176672465Y-91389087D01*
X176672464Y-91389087D01*
X176108232Y-91953319D01*
X176064684Y-91871178D01*
X175944991Y-91730265D01*
X175797805Y-91618377D01*
X175755596Y-91598849D01*
X176318911Y-91035535D01*
X176318911Y-91035533D01*
X176315110Y-91032286D01*
X176315095Y-91032275D01*
X176097015Y-90898636D01*
X176097012Y-90898634D01*
X175860702Y-90800752D01*
X175611988Y-90741042D01*
X175611989Y-90741042D01*
X175357000Y-90720975D01*
X175102010Y-90741042D01*
X174853297Y-90800752D01*
X174616987Y-90898634D01*
X174616984Y-90898636D01*
X174398897Y-91032280D01*
X174395087Y-91035534D01*
X174958390Y-91598838D01*
X174839569Y-91670331D01*
X174705342Y-91797477D01*
X174602138Y-91949691D01*
X174041534Y-91389087D01*
X174038280Y-91392897D01*
X173904636Y-91610984D01*
X173904634Y-91610987D01*
X173806752Y-91847297D01*
X173747042Y-92096010D01*
X173726975Y-92351000D01*
X168939076Y-92351000D01*
X168889365Y-92230987D01*
X168889363Y-92230984D01*
X168755719Y-92012898D01*
X168755712Y-92012888D01*
X168752465Y-92009087D01*
X168752464Y-92009087D01*
X168188232Y-92573319D01*
X168144684Y-92491178D01*
X168024991Y-92350265D01*
X167877805Y-92238377D01*
X167835597Y-92218849D01*
X168398911Y-91655535D01*
X168398911Y-91655533D01*
X168395110Y-91652286D01*
X168395095Y-91652275D01*
X168177015Y-91518636D01*
X168177012Y-91518634D01*
X167940702Y-91420752D01*
X167691988Y-91361042D01*
X167691989Y-91361042D01*
X167437000Y-91340975D01*
X167182010Y-91361042D01*
X166933297Y-91420752D01*
X166696987Y-91518634D01*
X166696984Y-91518636D01*
X166478897Y-91652280D01*
X166475087Y-91655534D01*
X167038390Y-92218837D01*
X166919569Y-92290331D01*
X166785342Y-92417477D01*
X166682138Y-92569691D01*
X166121534Y-92009087D01*
X166118280Y-92012897D01*
X165984636Y-92230984D01*
X165984634Y-92230987D01*
X165886752Y-92467297D01*
X165827042Y-92716010D01*
X165806975Y-92971000D01*
X163987024Y-92971000D01*
X163966957Y-92716010D01*
X163907247Y-92467297D01*
X163809365Y-92230987D01*
X163809363Y-92230984D01*
X163675719Y-92012898D01*
X163675712Y-92012888D01*
X163672465Y-92009087D01*
X163672464Y-92009087D01*
X163108232Y-92573319D01*
X163064684Y-92491178D01*
X162944991Y-92350265D01*
X162797805Y-92238377D01*
X162755597Y-92218849D01*
X163318911Y-91655535D01*
X163318911Y-91655533D01*
X163315110Y-91652286D01*
X163315095Y-91652275D01*
X163097015Y-91518636D01*
X163097012Y-91518634D01*
X162860702Y-91420752D01*
X162611988Y-91361042D01*
X162611989Y-91361042D01*
X162357000Y-91340975D01*
X162102010Y-91361042D01*
X161853297Y-91420752D01*
X161616987Y-91518634D01*
X161616984Y-91518636D01*
X161398897Y-91652280D01*
X161395087Y-91655534D01*
X161958390Y-92218837D01*
X161839569Y-92290331D01*
X161705342Y-92417477D01*
X161602138Y-92569691D01*
X161041534Y-92009087D01*
X161038280Y-92012897D01*
X160904636Y-92230984D01*
X160904634Y-92230987D01*
X160806752Y-92467297D01*
X160747042Y-92716010D01*
X160726975Y-92971000D01*
X87780364Y-92971000D01*
X87607988Y-92856957D01*
X87601454Y-92853894D01*
X87362720Y-92741980D01*
X87362715Y-92741978D01*
X87362710Y-92741976D01*
X87103338Y-92663942D01*
X87103324Y-92663939D01*
X86987687Y-92646921D01*
X86835335Y-92624500D01*
X86632265Y-92624500D01*
X86632247Y-92624500D01*
X86429740Y-92639323D01*
X86429727Y-92639325D01*
X86165349Y-92698217D01*
X86165342Y-92698220D01*
X85912335Y-92794987D01*
X85676122Y-92927557D01*
X85461718Y-93093112D01*
X85273718Y-93288109D01*
X85273712Y-93288116D01*
X85116098Y-93508419D01*
X85116095Y-93508424D01*
X84992246Y-93749309D01*
X84992239Y-93749327D01*
X84904780Y-94005685D01*
X84904777Y-94005699D01*
X84855577Y-94272068D01*
X84855576Y-94272075D01*
X84845683Y-94542763D01*
X71910707Y-94542763D01*
X71911097Y-92853894D01*
X71930796Y-92786864D01*
X71983611Y-92741121D01*
X72048354Y-92730638D01*
X72112160Y-92737499D01*
X72112172Y-92737500D01*
X74450000Y-92737500D01*
X74450000Y-91737500D01*
X74950000Y-91737500D01*
X74950000Y-92737500D01*
X77287828Y-92737500D01*
X77287844Y-92737499D01*
X77347372Y-92731098D01*
X77347379Y-92731096D01*
X77482086Y-92680854D01*
X77482093Y-92680850D01*
X77597187Y-92594690D01*
X77597190Y-92594687D01*
X77683350Y-92479593D01*
X77683354Y-92479586D01*
X77733596Y-92344879D01*
X77733598Y-92344872D01*
X77739999Y-92285344D01*
X77740000Y-92285327D01*
X77740000Y-91737500D01*
X74950000Y-91737500D01*
X74450000Y-91737500D01*
X74450000Y-90237500D01*
X74950000Y-90237500D01*
X74950000Y-91237500D01*
X77740000Y-91237500D01*
X77740000Y-90689672D01*
X77739999Y-90689655D01*
X77733598Y-90630127D01*
X77733596Y-90630120D01*
X77683354Y-90495413D01*
X77683350Y-90495406D01*
X77597190Y-90380312D01*
X77597187Y-90380309D01*
X77482093Y-90294149D01*
X77482086Y-90294145D01*
X77347379Y-90243903D01*
X77347372Y-90243901D01*
X77287844Y-90237500D01*
X74950000Y-90237500D01*
X74450000Y-90237500D01*
X72112172Y-90237500D01*
X72112153Y-90237501D01*
X72048980Y-90244293D01*
X71980221Y-90231888D01*
X71929083Y-90184278D01*
X71911726Y-90120981D01*
X71911797Y-89810999D01*
X176366783Y-89810999D01*
X176385623Y-90050382D01*
X176441674Y-90283853D01*
X176441678Y-90283865D01*
X176533565Y-90505702D01*
X176646302Y-90689672D01*
X176659028Y-90710439D01*
X176814973Y-90893027D01*
X176997561Y-91048972D01*
X176997563Y-91048973D01*
X177202297Y-91174434D01*
X177299047Y-91214508D01*
X177424137Y-91266323D01*
X177657621Y-91322377D01*
X177897000Y-91341217D01*
X178136379Y-91322377D01*
X178369863Y-91266323D01*
X178591704Y-91174433D01*
X178796439Y-91048972D01*
X178979027Y-90893027D01*
X179134972Y-90710439D01*
X179260433Y-90505704D01*
X179352323Y-90283863D01*
X179408377Y-90050379D01*
X179427217Y-89811000D01*
X179408377Y-89571621D01*
X179352323Y-89338137D01*
X179300508Y-89213047D01*
X179260434Y-89116297D01*
X179134973Y-88911563D01*
X179134972Y-88911561D01*
X178979027Y-88728973D01*
X178796439Y-88573028D01*
X178796436Y-88573026D01*
X178591702Y-88447565D01*
X178369865Y-88355678D01*
X178369867Y-88355678D01*
X178369863Y-88355677D01*
X178369859Y-88355676D01*
X178369853Y-88355674D01*
X178136382Y-88299623D01*
X177956844Y-88285492D01*
X177897000Y-88280783D01*
X177896999Y-88280783D01*
X177657617Y-88299623D01*
X177424146Y-88355674D01*
X177424134Y-88355678D01*
X177202297Y-88447565D01*
X176997563Y-88573026D01*
X176814973Y-88728973D01*
X176659026Y-88911563D01*
X176533565Y-89116297D01*
X176441678Y-89338134D01*
X176441674Y-89338146D01*
X176385623Y-89571617D01*
X176366783Y-89810999D01*
X71911797Y-89810999D01*
X71912629Y-86202000D01*
X160726975Y-86202000D01*
X160747042Y-86456989D01*
X160806752Y-86705702D01*
X160904634Y-86942012D01*
X160904636Y-86942015D01*
X161038275Y-87160095D01*
X161038286Y-87160110D01*
X161041533Y-87163911D01*
X161041535Y-87163911D01*
X161605766Y-86599679D01*
X161649316Y-86681822D01*
X161769009Y-86822735D01*
X161916195Y-86934623D01*
X161958402Y-86954150D01*
X161395087Y-87517464D01*
X161395087Y-87517465D01*
X161398888Y-87520712D01*
X161398898Y-87520719D01*
X161616984Y-87654363D01*
X161616987Y-87654365D01*
X161853297Y-87752247D01*
X162102011Y-87811957D01*
X162102010Y-87811957D01*
X162357000Y-87832024D01*
X162611989Y-87811957D01*
X162860702Y-87752247D01*
X163097012Y-87654365D01*
X163097015Y-87654363D01*
X163315103Y-87520719D01*
X163318912Y-87517464D01*
X162755609Y-86954161D01*
X162874431Y-86882669D01*
X163008658Y-86755523D01*
X163111861Y-86603309D01*
X163672464Y-87163912D01*
X163675719Y-87160103D01*
X163809363Y-86942015D01*
X163809365Y-86942012D01*
X163907247Y-86705702D01*
X163966957Y-86456989D01*
X163987024Y-86202000D01*
X165806975Y-86202000D01*
X165827042Y-86456989D01*
X165886752Y-86705702D01*
X165984634Y-86942012D01*
X165984636Y-86942015D01*
X166118275Y-87160095D01*
X166118286Y-87160110D01*
X166121533Y-87163911D01*
X166121535Y-87163911D01*
X166685766Y-86599679D01*
X166729316Y-86681822D01*
X166849009Y-86822735D01*
X166996195Y-86934623D01*
X167038402Y-86954150D01*
X166475087Y-87517464D01*
X166475087Y-87517465D01*
X166478888Y-87520712D01*
X166478898Y-87520719D01*
X166696984Y-87654363D01*
X166696987Y-87654365D01*
X166933297Y-87752247D01*
X167182011Y-87811957D01*
X167182010Y-87811957D01*
X167437000Y-87832024D01*
X167691989Y-87811957D01*
X167940702Y-87752247D01*
X168177012Y-87654365D01*
X168177015Y-87654363D01*
X168395103Y-87520719D01*
X168398912Y-87517464D01*
X168152448Y-87271000D01*
X173726975Y-87271000D01*
X173747042Y-87525989D01*
X173806752Y-87774702D01*
X173904634Y-88011012D01*
X173904636Y-88011015D01*
X174038275Y-88229095D01*
X174038286Y-88229110D01*
X174041533Y-88232911D01*
X174041535Y-88232911D01*
X174605766Y-87668679D01*
X174649316Y-87750822D01*
X174769009Y-87891735D01*
X174916195Y-88003623D01*
X174958402Y-88023150D01*
X174395087Y-88586464D01*
X174395087Y-88586465D01*
X174398888Y-88589712D01*
X174398898Y-88589719D01*
X174616984Y-88723363D01*
X174616987Y-88723365D01*
X174853297Y-88821247D01*
X175102011Y-88880957D01*
X175102010Y-88880957D01*
X175357000Y-88901024D01*
X175611989Y-88880957D01*
X175860702Y-88821247D01*
X176097012Y-88723365D01*
X176097015Y-88723363D01*
X176315103Y-88589719D01*
X176318912Y-88586464D01*
X175755609Y-88023161D01*
X175874431Y-87951669D01*
X176008658Y-87824523D01*
X176111861Y-87672308D01*
X176672464Y-88232912D01*
X176675719Y-88229103D01*
X176809363Y-88011015D01*
X176809365Y-88011012D01*
X176907247Y-87774702D01*
X176966957Y-87525989D01*
X176987024Y-87270999D01*
X178806975Y-87270999D01*
X178827042Y-87525989D01*
X178886752Y-87774702D01*
X178984634Y-88011012D01*
X178984636Y-88011015D01*
X179118275Y-88229095D01*
X179118286Y-88229110D01*
X179121533Y-88232911D01*
X179121535Y-88232911D01*
X179685766Y-87668679D01*
X179729316Y-87750822D01*
X179849009Y-87891735D01*
X179996195Y-88003623D01*
X180038402Y-88023150D01*
X179475087Y-88586464D01*
X179475087Y-88586465D01*
X179478888Y-88589712D01*
X179478898Y-88589719D01*
X179696984Y-88723363D01*
X179696987Y-88723365D01*
X179933297Y-88821247D01*
X180182011Y-88880957D01*
X180182010Y-88880957D01*
X180437000Y-88901024D01*
X180691989Y-88880957D01*
X180940702Y-88821247D01*
X181177012Y-88723365D01*
X181177015Y-88723363D01*
X181395103Y-88589719D01*
X181398912Y-88586464D01*
X180835609Y-88023161D01*
X180954431Y-87951669D01*
X181088658Y-87824523D01*
X181191861Y-87672308D01*
X181752464Y-88232912D01*
X181755719Y-88229103D01*
X181889363Y-88011015D01*
X181889365Y-88011012D01*
X181987247Y-87774702D01*
X182046957Y-87525989D01*
X182067024Y-87270999D01*
X182046957Y-87016010D01*
X181987247Y-86767297D01*
X181889365Y-86530987D01*
X181889363Y-86530984D01*
X181755719Y-86312898D01*
X181755712Y-86312888D01*
X181752465Y-86309087D01*
X181752464Y-86309087D01*
X181188232Y-86873319D01*
X181144684Y-86791178D01*
X181024991Y-86650265D01*
X180877805Y-86538377D01*
X180835596Y-86518849D01*
X181398911Y-85955535D01*
X181398911Y-85955533D01*
X181395110Y-85952286D01*
X181395095Y-85952275D01*
X181177015Y-85818636D01*
X181177012Y-85818634D01*
X180940702Y-85720752D01*
X180691988Y-85661042D01*
X180691989Y-85661042D01*
X180437000Y-85640975D01*
X180182010Y-85661042D01*
X179933297Y-85720752D01*
X179696987Y-85818634D01*
X179696984Y-85818636D01*
X179478897Y-85952280D01*
X179475087Y-85955534D01*
X180038390Y-86518838D01*
X179919569Y-86590331D01*
X179785342Y-86717477D01*
X179682139Y-86869690D01*
X179121534Y-86309087D01*
X179118280Y-86312897D01*
X178984636Y-86530984D01*
X178984634Y-86530987D01*
X178886752Y-86767297D01*
X178827042Y-87016010D01*
X178806975Y-87270999D01*
X176987024Y-87270999D01*
X176966957Y-87016010D01*
X176907247Y-86767297D01*
X176809365Y-86530987D01*
X176809363Y-86530984D01*
X176675719Y-86312898D01*
X176675712Y-86312888D01*
X176672465Y-86309087D01*
X176672464Y-86309087D01*
X176108232Y-86873319D01*
X176064684Y-86791178D01*
X175944991Y-86650265D01*
X175797805Y-86538377D01*
X175755597Y-86518849D01*
X176318911Y-85955535D01*
X176318911Y-85955533D01*
X176315110Y-85952286D01*
X176315095Y-85952275D01*
X176097015Y-85818636D01*
X176097012Y-85818634D01*
X175860702Y-85720752D01*
X175611988Y-85661042D01*
X175611989Y-85661042D01*
X175357000Y-85640975D01*
X175102010Y-85661042D01*
X174853297Y-85720752D01*
X174616987Y-85818634D01*
X174616984Y-85818636D01*
X174398897Y-85952280D01*
X174395087Y-85955534D01*
X174958390Y-86518837D01*
X174839569Y-86590331D01*
X174705342Y-86717477D01*
X174602138Y-86869691D01*
X174041534Y-86309087D01*
X174038280Y-86312897D01*
X173904636Y-86530984D01*
X173904634Y-86530987D01*
X173806752Y-86767297D01*
X173747042Y-87016010D01*
X173726975Y-87271000D01*
X168152448Y-87271000D01*
X167835609Y-86954161D01*
X167954431Y-86882669D01*
X168088658Y-86755523D01*
X168191861Y-86603309D01*
X168752464Y-87163912D01*
X168755719Y-87160103D01*
X168889363Y-86942015D01*
X168889365Y-86942012D01*
X168987247Y-86705702D01*
X169046957Y-86456989D01*
X169067024Y-86202000D01*
X169046957Y-85947010D01*
X168987247Y-85698297D01*
X168889365Y-85461987D01*
X168889363Y-85461984D01*
X168755719Y-85243898D01*
X168755712Y-85243888D01*
X168752465Y-85240087D01*
X168752464Y-85240087D01*
X168188232Y-85804319D01*
X168144684Y-85722178D01*
X168024991Y-85581265D01*
X167877805Y-85469377D01*
X167835596Y-85449849D01*
X168398911Y-84886535D01*
X168398911Y-84886533D01*
X168395110Y-84883286D01*
X168395095Y-84883275D01*
X168177015Y-84749636D01*
X168177012Y-84749634D01*
X167940702Y-84651752D01*
X167691988Y-84592042D01*
X167691989Y-84592042D01*
X167437000Y-84571975D01*
X167182010Y-84592042D01*
X166933297Y-84651752D01*
X166696987Y-84749634D01*
X166696984Y-84749636D01*
X166478897Y-84883280D01*
X166475087Y-84886534D01*
X167038390Y-85449838D01*
X166919569Y-85521331D01*
X166785342Y-85648477D01*
X166682138Y-85800691D01*
X166121534Y-85240087D01*
X166118280Y-85243897D01*
X165984636Y-85461984D01*
X165984634Y-85461987D01*
X165886752Y-85698297D01*
X165827042Y-85947010D01*
X165806975Y-86202000D01*
X163987024Y-86202000D01*
X163966957Y-85947010D01*
X163907247Y-85698297D01*
X163809365Y-85461987D01*
X163809363Y-85461984D01*
X163675719Y-85243898D01*
X163675712Y-85243888D01*
X163672465Y-85240087D01*
X163672464Y-85240087D01*
X163108232Y-85804319D01*
X163064684Y-85722178D01*
X162944991Y-85581265D01*
X162797805Y-85469377D01*
X162755596Y-85449849D01*
X163318911Y-84886535D01*
X163318911Y-84886533D01*
X163315110Y-84883286D01*
X163315095Y-84883275D01*
X163097015Y-84749636D01*
X163097012Y-84749634D01*
X162860702Y-84651752D01*
X162611988Y-84592042D01*
X162611989Y-84592042D01*
X162357000Y-84571975D01*
X162102010Y-84592042D01*
X161853297Y-84651752D01*
X161616987Y-84749634D01*
X161616984Y-84749636D01*
X161398897Y-84883280D01*
X161395087Y-84886534D01*
X161958390Y-85449837D01*
X161839569Y-85521331D01*
X161705342Y-85648477D01*
X161602138Y-85800691D01*
X161041534Y-85240087D01*
X161038280Y-85243897D01*
X160904636Y-85461984D01*
X160904634Y-85461987D01*
X160806752Y-85698297D01*
X160747042Y-85947010D01*
X160726975Y-86202000D01*
X71912629Y-86202000D01*
X71913055Y-84354106D01*
X71932755Y-84287074D01*
X71985570Y-84241332D01*
X72050312Y-84230849D01*
X72112158Y-84237499D01*
X72112172Y-84237500D01*
X74450000Y-84237500D01*
X74450000Y-83237500D01*
X74950000Y-83237500D01*
X74950000Y-84237500D01*
X77287828Y-84237500D01*
X77287844Y-84237499D01*
X77347372Y-84231098D01*
X77347379Y-84231096D01*
X77482086Y-84180854D01*
X77482093Y-84180850D01*
X77597187Y-84094690D01*
X77597190Y-84094687D01*
X77683350Y-83979593D01*
X77683354Y-83979586D01*
X77733596Y-83844879D01*
X77733598Y-83844872D01*
X77739999Y-83785344D01*
X77740000Y-83785327D01*
X77740000Y-83661999D01*
X163366783Y-83661999D01*
X163385623Y-83901382D01*
X163441674Y-84134853D01*
X163441678Y-84134865D01*
X163533565Y-84356702D01*
X163659026Y-84561436D01*
X163659028Y-84561439D01*
X163814973Y-84744027D01*
X163997561Y-84899972D01*
X163997563Y-84899973D01*
X164202297Y-85025434D01*
X164299047Y-85065508D01*
X164424137Y-85117323D01*
X164657621Y-85173377D01*
X164897000Y-85192217D01*
X165136379Y-85173377D01*
X165369863Y-85117323D01*
X165591704Y-85025433D01*
X165796439Y-84899972D01*
X165979027Y-84744027D01*
X166134972Y-84561439D01*
X166260433Y-84356704D01*
X166352323Y-84134863D01*
X166408377Y-83901379D01*
X166427217Y-83662000D01*
X166408377Y-83422621D01*
X166352323Y-83189137D01*
X166300508Y-83064047D01*
X166260434Y-82967297D01*
X166134973Y-82762563D01*
X166134972Y-82762561D01*
X165979027Y-82579973D01*
X165796439Y-82424028D01*
X165796436Y-82424026D01*
X165591702Y-82298565D01*
X165369865Y-82206678D01*
X165369867Y-82206678D01*
X165369863Y-82206677D01*
X165369859Y-82206676D01*
X165369853Y-82206674D01*
X165136382Y-82150623D01*
X164956844Y-82136492D01*
X164897000Y-82131783D01*
X164896999Y-82131783D01*
X164657617Y-82150623D01*
X164424146Y-82206674D01*
X164424134Y-82206678D01*
X164202297Y-82298565D01*
X163997563Y-82424026D01*
X163814973Y-82579973D01*
X163659026Y-82762563D01*
X163533565Y-82967297D01*
X163441678Y-83189134D01*
X163441674Y-83189146D01*
X163385623Y-83422617D01*
X163366783Y-83661999D01*
X77740000Y-83661999D01*
X77740000Y-83237500D01*
X74950000Y-83237500D01*
X74450000Y-83237500D01*
X74450000Y-81737500D01*
X74950000Y-81737500D01*
X74950000Y-82737500D01*
X77740000Y-82737500D01*
X77740000Y-82189672D01*
X77739999Y-82189655D01*
X77733598Y-82130127D01*
X77733596Y-82130120D01*
X77683354Y-81995413D01*
X77683350Y-81995406D01*
X77597190Y-81880312D01*
X77597187Y-81880309D01*
X77482093Y-81794149D01*
X77482086Y-81794145D01*
X77347379Y-81743903D01*
X77347372Y-81743901D01*
X77287844Y-81737500D01*
X74950000Y-81737500D01*
X74450000Y-81737500D01*
X72112172Y-81737500D01*
X72050939Y-81744083D01*
X71982179Y-81731677D01*
X71931042Y-81684066D01*
X71913685Y-81620769D01*
X71913800Y-81122000D01*
X160726975Y-81122000D01*
X160747042Y-81376989D01*
X160806752Y-81625702D01*
X160904634Y-81862012D01*
X160904636Y-81862015D01*
X161038275Y-82080095D01*
X161038286Y-82080110D01*
X161041533Y-82083911D01*
X161041535Y-82083911D01*
X161605766Y-81519679D01*
X161649316Y-81601822D01*
X161769009Y-81742735D01*
X161916195Y-81854623D01*
X161958402Y-81874150D01*
X161395087Y-82437464D01*
X161395087Y-82437465D01*
X161398888Y-82440712D01*
X161398898Y-82440719D01*
X161616984Y-82574363D01*
X161616987Y-82574365D01*
X161853297Y-82672247D01*
X162102011Y-82731957D01*
X162102010Y-82731957D01*
X162357000Y-82752024D01*
X162611989Y-82731957D01*
X162860702Y-82672247D01*
X163097012Y-82574365D01*
X163097015Y-82574363D01*
X163315103Y-82440719D01*
X163318912Y-82437464D01*
X162755609Y-81874161D01*
X162874431Y-81802669D01*
X163008658Y-81675523D01*
X163111861Y-81523309D01*
X163672464Y-82083912D01*
X163675719Y-82080103D01*
X163809363Y-81862015D01*
X163809365Y-81862012D01*
X163907247Y-81625702D01*
X163966957Y-81376989D01*
X163987024Y-81122000D01*
X165806975Y-81122000D01*
X165827042Y-81376989D01*
X165886752Y-81625702D01*
X165984634Y-81862012D01*
X165984636Y-81862015D01*
X166118275Y-82080095D01*
X166118286Y-82080110D01*
X166121533Y-82083911D01*
X166121535Y-82083911D01*
X166685766Y-81519679D01*
X166729316Y-81601822D01*
X166849009Y-81742735D01*
X166996195Y-81854623D01*
X167038402Y-81874150D01*
X166475087Y-82437464D01*
X166475087Y-82437465D01*
X166478888Y-82440712D01*
X166478898Y-82440719D01*
X166696984Y-82574363D01*
X166696987Y-82574365D01*
X166933297Y-82672247D01*
X167182011Y-82731957D01*
X167182010Y-82731957D01*
X167437000Y-82752024D01*
X167691989Y-82731957D01*
X167940702Y-82672247D01*
X168177012Y-82574365D01*
X168177015Y-82574363D01*
X168395103Y-82440719D01*
X168398912Y-82437464D01*
X167835609Y-81874161D01*
X167954431Y-81802669D01*
X168088658Y-81675523D01*
X168191861Y-81523309D01*
X168752464Y-82083912D01*
X168755719Y-82080103D01*
X168889363Y-81862015D01*
X168889365Y-81862012D01*
X168987247Y-81625702D01*
X169046957Y-81376989D01*
X169067024Y-81122000D01*
X169046957Y-80867010D01*
X168987247Y-80618297D01*
X168889365Y-80381987D01*
X168889363Y-80381984D01*
X168888759Y-80380999D01*
X173726975Y-80380999D01*
X173747042Y-80635989D01*
X173806752Y-80884702D01*
X173904634Y-81121012D01*
X173904636Y-81121015D01*
X174038275Y-81339095D01*
X174038286Y-81339110D01*
X174041533Y-81342911D01*
X174041535Y-81342911D01*
X174605766Y-80778679D01*
X174649316Y-80860822D01*
X174769009Y-81001735D01*
X174916195Y-81113623D01*
X174958402Y-81133150D01*
X174395087Y-81696464D01*
X174395087Y-81696465D01*
X174398888Y-81699712D01*
X174398898Y-81699719D01*
X174616984Y-81833363D01*
X174616987Y-81833365D01*
X174853297Y-81931247D01*
X175102011Y-81990957D01*
X175102010Y-81990957D01*
X175357000Y-82011024D01*
X175611989Y-81990957D01*
X175860702Y-81931247D01*
X176097012Y-81833365D01*
X176097015Y-81833363D01*
X176315103Y-81699719D01*
X176318912Y-81696464D01*
X175755609Y-81133161D01*
X175874431Y-81061669D01*
X176008658Y-80934523D01*
X176111861Y-80782308D01*
X176672464Y-81342912D01*
X176675719Y-81339103D01*
X176809363Y-81121015D01*
X176809365Y-81121012D01*
X176907247Y-80884702D01*
X176966957Y-80635989D01*
X176987024Y-80381000D01*
X178806975Y-80381000D01*
X178827042Y-80635989D01*
X178886752Y-80884702D01*
X178984634Y-81121012D01*
X178984636Y-81121015D01*
X179118275Y-81339095D01*
X179118286Y-81339110D01*
X179121533Y-81342911D01*
X179121535Y-81342911D01*
X179685766Y-80778679D01*
X179729316Y-80860822D01*
X179849009Y-81001735D01*
X179996195Y-81113623D01*
X180038402Y-81133150D01*
X179475087Y-81696464D01*
X179475087Y-81696465D01*
X179478888Y-81699712D01*
X179478898Y-81699719D01*
X179696984Y-81833363D01*
X179696987Y-81833365D01*
X179933297Y-81931247D01*
X180182011Y-81990957D01*
X180182010Y-81990957D01*
X180437000Y-82011024D01*
X180691989Y-81990957D01*
X180940702Y-81931247D01*
X181177012Y-81833365D01*
X181177015Y-81833363D01*
X181395103Y-81699719D01*
X181398912Y-81696464D01*
X180835609Y-81133161D01*
X180954431Y-81061669D01*
X181088658Y-80934523D01*
X181191861Y-80782308D01*
X181752464Y-81342912D01*
X181755719Y-81339103D01*
X181889363Y-81121015D01*
X181889365Y-81121012D01*
X181987247Y-80884702D01*
X182046957Y-80635989D01*
X182067024Y-80381000D01*
X182046957Y-80126010D01*
X181987247Y-79877297D01*
X181889365Y-79640987D01*
X181889363Y-79640984D01*
X181755719Y-79422898D01*
X181755712Y-79422888D01*
X181752465Y-79419087D01*
X181752464Y-79419087D01*
X181188232Y-79983319D01*
X181144684Y-79901178D01*
X181024991Y-79760265D01*
X180877805Y-79648377D01*
X180835597Y-79628849D01*
X181398911Y-79065535D01*
X181398911Y-79065533D01*
X181395110Y-79062286D01*
X181395095Y-79062275D01*
X181177015Y-78928636D01*
X181177012Y-78928634D01*
X180940702Y-78830752D01*
X180691988Y-78771042D01*
X180691989Y-78771042D01*
X180437000Y-78750975D01*
X180182010Y-78771042D01*
X179933297Y-78830752D01*
X179696987Y-78928634D01*
X179696984Y-78928636D01*
X179478897Y-79062280D01*
X179475087Y-79065534D01*
X180038390Y-79628837D01*
X179919569Y-79700331D01*
X179785342Y-79827477D01*
X179682138Y-79979691D01*
X179121534Y-79419087D01*
X179118280Y-79422897D01*
X178984636Y-79640984D01*
X178984634Y-79640987D01*
X178886752Y-79877297D01*
X178827042Y-80126010D01*
X178806975Y-80381000D01*
X176987024Y-80381000D01*
X176966957Y-80126010D01*
X176907247Y-79877297D01*
X176809365Y-79640987D01*
X176809363Y-79640984D01*
X176675719Y-79422898D01*
X176675712Y-79422888D01*
X176672465Y-79419087D01*
X176672464Y-79419087D01*
X176108232Y-79983319D01*
X176064684Y-79901178D01*
X175944991Y-79760265D01*
X175797805Y-79648377D01*
X175755597Y-79628849D01*
X176318911Y-79065535D01*
X176318911Y-79065533D01*
X176315110Y-79062286D01*
X176315095Y-79062275D01*
X176097015Y-78928636D01*
X176097012Y-78928634D01*
X175860702Y-78830752D01*
X175611988Y-78771042D01*
X175611989Y-78771042D01*
X175357000Y-78750975D01*
X175102010Y-78771042D01*
X174853297Y-78830752D01*
X174616987Y-78928634D01*
X174616984Y-78928636D01*
X174398897Y-79062280D01*
X174395087Y-79065534D01*
X174958390Y-79628837D01*
X174839569Y-79700331D01*
X174705342Y-79827477D01*
X174602138Y-79979691D01*
X174041534Y-79419087D01*
X174038280Y-79422897D01*
X173904636Y-79640984D01*
X173904634Y-79640987D01*
X173806752Y-79877297D01*
X173747042Y-80126010D01*
X173726975Y-80380999D01*
X168888759Y-80380999D01*
X168755719Y-80163898D01*
X168755712Y-80163888D01*
X168752465Y-80160087D01*
X168752464Y-80160087D01*
X168188232Y-80724319D01*
X168144684Y-80642178D01*
X168024991Y-80501265D01*
X167877805Y-80389377D01*
X167835596Y-80369849D01*
X168398911Y-79806535D01*
X168398911Y-79806533D01*
X168395110Y-79803286D01*
X168395095Y-79803275D01*
X168177015Y-79669636D01*
X168177012Y-79669634D01*
X167940702Y-79571752D01*
X167691988Y-79512042D01*
X167691989Y-79512042D01*
X167437000Y-79491975D01*
X167182010Y-79512042D01*
X166933297Y-79571752D01*
X166696987Y-79669634D01*
X166696984Y-79669636D01*
X166478897Y-79803280D01*
X166475087Y-79806534D01*
X167038390Y-80369838D01*
X166919569Y-80441331D01*
X166785342Y-80568477D01*
X166682138Y-80720691D01*
X166121534Y-80160087D01*
X166118280Y-80163897D01*
X165984636Y-80381984D01*
X165984634Y-80381987D01*
X165886752Y-80618297D01*
X165827042Y-80867010D01*
X165806975Y-81122000D01*
X163987024Y-81122000D01*
X163966957Y-80867010D01*
X163907247Y-80618297D01*
X163809365Y-80381987D01*
X163809363Y-80381984D01*
X163675719Y-80163898D01*
X163675712Y-80163888D01*
X163672465Y-80160087D01*
X163672464Y-80160087D01*
X163108232Y-80724319D01*
X163064684Y-80642178D01*
X162944991Y-80501265D01*
X162797805Y-80389377D01*
X162755596Y-80369849D01*
X163318911Y-79806535D01*
X163318911Y-79806533D01*
X163315110Y-79803286D01*
X163315095Y-79803275D01*
X163097015Y-79669636D01*
X163097012Y-79669634D01*
X162860702Y-79571752D01*
X162611988Y-79512042D01*
X162611989Y-79512042D01*
X162357000Y-79491975D01*
X162102010Y-79512042D01*
X161853297Y-79571752D01*
X161616987Y-79669634D01*
X161616984Y-79669636D01*
X161398897Y-79803280D01*
X161395087Y-79806534D01*
X161958390Y-80369838D01*
X161839569Y-80441331D01*
X161705342Y-80568477D01*
X161602138Y-80720691D01*
X161041534Y-80160087D01*
X161038280Y-80163897D01*
X160904636Y-80381984D01*
X160904634Y-80381987D01*
X160806752Y-80618297D01*
X160747042Y-80867010D01*
X160726975Y-81122000D01*
X71913800Y-81122000D01*
X71914980Y-76000000D01*
X91915841Y-76000000D01*
X91936436Y-76235403D01*
X91936438Y-76235413D01*
X91997594Y-76463655D01*
X91997596Y-76463659D01*
X91997597Y-76463663D01*
X92068850Y-76616465D01*
X92097465Y-76677830D01*
X92097467Y-76677834D01*
X92150355Y-76753365D01*
X92233001Y-76871396D01*
X92233006Y-76871402D01*
X92354930Y-76993326D01*
X92388415Y-77054649D01*
X92383431Y-77124341D01*
X92341559Y-77180274D01*
X92310583Y-77197189D01*
X92179169Y-77246203D01*
X92179164Y-77246206D01*
X92063955Y-77332452D01*
X92063952Y-77332455D01*
X91977706Y-77447664D01*
X91977702Y-77447671D01*
X91927408Y-77582517D01*
X91921001Y-77642116D01*
X91921001Y-77642123D01*
X91921000Y-77642135D01*
X91921000Y-79437870D01*
X91921001Y-79437876D01*
X91927408Y-79497483D01*
X91977702Y-79632328D01*
X91977706Y-79632335D01*
X92063952Y-79747544D01*
X92063955Y-79747547D01*
X92179164Y-79833793D01*
X92179171Y-79833797D01*
X92314017Y-79884091D01*
X92314016Y-79884091D01*
X92320944Y-79884835D01*
X92373627Y-79890500D01*
X94169372Y-79890499D01*
X94228983Y-79884091D01*
X94363831Y-79833796D01*
X94479046Y-79747546D01*
X94565296Y-79632331D01*
X94615591Y-79497483D01*
X94622000Y-79437873D01*
X94621999Y-77840999D01*
X176366783Y-77840999D01*
X176385623Y-78080382D01*
X176441674Y-78313853D01*
X176441678Y-78313865D01*
X176533565Y-78535702D01*
X176659026Y-78740436D01*
X176659028Y-78740439D01*
X176814973Y-78923027D01*
X176997561Y-79078972D01*
X176997563Y-79078973D01*
X177202297Y-79204434D01*
X177299047Y-79244508D01*
X177424137Y-79296323D01*
X177657621Y-79352377D01*
X177897000Y-79371217D01*
X178136379Y-79352377D01*
X178369863Y-79296323D01*
X178591704Y-79204433D01*
X178796439Y-79078972D01*
X178979027Y-78923027D01*
X179134972Y-78740439D01*
X179260433Y-78535704D01*
X179352323Y-78313863D01*
X179408377Y-78080379D01*
X179427217Y-77841000D01*
X179408377Y-77601621D01*
X179352323Y-77368137D01*
X179281514Y-77197189D01*
X179260434Y-77146297D01*
X179134973Y-76941563D01*
X179134972Y-76941561D01*
X178979027Y-76758973D01*
X178796439Y-76603028D01*
X178796436Y-76603026D01*
X178591702Y-76477565D01*
X178369865Y-76385678D01*
X178369867Y-76385678D01*
X178369863Y-76385677D01*
X178369859Y-76385676D01*
X178369853Y-76385674D01*
X178136382Y-76329623D01*
X177897000Y-76310783D01*
X177657617Y-76329623D01*
X177424146Y-76385674D01*
X177424134Y-76385678D01*
X177202297Y-76477565D01*
X176997563Y-76603026D01*
X176814973Y-76758973D01*
X176659026Y-76941563D01*
X176533565Y-77146297D01*
X176441678Y-77368134D01*
X176441674Y-77368146D01*
X176385623Y-77601617D01*
X176366783Y-77840999D01*
X94621999Y-77840999D01*
X94621999Y-77642128D01*
X94615591Y-77582517D01*
X94565296Y-77447669D01*
X94565295Y-77447668D01*
X94565293Y-77447664D01*
X94479047Y-77332455D01*
X94479044Y-77332452D01*
X94363835Y-77246206D01*
X94363828Y-77246202D01*
X94232417Y-77197189D01*
X94176483Y-77155318D01*
X94152066Y-77089853D01*
X94166918Y-77021580D01*
X94188063Y-76993332D01*
X94309995Y-76871401D01*
X94445535Y-76677830D01*
X94545403Y-76463663D01*
X94606563Y-76235408D01*
X94627159Y-76000000D01*
X94606563Y-75764592D01*
X94545403Y-75536337D01*
X94445535Y-75322171D01*
X94445416Y-75322000D01*
X94309994Y-75128597D01*
X94142902Y-74961506D01*
X94142896Y-74961501D01*
X93957342Y-74831575D01*
X93913717Y-74776998D01*
X93906523Y-74707500D01*
X93938046Y-74645145D01*
X93957342Y-74628425D01*
X94053653Y-74560987D01*
X94142901Y-74498495D01*
X94169396Y-74472000D01*
X160726975Y-74472000D01*
X160747042Y-74726989D01*
X160806752Y-74975702D01*
X160904634Y-75212012D01*
X160904636Y-75212015D01*
X161038275Y-75430095D01*
X161038286Y-75430110D01*
X161041533Y-75433911D01*
X161041535Y-75433911D01*
X161605766Y-74869679D01*
X161649316Y-74951822D01*
X161769009Y-75092735D01*
X161916195Y-75204623D01*
X161958402Y-75224150D01*
X161395087Y-75787464D01*
X161395087Y-75787465D01*
X161398888Y-75790712D01*
X161398898Y-75790719D01*
X161616984Y-75924363D01*
X161616987Y-75924365D01*
X161853297Y-76022247D01*
X162102011Y-76081957D01*
X162102010Y-76081957D01*
X162356999Y-76102024D01*
X162611989Y-76081957D01*
X162860702Y-76022247D01*
X163097012Y-75924365D01*
X163097015Y-75924363D01*
X163315103Y-75790719D01*
X163318912Y-75787464D01*
X162755609Y-75224161D01*
X162874431Y-75152669D01*
X163008658Y-75025523D01*
X163111861Y-74873309D01*
X163672464Y-75433912D01*
X163675719Y-75430103D01*
X163809363Y-75212015D01*
X163809365Y-75212012D01*
X163907247Y-74975702D01*
X163966957Y-74726989D01*
X163987024Y-74472000D01*
X165806975Y-74472000D01*
X165827042Y-74726989D01*
X165886752Y-74975702D01*
X165984634Y-75212012D01*
X165984636Y-75212015D01*
X166118275Y-75430095D01*
X166118286Y-75430110D01*
X166121533Y-75433911D01*
X166121535Y-75433911D01*
X166685766Y-74869679D01*
X166729316Y-74951822D01*
X166849009Y-75092735D01*
X166996195Y-75204623D01*
X167038402Y-75224150D01*
X166475087Y-75787464D01*
X166475087Y-75787465D01*
X166478888Y-75790712D01*
X166478898Y-75790719D01*
X166696984Y-75924363D01*
X166696987Y-75924365D01*
X166933297Y-76022247D01*
X167182011Y-76081957D01*
X167182010Y-76081957D01*
X167436999Y-76102024D01*
X167691989Y-76081957D01*
X167940702Y-76022247D01*
X168177012Y-75924365D01*
X168177015Y-75924363D01*
X168395103Y-75790719D01*
X168398912Y-75787464D01*
X167835609Y-75224161D01*
X167954431Y-75152669D01*
X168088658Y-75025523D01*
X168191861Y-74873309D01*
X168752464Y-75433912D01*
X168755719Y-75430103D01*
X168834834Y-75300999D01*
X173726975Y-75300999D01*
X173747042Y-75555989D01*
X173806752Y-75804702D01*
X173904634Y-76041012D01*
X173904636Y-76041015D01*
X174038275Y-76259095D01*
X174038286Y-76259110D01*
X174041533Y-76262911D01*
X174041535Y-76262911D01*
X174605766Y-75698679D01*
X174649316Y-75780822D01*
X174769009Y-75921735D01*
X174916195Y-76033623D01*
X174958402Y-76053150D01*
X174395087Y-76616464D01*
X174395087Y-76616465D01*
X174398888Y-76619712D01*
X174398898Y-76619719D01*
X174616984Y-76753363D01*
X174616987Y-76753365D01*
X174853297Y-76851247D01*
X175102011Y-76910957D01*
X175102010Y-76910957D01*
X175357000Y-76931024D01*
X175611989Y-76910957D01*
X175860702Y-76851247D01*
X176097012Y-76753365D01*
X176097015Y-76753363D01*
X176315103Y-76619719D01*
X176318912Y-76616464D01*
X175755609Y-76053161D01*
X175874431Y-75981669D01*
X176008658Y-75854523D01*
X176111861Y-75702308D01*
X176672464Y-76262912D01*
X176675719Y-76259103D01*
X176809363Y-76041015D01*
X176809365Y-76041012D01*
X176907247Y-75804702D01*
X176966957Y-75555989D01*
X176987024Y-75301000D01*
X178806975Y-75301000D01*
X178827042Y-75555989D01*
X178886752Y-75804702D01*
X178984634Y-76041012D01*
X178984636Y-76041015D01*
X179118275Y-76259095D01*
X179118286Y-76259110D01*
X179121533Y-76262911D01*
X179121535Y-76262911D01*
X179685766Y-75698679D01*
X179729316Y-75780822D01*
X179849009Y-75921735D01*
X179996195Y-76033623D01*
X180038402Y-76053150D01*
X179475087Y-76616464D01*
X179475087Y-76616465D01*
X179478888Y-76619712D01*
X179478898Y-76619719D01*
X179696984Y-76753363D01*
X179696987Y-76753365D01*
X179933297Y-76851247D01*
X180182011Y-76910957D01*
X180182010Y-76910957D01*
X180437000Y-76931024D01*
X180691989Y-76910957D01*
X180940702Y-76851247D01*
X181177012Y-76753365D01*
X181177015Y-76753363D01*
X181395103Y-76619719D01*
X181398912Y-76616464D01*
X180835609Y-76053161D01*
X180954431Y-75981669D01*
X181088658Y-75854523D01*
X181191861Y-75702308D01*
X181752464Y-76262912D01*
X181755719Y-76259103D01*
X181889363Y-76041015D01*
X181889365Y-76041012D01*
X181987247Y-75804702D01*
X182046957Y-75555989D01*
X182067024Y-75301000D01*
X182046957Y-75046010D01*
X181987247Y-74797297D01*
X181889365Y-74560987D01*
X181889363Y-74560984D01*
X181755719Y-74342898D01*
X181755712Y-74342888D01*
X181752465Y-74339087D01*
X181752464Y-74339087D01*
X181188232Y-74903319D01*
X181144684Y-74821178D01*
X181024991Y-74680265D01*
X180877805Y-74568377D01*
X180835597Y-74548849D01*
X181398911Y-73985535D01*
X181398911Y-73985533D01*
X181395110Y-73982286D01*
X181395095Y-73982275D01*
X181177015Y-73848636D01*
X181177012Y-73848634D01*
X180940702Y-73750752D01*
X180691988Y-73691042D01*
X180691989Y-73691042D01*
X180436999Y-73670975D01*
X180182010Y-73691042D01*
X179933297Y-73750752D01*
X179696987Y-73848634D01*
X179696984Y-73848636D01*
X179478897Y-73982280D01*
X179475087Y-73985534D01*
X180038390Y-74548837D01*
X179919569Y-74620331D01*
X179785342Y-74747477D01*
X179682138Y-74899691D01*
X179121534Y-74339087D01*
X179118280Y-74342897D01*
X178984636Y-74560984D01*
X178984634Y-74560987D01*
X178886752Y-74797297D01*
X178827042Y-75046010D01*
X178806975Y-75301000D01*
X176987024Y-75301000D01*
X176966957Y-75046010D01*
X176907247Y-74797297D01*
X176809365Y-74560987D01*
X176809363Y-74560984D01*
X176675719Y-74342898D01*
X176675712Y-74342888D01*
X176672465Y-74339087D01*
X176672464Y-74339087D01*
X176108232Y-74903319D01*
X176064684Y-74821178D01*
X175944991Y-74680265D01*
X175797805Y-74568377D01*
X175755597Y-74548849D01*
X176318911Y-73985535D01*
X176318911Y-73985533D01*
X176315110Y-73982286D01*
X176315095Y-73982275D01*
X176097015Y-73848636D01*
X176097012Y-73848634D01*
X175860702Y-73750752D01*
X175611988Y-73691042D01*
X175611989Y-73691042D01*
X175356999Y-73670975D01*
X175102010Y-73691042D01*
X174853297Y-73750752D01*
X174616987Y-73848634D01*
X174616984Y-73848636D01*
X174398897Y-73982280D01*
X174395087Y-73985534D01*
X174958390Y-74548837D01*
X174839569Y-74620331D01*
X174705342Y-74747477D01*
X174602138Y-74899691D01*
X174041534Y-74339087D01*
X174038280Y-74342897D01*
X173904636Y-74560984D01*
X173904634Y-74560987D01*
X173806752Y-74797297D01*
X173747042Y-75046010D01*
X173726975Y-75300999D01*
X168834834Y-75300999D01*
X168889363Y-75212015D01*
X168889365Y-75212012D01*
X168987247Y-74975702D01*
X169046957Y-74726989D01*
X169067024Y-74472000D01*
X169046957Y-74217010D01*
X168987247Y-73968297D01*
X168889365Y-73731987D01*
X168889363Y-73731984D01*
X168755719Y-73513898D01*
X168755712Y-73513888D01*
X168752465Y-73510087D01*
X168752464Y-73510087D01*
X168188232Y-74074319D01*
X168144684Y-73992178D01*
X168024991Y-73851265D01*
X167877805Y-73739377D01*
X167835597Y-73719849D01*
X168398911Y-73156535D01*
X168398911Y-73156533D01*
X168395110Y-73153286D01*
X168395095Y-73153275D01*
X168177015Y-73019636D01*
X168177012Y-73019634D01*
X167940702Y-72921752D01*
X167691988Y-72862042D01*
X167691989Y-72862042D01*
X167437000Y-72841975D01*
X167182010Y-72862042D01*
X166933297Y-72921752D01*
X166696987Y-73019634D01*
X166696984Y-73019636D01*
X166478897Y-73153280D01*
X166475087Y-73156534D01*
X167038390Y-73719837D01*
X166919569Y-73791331D01*
X166785342Y-73918477D01*
X166682138Y-74070691D01*
X166121534Y-73510087D01*
X166118280Y-73513897D01*
X165984636Y-73731984D01*
X165984634Y-73731987D01*
X165886752Y-73968297D01*
X165827042Y-74217010D01*
X165806975Y-74472000D01*
X163987024Y-74472000D01*
X163966957Y-74217010D01*
X163907247Y-73968297D01*
X163809365Y-73731987D01*
X163809363Y-73731984D01*
X163675719Y-73513898D01*
X163675712Y-73513888D01*
X163672465Y-73510087D01*
X163672464Y-73510087D01*
X163108232Y-74074319D01*
X163064684Y-73992178D01*
X162944991Y-73851265D01*
X162797805Y-73739377D01*
X162755597Y-73719849D01*
X163318911Y-73156535D01*
X163318911Y-73156533D01*
X163315110Y-73153286D01*
X163315095Y-73153275D01*
X163097015Y-73019636D01*
X163097012Y-73019634D01*
X162860702Y-72921752D01*
X162611988Y-72862042D01*
X162611989Y-72862042D01*
X162357000Y-72841975D01*
X162102010Y-72862042D01*
X161853297Y-72921752D01*
X161616987Y-73019634D01*
X161616984Y-73019636D01*
X161398897Y-73153280D01*
X161395087Y-73156534D01*
X161958390Y-73719837D01*
X161839569Y-73791331D01*
X161705342Y-73918477D01*
X161602138Y-74070691D01*
X161041534Y-73510087D01*
X161038280Y-73513897D01*
X160904636Y-73731984D01*
X160904634Y-73731987D01*
X160806752Y-73968297D01*
X160747042Y-74217010D01*
X160726975Y-74472000D01*
X94169396Y-74472000D01*
X94309995Y-74331401D01*
X94445535Y-74137830D01*
X94545403Y-73923663D01*
X94606563Y-73695408D01*
X94627159Y-73460000D01*
X94606563Y-73224592D01*
X94545403Y-72996337D01*
X94445535Y-72782171D01*
X94407047Y-72727203D01*
X94309994Y-72588597D01*
X94142902Y-72421506D01*
X94142895Y-72421501D01*
X94128389Y-72411344D01*
X94104021Y-72394281D01*
X93949334Y-72285967D01*
X93949330Y-72285965D01*
X93949329Y-72285964D01*
X93735163Y-72186097D01*
X93735159Y-72186096D01*
X93735155Y-72186094D01*
X93506913Y-72124938D01*
X93506903Y-72124936D01*
X93271501Y-72104341D01*
X93271499Y-72104341D01*
X93036096Y-72124936D01*
X93036086Y-72124938D01*
X92807844Y-72186094D01*
X92807835Y-72186098D01*
X92593671Y-72285964D01*
X92593669Y-72285965D01*
X92400097Y-72421505D01*
X92233005Y-72588597D01*
X92097465Y-72782169D01*
X92097464Y-72782171D01*
X91997598Y-72996335D01*
X91997594Y-72996344D01*
X91936438Y-73224586D01*
X91936436Y-73224596D01*
X91915841Y-73459999D01*
X91915841Y-73460000D01*
X91936436Y-73695403D01*
X91936438Y-73695413D01*
X91997594Y-73923655D01*
X91997596Y-73923659D01*
X91997597Y-73923663D01*
X92066537Y-74071505D01*
X92097465Y-74137830D01*
X92097467Y-74137834D01*
X92233001Y-74331395D01*
X92233006Y-74331402D01*
X92400097Y-74498493D01*
X92400103Y-74498498D01*
X92585658Y-74628425D01*
X92629283Y-74683002D01*
X92636477Y-74752500D01*
X92604954Y-74814855D01*
X92585658Y-74831575D01*
X92400097Y-74961505D01*
X92233005Y-75128597D01*
X92097465Y-75322169D01*
X92097464Y-75322171D01*
X91997598Y-75536335D01*
X91997594Y-75536344D01*
X91936438Y-75764586D01*
X91936436Y-75764596D01*
X91915841Y-75999999D01*
X91915841Y-76000000D01*
X71914980Y-76000000D01*
X71916142Y-70960005D01*
X82765305Y-70960005D01*
X82784052Y-71186258D01*
X82784054Y-71186270D01*
X82839789Y-71406361D01*
X82930990Y-71614279D01*
X83010487Y-71735959D01*
X83618299Y-71128147D01*
X83621640Y-71144225D01*
X83690565Y-71277246D01*
X83792823Y-71386737D01*
X83920830Y-71464580D01*
X83974058Y-71479493D01*
X83345412Y-72108138D01*
X83344236Y-72113311D01*
X83294364Y-72162246D01*
X83274978Y-72170560D01*
X83200672Y-72195183D01*
X83200663Y-72195187D01*
X83051342Y-72287289D01*
X82927289Y-72411342D01*
X82835187Y-72560663D01*
X82835185Y-72560668D01*
X82825930Y-72588599D01*
X82780001Y-72727203D01*
X82780001Y-72727204D01*
X82780000Y-72727204D01*
X82769500Y-72829983D01*
X82769500Y-74170001D01*
X82769501Y-74170018D01*
X82780000Y-74272796D01*
X82780001Y-74272799D01*
X82835185Y-74439331D01*
X82835187Y-74439336D01*
X82851620Y-74465978D01*
X82927288Y-74588656D01*
X83051344Y-74712712D01*
X83200666Y-74804814D01*
X83367203Y-74859999D01*
X83469991Y-74870500D01*
X84810008Y-74870499D01*
X84912797Y-74859999D01*
X85079334Y-74804814D01*
X85228656Y-74712712D01*
X85352712Y-74588656D01*
X85444814Y-74439334D01*
X85499999Y-74272797D01*
X85510500Y-74170009D01*
X85510499Y-72829992D01*
X85499999Y-72727203D01*
X85444814Y-72560666D01*
X85352712Y-72411344D01*
X85228656Y-72287288D01*
X85079334Y-72195186D01*
X85017108Y-72174566D01*
X85005021Y-72170561D01*
X84947576Y-72130787D01*
X84940702Y-72114254D01*
X84307768Y-71481320D01*
X84425836Y-71430037D01*
X84542050Y-71335489D01*
X84628447Y-71213093D01*
X84659439Y-71125887D01*
X85269511Y-71735959D01*
X85349005Y-71614286D01*
X85349010Y-71614278D01*
X85440210Y-71406361D01*
X85495945Y-71186270D01*
X85495947Y-71186258D01*
X85508066Y-71040000D01*
X104479975Y-71040000D01*
X104500042Y-71294989D01*
X104559752Y-71543702D01*
X104657634Y-71780012D01*
X104657636Y-71780015D01*
X104791275Y-71998095D01*
X104791286Y-71998110D01*
X104794533Y-72001911D01*
X104794535Y-72001911D01*
X105358766Y-71437679D01*
X105402316Y-71519822D01*
X105522009Y-71660735D01*
X105669195Y-71772623D01*
X105711402Y-71792150D01*
X105148087Y-72355464D01*
X105148087Y-72355465D01*
X105151888Y-72358712D01*
X105151898Y-72358719D01*
X105369984Y-72492363D01*
X105369987Y-72492365D01*
X105606297Y-72590247D01*
X105855011Y-72649957D01*
X105855010Y-72649957D01*
X106110000Y-72670024D01*
X106364989Y-72649957D01*
X106613702Y-72590247D01*
X106850012Y-72492365D01*
X106850015Y-72492363D01*
X107068103Y-72358719D01*
X107071912Y-72355464D01*
X106508609Y-71792161D01*
X106627431Y-71720669D01*
X106761658Y-71593523D01*
X106864861Y-71441308D01*
X107425464Y-72001912D01*
X107428719Y-71998103D01*
X107562363Y-71780015D01*
X107562365Y-71780012D01*
X107660247Y-71543702D01*
X107719957Y-71294989D01*
X107740024Y-71040000D01*
X109559975Y-71040000D01*
X109580042Y-71294989D01*
X109639752Y-71543702D01*
X109737634Y-71780012D01*
X109737636Y-71780015D01*
X109871275Y-71998095D01*
X109871286Y-71998110D01*
X109874533Y-72001911D01*
X109874535Y-72001911D01*
X110438766Y-71437679D01*
X110482316Y-71519822D01*
X110602009Y-71660735D01*
X110749195Y-71772623D01*
X110791402Y-71792150D01*
X110228087Y-72355464D01*
X110228087Y-72355465D01*
X110231888Y-72358712D01*
X110231898Y-72358719D01*
X110449984Y-72492363D01*
X110449987Y-72492365D01*
X110686297Y-72590247D01*
X110935011Y-72649957D01*
X110935010Y-72649957D01*
X111190000Y-72670024D01*
X111444989Y-72649957D01*
X111693702Y-72590247D01*
X111930012Y-72492365D01*
X111930015Y-72492363D01*
X112148103Y-72358719D01*
X112151912Y-72355464D01*
X111588609Y-71792161D01*
X111707431Y-71720669D01*
X111841658Y-71593523D01*
X111944861Y-71441309D01*
X112505464Y-72001912D01*
X112508719Y-71998103D01*
X112642363Y-71780015D01*
X112642365Y-71780012D01*
X112740247Y-71543702D01*
X112799957Y-71294989D01*
X112820024Y-71040000D01*
X135535975Y-71040000D01*
X135556042Y-71294989D01*
X135615752Y-71543702D01*
X135713634Y-71780012D01*
X135713636Y-71780015D01*
X135847275Y-71998095D01*
X135847286Y-71998110D01*
X135850533Y-72001911D01*
X135850535Y-72001911D01*
X136414766Y-71437679D01*
X136458316Y-71519822D01*
X136578009Y-71660735D01*
X136725195Y-71772623D01*
X136767402Y-71792150D01*
X136204087Y-72355464D01*
X136204087Y-72355465D01*
X136207888Y-72358712D01*
X136207898Y-72358719D01*
X136425984Y-72492363D01*
X136425987Y-72492365D01*
X136662297Y-72590247D01*
X136911011Y-72649957D01*
X136911010Y-72649957D01*
X137166000Y-72670024D01*
X137420989Y-72649957D01*
X137669702Y-72590247D01*
X137906012Y-72492365D01*
X137906015Y-72492363D01*
X138124103Y-72358719D01*
X138127912Y-72355464D01*
X137564609Y-71792161D01*
X137683431Y-71720669D01*
X137817658Y-71593523D01*
X137920861Y-71441309D01*
X138481464Y-72001912D01*
X138484719Y-71998103D01*
X138618363Y-71780015D01*
X138618365Y-71780012D01*
X138716247Y-71543702D01*
X138775957Y-71294989D01*
X138796024Y-71040000D01*
X140615975Y-71040000D01*
X140636042Y-71294989D01*
X140695752Y-71543702D01*
X140793634Y-71780012D01*
X140793636Y-71780015D01*
X140927275Y-71998095D01*
X140927286Y-71998110D01*
X140930533Y-72001911D01*
X140930535Y-72001911D01*
X141494766Y-71437679D01*
X141538316Y-71519822D01*
X141658009Y-71660735D01*
X141805195Y-71772623D01*
X141847402Y-71792150D01*
X141284087Y-72355464D01*
X141284087Y-72355465D01*
X141287888Y-72358712D01*
X141287898Y-72358719D01*
X141505984Y-72492363D01*
X141505987Y-72492365D01*
X141742297Y-72590247D01*
X141991011Y-72649957D01*
X141991010Y-72649957D01*
X142246000Y-72670024D01*
X142500989Y-72649957D01*
X142749702Y-72590247D01*
X142986012Y-72492365D01*
X142986015Y-72492363D01*
X143204103Y-72358719D01*
X143207912Y-72355464D01*
X142644609Y-71792161D01*
X142763431Y-71720669D01*
X142897658Y-71593523D01*
X143000861Y-71441309D01*
X143561464Y-72001912D01*
X143564719Y-71998103D01*
X143605227Y-71931999D01*
X163366783Y-71931999D01*
X163385623Y-72171382D01*
X163441674Y-72404853D01*
X163441678Y-72404865D01*
X163533565Y-72626702D01*
X163658136Y-72829983D01*
X163659028Y-72831439D01*
X163814973Y-73014027D01*
X163997561Y-73169972D01*
X163997563Y-73169973D01*
X164202297Y-73295434D01*
X164299047Y-73335508D01*
X164424137Y-73387323D01*
X164657621Y-73443377D01*
X164897000Y-73462217D01*
X165136379Y-73443377D01*
X165369863Y-73387323D01*
X165591704Y-73295433D01*
X165796439Y-73169972D01*
X165979027Y-73014027D01*
X166134972Y-72831439D01*
X166260433Y-72626704D01*
X166352323Y-72404863D01*
X166408377Y-72171379D01*
X166427217Y-71932000D01*
X166408377Y-71692621D01*
X166352323Y-71459137D01*
X166292020Y-71313553D01*
X166260434Y-71237297D01*
X166139531Y-71040001D01*
X166134972Y-71032561D01*
X165979027Y-70849973D01*
X165796439Y-70694028D01*
X165784068Y-70686447D01*
X165591702Y-70568565D01*
X165369865Y-70476678D01*
X165369867Y-70476678D01*
X165369863Y-70476677D01*
X165369859Y-70476676D01*
X165369853Y-70476674D01*
X165136382Y-70420623D01*
X164956844Y-70406493D01*
X164897000Y-70401783D01*
X164896999Y-70401783D01*
X164657617Y-70420623D01*
X164424146Y-70476674D01*
X164424134Y-70476678D01*
X164202297Y-70568565D01*
X163997563Y-70694026D01*
X163814973Y-70849973D01*
X163659026Y-71032563D01*
X163533565Y-71237297D01*
X163441678Y-71459134D01*
X163441674Y-71459146D01*
X163385623Y-71692617D01*
X163366783Y-71931999D01*
X143605227Y-71931999D01*
X143698363Y-71780015D01*
X143698365Y-71780012D01*
X143796247Y-71543702D01*
X143855957Y-71294989D01*
X143876024Y-71040000D01*
X143855957Y-70785010D01*
X143796247Y-70536297D01*
X143698365Y-70299987D01*
X143698363Y-70299984D01*
X143564719Y-70081898D01*
X143564712Y-70081888D01*
X143561465Y-70078087D01*
X143561464Y-70078087D01*
X142997232Y-70642319D01*
X142953684Y-70560178D01*
X142833991Y-70419265D01*
X142686805Y-70307377D01*
X142644597Y-70287849D01*
X143207911Y-69724535D01*
X143207911Y-69724533D01*
X143204110Y-69721286D01*
X143204095Y-69721275D01*
X142986015Y-69587636D01*
X142986012Y-69587634D01*
X142749702Y-69489752D01*
X142500988Y-69430042D01*
X142500989Y-69430042D01*
X142245999Y-69409975D01*
X141991010Y-69430042D01*
X141742297Y-69489752D01*
X141505987Y-69587634D01*
X141505984Y-69587636D01*
X141287897Y-69721280D01*
X141284087Y-69724534D01*
X141847390Y-70287837D01*
X141728569Y-70359331D01*
X141594342Y-70486477D01*
X141491138Y-70638691D01*
X140930534Y-70078087D01*
X140927280Y-70081897D01*
X140793636Y-70299984D01*
X140793634Y-70299987D01*
X140695752Y-70536297D01*
X140636042Y-70785010D01*
X140615975Y-71040000D01*
X138796024Y-71040000D01*
X138775957Y-70785010D01*
X138716247Y-70536297D01*
X138618365Y-70299987D01*
X138618363Y-70299984D01*
X138484719Y-70081898D01*
X138484712Y-70081888D01*
X138481465Y-70078087D01*
X138481464Y-70078087D01*
X137917232Y-70642319D01*
X137873684Y-70560178D01*
X137753991Y-70419265D01*
X137606805Y-70307377D01*
X137564597Y-70287849D01*
X138127911Y-69724535D01*
X138127911Y-69724533D01*
X138124110Y-69721286D01*
X138124095Y-69721275D01*
X137906015Y-69587636D01*
X137906012Y-69587634D01*
X137669702Y-69489752D01*
X137420988Y-69430042D01*
X137420989Y-69430042D01*
X137165999Y-69409975D01*
X136911010Y-69430042D01*
X136662297Y-69489752D01*
X136425987Y-69587634D01*
X136425984Y-69587636D01*
X136207897Y-69721280D01*
X136204087Y-69724534D01*
X136767390Y-70287837D01*
X136648569Y-70359331D01*
X136514342Y-70486477D01*
X136411138Y-70638691D01*
X135850534Y-70078087D01*
X135847280Y-70081897D01*
X135713636Y-70299984D01*
X135713634Y-70299987D01*
X135615752Y-70536297D01*
X135556042Y-70785010D01*
X135535975Y-71040000D01*
X112820024Y-71040000D01*
X112799957Y-70785010D01*
X112740247Y-70536297D01*
X112642365Y-70299987D01*
X112642363Y-70299984D01*
X112508719Y-70081898D01*
X112508712Y-70081888D01*
X112505465Y-70078087D01*
X112505464Y-70078087D01*
X111941232Y-70642319D01*
X111897684Y-70560178D01*
X111777991Y-70419265D01*
X111630805Y-70307377D01*
X111588597Y-70287849D01*
X112151911Y-69724535D01*
X112151911Y-69724533D01*
X112148110Y-69721286D01*
X112148095Y-69721275D01*
X111930015Y-69587636D01*
X111930012Y-69587634D01*
X111693702Y-69489752D01*
X111444988Y-69430042D01*
X111444989Y-69430042D01*
X111189999Y-69409975D01*
X110935010Y-69430042D01*
X110686297Y-69489752D01*
X110449987Y-69587634D01*
X110449984Y-69587636D01*
X110231897Y-69721280D01*
X110228087Y-69724534D01*
X110791390Y-70287837D01*
X110672569Y-70359331D01*
X110538342Y-70486477D01*
X110435138Y-70638691D01*
X109874534Y-70078087D01*
X109871280Y-70081897D01*
X109737636Y-70299984D01*
X109737634Y-70299987D01*
X109639752Y-70536297D01*
X109580042Y-70785010D01*
X109559975Y-71040000D01*
X107740024Y-71040000D01*
X107719957Y-70785010D01*
X107660247Y-70536297D01*
X107562365Y-70299987D01*
X107562363Y-70299984D01*
X107428719Y-70081898D01*
X107428712Y-70081888D01*
X107425465Y-70078087D01*
X107425464Y-70078087D01*
X106861232Y-70642318D01*
X106817684Y-70560178D01*
X106697991Y-70419265D01*
X106550805Y-70307377D01*
X106508597Y-70287849D01*
X107071911Y-69724535D01*
X107071911Y-69724533D01*
X107068110Y-69721286D01*
X107068095Y-69721275D01*
X106850015Y-69587636D01*
X106850012Y-69587634D01*
X106613702Y-69489752D01*
X106364988Y-69430042D01*
X106364989Y-69430042D01*
X106109999Y-69409975D01*
X105855010Y-69430042D01*
X105606297Y-69489752D01*
X105369987Y-69587634D01*
X105369984Y-69587636D01*
X105151897Y-69721280D01*
X105148087Y-69724534D01*
X105711390Y-70287837D01*
X105592569Y-70359331D01*
X105458342Y-70486477D01*
X105355138Y-70638691D01*
X104794534Y-70078087D01*
X104791280Y-70081897D01*
X104657636Y-70299984D01*
X104657634Y-70299987D01*
X104559752Y-70536297D01*
X104500042Y-70785010D01*
X104479975Y-71040000D01*
X85508066Y-71040000D01*
X85514695Y-70960005D01*
X85514695Y-70959994D01*
X85495947Y-70733741D01*
X85495945Y-70733729D01*
X85440210Y-70513638D01*
X85349007Y-70305715D01*
X85269511Y-70184039D01*
X84661700Y-70791850D01*
X84658360Y-70775775D01*
X84589435Y-70642754D01*
X84487177Y-70533263D01*
X84359170Y-70455420D01*
X84305941Y-70440506D01*
X84917420Y-69829025D01*
X84891884Y-69809149D01*
X84891881Y-69809147D01*
X84692215Y-69701094D01*
X84692201Y-69701088D01*
X84477471Y-69627370D01*
X84253520Y-69590000D01*
X84026480Y-69590000D01*
X83802528Y-69627370D01*
X83587798Y-69701088D01*
X83587789Y-69701091D01*
X83388112Y-69809151D01*
X83362577Y-69829025D01*
X83972231Y-70438679D01*
X83854164Y-70489963D01*
X83737950Y-70584511D01*
X83651553Y-70706907D01*
X83620560Y-70794112D01*
X83010486Y-70184039D01*
X82930991Y-70305717D01*
X82839789Y-70513638D01*
X82784054Y-70733729D01*
X82784052Y-70733741D01*
X82765305Y-70959994D01*
X82765305Y-70960005D01*
X71916142Y-70960005D01*
X71916709Y-68500000D01*
X107119783Y-68500000D01*
X107138623Y-68739382D01*
X107194674Y-68972853D01*
X107194678Y-68972865D01*
X107286565Y-69194702D01*
X107407468Y-69391998D01*
X107412028Y-69399439D01*
X107567973Y-69582027D01*
X107750561Y-69737972D01*
X107750563Y-69737973D01*
X107955297Y-69863434D01*
X108033200Y-69895702D01*
X108177137Y-69955323D01*
X108410621Y-70011377D01*
X108650000Y-70030217D01*
X108889379Y-70011377D01*
X109122863Y-69955323D01*
X109344704Y-69863433D01*
X109549439Y-69737972D01*
X109732027Y-69582027D01*
X109887972Y-69399439D01*
X110013433Y-69194704D01*
X110105323Y-68972863D01*
X110161377Y-68739379D01*
X110180217Y-68500000D01*
X110180217Y-68499999D01*
X138175783Y-68499999D01*
X138194623Y-68739382D01*
X138250674Y-68972853D01*
X138250678Y-68972865D01*
X138342565Y-69194702D01*
X138463468Y-69391998D01*
X138468028Y-69399439D01*
X138623973Y-69582027D01*
X138806561Y-69737972D01*
X138806563Y-69737973D01*
X139011297Y-69863434D01*
X139089200Y-69895702D01*
X139233137Y-69955323D01*
X139466621Y-70011377D01*
X139706000Y-70030217D01*
X139945379Y-70011377D01*
X140178863Y-69955323D01*
X140400704Y-69863433D01*
X140605439Y-69737972D01*
X140788027Y-69582027D01*
X140943972Y-69399439D01*
X140948531Y-69392000D01*
X160726975Y-69392000D01*
X160747042Y-69646989D01*
X160806752Y-69895702D01*
X160904634Y-70132012D01*
X160904636Y-70132015D01*
X161038275Y-70350095D01*
X161038286Y-70350110D01*
X161041533Y-70353911D01*
X161041535Y-70353911D01*
X161605766Y-69789679D01*
X161649316Y-69871822D01*
X161769009Y-70012735D01*
X161916195Y-70124623D01*
X161958402Y-70144150D01*
X161395087Y-70707464D01*
X161395087Y-70707465D01*
X161398888Y-70710712D01*
X161398898Y-70710719D01*
X161616984Y-70844363D01*
X161616987Y-70844365D01*
X161853297Y-70942247D01*
X162102011Y-71001957D01*
X162102010Y-71001957D01*
X162357000Y-71022024D01*
X162611989Y-71001957D01*
X162860702Y-70942247D01*
X163097012Y-70844365D01*
X163097015Y-70844363D01*
X163315103Y-70710719D01*
X163318912Y-70707464D01*
X162755609Y-70144161D01*
X162874431Y-70072669D01*
X163008658Y-69945523D01*
X163111861Y-69793309D01*
X163672464Y-70353912D01*
X163675719Y-70350103D01*
X163809363Y-70132015D01*
X163809365Y-70132012D01*
X163907247Y-69895702D01*
X163966957Y-69646989D01*
X163987024Y-69392000D01*
X165806975Y-69392000D01*
X165827042Y-69646989D01*
X165886752Y-69895702D01*
X165984634Y-70132012D01*
X165984636Y-70132015D01*
X166118275Y-70350095D01*
X166118286Y-70350110D01*
X166121533Y-70353911D01*
X166121535Y-70353911D01*
X166685766Y-69789679D01*
X166729316Y-69871822D01*
X166849009Y-70012735D01*
X166996195Y-70124623D01*
X167038402Y-70144150D01*
X166475087Y-70707464D01*
X166475087Y-70707465D01*
X166478888Y-70710712D01*
X166478898Y-70710719D01*
X166696984Y-70844363D01*
X166696987Y-70844365D01*
X166933297Y-70942247D01*
X167182011Y-71001957D01*
X167182010Y-71001957D01*
X167437000Y-71022024D01*
X167691989Y-71001957D01*
X167940702Y-70942247D01*
X168177012Y-70844365D01*
X168177015Y-70844363D01*
X168395103Y-70710719D01*
X168398912Y-70707464D01*
X167835609Y-70144161D01*
X167954431Y-70072669D01*
X168088658Y-69945523D01*
X168191861Y-69793309D01*
X168752464Y-70353912D01*
X168755719Y-70350103D01*
X168889363Y-70132015D01*
X168889365Y-70132012D01*
X168987247Y-69895702D01*
X169046957Y-69646989D01*
X169067024Y-69392000D01*
X169046957Y-69137010D01*
X168987247Y-68888297D01*
X168889365Y-68651987D01*
X168889363Y-68651984D01*
X168755719Y-68433898D01*
X168755712Y-68433888D01*
X168752465Y-68430087D01*
X168752464Y-68430087D01*
X168188232Y-68994319D01*
X168144684Y-68912178D01*
X168024991Y-68771265D01*
X167877805Y-68659377D01*
X167835596Y-68639849D01*
X168398911Y-68076535D01*
X168398911Y-68076533D01*
X168395110Y-68073286D01*
X168395095Y-68073275D01*
X168177015Y-67939636D01*
X168177012Y-67939634D01*
X167940702Y-67841752D01*
X167691988Y-67782042D01*
X167691989Y-67782042D01*
X167436999Y-67761975D01*
X167182010Y-67782042D01*
X166933297Y-67841752D01*
X166696987Y-67939634D01*
X166696984Y-67939636D01*
X166478897Y-68073280D01*
X166475087Y-68076534D01*
X167038390Y-68639838D01*
X166919569Y-68711331D01*
X166785342Y-68838477D01*
X166682138Y-68990691D01*
X166121534Y-68430087D01*
X166118280Y-68433897D01*
X165984636Y-68651984D01*
X165984634Y-68651987D01*
X165886752Y-68888297D01*
X165827042Y-69137010D01*
X165806975Y-69392000D01*
X163987024Y-69392000D01*
X163966957Y-69137010D01*
X163907247Y-68888297D01*
X163809365Y-68651987D01*
X163809363Y-68651984D01*
X163675719Y-68433898D01*
X163675712Y-68433888D01*
X163672465Y-68430087D01*
X163672464Y-68430087D01*
X163108232Y-68994319D01*
X163064684Y-68912178D01*
X162944991Y-68771265D01*
X162797805Y-68659377D01*
X162755596Y-68639849D01*
X163318911Y-68076535D01*
X163318911Y-68076533D01*
X163315110Y-68073286D01*
X163315095Y-68073275D01*
X163097015Y-67939636D01*
X163097012Y-67939634D01*
X162860702Y-67841752D01*
X162611988Y-67782042D01*
X162611989Y-67782042D01*
X162356999Y-67761975D01*
X162102010Y-67782042D01*
X161853297Y-67841752D01*
X161616987Y-67939634D01*
X161616984Y-67939636D01*
X161398897Y-68073280D01*
X161395087Y-68076534D01*
X161958391Y-68639837D01*
X161839569Y-68711331D01*
X161705342Y-68838477D01*
X161602139Y-68990690D01*
X161041534Y-68430087D01*
X161038280Y-68433897D01*
X160904636Y-68651984D01*
X160904634Y-68651987D01*
X160806752Y-68888297D01*
X160747042Y-69137010D01*
X160726975Y-69392000D01*
X140948531Y-69392000D01*
X141069433Y-69194704D01*
X141161323Y-68972863D01*
X141217377Y-68739379D01*
X141236217Y-68500000D01*
X141217377Y-68260621D01*
X141161323Y-68027137D01*
X141084534Y-67841752D01*
X141069434Y-67805297D01*
X140943973Y-67600563D01*
X140943972Y-67600561D01*
X140788027Y-67417973D01*
X140605439Y-67262028D01*
X140605436Y-67262026D01*
X140400702Y-67136565D01*
X140178865Y-67044678D01*
X140178867Y-67044678D01*
X140178863Y-67044677D01*
X140178859Y-67044676D01*
X140178853Y-67044674D01*
X139945382Y-66988623D01*
X139706000Y-66969783D01*
X139466617Y-66988623D01*
X139233146Y-67044674D01*
X139233134Y-67044678D01*
X139011297Y-67136565D01*
X138806563Y-67262026D01*
X138623973Y-67417973D01*
X138468026Y-67600563D01*
X138342565Y-67805297D01*
X138250678Y-68027134D01*
X138250674Y-68027146D01*
X138194623Y-68260617D01*
X138175783Y-68499999D01*
X110180217Y-68499999D01*
X110161377Y-68260621D01*
X110105323Y-68027137D01*
X110028534Y-67841752D01*
X110013434Y-67805297D01*
X109887973Y-67600563D01*
X109887972Y-67600561D01*
X109732027Y-67417973D01*
X109549439Y-67262028D01*
X109549436Y-67262026D01*
X109344702Y-67136565D01*
X109122865Y-67044678D01*
X109122867Y-67044678D01*
X109122863Y-67044677D01*
X109122859Y-67044676D01*
X109122853Y-67044674D01*
X108889382Y-66988623D01*
X108650000Y-66969783D01*
X108410617Y-66988623D01*
X108177146Y-67044674D01*
X108177134Y-67044678D01*
X107955297Y-67136565D01*
X107750563Y-67262026D01*
X107567973Y-67417973D01*
X107412026Y-67600563D01*
X107286565Y-67805297D01*
X107194678Y-68027134D01*
X107194674Y-68027146D01*
X107138623Y-68260617D01*
X107119783Y-68500000D01*
X71916709Y-68500000D01*
X71917294Y-65960000D01*
X104479975Y-65960000D01*
X104500042Y-66214989D01*
X104559752Y-66463702D01*
X104657634Y-66700012D01*
X104657636Y-66700015D01*
X104791275Y-66918095D01*
X104791286Y-66918110D01*
X104794533Y-66921911D01*
X104794535Y-66921911D01*
X105358766Y-66357679D01*
X105402316Y-66439822D01*
X105522009Y-66580735D01*
X105669195Y-66692623D01*
X105711402Y-66712150D01*
X105148087Y-67275464D01*
X105148087Y-67275465D01*
X105151888Y-67278712D01*
X105151898Y-67278719D01*
X105369984Y-67412363D01*
X105369987Y-67412365D01*
X105606297Y-67510247D01*
X105855011Y-67569957D01*
X105855010Y-67569957D01*
X106110000Y-67590024D01*
X106364989Y-67569957D01*
X106613702Y-67510247D01*
X106850012Y-67412365D01*
X106850015Y-67412363D01*
X107068103Y-67278719D01*
X107071912Y-67275464D01*
X106508609Y-66712161D01*
X106627431Y-66640669D01*
X106761658Y-66513523D01*
X106864861Y-66361309D01*
X107425464Y-66921912D01*
X107428719Y-66918103D01*
X107562363Y-66700015D01*
X107562365Y-66700012D01*
X107660247Y-66463702D01*
X107719957Y-66214989D01*
X107740024Y-65960000D01*
X109559975Y-65960000D01*
X109580042Y-66214989D01*
X109639752Y-66463702D01*
X109737634Y-66700012D01*
X109737636Y-66700015D01*
X109871275Y-66918095D01*
X109871286Y-66918110D01*
X109874533Y-66921911D01*
X109874535Y-66921911D01*
X110438766Y-66357679D01*
X110482316Y-66439822D01*
X110602009Y-66580735D01*
X110749195Y-66692623D01*
X110791402Y-66712150D01*
X110228087Y-67275464D01*
X110228087Y-67275465D01*
X110231888Y-67278712D01*
X110231898Y-67278719D01*
X110449984Y-67412363D01*
X110449987Y-67412365D01*
X110686297Y-67510247D01*
X110935011Y-67569957D01*
X110935010Y-67569957D01*
X111190000Y-67590024D01*
X111444989Y-67569957D01*
X111693702Y-67510247D01*
X111930012Y-67412365D01*
X111930015Y-67412363D01*
X112148103Y-67278719D01*
X112151912Y-67275464D01*
X111588609Y-66712161D01*
X111707431Y-66640669D01*
X111841658Y-66513523D01*
X111944861Y-66361308D01*
X112505464Y-66921912D01*
X112508719Y-66918103D01*
X112642363Y-66700015D01*
X112642365Y-66700012D01*
X112740247Y-66463702D01*
X112799957Y-66214989D01*
X112820024Y-65960000D01*
X135535975Y-65960000D01*
X135556042Y-66214989D01*
X135615752Y-66463702D01*
X135713634Y-66700012D01*
X135713636Y-66700015D01*
X135847275Y-66918095D01*
X135847286Y-66918110D01*
X135850533Y-66921911D01*
X135850535Y-66921911D01*
X136414766Y-66357678D01*
X136458316Y-66439822D01*
X136578009Y-66580735D01*
X136725195Y-66692623D01*
X136767402Y-66712150D01*
X136204087Y-67275464D01*
X136204087Y-67275465D01*
X136207888Y-67278712D01*
X136207898Y-67278719D01*
X136425984Y-67412363D01*
X136425987Y-67412365D01*
X136662297Y-67510247D01*
X136911011Y-67569957D01*
X136911010Y-67569957D01*
X137166000Y-67590024D01*
X137420989Y-67569957D01*
X137669702Y-67510247D01*
X137906012Y-67412365D01*
X137906015Y-67412363D01*
X138124103Y-67278719D01*
X138127912Y-67275464D01*
X137564609Y-66712161D01*
X137683431Y-66640669D01*
X137817658Y-66513523D01*
X137920861Y-66361309D01*
X138481464Y-66921912D01*
X138484719Y-66918103D01*
X138618363Y-66700015D01*
X138618365Y-66700012D01*
X138716247Y-66463702D01*
X138775957Y-66214989D01*
X138796024Y-65960000D01*
X140615975Y-65960000D01*
X140636042Y-66214989D01*
X140695752Y-66463702D01*
X140793634Y-66700012D01*
X140793636Y-66700015D01*
X140927275Y-66918095D01*
X140927286Y-66918110D01*
X140930533Y-66921911D01*
X140930535Y-66921911D01*
X141494766Y-66357679D01*
X141538316Y-66439822D01*
X141658009Y-66580735D01*
X141805195Y-66692623D01*
X141847402Y-66712150D01*
X141284087Y-67275464D01*
X141284087Y-67275465D01*
X141287888Y-67278712D01*
X141287898Y-67278719D01*
X141505984Y-67412363D01*
X141505987Y-67412365D01*
X141742297Y-67510247D01*
X141991011Y-67569957D01*
X141991010Y-67569957D01*
X142246000Y-67590024D01*
X142500989Y-67569957D01*
X142749702Y-67510247D01*
X142986012Y-67412365D01*
X142986015Y-67412363D01*
X143204103Y-67278719D01*
X143207912Y-67275464D01*
X142644609Y-66712161D01*
X142763431Y-66640669D01*
X142897658Y-66513523D01*
X143000861Y-66361308D01*
X143561464Y-66921912D01*
X143564719Y-66918103D01*
X143698363Y-66700015D01*
X143698365Y-66700012D01*
X143796247Y-66463702D01*
X143855957Y-66214989D01*
X143876024Y-65960000D01*
X143855957Y-65705010D01*
X143796247Y-65456297D01*
X143698365Y-65219987D01*
X143698363Y-65219984D01*
X143564719Y-65001898D01*
X143564712Y-65001888D01*
X143561465Y-64998087D01*
X143561464Y-64998087D01*
X142997232Y-65562319D01*
X142953684Y-65480178D01*
X142833991Y-65339265D01*
X142686805Y-65227377D01*
X142644596Y-65207849D01*
X143207911Y-64644535D01*
X143207911Y-64644533D01*
X143204110Y-64641286D01*
X143204095Y-64641275D01*
X142986015Y-64507636D01*
X142986012Y-64507634D01*
X142749702Y-64409752D01*
X142500988Y-64350042D01*
X142500989Y-64350042D01*
X142246000Y-64329975D01*
X141991010Y-64350042D01*
X141742297Y-64409752D01*
X141505987Y-64507634D01*
X141505984Y-64507636D01*
X141287897Y-64641280D01*
X141284087Y-64644534D01*
X141847391Y-65207837D01*
X141728569Y-65279331D01*
X141594342Y-65406477D01*
X141491138Y-65558691D01*
X140930534Y-64998087D01*
X140927280Y-65001897D01*
X140793636Y-65219984D01*
X140793634Y-65219987D01*
X140695752Y-65456297D01*
X140636042Y-65705010D01*
X140615975Y-65960000D01*
X138796024Y-65960000D01*
X138775957Y-65705010D01*
X138716247Y-65456297D01*
X138618365Y-65219987D01*
X138618363Y-65219984D01*
X138484719Y-65001898D01*
X138484712Y-65001888D01*
X138481465Y-64998087D01*
X138481464Y-64998087D01*
X137917232Y-65562319D01*
X137873684Y-65480178D01*
X137753991Y-65339265D01*
X137606805Y-65227377D01*
X137564596Y-65207849D01*
X138127911Y-64644535D01*
X138127911Y-64644533D01*
X138124110Y-64641286D01*
X138124095Y-64641275D01*
X137906015Y-64507636D01*
X137906012Y-64507634D01*
X137669702Y-64409752D01*
X137420988Y-64350042D01*
X137420989Y-64350042D01*
X137166000Y-64329975D01*
X136911010Y-64350042D01*
X136662297Y-64409752D01*
X136425987Y-64507634D01*
X136425984Y-64507636D01*
X136207897Y-64641280D01*
X136204087Y-64644534D01*
X136767391Y-65207837D01*
X136648569Y-65279331D01*
X136514342Y-65406477D01*
X136411138Y-65558691D01*
X135850534Y-64998087D01*
X135847280Y-65001897D01*
X135713636Y-65219984D01*
X135713634Y-65219987D01*
X135615752Y-65456297D01*
X135556042Y-65705010D01*
X135535975Y-65960000D01*
X112820024Y-65960000D01*
X112799957Y-65705010D01*
X112740247Y-65456297D01*
X112642365Y-65219987D01*
X112642363Y-65219984D01*
X112508719Y-65001898D01*
X112508712Y-65001888D01*
X112505465Y-64998087D01*
X112505464Y-64998087D01*
X111941232Y-65562318D01*
X111897684Y-65480178D01*
X111777991Y-65339265D01*
X111630805Y-65227377D01*
X111588597Y-65207849D01*
X112151911Y-64644535D01*
X112151911Y-64644533D01*
X112148110Y-64641286D01*
X112148095Y-64641275D01*
X111930015Y-64507636D01*
X111930012Y-64507634D01*
X111693702Y-64409752D01*
X111444988Y-64350042D01*
X111444989Y-64350042D01*
X111190000Y-64329975D01*
X110935010Y-64350042D01*
X110686297Y-64409752D01*
X110449987Y-64507634D01*
X110449984Y-64507636D01*
X110231897Y-64641280D01*
X110228087Y-64644534D01*
X110791390Y-65207837D01*
X110672569Y-65279331D01*
X110538342Y-65406477D01*
X110435138Y-65558691D01*
X109874534Y-64998087D01*
X109871280Y-65001897D01*
X109737636Y-65219984D01*
X109737634Y-65219987D01*
X109639752Y-65456297D01*
X109580042Y-65705010D01*
X109559975Y-65960000D01*
X107740024Y-65960000D01*
X107719957Y-65705010D01*
X107660247Y-65456297D01*
X107562365Y-65219987D01*
X107562363Y-65219984D01*
X107428719Y-65001898D01*
X107428712Y-65001888D01*
X107425465Y-64998087D01*
X107425464Y-64998087D01*
X106861232Y-65562318D01*
X106817684Y-65480178D01*
X106697991Y-65339265D01*
X106550805Y-65227377D01*
X106508596Y-65207849D01*
X107071911Y-64644535D01*
X107071911Y-64644533D01*
X107068110Y-64641286D01*
X107068095Y-64641275D01*
X106850015Y-64507636D01*
X106850012Y-64507634D01*
X106613702Y-64409752D01*
X106364988Y-64350042D01*
X106364989Y-64350042D01*
X106110000Y-64329975D01*
X105855010Y-64350042D01*
X105606297Y-64409752D01*
X105369987Y-64507634D01*
X105369984Y-64507636D01*
X105151897Y-64641280D01*
X105148087Y-64644534D01*
X105711390Y-65207838D01*
X105592569Y-65279331D01*
X105458342Y-65406477D01*
X105355138Y-65558691D01*
X104794534Y-64998087D01*
X104791280Y-65001897D01*
X104657636Y-65219984D01*
X104657634Y-65219987D01*
X104559752Y-65456297D01*
X104500042Y-65705010D01*
X104479975Y-65960000D01*
X71917294Y-65960000D01*
X71918082Y-62540000D01*
X114329975Y-62540000D01*
X114350042Y-62794989D01*
X114409752Y-63043702D01*
X114507634Y-63280012D01*
X114507636Y-63280015D01*
X114641275Y-63498095D01*
X114641286Y-63498110D01*
X114644533Y-63501911D01*
X114644535Y-63501911D01*
X115208766Y-62937679D01*
X115252316Y-63019822D01*
X115372009Y-63160735D01*
X115519195Y-63272623D01*
X115561402Y-63292150D01*
X114998087Y-63855464D01*
X114998087Y-63855465D01*
X115001888Y-63858712D01*
X115001898Y-63858719D01*
X115219984Y-63992363D01*
X115219987Y-63992365D01*
X115456297Y-64090247D01*
X115705011Y-64149957D01*
X115705010Y-64149957D01*
X115959999Y-64170024D01*
X116214989Y-64149957D01*
X116463702Y-64090247D01*
X116700012Y-63992365D01*
X116700015Y-63992363D01*
X116918103Y-63858719D01*
X116921912Y-63855464D01*
X116358609Y-63292161D01*
X116477431Y-63220669D01*
X116611658Y-63093523D01*
X116714861Y-62941308D01*
X117275464Y-63501912D01*
X117278719Y-63498103D01*
X117412363Y-63280015D01*
X117412365Y-63280012D01*
X117510247Y-63043702D01*
X117569957Y-62794989D01*
X117590024Y-62540000D01*
X119409975Y-62540000D01*
X119430042Y-62794989D01*
X119489752Y-63043702D01*
X119587634Y-63280012D01*
X119587636Y-63280015D01*
X119721275Y-63498095D01*
X119721286Y-63498110D01*
X119724533Y-63501911D01*
X119724535Y-63501911D01*
X120288766Y-62937679D01*
X120332316Y-63019822D01*
X120452009Y-63160735D01*
X120599195Y-63272623D01*
X120641402Y-63292150D01*
X120078087Y-63855464D01*
X120078087Y-63855465D01*
X120081888Y-63858712D01*
X120081898Y-63858719D01*
X120299984Y-63992363D01*
X120299987Y-63992365D01*
X120536297Y-64090247D01*
X120785011Y-64149957D01*
X120785010Y-64149957D01*
X121039999Y-64170024D01*
X121294989Y-64149957D01*
X121543702Y-64090247D01*
X121780012Y-63992365D01*
X121780015Y-63992363D01*
X121998103Y-63858719D01*
X122001912Y-63855464D01*
X121438609Y-63292161D01*
X121557431Y-63220669D01*
X121691658Y-63093523D01*
X121794861Y-62941309D01*
X122355464Y-63501912D01*
X122358719Y-63498103D01*
X122492363Y-63280015D01*
X122492365Y-63280012D01*
X122590247Y-63043702D01*
X122649957Y-62794989D01*
X122670024Y-62540000D01*
X125839975Y-62540000D01*
X125860042Y-62794989D01*
X125919752Y-63043702D01*
X126017634Y-63280012D01*
X126017636Y-63280015D01*
X126151275Y-63498095D01*
X126151286Y-63498110D01*
X126154533Y-63501911D01*
X126154535Y-63501911D01*
X126718766Y-62937679D01*
X126762316Y-63019822D01*
X126882009Y-63160735D01*
X127029195Y-63272623D01*
X127071402Y-63292150D01*
X126508087Y-63855464D01*
X126508087Y-63855465D01*
X126511888Y-63858712D01*
X126511898Y-63858719D01*
X126729984Y-63992363D01*
X126729987Y-63992365D01*
X126966297Y-64090247D01*
X127215011Y-64149957D01*
X127215010Y-64149957D01*
X127469999Y-64170024D01*
X127724989Y-64149957D01*
X127973702Y-64090247D01*
X128210012Y-63992365D01*
X128210015Y-63992363D01*
X128428103Y-63858719D01*
X128431912Y-63855464D01*
X127868609Y-63292161D01*
X127987431Y-63220669D01*
X128121658Y-63093523D01*
X128224861Y-62941308D01*
X128785464Y-63501912D01*
X128788719Y-63498103D01*
X128922363Y-63280015D01*
X128922365Y-63280012D01*
X129020247Y-63043702D01*
X129079957Y-62794989D01*
X129100024Y-62540000D01*
X130919975Y-62540000D01*
X130940042Y-62794989D01*
X130999752Y-63043702D01*
X131097634Y-63280012D01*
X131097636Y-63280015D01*
X131231275Y-63498095D01*
X131231286Y-63498110D01*
X131234533Y-63501911D01*
X131234535Y-63501911D01*
X131798766Y-62937678D01*
X131842316Y-63019822D01*
X131962009Y-63160735D01*
X132109195Y-63272623D01*
X132151402Y-63292150D01*
X131588087Y-63855464D01*
X131588087Y-63855465D01*
X131591888Y-63858712D01*
X131591898Y-63858719D01*
X131809984Y-63992363D01*
X131809987Y-63992365D01*
X132046297Y-64090247D01*
X132295011Y-64149957D01*
X132295010Y-64149957D01*
X132549999Y-64170024D01*
X132804989Y-64149957D01*
X133053702Y-64090247D01*
X133290012Y-63992365D01*
X133290015Y-63992363D01*
X133508103Y-63858719D01*
X133511912Y-63855464D01*
X132948609Y-63292161D01*
X133067431Y-63220669D01*
X133201658Y-63093523D01*
X133304861Y-62941309D01*
X133865464Y-63501912D01*
X133868719Y-63498103D01*
X134002363Y-63280015D01*
X134002365Y-63280012D01*
X134100247Y-63043702D01*
X134159957Y-62794989D01*
X134180024Y-62540000D01*
X134159957Y-62285010D01*
X134100247Y-62036297D01*
X134002365Y-61799987D01*
X134002363Y-61799984D01*
X133868719Y-61581898D01*
X133868712Y-61581888D01*
X133865465Y-61578087D01*
X133865464Y-61578087D01*
X133301232Y-62142319D01*
X133257684Y-62060178D01*
X133137991Y-61919265D01*
X132990805Y-61807377D01*
X132948596Y-61787849D01*
X133511911Y-61224535D01*
X133511911Y-61224533D01*
X133508110Y-61221286D01*
X133508095Y-61221275D01*
X133290015Y-61087636D01*
X133290012Y-61087634D01*
X133053702Y-60989752D01*
X132804988Y-60930042D01*
X132804989Y-60930042D01*
X132549999Y-60909975D01*
X132295010Y-60930042D01*
X132046297Y-60989752D01*
X131809987Y-61087634D01*
X131809984Y-61087636D01*
X131591897Y-61221280D01*
X131588087Y-61224534D01*
X132151391Y-61787837D01*
X132032569Y-61859331D01*
X131898342Y-61986477D01*
X131795138Y-62138691D01*
X131234534Y-61578087D01*
X131231280Y-61581897D01*
X131097636Y-61799984D01*
X131097634Y-61799987D01*
X130999752Y-62036297D01*
X130940042Y-62285010D01*
X130919975Y-62540000D01*
X129100024Y-62540000D01*
X129079957Y-62285010D01*
X129020247Y-62036297D01*
X128922365Y-61799987D01*
X128922363Y-61799984D01*
X128788719Y-61581898D01*
X128788712Y-61581888D01*
X128785465Y-61578087D01*
X128785464Y-61578087D01*
X128221232Y-62142319D01*
X128177684Y-62060178D01*
X128057991Y-61919265D01*
X127910805Y-61807377D01*
X127868597Y-61787849D01*
X128431911Y-61224535D01*
X128431911Y-61224533D01*
X128428110Y-61221286D01*
X128428095Y-61221275D01*
X128210015Y-61087636D01*
X128210012Y-61087634D01*
X127973702Y-60989752D01*
X127724988Y-60930042D01*
X127724989Y-60930042D01*
X127469999Y-60909975D01*
X127215010Y-60930042D01*
X126966297Y-60989752D01*
X126729987Y-61087634D01*
X126729984Y-61087636D01*
X126511897Y-61221280D01*
X126508087Y-61224534D01*
X127071390Y-61787837D01*
X126952569Y-61859331D01*
X126818342Y-61986477D01*
X126715138Y-62138691D01*
X126154534Y-61578087D01*
X126151280Y-61581897D01*
X126017636Y-61799984D01*
X126017634Y-61799987D01*
X125919752Y-62036297D01*
X125860042Y-62285010D01*
X125839975Y-62540000D01*
X122670024Y-62540000D01*
X122649957Y-62285010D01*
X122590247Y-62036297D01*
X122492365Y-61799987D01*
X122492363Y-61799984D01*
X122358719Y-61581898D01*
X122358712Y-61581888D01*
X122355465Y-61578087D01*
X122355464Y-61578087D01*
X121791232Y-62142319D01*
X121747684Y-62060178D01*
X121627991Y-61919265D01*
X121480805Y-61807377D01*
X121438596Y-61787849D01*
X122001911Y-61224535D01*
X122001911Y-61224533D01*
X121998110Y-61221286D01*
X121998095Y-61221275D01*
X121780015Y-61087636D01*
X121780012Y-61087634D01*
X121543702Y-60989752D01*
X121294988Y-60930042D01*
X121294989Y-60930042D01*
X121039999Y-60909975D01*
X120785010Y-60930042D01*
X120536297Y-60989752D01*
X120299987Y-61087634D01*
X120299984Y-61087636D01*
X120081897Y-61221280D01*
X120078087Y-61224534D01*
X120641391Y-61787837D01*
X120522569Y-61859331D01*
X120388342Y-61986477D01*
X120285139Y-62138690D01*
X119724534Y-61578087D01*
X119721280Y-61581897D01*
X119587636Y-61799984D01*
X119587634Y-61799987D01*
X119489752Y-62036297D01*
X119430042Y-62285010D01*
X119409975Y-62540000D01*
X117590024Y-62540000D01*
X117569957Y-62285010D01*
X117510247Y-62036297D01*
X117412365Y-61799987D01*
X117412363Y-61799984D01*
X117278719Y-61581898D01*
X117278712Y-61581888D01*
X117275465Y-61578087D01*
X117275464Y-61578087D01*
X116711232Y-62142318D01*
X116667684Y-62060178D01*
X116547991Y-61919265D01*
X116400805Y-61807377D01*
X116358596Y-61787849D01*
X116921911Y-61224535D01*
X116921911Y-61224533D01*
X116918110Y-61221286D01*
X116918095Y-61221275D01*
X116700015Y-61087636D01*
X116700012Y-61087634D01*
X116463702Y-60989752D01*
X116214988Y-60930042D01*
X116214989Y-60930042D01*
X115959999Y-60909975D01*
X115705010Y-60930042D01*
X115456297Y-60989752D01*
X115219987Y-61087634D01*
X115219984Y-61087636D01*
X115001897Y-61221280D01*
X114998087Y-61224534D01*
X115561391Y-61787837D01*
X115442569Y-61859331D01*
X115308342Y-61986477D01*
X115205139Y-62138690D01*
X114644534Y-61578087D01*
X114641280Y-61581897D01*
X114507636Y-61799984D01*
X114507634Y-61799987D01*
X114409752Y-62036297D01*
X114350042Y-62285010D01*
X114329975Y-62540000D01*
X71918082Y-62540000D01*
X71918668Y-59999999D01*
X116969783Y-59999999D01*
X116988623Y-60239382D01*
X117044674Y-60472853D01*
X117044678Y-60472865D01*
X117136565Y-60694702D01*
X117262026Y-60899436D01*
X117262028Y-60899439D01*
X117417973Y-61082027D01*
X117600561Y-61237972D01*
X117600563Y-61237973D01*
X117805297Y-61363434D01*
X117902047Y-61403508D01*
X118027137Y-61455323D01*
X118260621Y-61511377D01*
X118500000Y-61530217D01*
X118739379Y-61511377D01*
X118972863Y-61455323D01*
X119194704Y-61363433D01*
X119399439Y-61237972D01*
X119582027Y-61082027D01*
X119737972Y-60899439D01*
X119863433Y-60694704D01*
X119955323Y-60472863D01*
X120011377Y-60239379D01*
X120030217Y-60000000D01*
X120030217Y-59999999D01*
X128479783Y-59999999D01*
X128498623Y-60239382D01*
X128554674Y-60472853D01*
X128554678Y-60472865D01*
X128646565Y-60694702D01*
X128772026Y-60899436D01*
X128772028Y-60899439D01*
X128927973Y-61082027D01*
X129110561Y-61237972D01*
X129110563Y-61237973D01*
X129315297Y-61363434D01*
X129412047Y-61403508D01*
X129537137Y-61455323D01*
X129770621Y-61511377D01*
X130010000Y-61530217D01*
X130249379Y-61511377D01*
X130482863Y-61455323D01*
X130704704Y-61363433D01*
X130909439Y-61237972D01*
X131092027Y-61082027D01*
X131247972Y-60899439D01*
X131373433Y-60694704D01*
X131465323Y-60472863D01*
X131521377Y-60239379D01*
X131540217Y-60000000D01*
X131521377Y-59760621D01*
X131465323Y-59527137D01*
X131413508Y-59402047D01*
X131373434Y-59305297D01*
X131247973Y-59100563D01*
X131247972Y-59100561D01*
X131092027Y-58917973D01*
X130909439Y-58762028D01*
X130909436Y-58762026D01*
X130704702Y-58636565D01*
X130482865Y-58544678D01*
X130482867Y-58544678D01*
X130482863Y-58544677D01*
X130482859Y-58544676D01*
X130482853Y-58544674D01*
X130249382Y-58488623D01*
X130010000Y-58469783D01*
X129770617Y-58488623D01*
X129537146Y-58544674D01*
X129537134Y-58544678D01*
X129315297Y-58636565D01*
X129110563Y-58762026D01*
X128927973Y-58917973D01*
X128772026Y-59100563D01*
X128646565Y-59305297D01*
X128554678Y-59527134D01*
X128554674Y-59527146D01*
X128498623Y-59760617D01*
X128479783Y-59999999D01*
X120030217Y-59999999D01*
X120011377Y-59760621D01*
X119955323Y-59527137D01*
X119903508Y-59402047D01*
X119863434Y-59305297D01*
X119737973Y-59100563D01*
X119737972Y-59100561D01*
X119582027Y-58917973D01*
X119399439Y-58762028D01*
X119399436Y-58762026D01*
X119194702Y-58636565D01*
X118972865Y-58544678D01*
X118972867Y-58544678D01*
X118972863Y-58544677D01*
X118972859Y-58544676D01*
X118972853Y-58544674D01*
X118739382Y-58488623D01*
X118500000Y-58469783D01*
X118260617Y-58488623D01*
X118027146Y-58544674D01*
X118027134Y-58544678D01*
X117805297Y-58636565D01*
X117600563Y-58762026D01*
X117417973Y-58917973D01*
X117262026Y-59100563D01*
X117136565Y-59305297D01*
X117044678Y-59527134D01*
X117044674Y-59527146D01*
X116988623Y-59760617D01*
X116969783Y-59999999D01*
X71918668Y-59999999D01*
X71919253Y-57460000D01*
X114329975Y-57460000D01*
X114350042Y-57714989D01*
X114409752Y-57963702D01*
X114507634Y-58200012D01*
X114507636Y-58200015D01*
X114641275Y-58418095D01*
X114641286Y-58418110D01*
X114644533Y-58421911D01*
X114644535Y-58421911D01*
X115208766Y-57857679D01*
X115252316Y-57939822D01*
X115372009Y-58080735D01*
X115519195Y-58192623D01*
X115561402Y-58212150D01*
X114998087Y-58775464D01*
X114998087Y-58775465D01*
X115001888Y-58778712D01*
X115001898Y-58778719D01*
X115219984Y-58912363D01*
X115219987Y-58912365D01*
X115456297Y-59010247D01*
X115705011Y-59069957D01*
X115705010Y-59069957D01*
X115960000Y-59090024D01*
X116214989Y-59069957D01*
X116463702Y-59010247D01*
X116700012Y-58912365D01*
X116700015Y-58912363D01*
X116918103Y-58778719D01*
X116921912Y-58775464D01*
X116358609Y-58212161D01*
X116477431Y-58140669D01*
X116611658Y-58013523D01*
X116714861Y-57861309D01*
X117275464Y-58421912D01*
X117278719Y-58418103D01*
X117412363Y-58200015D01*
X117412365Y-58200012D01*
X117510247Y-57963702D01*
X117569957Y-57714989D01*
X117590024Y-57460000D01*
X119409975Y-57460000D01*
X119430042Y-57714989D01*
X119489752Y-57963702D01*
X119587634Y-58200012D01*
X119587636Y-58200015D01*
X119721275Y-58418095D01*
X119721286Y-58418110D01*
X119724533Y-58421911D01*
X119724535Y-58421911D01*
X120288766Y-57857679D01*
X120332316Y-57939822D01*
X120452009Y-58080735D01*
X120599195Y-58192623D01*
X120641402Y-58212150D01*
X120078087Y-58775464D01*
X120078087Y-58775465D01*
X120081888Y-58778712D01*
X120081898Y-58778719D01*
X120299984Y-58912363D01*
X120299987Y-58912365D01*
X120536297Y-59010247D01*
X120785011Y-59069957D01*
X120785010Y-59069957D01*
X121040000Y-59090024D01*
X121294989Y-59069957D01*
X121543702Y-59010247D01*
X121780012Y-58912365D01*
X121780015Y-58912363D01*
X121998103Y-58778719D01*
X122001912Y-58775464D01*
X121438609Y-58212161D01*
X121557431Y-58140669D01*
X121691658Y-58013523D01*
X121794861Y-57861309D01*
X122355464Y-58421912D01*
X122358719Y-58418103D01*
X122492363Y-58200015D01*
X122492365Y-58200012D01*
X122590247Y-57963702D01*
X122649957Y-57714989D01*
X122670024Y-57460000D01*
X125839975Y-57460000D01*
X125860042Y-57714989D01*
X125919752Y-57963702D01*
X126017634Y-58200012D01*
X126017636Y-58200015D01*
X126151275Y-58418095D01*
X126151286Y-58418110D01*
X126154533Y-58421911D01*
X126154535Y-58421911D01*
X126718766Y-57857679D01*
X126762316Y-57939822D01*
X126882009Y-58080735D01*
X127029195Y-58192623D01*
X127071402Y-58212150D01*
X126508087Y-58775464D01*
X126508087Y-58775465D01*
X126511888Y-58778712D01*
X126511898Y-58778719D01*
X126729984Y-58912363D01*
X126729987Y-58912365D01*
X126966297Y-59010247D01*
X127215011Y-59069957D01*
X127215010Y-59069957D01*
X127470000Y-59090024D01*
X127724989Y-59069957D01*
X127973702Y-59010247D01*
X128210012Y-58912365D01*
X128210015Y-58912363D01*
X128428103Y-58778719D01*
X128431912Y-58775464D01*
X127868609Y-58212161D01*
X127987431Y-58140669D01*
X128121658Y-58013523D01*
X128224860Y-57861309D01*
X128785464Y-58421912D01*
X128788719Y-58418103D01*
X128922363Y-58200015D01*
X128922365Y-58200012D01*
X129020247Y-57963702D01*
X129079957Y-57714989D01*
X129100024Y-57460000D01*
X130919975Y-57460000D01*
X130940042Y-57714989D01*
X130999752Y-57963702D01*
X131097634Y-58200012D01*
X131097636Y-58200015D01*
X131231275Y-58418095D01*
X131231286Y-58418110D01*
X131234533Y-58421911D01*
X131234535Y-58421911D01*
X131798766Y-57857679D01*
X131842316Y-57939822D01*
X131962009Y-58080735D01*
X132109195Y-58192623D01*
X132151402Y-58212150D01*
X131588087Y-58775464D01*
X131588087Y-58775465D01*
X131591888Y-58778712D01*
X131591898Y-58778719D01*
X131809984Y-58912363D01*
X131809987Y-58912365D01*
X132046297Y-59010247D01*
X132295011Y-59069957D01*
X132295010Y-59069957D01*
X132550000Y-59090024D01*
X132804989Y-59069957D01*
X133053702Y-59010247D01*
X133290012Y-58912365D01*
X133290015Y-58912363D01*
X133508103Y-58778719D01*
X133511912Y-58775464D01*
X132948609Y-58212161D01*
X133067431Y-58140669D01*
X133201658Y-58013523D01*
X133304861Y-57861309D01*
X133865464Y-58421912D01*
X133868719Y-58418103D01*
X134002363Y-58200015D01*
X134002365Y-58200012D01*
X134100247Y-57963702D01*
X134159957Y-57714989D01*
X134180024Y-57460000D01*
X134159957Y-57205010D01*
X134100247Y-56956297D01*
X134002365Y-56719987D01*
X134002363Y-56719984D01*
X133868719Y-56501898D01*
X133868712Y-56501888D01*
X133865465Y-56498087D01*
X133865464Y-56498087D01*
X133301232Y-57062319D01*
X133257684Y-56980178D01*
X133137991Y-56839265D01*
X132990805Y-56727377D01*
X132948597Y-56707849D01*
X133511911Y-56144535D01*
X133511911Y-56144533D01*
X133508110Y-56141286D01*
X133508095Y-56141275D01*
X133290015Y-56007636D01*
X133290012Y-56007634D01*
X133053702Y-55909752D01*
X132804988Y-55850042D01*
X132804989Y-55850042D01*
X132550000Y-55829975D01*
X132295010Y-55850042D01*
X132046297Y-55909752D01*
X131809987Y-56007634D01*
X131809984Y-56007636D01*
X131591897Y-56141280D01*
X131588087Y-56144534D01*
X132151390Y-56707837D01*
X132032569Y-56779331D01*
X131898342Y-56906477D01*
X131795138Y-57058691D01*
X131234534Y-56498087D01*
X131231280Y-56501897D01*
X131097636Y-56719984D01*
X131097634Y-56719987D01*
X130999752Y-56956297D01*
X130940042Y-57205010D01*
X130919975Y-57460000D01*
X129100024Y-57460000D01*
X129079957Y-57205010D01*
X129020247Y-56956297D01*
X128922365Y-56719987D01*
X128922363Y-56719984D01*
X128788719Y-56501898D01*
X128788712Y-56501888D01*
X128785465Y-56498087D01*
X128785464Y-56498087D01*
X128221232Y-57062319D01*
X128177684Y-56980178D01*
X128057991Y-56839265D01*
X127910805Y-56727377D01*
X127868597Y-56707849D01*
X128431911Y-56144535D01*
X128431911Y-56144533D01*
X128428110Y-56141286D01*
X128428095Y-56141275D01*
X128210015Y-56007636D01*
X128210012Y-56007634D01*
X127973702Y-55909752D01*
X127724988Y-55850042D01*
X127724989Y-55850042D01*
X127470000Y-55829975D01*
X127215010Y-55850042D01*
X126966297Y-55909752D01*
X126729987Y-56007634D01*
X126729984Y-56007636D01*
X126511897Y-56141280D01*
X126508087Y-56144534D01*
X127071390Y-56707837D01*
X126952569Y-56779331D01*
X126818342Y-56906477D01*
X126715138Y-57058691D01*
X126154534Y-56498087D01*
X126151280Y-56501897D01*
X126017636Y-56719984D01*
X126017634Y-56719987D01*
X125919752Y-56956297D01*
X125860042Y-57205010D01*
X125839975Y-57460000D01*
X122670024Y-57460000D01*
X122649957Y-57205010D01*
X122590247Y-56956297D01*
X122492365Y-56719987D01*
X122492363Y-56719984D01*
X122358719Y-56501898D01*
X122358712Y-56501888D01*
X122355465Y-56498087D01*
X122355464Y-56498087D01*
X121791232Y-57062319D01*
X121747684Y-56980178D01*
X121627991Y-56839265D01*
X121480805Y-56727377D01*
X121438596Y-56707849D01*
X122001911Y-56144535D01*
X122001911Y-56144533D01*
X121998110Y-56141286D01*
X121998095Y-56141275D01*
X121780015Y-56007636D01*
X121780012Y-56007634D01*
X121543702Y-55909752D01*
X121294988Y-55850042D01*
X121294989Y-55850042D01*
X121040000Y-55829975D01*
X120785010Y-55850042D01*
X120536297Y-55909752D01*
X120299987Y-56007634D01*
X120299984Y-56007636D01*
X120081897Y-56141280D01*
X120078087Y-56144534D01*
X120641390Y-56707838D01*
X120522569Y-56779331D01*
X120388342Y-56906477D01*
X120285139Y-57058690D01*
X119724534Y-56498087D01*
X119721280Y-56501897D01*
X119587636Y-56719984D01*
X119587634Y-56719987D01*
X119489752Y-56956297D01*
X119430042Y-57205010D01*
X119409975Y-57460000D01*
X117590024Y-57460000D01*
X117569957Y-57205010D01*
X117510247Y-56956297D01*
X117412365Y-56719987D01*
X117412363Y-56719984D01*
X117278719Y-56501898D01*
X117278712Y-56501888D01*
X117275465Y-56498087D01*
X117275464Y-56498087D01*
X116711232Y-57062318D01*
X116667684Y-56980178D01*
X116547991Y-56839265D01*
X116400805Y-56727377D01*
X116358596Y-56707849D01*
X116921911Y-56144535D01*
X116921911Y-56144533D01*
X116918110Y-56141286D01*
X116918095Y-56141275D01*
X116700015Y-56007636D01*
X116700012Y-56007634D01*
X116463702Y-55909752D01*
X116214988Y-55850042D01*
X116214989Y-55850042D01*
X115960000Y-55829975D01*
X115705010Y-55850042D01*
X115456297Y-55909752D01*
X115219987Y-56007634D01*
X115219984Y-56007636D01*
X115001897Y-56141280D01*
X114998087Y-56144534D01*
X115561391Y-56707837D01*
X115442569Y-56779331D01*
X115308342Y-56906477D01*
X115205139Y-57058690D01*
X114644534Y-56498087D01*
X114641280Y-56501897D01*
X114507636Y-56719984D01*
X114507634Y-56719987D01*
X114409752Y-56956297D01*
X114350042Y-57205010D01*
X114329975Y-57460000D01*
X71919253Y-57460000D01*
X71919971Y-54343979D01*
X71939671Y-54276946D01*
X71992486Y-54231204D01*
X72043977Y-54220010D01*
X184766039Y-54229989D01*
G37*
%TD.AperFunction*%
%TD*%
M02*
