M48
; DRILL file {KiCad 7.0.5} date Wed Aug 20 16:29:13 2025
; FORMAT={-:-/ absolute / metric / decimal}
; #@! TF.CreationDate,2025-08-20T16:29:13-04:00
; #@! TF.GenerationSoftware,Kicad,Pcbnew,7.0.5
; #@! TF.FileFunction,Plated,1,2,PTH
FMAT,2
METRIC
; #@! TA.AperFunction,Plated,PTH,ComponentDrill
T1C1.000
; #@! TA.AperFunction,Plated,PTH,ComponentDrill
T2C1.090
; #@! TA.AperFunction,Plated,PTH,ComponentDrill
T3C1.500
; #@! TA.AperFunction,Plated,PTH,ComponentDrill
T4C1.700
%
G90
G05
T1
X93.271Y-73.46
X93.271Y-76.0
X93.271Y-78.54
X95.35Y-108.52
X95.35Y-111.06
X95.35Y-113.6
T2
X84.14Y-70.96
X84.14Y-73.5
T3
X108.65Y-68.5
X118.5Y-60.0
X130.01Y-60.0
X139.706Y-68.5
X164.897Y-71.932
X164.897Y-83.662
X164.897Y-95.511
X164.897Y-107.311
X164.897Y-119.201
X164.897Y-130.811
X177.897Y-77.841
X177.897Y-89.811
X177.897Y-101.511
X177.897Y-113.311
X177.897Y-125.011
X177.897Y-136.6
T4
X106.11Y-65.96
X106.11Y-71.04
X111.19Y-65.96
X111.19Y-71.04
X115.96Y-57.46
X115.96Y-62.54
X121.04Y-57.46
X121.04Y-62.54
X127.47Y-57.46
X127.47Y-62.54
X132.55Y-57.46
X132.55Y-62.54
X137.166Y-65.96
X137.166Y-71.04
X142.246Y-65.96
X142.246Y-71.04
X162.357Y-69.392
X162.357Y-74.472
X162.357Y-81.122
X162.357Y-86.202
X162.357Y-92.971
X162.357Y-98.051
X162.357Y-104.771
X162.357Y-109.851
X162.357Y-116.661
X162.357Y-121.741
X162.357Y-128.271
X162.357Y-133.351
X167.437Y-69.392
X167.437Y-74.472
X167.437Y-81.122
X167.437Y-86.202
X167.437Y-92.971
X167.437Y-98.051
X167.437Y-104.771
X167.437Y-109.851
X167.437Y-116.661
X167.437Y-121.741
X167.437Y-128.271
X167.437Y-133.351
X175.357Y-75.301
X175.357Y-80.381
X175.357Y-87.271
X175.357Y-92.351
X175.357Y-98.971
X175.357Y-104.051
X175.357Y-110.771
X175.357Y-115.851
X175.357Y-122.471
X175.357Y-127.551
X175.357Y-134.06
X175.357Y-139.14
X180.437Y-75.301
X180.437Y-80.381
X180.437Y-87.271
X180.437Y-92.351
X180.437Y-98.971
X180.437Y-104.051
X180.437Y-110.771
X180.437Y-115.851
X180.437Y-122.471
X180.437Y-127.551
X180.437Y-134.06
X180.437Y-139.14
T0
M30
