M48
; DRILL file {KiCad 7.0.10} date Mon Apr 15 16:05:43 2024
; FORMAT={-:-/ absolute / metric / decimal}
; #@! TF.CreationDate,2024-04-15T16:05:43-04:00
; #@! TF.GenerationSoftware,Kicad,Pcbnew,7.0.10
; #@! TF.FileFunction,MixedPlating,1,2
FMAT,2
METRIC
; #@! TA.AperFunction,Plated,PTH,ComponentDrill
T1C1.000
; #@! TA.AperFunction,Plated,PTH,ComponentDrill
T2C1.090
; #@! TA.AperFunction,Plated,PTH,ComponentDrill
T3C1.500
; #@! TA.AperFunction,Plated,PTH,ComponentDrill
T4C1.700
; #@! TA.AperFunction,NonPlated,NPTH,ComponentDrill
T5C3.200
%
G90
G05
T1
X93.271Y-73.46
X93.271Y-76.0
X93.271Y-78.54
X95.35Y-108.52
X95.35Y-111.06
X95.35Y-113.6
T2
X84.14Y-70.96
X84.14Y-73.5
T3
X108.65Y-68.5
X118.5Y-60.0
X130.01Y-60.0
X139.706Y-68.5
X164.9Y-73.121
X164.9Y-84.851
X164.9Y-96.7
X164.9Y-108.5
X164.9Y-120.39
X164.9Y-132.0
X177.9Y-79.03
X177.9Y-91.0
X177.9Y-102.7
X177.9Y-114.5
X177.9Y-126.2
X177.9Y-136.4
T4
X106.11Y-65.96
X106.11Y-71.04
X111.19Y-65.96
X111.19Y-71.04
X115.96Y-57.46
X115.96Y-62.54
X121.04Y-57.46
X121.04Y-62.54
X127.47Y-57.46
X127.47Y-62.54
X132.55Y-57.46
X132.55Y-62.54
X137.166Y-65.96
X137.166Y-71.04
X142.246Y-65.96
X142.246Y-71.04
X162.36Y-70.581
X162.36Y-75.661
X162.36Y-82.311
X162.36Y-87.391
X162.36Y-94.16
X162.36Y-99.24
X162.36Y-105.96
X162.36Y-111.04
X162.36Y-117.85
X162.36Y-122.93
X162.36Y-129.46
X162.36Y-134.54
X167.44Y-70.581
X167.44Y-75.661
X167.44Y-82.311
X167.44Y-87.391
X167.44Y-94.16
X167.44Y-99.24
X167.44Y-105.96
X167.44Y-111.04
X167.44Y-117.85
X167.44Y-122.93
X167.44Y-129.46
X167.44Y-134.54
X175.36Y-76.49
X175.36Y-81.57
X175.36Y-88.46
X175.36Y-93.54
X175.36Y-100.16
X175.36Y-105.24
X175.36Y-111.96
X175.36Y-117.04
X175.36Y-123.66
X175.36Y-128.74
X175.36Y-133.86
X175.36Y-138.94
X180.44Y-76.49
X180.44Y-81.57
X180.44Y-88.46
X180.44Y-93.54
X180.44Y-100.16
X180.44Y-105.24
X180.44Y-111.96
X180.44Y-117.04
X180.44Y-123.66
X180.44Y-128.74
X180.44Y-133.86
X180.44Y-138.94
T5
X3.125Y-3.125
X3.125Y-10.375
X3.125Y-17.625
X3.125Y-24.875
X86.7Y-94.475
X86.7Y-113.525
X151.7Y-97.886
X151.7Y-118.486
M30
